<svg width="187" height="187" viewBox="0 0 187 187" fill="none" xmlns="http://www.w3.org/2000/svg">
<g filter="url(#filter0_dd_521_20166)">
<rect x="7" y="4" width="173" height="173" rx="30" fill="#1B1E32"/>
<path d="M69.1311 123.406C70.4835 121.596 71.3057 119.446 71.5056 117.196C71.7055 114.945 71.2754 112.684 70.2632 110.664C69.251 108.644 67.6968 106.945 65.7744 105.758C63.8521 104.571 61.6373 103.943 59.378 103.943C57.1188 103.943 54.904 104.571 52.9816 105.758C51.0593 106.945 49.5051 108.644 48.4929 110.664C47.4807 112.684 47.0506 114.945 47.2505 117.196C47.4504 119.446 48.2726 121.596 49.625 123.406C46.3151 125.177 43.5472 127.813 41.6157 131.032C39.6843 134.251 38.6615 137.933 38.6562 141.687V145.344H80.1547V141.687C80.1481 137.927 79.1187 134.239 77.1769 131.019C75.235 127.799 72.4538 125.167 69.1311 123.406ZM54.5061 116.094C54.5061 115.132 54.7913 114.192 55.3256 113.392C55.86 112.592 56.6194 111.969 57.508 111.601C58.3966 111.233 59.3743 111.137 60.3176 111.324C61.2609 111.512 62.1274 111.975 62.8074 112.655C63.4875 113.335 63.9506 114.202 64.1383 115.145C64.3259 116.088 64.2296 117.066 63.8616 117.955C63.4935 118.843 62.8702 119.603 62.0705 120.137C61.2709 120.671 60.3307 120.957 59.3689 120.957C58.087 120.942 56.8623 120.424 55.9593 119.514C55.0562 118.604 54.5474 117.376 54.5427 116.094H54.5061ZM46.4806 138.031C47.2743 135.212 48.9674 132.729 51.3022 130.961C53.6371 129.193 56.4857 128.236 59.4146 128.236C62.3435 128.236 65.1922 129.193 67.527 130.961C69.8618 132.729 71.5549 135.212 72.3486 138.031H46.4806ZM98.9844 109.238L108.765 114.887L112.421 108.544L102.641 102.895C102.695 102.549 102.732 102.202 102.75 101.853C102.762 100.044 102.236 98.2724 101.241 96.7625C100.245 95.2525 98.8233 94.0719 97.1562 93.3701V82.1089H89.8438V93.3701C88.1767 94.0719 86.7553 95.2525 85.7595 96.7625C84.7637 98.2724 84.2382 100.044 84.2497 101.853C84.2681 102.202 84.3048 102.549 84.3594 102.895L74.5789 108.544L78.2352 114.887L88.0156 109.238C89.5978 110.425 91.5222 111.066 93.5 111.066C95.4778 111.066 97.4022 110.425 98.9844 109.238ZM91.5622 101.926C91.5402 101.539 91.635 101.154 91.8341 100.821C92.0333 100.488 92.3277 100.223 92.6793 100.059C93.0309 99.8956 93.4235 99.8412 93.8063 99.9031C94.1891 99.9651 94.5446 100.14 94.8267 100.407C95.1087 100.673 95.3045 101.017 95.3886 101.396C95.4727 101.774 95.4413 102.17 95.2984 102.53C95.1555 102.891 94.9077 103.2 94.5871 103.418C94.2665 103.636 93.8878 103.753 93.5 103.754C92.9923 103.754 92.5049 103.555 92.1425 103.199C91.7802 102.844 91.5718 102.36 91.5622 101.853V101.926ZM137.375 123.406C138.737 121.598 139.567 119.447 139.774 117.193C139.98 114.939 139.555 112.673 138.545 110.648C137.535 108.622 135.98 106.919 134.055 105.728C132.131 104.537 129.913 103.906 127.649 103.906C125.386 103.906 123.168 104.537 121.243 105.728C119.319 106.919 117.764 108.622 116.754 110.648C115.744 112.673 115.318 114.939 115.525 117.193C115.732 119.447 116.562 121.598 117.924 123.406C114.614 125.177 111.846 127.813 109.914 131.032C107.983 134.251 106.96 137.933 106.955 141.687V145.344H148.453V141.687C148.44 137.922 147.401 134.231 145.45 131.01C143.498 127.79 140.707 125.161 137.375 123.406ZM122.75 116.094C122.746 115.127 123.03 114.181 123.565 113.375C124.1 112.57 124.862 111.941 125.755 111.569C126.647 111.198 127.63 111.1 128.579 111.287C129.527 111.475 130.399 111.94 131.083 112.624C131.766 113.308 132.232 114.179 132.419 115.128C132.607 116.076 132.509 117.059 132.137 117.952C131.765 118.844 131.137 119.607 130.331 120.142C129.526 120.676 128.58 120.96 127.613 120.957C126.325 120.952 125.091 120.438 124.18 119.527C123.269 118.616 122.755 117.382 122.75 116.094ZM114.761 138.031C115.555 135.212 117.248 132.729 119.583 130.961C121.918 129.193 124.766 128.236 127.695 128.236C130.624 128.236 133.473 129.193 135.807 130.961C138.142 132.729 139.835 135.212 140.629 138.031H114.761Z" fill="white"/>
<path d="M68.7306 123.107L68.3811 123.575L68.897 123.848C72.1396 125.566 74.8537 128.134 76.7487 131.277C78.6437 134.42 79.6482 138.019 79.6547 141.688V144.844H39.1562V141.688C39.1615 138.024 40.1596 134.431 42.0445 131.289C43.9294 128.148 46.6307 125.576 49.8609 123.847L50.3736 123.573L50.0255 123.107C48.7287 121.371 47.9403 119.309 47.7485 117.151C47.5568 114.993 47.9693 112.825 48.9399 110.888C49.9105 108.951 51.4009 107.322 53.2443 106.184C55.0878 105.046 57.2115 104.443 59.378 104.443C61.5445 104.443 63.6683 105.046 65.5118 106.184C67.3552 107.322 68.8456 108.951 69.8162 110.888C70.7868 112.825 71.1993 114.993 71.0075 117.151C70.8158 119.309 70.0274 121.371 68.7306 123.107ZM54.0061 116.094V116.594H54.0676C54.1865 117.824 54.7265 118.982 55.6044 119.866C56.5999 120.869 57.9501 121.441 59.3633 121.457V121.457H59.3689C60.4296 121.457 61.4664 121.142 62.3483 120.553C63.2302 119.963 63.9176 119.126 64.3235 118.146C64.7294 117.166 64.8356 116.088 64.6287 115.047C64.4217 114.007 63.911 113.052 63.161 112.302C62.411 111.552 61.4554 111.041 60.4151 110.834C59.3749 110.627 58.2966 110.733 57.3166 111.139C56.3367 111.545 55.4992 112.232 54.9099 113.114C54.3206 113.996 54.0061 115.033 54.0061 116.094ZM45.9993 137.896L45.8204 138.531H46.4806H72.3486H73.0088L72.8299 137.896C72.0067 134.972 70.2506 132.396 67.8289 130.562C65.4071 128.728 62.4525 127.736 59.4146 127.736C56.3767 127.736 53.4221 128.728 51.0004 130.562C48.5786 132.396 46.8225 134.972 45.9993 137.896ZM99.2344 108.805L98.9485 108.64L98.6844 108.838C97.1887 109.96 95.3696 110.566 93.5 110.566C91.6304 110.566 89.8113 109.96 88.3156 108.838L88.0515 108.64L87.7656 108.805L78.4184 114.204L75.2616 108.727L84.6094 103.328L84.9069 103.156L84.8532 102.817C84.8019 102.492 84.7673 102.166 84.7496 101.838C84.7411 100.132 85.2377 98.4619 86.1769 97.0377C87.1182 95.6104 88.4618 94.4944 90.0377 93.831L90.3438 93.7022V93.3701V82.6089H96.6562V93.3701V93.7022L96.9623 93.831C98.5382 94.4944 99.8818 95.6104 100.823 97.0377C101.762 98.4619 102.259 100.132 102.25 101.838C102.233 102.166 102.198 102.492 102.147 102.817L102.093 103.156L102.391 103.328L111.738 108.727L108.582 114.204L99.2344 108.805ZM91.063 101.954L91.0657 101.954C91.1 102.559 91.3584 103.13 91.7924 103.556C92.2482 104.003 92.8614 104.254 93.5001 104.254H93.5008C93.9887 104.253 94.4651 104.106 94.8684 103.831C95.2717 103.557 95.5834 103.168 95.7632 102.714C95.943 102.261 95.9825 101.764 95.8767 101.287C95.7709 100.811 95.5246 100.378 95.1698 100.043C94.8149 99.708 94.3677 99.4874 93.8861 99.4095C93.4045 99.3317 92.9106 99.4 92.4683 99.6059C92.026 99.8117 91.6556 100.146 91.4051 100.564C91.1545 100.983 91.0354 101.467 91.063 101.954ZM136.976 123.105L136.622 123.575L137.142 123.849C140.393 125.561 143.117 128.127 145.022 131.27C146.926 134.412 147.94 138.014 147.953 141.689V144.844H107.455V141.688C107.46 138.025 108.458 134.431 110.343 131.289C112.228 128.148 114.929 125.576 118.16 123.847L118.674 123.572L118.323 123.105C117.018 121.372 116.221 119.309 116.023 117.148C115.825 114.986 116.233 112.813 117.201 110.871C118.17 108.929 119.661 107.295 121.506 106.153C123.352 105.011 125.479 104.406 127.649 104.406C129.82 104.406 131.947 105.011 133.792 106.153C135.638 107.295 137.129 108.929 138.097 110.871C139.066 112.813 139.474 114.986 139.276 117.148C139.078 119.309 138.281 121.372 136.976 123.105ZM114.28 137.896L114.101 138.531H114.761H140.629H141.289L141.11 137.896C140.287 134.972 138.531 132.396 136.109 130.562C133.688 128.728 130.733 127.736 127.695 127.736C124.657 127.736 121.703 128.728 119.281 130.562C116.859 132.396 115.103 134.972 114.28 137.896ZM123.148 113.098C122.559 113.986 122.246 115.03 122.25 116.096C122.255 117.516 122.822 118.876 123.826 119.88C124.83 120.885 126.191 121.451 127.611 121.457C128.677 121.461 129.72 121.148 130.608 120.558C131.496 119.968 132.189 119.128 132.599 118.144C133.008 117.16 133.117 116.076 132.91 115.031C132.703 113.985 132.19 113.024 131.436 112.27C130.682 111.517 129.722 111.004 128.676 110.797C127.63 110.59 126.547 110.698 125.563 111.108C124.578 111.518 123.738 112.21 123.148 113.098Z" stroke="#1B1E32"/>
<path d="M74.1459 57.0785V57.0784L74.1382 57.0785C73.3573 57.0906 72.5932 56.8628 71.9537 56.4287C71.3145 55.9948 70.8325 55.3773 70.5734 54.6645C70.332 53.9935 70.3104 53.266 70.5113 52.5826C70.7122 51.8994 71.1261 51.2922 71.6979 50.8464C71.6983 50.8461 71.6987 50.8458 71.6991 50.8455L91.6424 35.542C92.3305 35.0289 93.1734 34.75 94.0417 34.75C94.91 34.75 95.7529 35.0289 96.441 35.542C96.4418 35.5427 96.4427 35.5433 96.4435 35.5439L116.387 50.8477L116.389 50.8494C116.97 51.2896 117.394 51.8947 117.603 52.5788C117.812 53.262 117.798 53.9916 117.562 54.6665C117.303 55.3785 116.821 55.9953 116.183 56.4287C115.543 56.8628 114.779 57.0906 113.998 57.0785L113.998 57.0785H113.99H110.46H109.96V57.5785V67.8469V68.3469H110.46H114.285V74.25H73.9044V68.3469H77.6767H78.1767V67.8469V57.5785V57.0785H77.6767H74.1459ZM84.7911 57.0785H84.2911V57.5785V67.8469V68.3469H84.7911H90.5639H91.0639V67.8469V57.5785V57.0785H90.5639H84.7911ZM103.398 68.3469H103.898V67.8469V57.5785V57.0785H103.398H97.6254H97.1254V57.5785V67.8469V68.3469H97.6254H103.398ZM94.399 41.4599L94.0942 41.226L93.7897 41.4604L82.3324 50.2791L81.168 51.1753H82.6374H105.587H107.06L105.892 50.2787L94.399 41.4599Z" fill="white" stroke="#1B1E32"/>
</g>
<defs>
<filter id="filter0_dd_521_20166" x="0.494416" y="0.385787" width="186.011" height="186.011" filterUnits="userSpaceOnUse" color-interpolation-filters="sRGB">
<feFlood flood-opacity="0" result="BackgroundImageFix"/>
<feColorMatrix in="SourceAlpha" type="matrix" values="0 0 0 0 0 0 0 0 0 0 0 0 0 0 0 0 0 0 127 0" result="hardAlpha"/>
<feOffset dy="1.44569"/>
<feGaussianBlur stdDeviation="0.722843"/>
<feColorMatrix type="matrix" values="0 0 0 0 0 0 0 0 0 0 0 0 0 0 0 0 0 0 0.3 0"/>
<feBlend mode="normal" in2="BackgroundImageFix" result="effect1_dropShadow_521_20166"/>
<feColorMatrix in="SourceAlpha" type="matrix" values="0 0 0 0 0 0 0 0 0 0 0 0 0 0 0 0 0 0 127 0" result="hardAlpha"/>
<feMorphology radius="2.16853" operator="dilate" in="SourceAlpha" result="effect2_dropShadow_521_20166"/>
<feOffset dy="2.89137"/>
<feGaussianBlur stdDeviation="2.16853"/>
<feColorMatrix type="matrix" values="0 0 0 0 0 0 0 0 0 0 0 0 0 0 0 0 0 0 0.15 0"/>
<feBlend mode="normal" in2="effect1_dropShadow_521_20166" result="effect2_dropShadow_521_20166"/>
<feBlend mode="normal" in="SourceGraphic" in2="effect2_dropShadow_521_20166" result="shape"/>
</filter>
</defs>
</svg>
