<svg width="320" height="250" viewBox="0 0 320 250" fill="none" xmlns="http://www.w3.org/2000/svg">
<path d="M20 101.79C20 96.9353 23.9354 93 28.7899 93H283.38C288.234 93 292.17 96.9354 292.17 101.79V147.871V193.953C292.17 198.807 288.234 202.743 283.38 202.743H28.7898C23.9353 202.743 20 198.807 20 193.953V101.79Z" fill="white"/>
<path d="M28.7899 93.5H283.38C287.958 93.5 291.67 97.2115 291.67 101.79V147.871V193.953C291.67 198.531 287.958 202.243 283.38 202.243H28.7898C24.2115 202.243 20.5 198.531 20.5 193.953V101.79C20.5 97.2115 24.2115 93.5 28.7899 93.5Z" stroke="black" stroke-opacity="0.1"/>
<path d="M44.2983 176.608C44.0538 176.608 43.834 176.562 43.6389 176.468C43.4451 176.373 43.2904 176.243 43.1746 176.078C43.0589 175.913 42.9971 175.724 42.9893 175.512H43.5746C43.5889 175.684 43.6649 175.825 43.8028 175.935C43.9407 176.046 44.1058 176.101 44.2983 176.101C44.4518 176.101 44.5877 176.066 44.7061 175.996C44.8257 175.924 44.9194 175.826 44.987 175.701C45.0559 175.576 45.0904 175.434 45.0904 175.274C45.0904 175.111 45.0553 174.966 44.985 174.839C44.9148 174.711 44.8179 174.611 44.6944 174.538C44.5721 174.466 44.4316 174.429 44.273 174.427C44.152 174.427 44.0304 174.448 43.9082 174.49C43.7859 174.531 43.6871 174.586 43.6116 174.654L43.0595 174.572L43.2839 172.558H45.4806V173.075H43.7852L43.6584 174.193H43.6819C43.7599 174.118 43.8633 174.055 43.992 174.004C44.1221 173.953 44.2613 173.928 44.4095 173.928C44.6527 173.928 44.8693 173.986 45.0592 174.101C45.2504 174.217 45.4006 174.375 45.5098 174.576C45.6204 174.775 45.675 175.003 45.6737 175.262C45.675 175.521 45.6165 175.752 45.4981 175.955C45.3811 176.158 45.2185 176.318 45.0104 176.435C44.8036 176.55 44.5662 176.608 44.2983 176.608ZM46.9305 175.537L46.9266 174.825H47.0281L48.222 173.557H48.9204L47.5587 175.001H47.467L46.9305 175.537ZM46.3941 176.554V172.558H46.9774V176.554H46.3941ZM48.2864 176.554L47.2134 175.13L47.6153 174.722L49.0024 176.554H48.2864Z" fill="#86888A"/>
<path d="M41.8772 160.676V164.671H41.2724V161.28H41.249L40.2931 161.905V161.327L41.29 160.676H41.8772ZM44.349 164.737C44.0407 164.736 43.7774 164.655 43.5589 164.493C43.3404 164.332 43.1732 164.097 43.0575 163.789C42.9417 163.481 42.8839 163.11 42.8839 162.675C42.8839 162.242 42.9417 161.872 43.0575 161.565C43.1745 161.258 43.3423 161.024 43.5608 160.863C43.7806 160.702 44.0433 160.621 44.349 160.621C44.6546 160.621 44.9167 160.702 45.1352 160.865C45.3537 161.026 45.5208 161.26 45.6365 161.567C45.7536 161.873 45.8121 162.242 45.8121 162.675C45.8121 163.111 45.7542 163.483 45.6385 163.791C45.5227 164.098 45.3556 164.333 45.1371 164.495C44.9186 164.657 44.6559 164.737 44.349 164.737ZM44.349 164.216C44.6195 164.216 44.8308 164.084 44.983 163.82C45.1365 163.556 45.2132 163.175 45.2132 162.675C45.2132 162.344 45.1781 162.063 45.1078 161.834C45.0389 161.604 44.9394 161.43 44.8094 161.311C44.6806 161.192 44.5271 161.132 44.349 161.132C44.0797 161.132 43.8684 161.265 43.7149 161.53C43.5615 161.795 43.4841 162.177 43.4828 162.675C43.4828 163.008 43.5172 163.29 43.5862 163.52C43.6564 163.749 43.7559 163.922 43.8847 164.041C44.0134 164.158 44.1682 164.216 44.349 164.216ZM47.0485 163.654L47.0446 162.942H47.146L48.34 161.674H49.0384L47.6767 163.118H47.585L47.0485 163.654ZM46.512 164.671V160.676H47.0953V164.671H46.512ZM48.4043 164.671L47.3314 163.247L47.7332 162.839L49.1203 164.671H48.4043Z" fill="#86888A"/>
<path d="M41.8772 148.805V152.8H41.2724V149.41H41.249L40.2931 150.034V149.456L41.29 148.805H41.8772ZM44.2768 152.855C44.0323 152.855 43.8125 152.808 43.6174 152.714C43.4236 152.62 43.2688 152.489 43.1531 152.324C43.0373 152.159 42.9755 151.971 42.9677 151.759H43.553C43.5673 151.93 43.6434 152.071 43.7813 152.182C43.9191 152.292 44.0843 152.348 44.2768 152.348C44.4302 152.348 44.5662 152.313 44.6845 152.242C44.8042 152.171 44.8978 152.073 44.9654 151.948C45.0344 151.823 45.0688 151.68 45.0688 151.521C45.0688 151.358 45.0337 151.213 44.9635 151.085C44.8933 150.958 44.7964 150.858 44.6728 150.785C44.5505 150.712 44.4101 150.675 44.2514 150.674C44.1305 150.674 44.0089 150.695 43.8866 150.736C43.7643 150.778 43.6655 150.833 43.5901 150.9L43.038 150.818L43.2623 148.805H45.459V149.322H43.7637L43.6369 150.44H43.6603C43.7383 150.364 43.8417 150.301 43.9705 150.251C44.1005 150.2 44.2397 150.174 44.388 150.174C44.6312 150.174 44.8477 150.232 45.0376 150.348C45.2288 150.464 45.379 150.622 45.4883 150.822C45.5988 151.021 45.6534 151.25 45.6521 151.509C45.6534 151.768 45.5949 151.998 45.4766 152.201C45.3595 152.404 45.1969 152.564 44.9888 152.681C44.7821 152.797 44.5447 152.855 44.2768 152.855ZM46.909 151.784L46.9051 151.072H47.0065L48.2005 149.804H48.8989L47.5372 151.247H47.4455L46.909 151.784ZM46.3725 152.8V148.805H46.9558V152.8H46.3725ZM48.2648 152.8L47.1919 151.376L47.5937 150.968L48.9808 152.8H48.2648Z" fill="#86888A"/>
<path d="M38.7906 140.924V140.487L40.1425 139.086C40.2869 138.934 40.4059 138.801 40.4995 138.686C40.5945 138.57 40.6654 138.461 40.7122 138.356C40.759 138.252 40.7824 138.142 40.7824 138.025C40.7824 137.892 40.7512 137.778 40.6888 137.681C40.6263 137.584 40.5412 137.509 40.4332 137.457C40.3253 137.404 40.2037 137.377 40.0684 137.377C39.9253 137.377 39.8005 137.406 39.6938 137.465C39.5872 137.523 39.5052 137.606 39.448 137.713C39.3908 137.819 39.3622 137.944 39.3622 138.087H38.7867C38.7867 137.844 38.8426 137.631 38.9544 137.449C39.0663 137.267 39.2198 137.126 39.4149 137.026C39.6099 136.925 39.8317 136.874 40.0801 136.874C40.3311 136.874 40.5522 136.924 40.7434 137.024C40.9359 137.123 41.0861 137.258 41.194 137.43C41.302 137.6 41.356 137.793 41.356 138.007C41.356 138.156 41.328 138.301 41.2721 138.442C41.2175 138.584 41.1219 138.742 40.9853 138.916C40.8487 139.089 40.6589 139.299 40.4156 139.547L39.6216 140.378V140.407H41.4203V140.924H38.7906ZM43.5507 140.99C43.2425 140.989 42.9791 140.908 42.7606 140.746C42.5421 140.585 42.375 140.35 42.2592 140.042C42.1435 139.734 42.0856 139.362 42.0856 138.928C42.0856 138.495 42.1435 138.125 42.2592 137.818C42.3763 137.511 42.5441 137.277 42.7626 137.116C42.9823 136.954 43.2451 136.874 43.5507 136.874C43.8563 136.874 44.1184 136.955 44.3369 137.118C44.5554 137.279 44.7225 137.513 44.8383 137.82C44.9553 138.126 45.0139 138.495 45.0139 138.928C45.0139 139.364 44.956 139.736 44.8402 140.044C44.7245 140.351 44.5574 140.586 44.3389 140.748C44.1204 140.91 43.8576 140.99 43.5507 140.99ZM43.5507 140.469C43.8212 140.469 44.0326 140.337 44.1847 140.073C44.3382 139.809 44.4149 139.428 44.4149 138.928C44.4149 138.596 44.3798 138.316 44.3096 138.087C44.2407 137.857 44.1412 137.683 44.0111 137.564C43.8824 137.445 43.7289 137.385 43.5507 137.385C43.2815 137.385 43.0701 137.518 42.9167 137.783C42.7632 138.048 42.6858 138.43 42.6845 138.928C42.6845 139.261 42.719 139.543 42.7879 139.773C42.8581 140.002 42.9576 140.175 43.0864 140.294C43.2152 140.411 43.3699 140.469 43.5507 140.469ZM46.2502 139.907L46.2463 139.195H46.3478L47.5417 137.927H48.2401L46.8784 139.371H46.7867L46.2502 139.907ZM45.7137 140.924V136.928H46.297V140.924H45.7137ZM47.6061 140.924L46.5331 139.5L46.935 139.092L48.3221 140.924H47.6061Z" fill="#86888A"/>
<path d="M38.7906 129.047V128.61L40.1425 127.209C40.2869 127.057 40.4059 126.924 40.4995 126.809C40.5945 126.693 40.6654 126.584 40.7122 126.48C40.759 126.375 40.7824 126.265 40.7824 126.148C40.7824 126.015 40.7512 125.901 40.6888 125.805C40.6263 125.707 40.5412 125.632 40.4332 125.58C40.3253 125.527 40.2037 125.5 40.0684 125.5C39.9253 125.5 39.8005 125.529 39.6938 125.588C39.5872 125.647 39.5052 125.729 39.448 125.836C39.3908 125.942 39.3622 126.067 39.3622 126.21H38.7867C38.7867 125.967 38.8426 125.754 38.9544 125.572C39.0663 125.39 39.2198 125.249 39.4149 125.149C39.6099 125.048 39.8317 124.997 40.0801 124.997C40.3311 124.997 40.5522 125.047 40.7434 125.147C40.9359 125.246 41.0861 125.381 41.194 125.553C41.302 125.723 41.356 125.916 41.356 126.13C41.356 126.279 41.328 126.424 41.2721 126.565C41.2175 126.707 41.1219 126.865 40.9853 127.039C40.8487 127.212 40.6589 127.422 40.4156 127.67L39.6216 128.501V128.53H41.4203V129.047H38.7906ZM43.4785 129.101C43.234 129.101 43.0142 129.055 42.8191 128.961C42.6253 128.866 42.4706 128.736 42.3548 128.571C42.2391 128.406 42.1773 128.217 42.1695 128.005H42.7547C42.7691 128.177 42.8451 128.318 42.983 128.428C43.1209 128.539 43.286 128.594 43.4785 128.594C43.632 128.594 43.7679 128.559 43.8863 128.489C44.0059 128.417 44.0995 128.319 44.1672 128.194C44.2361 128.069 44.2706 127.927 44.2706 127.767C44.2706 127.605 44.2355 127.46 44.1652 127.332C44.095 127.205 43.9981 127.104 43.8745 127.032C43.7523 126.959 43.6118 126.922 43.4532 126.92C43.3322 126.92 43.2106 126.941 43.0883 126.983C42.9661 127.024 42.8672 127.079 42.7918 127.147L42.2397 127.065L42.4641 125.051H44.6607V125.568H42.9654L42.8386 126.686H42.862C42.9401 126.611 43.0435 126.548 43.1722 126.497C43.3023 126.446 43.4415 126.421 43.5897 126.421C43.8329 126.421 44.0495 126.479 44.2394 126.595C44.4305 126.71 44.5808 126.868 44.69 127.069C44.8006 127.268 44.8552 127.497 44.8539 127.755C44.8552 128.014 44.7967 128.245 44.6783 128.448C44.5613 128.651 44.3987 128.811 44.1906 128.928C43.9838 129.044 43.7464 129.101 43.4785 129.101ZM46.1107 128.03L46.1068 127.318H46.2083L47.4022 126.05H48.1006L46.7389 127.494H46.6472L46.1107 128.03ZM45.5742 129.047V125.051H46.1576V129.047H45.5742ZM47.4666 129.047L46.3936 127.623L46.7955 127.215L48.1826 129.047H47.4666Z" fill="#86888A"/>
<path d="M59.4624 187.293H60.0633V190.126C60.0633 190.382 60.0126 190.601 59.9111 190.783C59.811 190.965 59.6699 191.105 59.4878 191.201C59.3057 191.296 59.0924 191.343 58.8479 191.343C58.6229 191.343 58.4207 191.302 58.2412 191.22C58.063 191.138 57.9219 191.019 57.8178 190.863C57.7151 190.706 57.6637 190.515 57.6637 190.29H58.2626C58.2626 190.4 58.288 190.496 58.3387 190.577C58.3907 190.657 58.4616 190.72 58.5514 190.766C58.6424 190.81 58.7465 190.832 58.8635 190.832C58.991 190.832 59.0989 190.805 59.1874 190.752C59.2771 190.697 59.3454 190.617 59.3922 190.512C59.439 190.407 59.4624 190.278 59.4624 190.126V187.293ZM61.7659 191.355C61.576 191.355 61.4044 191.32 61.2509 191.25C61.0974 191.178 60.9758 191.075 60.8861 190.939C60.7976 190.804 60.7534 190.638 60.7534 190.442C60.7534 190.273 60.7859 190.134 60.851 190.024C60.916 189.915 61.0038 189.829 61.1143 189.765C61.2249 189.701 61.3484 189.653 61.485 189.621C61.6216 189.588 61.7607 189.563 61.9025 189.546C62.082 189.526 62.2276 189.509 62.3395 189.496C62.4513 189.481 62.5326 189.459 62.5833 189.427C62.6341 189.396 62.6594 189.346 62.6594 189.275V189.262C62.6594 189.091 62.6113 188.959 62.5151 188.866C62.4201 188.772 62.2783 188.725 62.0898 188.725C61.8934 188.725 61.7386 188.769 61.6255 188.856C61.5136 188.942 61.4362 189.037 61.3933 189.143L60.8451 189.018C60.9101 188.836 61.0051 188.689 61.1299 188.577C61.2561 188.464 61.4011 188.382 61.565 188.331C61.7289 188.279 61.9012 188.253 62.082 188.253C62.2016 188.253 62.3284 188.267 62.4624 188.296C62.5976 188.323 62.7238 188.374 62.8408 188.448C62.9592 188.522 63.0561 188.628 63.1315 188.766C63.207 188.903 63.2447 189.08 63.2447 189.299V191.289H62.675V190.879H62.6516C62.6139 190.954 62.5573 191.028 62.4819 191.101C62.4065 191.174 62.3096 191.235 62.1912 191.283C62.0729 191.331 61.9311 191.355 61.7659 191.355ZM61.8927 190.887C62.054 190.887 62.1919 190.855 62.3063 190.791C62.4221 190.727 62.5099 190.644 62.5697 190.541C62.6308 190.437 62.6614 190.326 62.6614 190.208V189.822C62.6406 189.842 62.6002 189.862 62.5404 189.88C62.4819 189.897 62.4149 189.912 62.3395 189.925C62.264 189.937 62.1906 189.948 62.119 189.958C62.0475 189.967 61.9877 189.975 61.9395 189.981C61.8264 189.996 61.723 190.02 61.6294 190.054C61.537 190.087 61.4629 190.136 61.407 190.2C61.3523 190.262 61.325 190.346 61.325 190.45C61.325 190.594 61.3783 190.703 61.485 190.777C61.5916 190.85 61.7275 190.887 61.8927 190.887ZM64.6049 189.509V191.289H64.0216V188.292H64.5815V188.78H64.6186C64.6875 188.621 64.7955 188.494 64.9424 188.397C65.0907 188.301 65.2773 188.253 65.5023 188.253C65.7065 188.253 65.8853 188.296 66.0388 188.382C66.1923 188.466 66.3113 188.592 66.3958 188.76C66.4804 188.928 66.5226 189.135 66.5226 189.383V191.289H65.9393V189.453C65.9393 189.236 65.8827 189.066 65.7696 188.944C65.6564 188.82 65.501 188.758 65.3033 188.758C65.1681 188.758 65.0478 188.788 64.9424 188.846C64.8384 188.905 64.7558 188.99 64.6947 189.104C64.6348 189.215 64.6049 189.351 64.6049 189.509Z" fill="#86888A"/>
<path d="M54.4902 179.261C54.4902 177.44 55.966 175.964 57.7864 175.964H66.5763C68.3967 175.964 69.8725 177.44 69.8725 179.261V181.842H54.4902V179.261Z" fill="#F4F5F6"/>
<path d="M76.3293 191.289V187.293H78.8069V187.812H76.9322V189.029H78.6294V189.546H76.9322V191.289H76.3293ZM80.573 191.349C80.2777 191.349 80.0235 191.286 79.8102 191.16C79.5982 191.032 79.4343 190.854 79.3186 190.623C79.2041 190.392 79.1469 190.121 79.1469 189.81C79.1469 189.503 79.2041 189.232 79.3186 188.998C79.4343 188.764 79.5956 188.581 79.8024 188.45C80.0105 188.319 80.2537 188.253 80.532 188.253C80.7011 188.253 80.865 188.281 81.0236 188.337C81.1823 188.393 81.3247 188.481 81.4509 188.6C81.577 188.72 81.6765 188.875 81.7493 189.067C81.8222 189.256 81.8586 189.487 81.8586 189.759V189.966H79.4766V189.529H81.287C81.287 189.375 81.2558 189.24 81.1933 189.121C81.1309 189.002 81.0431 188.907 80.93 188.838C80.8181 188.769 80.6868 188.735 80.5359 188.735C80.372 188.735 80.229 188.775 80.1067 188.856C79.9858 188.935 79.8921 189.039 79.8258 189.168C79.7608 189.295 79.7282 189.434 79.7282 189.584V189.925C79.7282 190.125 79.7634 190.296 79.8336 190.436C79.9051 190.577 80.0046 190.684 80.1321 190.758C80.2595 190.831 80.4084 190.867 80.5788 190.867C80.6894 190.867 80.7902 190.852 80.8812 190.82C80.9722 190.788 81.0509 190.74 81.1173 190.676C81.1836 190.612 81.2343 190.534 81.2694 190.44L81.8215 190.539C81.7773 190.702 81.698 190.844 81.5835 190.967C81.4704 191.088 81.328 191.182 81.1563 191.25C80.9859 191.316 80.7915 191.349 80.573 191.349ZM82.5526 191.289V187.293H83.1359V188.778H83.171C83.2049 188.715 83.2536 188.643 83.3174 188.561C83.3811 188.479 83.4695 188.408 83.5827 188.347C83.6958 188.284 83.8454 188.253 84.0314 188.253C84.2733 188.253 84.4892 188.314 84.6791 188.436C84.869 188.559 85.0179 188.735 85.1258 188.965C85.2351 189.195 85.2897 189.472 85.2897 189.796C85.2897 190.12 85.2357 190.398 85.1278 190.629C85.0198 190.859 84.8716 191.037 84.683 191.162C84.4944 191.285 84.2791 191.347 84.0372 191.347C83.8552 191.347 83.7062 191.317 83.5905 191.255C83.476 191.194 83.3863 191.123 83.3213 191.041C83.2562 190.959 83.2062 190.886 83.171 190.822H83.1223V191.289H82.5526ZM83.1242 189.79C83.1242 190.001 83.1548 190.186 83.2159 190.344C83.277 190.503 83.3655 190.627 83.4812 190.717C83.597 190.805 83.7387 190.85 83.9065 190.85C84.0808 190.85 84.2265 190.803 84.3435 190.711C84.4606 190.617 84.549 190.491 84.6088 190.331C84.67 190.171 84.7005 189.991 84.7005 189.79C84.7005 189.593 84.6706 189.415 84.6108 189.258C84.5523 189.1 84.4638 188.976 84.3455 188.885C84.2284 188.794 84.0821 188.749 83.9065 188.749C83.7374 188.749 83.5944 188.792 83.4773 188.879C83.3616 188.966 83.2738 189.088 83.214 189.244C83.1541 189.4 83.1242 189.582 83.1242 189.79Z" fill="#86888A"/>
<path d="M73.0264 164.642C73.0264 162.822 74.5021 161.346 76.3226 161.346H85.1124C86.9329 161.346 88.4086 162.822 88.4086 164.642V181.842H73.0264V164.642Z" fill="#B6CDFF"/>
<path d="M94.6192 187.293H95.3508L96.6227 190.399H96.6695L97.9415 187.293H98.6731V191.289H98.0995V188.397H98.0625L96.8841 191.283H96.4081L95.2298 188.395H95.1927V191.289H94.6192V187.293ZM100.375 191.355C100.185 191.355 100.013 191.32 99.8597 191.25C99.7062 191.178 99.5846 191.075 99.4949 190.939C99.4065 190.804 99.3622 190.638 99.3622 190.442C99.3622 190.273 99.3948 190.134 99.4598 190.024C99.5248 189.915 99.6126 189.829 99.7231 189.765C99.8337 189.701 99.9573 189.653 100.094 189.621C100.23 189.588 100.37 189.563 100.511 189.546C100.691 189.526 100.836 189.509 100.948 189.496C101.06 189.481 101.141 189.459 101.192 189.427C101.243 189.396 101.268 189.346 101.268 189.275V189.262C101.268 189.091 101.22 188.959 101.124 188.866C101.029 188.772 100.887 188.725 100.699 188.725C100.502 188.725 100.347 188.769 100.234 188.856C100.122 188.942 100.045 189.037 100.002 189.143L99.4539 189.018C99.519 188.836 99.6139 188.689 99.7388 188.577C99.8649 188.464 100.01 188.382 100.174 188.331C100.338 188.279 100.51 188.253 100.691 188.253C100.81 188.253 100.937 188.267 101.071 188.296C101.206 188.323 101.333 188.374 101.45 188.448C101.568 188.522 101.665 188.628 101.74 188.766C101.816 188.903 101.854 189.08 101.854 189.299V191.289H101.284V190.879H101.26C101.223 190.954 101.166 191.028 101.091 191.101C101.015 191.174 100.918 191.235 100.8 191.283C100.682 191.331 100.54 191.355 100.375 191.355ZM100.502 190.887C100.663 190.887 100.801 190.855 100.915 190.791C101.031 190.727 101.119 190.644 101.178 190.541C101.24 190.437 101.27 190.326 101.27 190.208V189.822C101.249 189.842 101.209 189.862 101.149 189.88C101.091 189.897 101.024 189.912 100.948 189.925C100.873 189.937 100.799 189.948 100.728 189.958C100.656 189.967 100.596 189.975 100.548 189.981C100.435 189.996 100.332 190.02 100.238 190.054C100.146 190.087 100.072 190.136 100.016 190.2C99.9612 190.262 99.9338 190.346 99.9338 190.45C99.9338 190.594 99.9872 190.703 100.094 190.777C100.2 190.85 100.336 190.887 100.502 190.887ZM102.63 191.289V188.292H103.194V188.768H103.225C103.28 188.607 103.376 188.48 103.514 188.388C103.653 188.294 103.811 188.247 103.986 188.247C104.023 188.247 104.066 188.248 104.115 188.251C104.166 188.254 104.205 188.257 104.234 188.261V188.819C104.211 188.812 104.169 188.805 104.109 188.797C104.049 188.788 103.99 188.784 103.93 188.784C103.792 188.784 103.669 188.813 103.561 188.871C103.454 188.929 103.37 189.009 103.307 189.111C103.245 189.213 103.214 189.329 103.214 189.459V191.289H102.63Z" fill="#86888A"/>
<path d="M91.562 154.836C91.562 153.015 93.0378 151.54 94.8582 151.54H103.648C105.468 151.54 106.944 153.015 106.944 154.836V181.843H91.562V154.836Z" fill="#F4F5F6"/>
<path d="M113.891 191.289H113.251L114.688 187.293H115.385L116.823 191.289H116.183L115.053 188.019H115.022L113.891 191.289ZM113.998 189.724H116.074V190.231H113.998V189.724ZM117.353 192.412V188.292H117.922V188.778H117.971C118.005 188.715 118.054 188.643 118.118 188.561C118.181 188.479 118.27 188.408 118.383 188.347C118.496 188.284 118.646 188.253 118.832 188.253C119.074 188.253 119.289 188.314 119.479 188.436C119.669 188.559 119.818 188.735 119.926 188.965C120.035 189.195 120.09 189.472 120.09 189.796C120.09 190.12 120.036 190.398 119.928 190.629C119.82 190.859 119.672 191.037 119.483 191.162C119.295 191.285 119.079 191.347 118.837 191.347C118.655 191.347 118.506 191.317 118.391 191.255C118.276 191.194 118.187 191.123 118.121 191.041C118.056 190.959 118.006 190.886 117.971 190.822H117.936V192.412H117.353ZM117.924 189.79C117.924 190.001 117.955 190.186 118.016 190.344C118.077 190.503 118.166 190.627 118.281 190.717C118.397 190.805 118.539 190.85 118.707 190.85C118.881 190.85 119.027 190.803 119.144 190.711C119.261 190.617 119.349 190.491 119.409 190.331C119.47 190.171 119.501 189.991 119.501 189.79C119.501 189.593 119.471 189.415 119.411 189.258C119.352 189.1 119.264 188.976 119.146 188.885C119.029 188.794 118.882 188.749 118.707 188.749C118.538 188.749 118.395 188.792 118.278 188.879C118.162 188.966 118.074 189.088 118.014 189.244C117.954 189.4 117.924 189.582 117.924 189.79ZM120.743 191.289V188.292H121.307V188.768H121.338C121.393 188.607 121.489 188.48 121.627 188.388C121.766 188.294 121.924 188.247 122.099 188.247C122.136 188.247 122.179 188.248 122.228 188.251C122.279 188.254 122.318 188.257 122.347 188.261V188.819C122.324 188.812 122.282 188.805 122.222 188.797C122.162 188.788 122.103 188.784 122.043 188.784C121.905 188.784 121.782 188.813 121.674 188.871C121.567 188.929 121.483 189.009 121.42 189.111C121.358 189.213 121.327 189.329 121.327 189.459V191.289H120.743Z" fill="#86888A"/>
<path d="M110.437 156.969C110.437 155.149 111.913 153.673 113.733 153.673H122.023C123.843 153.673 125.319 155.149 125.319 156.969V182.292H110.437V156.969Z" fill="#B6CDFF"/>
<path d="M131.231 187.293H131.962L133.234 190.399H133.281L134.553 187.293H135.285V191.289H134.711V188.397H134.674L133.496 191.283H133.02L131.841 188.395H131.804V191.289H131.231V187.293ZM136.986 191.355C136.796 191.355 136.625 191.32 136.471 191.25C136.318 191.178 136.196 191.075 136.106 190.939C136.018 190.804 135.974 190.638 135.974 190.442C135.974 190.273 136.006 190.134 136.071 190.024C136.136 189.915 136.224 189.829 136.335 189.765C136.445 189.701 136.569 189.653 136.705 189.621C136.842 189.588 136.981 189.563 137.123 189.546C137.302 189.526 137.448 189.509 137.56 189.496C137.672 189.481 137.753 189.459 137.804 189.427C137.854 189.396 137.88 189.346 137.88 189.275V189.262C137.88 189.091 137.832 188.959 137.735 188.866C137.641 188.772 137.499 188.725 137.31 188.725C137.114 188.725 136.959 188.769 136.846 188.856C136.734 188.942 136.657 189.037 136.614 189.143L136.066 189.018C136.131 188.836 136.225 188.689 136.35 188.577C136.477 188.464 136.622 188.382 136.785 188.331C136.949 188.279 137.122 188.253 137.302 188.253C137.422 188.253 137.549 188.267 137.683 188.296C137.818 188.323 137.944 188.374 138.061 188.448C138.18 188.522 138.277 188.628 138.352 188.766C138.427 188.903 138.465 189.08 138.465 189.299V191.289H137.895V190.879H137.872C137.834 190.954 137.778 191.028 137.702 191.101C137.627 191.174 137.53 191.235 137.412 191.283C137.293 191.331 137.152 191.355 136.986 191.355ZM137.113 190.887C137.274 190.887 137.412 190.855 137.527 190.791C137.642 190.727 137.73 190.644 137.79 190.541C137.851 190.437 137.882 190.326 137.882 190.208V189.822C137.861 189.842 137.821 189.862 137.761 189.88C137.702 189.897 137.635 189.912 137.56 189.925C137.484 189.937 137.411 189.948 137.339 189.958C137.268 189.967 137.208 189.975 137.16 189.981C137.047 189.996 136.943 190.02 136.85 190.054C136.757 190.087 136.683 190.136 136.627 190.2C136.573 190.262 136.545 190.346 136.545 190.45C136.545 190.594 136.599 190.703 136.705 190.777C136.812 190.85 136.948 190.887 137.113 190.887ZM139.503 192.412C139.416 192.412 139.337 192.405 139.265 192.391C139.194 192.378 139.141 192.364 139.105 192.348L139.246 191.87C139.353 191.899 139.448 191.911 139.531 191.907C139.614 191.903 139.687 191.872 139.751 191.813C139.816 191.755 139.873 191.659 139.923 191.527L139.995 191.328L138.899 188.292H139.523L140.282 190.617H140.313L141.072 188.292H141.698L140.463 191.689C140.406 191.845 140.333 191.977 140.245 192.085C140.156 192.194 140.051 192.276 139.929 192.33C139.806 192.385 139.665 192.412 139.503 192.412Z" fill="#86888A"/>
<path d="M128.753 151.245C128.753 149.424 130.229 147.949 132.05 147.949H140.339C142.16 147.949 143.635 149.424 143.635 151.245V182.292H128.753V151.245Z" fill="#F4F5F6"/>
<path d="M152.078 187.293H152.679V190.126C152.679 190.382 152.628 190.601 152.526 190.783C152.426 190.965 152.285 191.105 152.103 191.201C151.921 191.296 151.708 191.343 151.463 191.343C151.238 191.343 151.036 191.302 150.856 191.22C150.678 191.138 150.537 191.019 150.433 190.863C150.33 190.706 150.279 190.515 150.279 190.29H150.878C150.878 190.4 150.903 190.496 150.954 190.577C151.006 190.657 151.077 190.72 151.167 190.766C151.258 190.81 151.362 190.832 151.479 190.832C151.606 190.832 151.714 190.805 151.803 190.752C151.892 190.697 151.961 190.617 152.008 190.512C152.054 190.407 152.078 190.278 152.078 190.126V187.293ZM155.407 190.046V188.292H155.993V191.289H155.419V190.77H155.388C155.319 190.93 155.208 191.063 155.056 191.17C154.905 191.275 154.717 191.328 154.492 191.328C154.3 191.328 154.13 191.285 153.981 191.201C153.834 191.115 153.719 190.988 153.634 190.82C153.551 190.653 153.509 190.445 153.509 190.198V188.292H154.093V190.128C154.093 190.332 154.149 190.495 154.262 190.616C154.375 190.736 154.522 190.797 154.703 190.797C154.812 190.797 154.921 190.77 155.029 190.715C155.138 190.66 155.229 190.578 155.3 190.467C155.373 190.357 155.409 190.216 155.407 190.046ZM157.36 189.509V191.289H156.776V188.292H157.336V188.78H157.373C157.442 188.621 157.55 188.494 157.697 188.397C157.845 188.301 158.032 188.253 158.257 188.253C158.461 188.253 158.64 188.296 158.794 188.382C158.947 188.466 159.066 188.592 159.151 188.76C159.235 188.928 159.277 189.135 159.277 189.383V191.289H158.694V189.453C158.694 189.236 158.638 189.066 158.524 188.944C158.411 188.82 158.256 188.758 158.058 188.758C157.923 188.758 157.803 188.788 157.697 188.846C157.593 188.905 157.511 188.99 157.449 189.104C157.39 189.215 157.36 189.351 157.36 189.509Z" fill="#86888A"/>
<path d="M147.069 146.666C147.069 144.845 148.545 143.37 150.366 143.37H159.8C161.62 143.37 163.096 144.845 163.096 146.666V182.292H147.069V146.666Z" fill="#B6CDFF"/>
<path d="M171.553 187.293H172.154V190.126C172.154 190.382 172.103 190.601 172.002 190.783C171.902 190.965 171.76 191.105 171.578 191.201C171.396 191.296 171.183 191.343 170.938 191.343C170.713 191.343 170.511 191.302 170.332 191.22C170.154 191.138 170.012 191.019 169.908 190.863C169.806 190.706 169.754 190.515 169.754 190.29H170.353C170.353 190.4 170.379 190.496 170.429 190.577C170.481 190.657 170.552 190.72 170.642 190.766C170.733 190.81 170.837 190.832 170.954 190.832C171.081 190.832 171.189 190.805 171.278 190.752C171.368 190.697 171.436 190.617 171.483 190.512C171.53 190.407 171.553 190.278 171.553 190.126V187.293ZM174.883 190.046V188.292H175.468V191.289H174.894V190.77H174.863C174.794 190.93 174.684 191.063 174.531 191.17C174.381 191.275 174.193 191.328 173.968 191.328C173.775 191.328 173.605 191.285 173.457 191.201C173.31 191.115 173.194 190.988 173.109 190.82C173.026 190.653 172.984 190.445 172.984 190.198V188.292H173.568V190.128C173.568 190.332 173.624 190.495 173.737 190.616C173.851 190.736 173.998 190.797 174.178 190.797C174.288 190.797 174.396 190.77 174.504 190.715C174.613 190.66 174.704 190.578 174.775 190.467C174.848 190.357 174.884 190.216 174.883 190.046ZM176.835 187.293V191.289H176.252V187.293H176.835Z" fill="#86888A"/>
<path d="M165.705 142.361C165.705 140.541 167.181 139.065 169.001 139.065H177.791C179.612 139.065 181.087 140.541 181.087 142.361V181.839H165.705V142.361Z" fill="#F4F5F6"/>
<path d="M187.454 191.289H186.814L188.252 187.293H188.949L190.386 191.289H189.746L188.617 188.019H188.586L187.454 191.289ZM187.561 189.724H189.637V190.231H187.561V189.724ZM192.815 190.046V188.292H193.4V191.289H192.826V190.77H192.795C192.726 190.93 192.616 191.063 192.464 191.17C192.313 191.275 192.125 191.328 191.9 191.328C191.707 191.328 191.537 191.285 191.389 191.201C191.242 191.115 191.126 190.988 191.041 190.82C190.958 190.653 190.916 190.445 190.916 190.198V188.292H191.5V190.128C191.5 190.332 191.556 190.495 191.67 190.616C191.783 190.736 191.93 190.797 192.11 190.797C192.22 190.797 192.328 190.77 192.436 190.715C192.545 190.66 192.636 190.578 192.707 190.467C192.78 190.357 192.816 190.216 192.815 190.046ZM195.44 192.475C195.202 192.475 194.997 192.443 194.826 192.381C194.655 192.319 194.516 192.236 194.408 192.133C194.3 192.031 194.219 191.918 194.166 191.796L194.668 191.589C194.703 191.646 194.749 191.707 194.808 191.77C194.868 191.835 194.948 191.891 195.05 191.936C195.153 191.982 195.285 192.005 195.446 192.005C195.667 192.005 195.85 191.951 195.994 191.843C196.138 191.736 196.211 191.566 196.211 191.331V190.742H196.174C196.138 190.806 196.088 190.877 196.021 190.955C195.956 191.033 195.867 191.101 195.752 191.158C195.638 191.215 195.489 191.244 195.305 191.244C195.069 191.244 194.855 191.188 194.666 191.078C194.477 190.966 194.327 190.802 194.217 190.584C194.108 190.366 194.053 190.097 194.053 189.779C194.053 189.46 194.107 189.187 194.215 188.959C194.324 188.732 194.474 188.557 194.664 188.436C194.854 188.314 195.069 188.253 195.309 188.253C195.495 188.253 195.646 188.284 195.76 188.347C195.874 188.408 195.964 188.479 196.027 188.561C196.092 188.643 196.142 188.715 196.178 188.778H196.22V188.292H196.792V191.355C196.792 191.612 196.732 191.824 196.613 191.989C196.493 192.154 196.331 192.276 196.127 192.356C195.924 192.435 195.695 192.475 195.44 192.475ZM195.434 190.76C195.602 190.76 195.744 190.721 195.86 190.643C195.977 190.563 196.065 190.45 196.125 190.303C196.186 190.155 196.217 189.978 196.217 189.771C196.217 189.569 196.187 189.392 196.127 189.238C196.067 189.085 195.979 188.965 195.863 188.879C195.748 188.792 195.605 188.749 195.434 188.749C195.259 188.749 195.112 188.794 194.995 188.885C194.878 188.975 194.79 189.097 194.73 189.252C194.671 189.407 194.642 189.58 194.642 189.771C194.642 189.967 194.672 190.14 194.732 190.288C194.792 190.436 194.88 190.552 194.997 190.635C195.116 190.718 195.261 190.76 195.434 190.76Z" fill="#86888A"/>
<path d="M183.702 156.969C183.702 155.149 185.178 153.673 186.998 153.673H196.433C198.253 153.673 199.729 155.149 199.729 156.969V182.292H183.702V156.969Z" fill="#B6CDFF"/>
<path d="M208.021 188.343C208 188.158 207.915 188.015 207.764 187.914C207.613 187.811 207.423 187.759 207.194 187.759C207.03 187.759 206.888 187.785 206.769 187.837C206.649 187.888 206.556 187.958 206.49 188.048C206.425 188.137 206.392 188.237 206.392 188.351C206.392 188.446 206.414 188.527 206.459 188.596C206.504 188.665 206.563 188.723 206.636 188.77C206.71 188.816 206.79 188.854 206.874 188.885C206.959 188.915 207.04 188.94 207.118 188.959L207.508 189.061C207.636 189.092 207.766 189.134 207.9 189.187C208.034 189.241 208.158 189.311 208.273 189.398C208.387 189.485 208.48 189.593 208.55 189.722C208.621 189.851 208.657 190.005 208.657 190.184C208.657 190.411 208.599 190.612 208.482 190.787C208.366 190.963 208.197 191.101 207.976 191.203C207.757 191.304 207.491 191.355 207.178 191.355C206.879 191.355 206.62 191.307 206.402 191.212C206.183 191.118 206.012 190.983 205.889 190.809C205.765 190.633 205.697 190.425 205.684 190.184H206.289C206.301 190.329 206.347 190.449 206.429 190.545C206.513 190.64 206.619 190.711 206.747 190.758C206.877 190.803 207.02 190.826 207.175 190.826C207.345 190.826 207.496 190.8 207.629 190.746C207.763 190.692 207.868 190.616 207.945 190.52C208.022 190.422 208.06 190.309 208.06 190.179C208.06 190.06 208.026 189.963 207.959 189.888C207.892 189.812 207.802 189.75 207.688 189.701C207.574 189.651 207.446 189.608 207.303 189.57L206.831 189.441C206.511 189.354 206.258 189.226 206.07 189.057C205.884 188.888 205.791 188.664 205.791 188.386C205.791 188.155 205.854 187.955 205.979 187.783C206.103 187.611 206.273 187.478 206.486 187.383C206.699 187.287 206.94 187.239 207.208 187.239C207.478 187.239 207.717 187.286 207.924 187.381C208.132 187.476 208.296 187.607 208.415 187.773C208.535 187.938 208.597 188.128 208.603 188.343H208.021ZM210.622 191.349C210.327 191.349 210.073 191.286 209.859 191.16C209.647 191.032 209.484 190.854 209.368 190.623C209.253 190.392 209.196 190.121 209.196 189.81C209.196 189.503 209.253 189.232 209.368 188.998C209.484 188.764 209.645 188.581 209.852 188.45C210.06 188.319 210.303 188.253 210.581 188.253C210.75 188.253 210.914 188.281 211.073 188.337C211.232 188.393 211.374 188.481 211.5 188.6C211.626 188.72 211.726 188.875 211.799 189.067C211.871 189.256 211.908 189.487 211.908 189.759V189.966H209.526V189.529H211.336C211.336 189.375 211.305 189.24 211.243 189.121C211.18 189.002 211.092 188.907 210.979 188.838C210.867 188.769 210.736 188.735 210.585 188.735C210.421 188.735 210.278 188.775 210.156 188.856C210.035 188.935 209.941 189.039 209.875 189.168C209.81 189.295 209.777 189.434 209.777 189.584V189.925C209.777 190.125 209.813 190.296 209.883 190.436C209.954 190.577 210.054 190.684 210.181 190.758C210.309 190.831 210.458 190.867 210.628 190.867C210.739 190.867 210.839 190.852 210.93 190.82C211.021 190.788 211.1 190.74 211.166 190.676C211.233 190.612 211.284 190.534 211.319 190.44L211.871 190.539C211.827 190.702 211.747 190.844 211.633 190.967C211.52 191.088 211.377 191.182 211.206 191.25C211.035 191.316 210.841 191.349 210.622 191.349ZM212.555 192.412V188.292H213.125V188.778H213.173C213.207 188.715 213.256 188.643 213.32 188.561C213.383 188.479 213.472 188.408 213.585 188.347C213.698 188.284 213.848 188.253 214.034 188.253C214.276 188.253 214.492 188.314 214.681 188.436C214.871 188.559 215.02 188.735 215.128 188.965C215.237 189.195 215.292 189.472 215.292 189.796C215.292 190.12 215.238 190.398 215.13 190.629C215.022 190.859 214.874 191.037 214.685 191.162C214.497 191.285 214.282 191.347 214.04 191.347C213.858 191.347 213.709 191.317 213.593 191.255C213.478 191.194 213.389 191.123 213.324 191.041C213.259 190.959 213.209 190.886 213.173 190.822H213.138V192.412H212.555ZM213.127 189.79C213.127 190.001 213.157 190.186 213.218 190.344C213.279 190.503 213.368 190.627 213.484 190.717C213.599 190.805 213.741 190.85 213.909 190.85C214.083 190.85 214.229 190.803 214.346 190.711C214.463 190.617 214.551 190.491 214.611 190.331C214.672 190.171 214.703 189.991 214.703 189.79C214.703 189.593 214.673 189.415 214.613 189.258C214.555 189.1 214.466 188.976 214.348 188.885C214.231 188.794 214.085 188.749 213.909 188.749C213.74 188.749 213.597 188.792 213.48 188.879C213.364 188.966 213.276 189.088 213.216 189.244C213.157 189.4 213.127 189.582 213.127 189.79Z" fill="#86888A"/>
<path d="M203.164 138.653C203.164 136.832 204.639 135.356 206.46 135.356H214.749C216.57 135.356 218.046 136.832 218.046 138.653V182.292H203.164V138.653Z" fill="#F4F5F6"/>
<path d="M228.22 189.291C228.22 189.717 228.142 190.084 227.986 190.391C227.83 190.697 227.616 190.932 227.344 191.097C227.073 191.261 226.766 191.343 226.421 191.343C226.075 191.343 225.766 191.261 225.494 191.097C225.224 190.932 225.011 190.696 224.854 190.389C224.698 190.082 224.62 189.716 224.62 189.291C224.62 188.864 224.698 188.498 224.854 188.193C225.011 187.886 225.224 187.65 225.494 187.486C225.766 187.321 226.075 187.239 226.421 187.239C226.766 187.239 227.073 187.321 227.344 187.486C227.616 187.65 227.83 187.886 227.986 188.193C228.142 188.498 228.22 188.864 228.22 189.291ZM227.623 189.291C227.623 188.966 227.57 188.692 227.465 188.47C227.361 188.246 227.218 188.077 227.036 187.962C226.855 187.847 226.65 187.789 226.421 187.789C226.191 187.789 225.985 187.847 225.805 187.962C225.624 188.077 225.481 188.246 225.375 188.47C225.271 188.692 225.219 188.966 225.219 189.291C225.219 189.616 225.271 189.89 225.375 190.114C225.481 190.337 225.624 190.506 225.805 190.621C225.985 190.736 226.191 190.793 226.421 190.793C226.65 190.793 226.855 190.736 227.036 190.621C227.218 190.506 227.361 190.337 227.465 190.114C227.57 189.89 227.623 189.616 227.623 189.291ZM230.187 191.349C229.897 191.349 229.647 191.283 229.438 191.152C229.229 191.019 229.069 190.837 228.958 190.604C228.846 190.371 228.79 190.104 228.79 189.804C228.79 189.5 228.847 189.231 228.962 188.998C229.076 188.764 229.237 188.581 229.445 188.45C229.653 188.319 229.899 188.253 230.181 188.253C230.408 188.253 230.611 188.295 230.789 188.38C230.968 188.463 231.111 188.58 231.221 188.731C231.331 188.882 231.397 189.058 231.418 189.26H230.85C230.819 189.119 230.747 188.998 230.635 188.897C230.525 188.795 230.377 188.745 230.191 188.745C230.028 188.745 229.886 188.788 229.763 188.873C229.642 188.958 229.548 189.079 229.48 189.236C229.413 189.392 229.379 189.577 229.379 189.79C229.379 190.009 229.412 190.197 229.478 190.356C229.545 190.515 229.638 190.638 229.759 190.725C229.882 190.812 230.025 190.855 230.191 190.855C230.301 190.855 230.401 190.835 230.491 190.795C230.582 190.753 230.658 190.694 230.719 190.617C230.782 190.541 230.825 190.448 230.85 190.34H231.418C231.397 190.534 231.334 190.707 231.228 190.859C231.123 191.012 230.982 191.131 230.805 191.218C230.63 191.305 230.423 191.349 230.187 191.349ZM233.44 188.292V188.76H231.803V188.292H233.44ZM232.242 187.574H232.826V190.409C232.826 190.522 232.843 190.607 232.876 190.664C232.91 190.72 232.954 190.759 233.007 190.779C233.062 190.799 233.121 190.809 233.185 190.809C233.231 190.809 233.272 190.805 233.308 190.799C233.343 190.792 233.37 190.787 233.39 190.783L233.495 191.265C233.461 191.278 233.413 191.291 233.35 191.304C233.288 191.318 233.21 191.326 233.116 191.328C232.963 191.33 232.82 191.303 232.687 191.246C232.555 191.188 232.447 191.1 232.365 190.98C232.283 190.861 232.242 190.71 232.242 190.53V187.574Z" fill="#86888A"/>
<path d="M221.48 132.929C221.48 131.108 222.956 129.632 224.776 129.632H233.066C234.886 129.632 236.362 131.108 236.362 132.929V182.292H221.48V132.929Z" fill="#B6CDFF"/>
<path d="M245.989 187.293V191.289H245.435L243.404 188.358H243.367V191.289H242.764V187.293H243.322L245.355 190.227H245.392V187.293H245.989ZM248.084 191.349C247.803 191.349 247.558 191.285 247.348 191.156C247.139 191.027 246.976 190.847 246.861 190.616C246.745 190.384 246.687 190.113 246.687 189.804C246.687 189.493 246.745 189.221 246.861 188.988C246.976 188.756 247.139 188.575 247.348 188.446C247.558 188.317 247.803 188.253 248.084 188.253C248.365 188.253 248.61 188.317 248.819 188.446C249.029 188.575 249.191 188.756 249.307 188.988C249.423 189.221 249.481 189.493 249.481 189.804C249.481 190.113 249.423 190.384 249.307 190.616C249.191 190.847 249.029 191.027 248.819 191.156C248.61 191.285 248.365 191.349 248.084 191.349ZM248.086 190.859C248.268 190.859 248.419 190.811 248.538 190.715C248.658 190.619 248.747 190.491 248.804 190.331C248.862 190.171 248.892 189.994 248.892 189.802C248.892 189.611 248.862 189.435 248.804 189.275C248.747 189.114 248.658 188.985 248.538 188.887C248.419 188.79 248.268 188.741 248.086 188.741C247.902 188.741 247.75 188.79 247.629 188.887C247.51 188.985 247.421 189.114 247.362 189.275C247.305 189.435 247.276 189.611 247.276 189.802C247.276 189.994 247.305 190.171 247.362 190.331C247.421 190.491 247.51 190.619 247.629 190.715C247.75 190.811 247.902 190.859 248.086 190.859ZM252.593 188.292L251.507 191.289H250.882L249.794 188.292H250.42L251.179 190.598H251.21L251.967 188.292H252.593Z" fill="#86888A"/>
<path d="M239.796 124.915C239.796 123.095 241.272 121.619 243.092 121.619H251.382C253.202 121.619 254.678 123.095 254.678 124.915V182.292H239.796V124.915Z" fill="#F4F5F6"/>
<path d="M262.659 191.289H261.365V187.293H262.7C263.091 187.293 263.427 187.373 263.708 187.533C263.989 187.692 264.205 187.92 264.354 188.218C264.505 188.514 264.58 188.87 264.58 189.285C264.58 189.701 264.504 190.059 264.352 190.358C264.201 190.657 263.983 190.887 263.697 191.049C263.411 191.209 263.065 191.289 262.659 191.289ZM261.968 190.762H262.626C262.93 190.762 263.183 190.705 263.385 190.59C263.586 190.474 263.737 190.307 263.837 190.089C263.937 189.869 263.987 189.601 263.987 189.285C263.987 188.972 263.937 188.706 263.837 188.487C263.738 188.269 263.591 188.103 263.394 187.99C263.198 187.876 262.954 187.82 262.663 187.82H261.968V190.762ZM266.575 191.349C266.279 191.349 266.025 191.286 265.812 191.16C265.6 191.032 265.436 190.854 265.32 190.623C265.206 190.392 265.149 190.121 265.149 189.81C265.149 189.503 265.206 189.232 265.32 188.998C265.436 188.764 265.597 188.581 265.804 188.45C266.012 188.319 266.255 188.253 266.534 188.253C266.703 188.253 266.867 188.281 267.025 188.337C267.184 188.393 267.326 188.481 267.453 188.6C267.579 188.72 267.678 188.875 267.751 189.067C267.824 189.256 267.86 189.487 267.86 189.759V189.966H265.478V189.529H267.289C267.289 189.375 267.257 189.24 267.195 189.121C267.133 189.002 267.045 188.907 266.932 188.838C266.82 188.769 266.688 188.735 266.538 188.735C266.374 188.735 266.231 188.775 266.108 188.856C265.987 188.935 265.894 189.039 265.827 189.168C265.762 189.295 265.73 189.434 265.73 189.584V189.925C265.73 190.125 265.765 190.296 265.835 190.436C265.907 190.577 266.006 190.684 266.134 190.758C266.261 190.831 266.41 190.867 266.581 190.867C266.691 190.867 266.792 190.852 266.883 190.82C266.974 190.788 267.053 190.74 267.119 190.676C267.185 190.612 267.236 190.534 267.271 190.44L267.823 190.539C267.779 190.702 267.7 190.844 267.585 190.967C267.472 191.088 267.33 191.182 267.158 191.25C266.988 191.316 266.793 191.349 266.575 191.349ZM269.77 191.349C269.48 191.349 269.23 191.283 269.021 191.152C268.812 191.019 268.653 190.837 268.541 190.604C268.429 190.371 268.373 190.104 268.373 189.804C268.373 189.5 268.43 189.231 268.545 188.998C268.659 188.764 268.82 188.581 269.028 188.45C269.236 188.319 269.482 188.253 269.764 188.253C269.991 188.253 270.194 188.295 270.373 188.38C270.551 188.463 270.694 188.58 270.804 188.731C270.914 188.882 270.98 189.058 271.001 189.26H270.433C270.402 189.119 270.33 188.998 270.218 188.897C270.108 188.795 269.96 188.745 269.774 188.745C269.611 188.745 269.469 188.788 269.346 188.873C269.225 188.958 269.131 189.079 269.063 189.236C268.996 189.392 268.962 189.577 268.962 189.79C268.962 190.009 268.995 190.197 269.062 190.356C269.128 190.515 269.222 190.638 269.342 190.725C269.465 190.812 269.608 190.855 269.774 190.855C269.884 190.855 269.984 190.835 270.074 190.795C270.165 190.753 270.241 190.694 270.302 190.617C270.365 190.541 270.408 190.448 270.433 190.34H271.001C270.98 190.534 270.917 190.707 270.811 190.859C270.706 191.012 270.565 191.131 270.388 191.218C270.213 191.305 270.006 191.349 269.77 191.349Z" fill="#86888A"/>
<path d="M258.112 122.626C258.112 120.805 259.588 119.33 261.409 119.33H270.843C272.663 119.33 274.139 120.805 274.139 122.626V182.292H258.112V122.626Z" fill="#B6CDFF"/>
<g filter="url(#filter0_d_521_11612)">
<g clip-path="url(#clip0_521_11612)">
<rect x="67" y="8" width="182.037" height="60.4667" rx="7.6379" fill="white"/>
<path d="M232.375 25.0833H238.625V26.1275C238.625 26.39 238.963 26.5183 239.156 26.3317L240.9 24.7042C241.025 24.5875 241.025 24.4067 240.9 24.29L239.156 22.6625C238.963 22.4817 238.625 22.61 238.625 22.8725V23.9167H231.75C231.406 23.9167 231.125 24.1792 231.125 24.5V26.8333C231.125 27.1542 231.406 27.4167 231.75 27.4167C232.094 27.4167 232.375 27.1542 232.375 26.8333V25.0833ZM238.625 30.9167H232.375V29.8725C232.375 29.61 232.038 29.4817 231.844 29.6683L230.1 31.2958C229.975 31.4125 229.975 31.5933 230.1 31.71L231.844 33.3375C232.038 33.5183 232.375 33.39 232.375 33.1275V32.0833H239.25C239.594 32.0833 239.875 31.8208 239.875 31.5V29.1667C239.875 28.8458 239.594 28.5833 239.25 28.5833C238.906 28.5833 238.625 28.8458 238.625 29.1667V30.9167Z" fill="#0033A1"/>
<path d="M115.862 30.9575V25.8656H116.327V28.2002H119.216V25.8656H119.681V30.9575H119.216V28.6179H116.327V30.9575H115.862ZM122.558 30.9575H121.066V25.8656H122.647C123.133 25.8656 123.548 25.9667 123.893 26.1689C124.239 26.3711 124.505 26.6612 124.689 27.0391C124.873 27.417 124.965 27.8704 124.965 28.3991C124.965 28.9328 124.87 29.3912 124.681 29.774C124.494 30.1553 124.22 30.4478 123.861 30.6517C123.503 30.8556 123.068 30.9575 122.558 30.9575ZM121.531 30.5398H122.531C122.968 30.5398 123.334 30.4536 123.629 30.2812C123.924 30.1089 124.146 29.8627 124.293 29.5428C124.441 29.2229 124.515 28.8417 124.515 28.3991C124.513 27.9599 124.44 27.582 124.296 27.2654C124.153 26.9488 123.941 26.706 123.659 26.5369C123.379 26.3678 123.033 26.2833 122.62 26.2833H121.531V30.5398ZM126.127 30.9575V25.8656H129.073V26.2833H126.591V28.2002H128.842V28.6179H126.591V30.9575H126.127ZM134.252 27.4568H133.784C133.75 27.2828 133.687 27.122 133.596 26.9745C133.506 26.8253 133.393 26.6952 133.257 26.5841C133.121 26.4731 132.967 26.3869 132.795 26.3255C132.623 26.2642 132.436 26.2336 132.236 26.2336C131.914 26.2336 131.621 26.3173 131.355 26.4847C131.092 26.6521 130.881 26.8982 130.721 27.2231C130.564 27.5463 130.485 27.9425 130.485 28.4116C130.485 28.8839 130.564 29.2818 130.721 29.605C130.881 29.9282 131.092 30.1735 131.355 30.3409C131.621 30.5067 131.914 30.5895 132.236 30.5895C132.436 30.5895 132.623 30.5589 132.795 30.4976C132.967 30.4362 133.121 30.3509 133.257 30.2415C133.393 30.1304 133.506 30.0003 133.596 29.8511C133.687 29.7019 133.75 29.5403 133.784 29.3663H134.252C134.21 29.6 134.133 29.818 134.018 30.0202C133.905 30.2207 133.761 30.3964 133.586 30.5473C133.412 30.6981 133.211 30.8158 132.984 30.9003C132.757 30.9849 132.507 31.0271 132.236 31.0271C131.808 31.0271 131.428 30.9202 131.097 30.7064C130.765 30.4909 130.505 30.1876 130.316 29.7964C130.129 29.4052 130.035 28.9436 130.035 28.4116C130.035 27.8795 130.129 27.4179 130.316 27.0267C130.505 26.6355 130.765 26.333 131.097 26.1192C131.428 25.9037 131.808 25.796 132.236 25.796C132.507 25.796 132.757 25.8382 132.984 25.9228C133.211 26.0056 133.412 26.1233 133.586 26.2758C133.761 26.4267 133.905 26.6024 134.018 26.8029C134.133 27.0035 134.21 27.2214 134.252 27.4568ZM137.383 30.9575V25.8656H139.101C139.433 25.8656 139.709 25.9236 139.929 26.0396C140.151 26.1557 140.318 26.3139 140.429 26.5145C140.54 26.7151 140.595 26.943 140.595 27.1982C140.595 27.4104 140.56 27.5919 140.489 27.7427C140.417 27.8936 140.32 28.0154 140.198 28.1082C140.075 28.201 139.938 28.2682 139.787 28.3096V28.3494C139.952 28.361 140.111 28.419 140.265 28.5234C140.419 28.6262 140.546 28.7704 140.645 28.9561C140.745 29.1417 140.794 29.3638 140.794 29.6224C140.794 29.8793 140.737 30.1089 140.623 30.3111C140.508 30.5116 140.333 30.6699 140.096 30.786C139.86 30.9003 139.56 30.9575 139.196 30.9575H137.383ZM137.848 30.5398H139.196C139.589 30.5398 139.879 30.4528 140.066 30.2788C140.255 30.1047 140.349 29.8859 140.349 29.6224C140.349 29.4284 140.302 29.2527 140.208 29.0953C140.115 28.9362 139.983 28.8102 139.812 28.7174C139.643 28.6245 139.444 28.5781 139.216 28.5781H137.848V30.5398ZM137.848 28.1654H139.143C139.344 28.1654 139.52 28.124 139.671 28.0411C139.821 27.9582 139.939 27.8438 140.024 27.698C140.108 27.5521 140.15 27.3855 140.15 27.1982C140.15 26.9281 140.063 26.7084 139.887 26.5394C139.711 26.3686 139.449 26.2833 139.101 26.2833H137.848V28.1654ZM142.926 31.0445C142.696 31.0445 142.485 30.9998 142.294 30.9103C142.104 30.8191 141.952 30.6882 141.839 30.5174C141.727 30.3451 141.67 30.1362 141.67 29.8909C141.67 29.7019 141.706 29.5428 141.777 29.4135C141.849 29.2842 141.95 29.1782 142.081 29.0953C142.212 29.0124 142.367 28.9469 142.546 28.8989C142.725 28.8508 142.922 28.8135 143.137 28.787C143.351 28.7605 143.532 28.7373 143.679 28.7174C143.828 28.6975 143.942 28.666 144.02 28.6229C144.098 28.5798 144.137 28.5102 144.137 28.414V28.3245C144.137 28.0643 144.059 27.8596 143.903 27.7104C143.749 27.5596 143.527 27.4842 143.237 27.4842C142.962 27.4842 142.737 27.5447 142.563 27.6657C142.391 27.7867 142.27 27.9292 142.2 28.0933L141.78 27.9416C141.866 27.7328 141.985 27.5662 142.138 27.4419C142.29 27.3159 142.461 27.2256 142.65 27.1709C142.839 27.1145 143.03 27.0864 143.224 27.0864C143.37 27.0864 143.522 27.1054 143.679 27.1435C143.838 27.1817 143.986 27.248 144.122 27.3424C144.258 27.4353 144.368 27.5654 144.453 27.7328C144.537 27.8985 144.579 28.1091 144.579 28.3643V30.9575H144.137V30.3533H144.109C144.056 30.4661 143.978 30.5755 143.873 30.6815C143.769 30.7876 143.638 30.8746 143.48 30.9426C143.323 31.0106 143.138 31.0445 142.926 31.0445ZM142.986 30.6393C143.221 30.6393 143.425 30.5871 143.597 30.4826C143.77 30.3782 143.902 30.2398 143.995 30.0674C144.09 29.8934 144.137 29.7019 144.137 29.4931V28.9411C144.104 28.9726 144.048 29.0008 143.97 29.0257C143.894 29.0505 143.805 29.0729 143.704 29.0928C143.605 29.111 143.505 29.1268 143.406 29.14C143.306 29.1533 143.217 29.1649 143.137 29.1748C142.922 29.2014 142.738 29.2428 142.585 29.2992C142.433 29.3555 142.316 29.4334 142.235 29.5329C142.154 29.6307 142.113 29.7566 142.113 29.9108C142.113 30.1428 142.196 30.3227 142.362 30.4503C142.527 30.5763 142.735 30.6393 142.986 30.6393ZM146.234 28.5707V30.9575H145.792V27.1386H146.222V27.7378H146.262C146.351 27.5422 146.49 27.3855 146.679 27.2679C146.87 27.1485 147.105 27.0888 147.385 27.0888C147.642 27.0888 147.868 27.1427 148.062 27.2505C148.257 27.3565 148.409 27.5132 148.517 27.7204C148.626 27.9276 148.681 28.182 148.681 28.4837V30.9575H148.238V28.511C148.238 28.1977 148.15 27.9499 147.975 27.7676C147.801 27.5853 147.567 27.4941 147.273 27.4941C147.073 27.4941 146.895 27.5372 146.739 27.6234C146.583 27.7096 146.46 27.8339 146.368 27.9963C146.279 28.1571 146.234 28.3486 146.234 28.5707ZM150.284 29.5155L150.279 28.9362H150.378L152.169 27.1386H152.728L150.96 28.9088L150.92 28.9163L150.284 29.5155ZM149.881 30.9575V25.8656H150.324V30.9575H149.881ZM152.261 30.9575L150.709 28.9958L151.027 28.69L152.827 30.9575H152.261Z" fill="#626262"/>
<path d="M122.533 40.444L122.18 41.7468H115.581L115.939 40.444H122.533ZM119.216 48.1416L115.735 43.9547L115.73 42.8508H117.451C117.862 42.8508 118.205 42.7828 118.48 42.6469C118.759 42.5077 118.969 42.3137 119.112 42.0651C119.258 41.8131 119.331 41.5181 119.331 41.18C119.331 40.6728 119.181 40.265 118.883 39.9567C118.585 39.6484 118.107 39.4943 117.451 39.4943H115.581L115.969 37.9577H117.451C118.286 37.9577 118.977 38.087 119.524 38.3456C120.075 38.6009 120.486 38.9622 120.758 39.4296C121.033 39.897 121.17 40.444 121.17 41.0706C121.17 41.6242 121.069 42.1181 120.867 42.5524C120.665 42.9867 120.347 43.343 119.912 43.6215C119.478 43.9 118.91 44.0856 118.207 44.1784L118.147 44.1983L121.29 48.0521V48.1416H119.216ZM122.543 37.9577L122.18 39.2804L116.829 39.2606L117.192 37.9577H122.543ZM128.059 37.9577V48.1416H126.214V39.7528H126.154L123.772 41.2745V39.5838L126.303 37.9577H128.059ZM132.238 46.7493L132.173 47.2963C132.127 47.714 132.044 48.1383 131.925 48.5692C131.809 49.0035 131.686 49.403 131.557 49.7676C131.427 50.1323 131.323 50.419 131.243 50.6279H130.03C130.076 50.4257 130.139 50.1505 130.219 49.8024C130.302 49.4544 130.381 49.0632 130.458 48.6289C130.534 48.1946 130.585 47.7537 130.612 47.3062L130.647 46.7493H132.238ZM134.255 48.1416V46.8089L137.791 43.343C138.129 43.0016 138.411 42.6983 138.636 42.4331C138.862 42.1679 139.031 41.9109 139.143 41.6623C139.256 41.4137 139.313 41.1485 139.313 40.8667C139.313 40.5451 139.24 40.27 139.094 40.0412C138.948 39.8092 138.747 39.6302 138.492 39.5042C138.237 39.3782 137.947 39.3152 137.622 39.3152C137.287 39.3152 136.994 39.3849 136.742 39.5241C136.49 39.66 136.294 39.8539 136.155 40.1059C136.019 40.3578 135.951 40.6579 135.951 41.0059H134.196C134.196 40.3595 134.343 39.7976 134.638 39.3202C134.933 38.8429 135.339 38.4732 135.857 38.2113C136.377 37.9494 136.974 37.8185 137.647 37.8185C138.33 37.8185 138.93 37.9461 139.447 38.2014C139.964 38.4566 140.365 38.8064 140.65 39.2506C140.939 39.6948 141.083 40.202 141.083 40.7722C141.083 41.1535 141.01 41.5281 140.864 41.896C140.718 42.264 140.461 42.6717 140.093 43.1193C139.729 43.5668 139.216 44.1088 138.557 44.7453L136.801 46.5305V46.6001H141.237V48.1416H134.255ZM146.628 48.2808C145.912 48.2808 145.276 48.1582 144.719 47.9129C144.165 47.6675 143.728 47.3261 143.406 46.8885C143.085 46.4509 142.914 45.9454 142.894 45.3719H144.764C144.78 45.647 144.871 45.8874 145.037 46.0929C145.203 46.2951 145.423 46.4526 145.698 46.5653C145.974 46.678 146.282 46.7344 146.623 46.7344C146.988 46.7344 147.311 46.6714 147.593 46.5454C147.875 46.4161 148.095 46.2371 148.254 46.0084C148.413 45.7796 148.491 45.5161 148.488 45.2177C148.491 44.9094 148.412 44.6376 148.249 44.4022C148.087 44.1668 147.852 43.9829 147.543 43.8503C147.238 43.7177 146.87 43.6514 146.439 43.6514H145.539V42.2292H146.439C146.794 42.2292 147.104 42.1679 147.369 42.0452C147.638 41.9225 147.848 41.7502 148.001 41.5281C148.153 41.3026 148.228 41.0424 148.225 40.7474C148.228 40.4589 148.163 40.2087 148.031 39.9965C147.901 39.781 147.717 39.6136 147.479 39.4943C147.243 39.3749 146.966 39.3152 146.648 39.3152C146.337 39.3152 146.048 39.3716 145.783 39.4843C145.518 39.597 145.304 39.7578 145.141 39.9667C144.979 40.1722 144.893 40.4175 144.883 40.7026H143.108C143.121 40.1324 143.285 39.6318 143.6 39.2009C143.918 38.7666 144.343 38.4285 144.873 38.1865C145.403 37.9412 145.998 37.8185 146.658 37.8185C147.338 37.8185 147.928 37.9461 148.428 38.2014C148.932 38.4533 149.322 38.7931 149.597 39.2208C149.872 39.6484 150.01 40.1208 150.01 40.638C150.013 41.2115 149.844 41.6921 149.502 42.08C149.164 42.4679 148.72 42.7215 148.17 42.8408V42.9204C148.886 43.0198 149.435 43.285 149.816 43.716C150.2 44.1436 150.391 44.6757 150.388 45.3122C150.388 45.8824 150.225 46.3929 149.9 46.8438C149.579 47.2913 149.134 47.6427 148.568 47.8979C148.004 48.1532 147.358 48.2808 146.628 48.2808ZM153.948 46.7493L153.883 47.2963C153.837 47.714 153.754 48.1383 153.635 48.5692C153.519 49.0035 153.396 49.403 153.267 49.7676C153.137 50.1323 153.033 50.419 152.953 50.6279H151.74C151.786 50.4257 151.849 50.1505 151.929 49.8024C152.012 49.4544 152.091 49.0632 152.168 48.6289C152.244 48.1946 152.295 47.7537 152.322 47.3062L152.357 46.7493H153.948ZM159.333 48.3355C158.514 48.3355 157.811 48.1283 157.225 47.714C156.641 47.2963 156.192 46.6946 155.877 45.9089C155.565 45.1199 155.41 44.1702 155.41 43.0596C155.413 41.9491 155.57 41.0043 155.882 40.2252C156.197 39.4429 156.646 38.8462 157.23 38.4351C157.816 38.024 158.518 37.8185 159.333 37.8185C160.149 37.8185 160.85 38.024 161.436 38.4351C162.023 38.8462 162.472 39.4429 162.784 40.2252C163.099 41.0076 163.256 41.9524 163.256 43.0596C163.256 44.1735 163.099 45.1249 162.784 45.9139C162.472 46.6995 162.023 47.2996 161.436 47.714C160.853 48.1283 160.152 48.3355 159.333 48.3355ZM159.333 46.7791C159.97 46.7791 160.472 46.4658 160.84 45.8393C161.211 45.2094 161.397 44.2829 161.397 43.0596C161.397 42.2507 161.312 41.5711 161.143 41.0208C160.974 40.4705 160.735 40.0562 160.427 39.7777C160.119 39.4959 159.754 39.355 159.333 39.355C158.7 39.355 158.199 39.67 157.831 40.2998C157.463 40.9264 157.278 41.8463 157.274 43.0596C157.271 43.8718 157.352 44.5547 157.518 45.1083C157.687 45.6619 157.926 46.0796 158.234 46.3614C158.542 46.6399 158.909 46.7791 159.333 46.7791ZM164.746 46.252V44.7851L169.067 37.9577H170.29V40.0462H169.544L166.635 44.6558V44.7354H172.667V46.252H164.746ZM169.604 48.1416V45.8045L169.624 45.1481V37.9577H171.364V48.1416H169.604ZM177.931 48.2808C177.215 48.2808 176.579 48.1582 176.022 47.9129C175.468 47.6675 175.031 47.3261 174.709 46.8885C174.388 46.4509 174.217 45.9454 174.197 45.3719H176.067C176.083 45.647 176.175 45.8874 176.34 46.0929C176.506 46.2951 176.726 46.4526 177.002 46.5653C177.277 46.678 177.585 46.7344 177.927 46.7344C178.291 46.7344 178.614 46.6714 178.896 46.5454C179.178 46.4161 179.398 46.2371 179.558 46.0084C179.717 45.7796 179.795 45.5161 179.791 45.2177C179.795 44.9094 179.715 44.6376 179.553 44.4022C179.39 44.1668 179.155 43.9829 178.846 43.8503C178.541 43.7177 178.173 43.6514 177.743 43.6514H176.842V42.2292H177.743C178.097 42.2292 178.407 42.1679 178.672 42.0452C178.941 41.9225 179.151 41.7502 179.304 41.5281C179.456 41.3026 179.531 41.0424 179.528 40.7474C179.531 40.4589 179.466 40.2087 179.334 39.9965C179.204 39.781 179.02 39.6136 178.782 39.4943C178.546 39.3749 178.27 39.3152 177.951 39.3152C177.64 39.3152 177.351 39.3716 177.086 39.4843C176.821 39.597 176.607 39.7578 176.445 39.9667C176.282 40.1722 176.196 40.4175 176.186 40.7026H174.411C174.424 40.1324 174.588 39.6318 174.903 39.2009C175.221 38.7666 175.646 38.4285 176.176 38.1865C176.707 37.9412 177.302 37.8185 177.961 37.8185C178.641 37.8185 179.231 37.9461 179.732 38.2014C180.235 38.4533 180.625 38.7931 180.9 39.2208C181.175 39.6484 181.313 40.1208 181.313 40.638C181.316 41.2115 181.147 41.6921 180.806 42.08C180.468 42.4679 180.023 42.7215 179.473 42.8408V42.9204C180.189 43.0198 180.738 43.285 181.119 43.716C181.503 44.1436 181.694 44.6757 181.691 45.3122C181.691 45.8824 181.528 46.3929 181.203 46.8438C180.882 47.2913 180.438 47.6427 179.871 47.8979C179.307 48.1532 178.661 48.2808 177.931 48.2808ZM184.247 48.251C183.945 48.251 183.686 48.1449 183.471 47.9328C183.255 47.7206 183.149 47.462 183.153 47.157C183.149 46.8587 183.255 46.6034 183.471 46.3912C183.686 46.1791 183.945 46.073 184.247 46.073C184.538 46.073 184.792 46.1791 185.007 46.3912C185.226 46.6034 185.337 46.8587 185.341 47.157C185.337 47.3592 185.284 47.5432 185.181 47.709C185.082 47.8747 184.949 48.0073 184.784 48.1068C184.621 48.2029 184.442 48.251 184.247 48.251ZM190.568 48.3355C189.749 48.3355 189.046 48.1283 188.459 47.714C187.876 47.2963 187.427 46.6946 187.112 45.9089C186.8 45.1199 186.644 44.1702 186.644 43.0596C186.648 41.9491 186.805 41.0043 187.117 40.2252C187.432 39.4429 187.881 38.8462 188.464 38.4351C189.051 38.024 189.752 37.8185 190.568 37.8185C191.383 37.8185 192.084 38.024 192.671 38.4351C193.258 38.8462 193.707 39.4429 194.019 40.2252C194.334 41.0076 194.491 41.9524 194.491 43.0596C194.491 44.1735 194.334 45.1249 194.019 45.9139C193.707 46.6995 193.258 47.2996 192.671 47.714C192.088 48.1283 191.387 48.3355 190.568 48.3355ZM190.568 46.7791C191.204 46.7791 191.707 46.4658 192.075 45.8393C192.446 45.2094 192.631 44.2829 192.631 43.0596C192.631 42.2507 192.547 41.5711 192.378 41.0208C192.209 40.4705 191.97 40.0562 191.662 39.7777C191.354 39.4959 190.989 39.355 190.568 39.355C189.935 39.355 189.434 39.67 189.066 40.2998C188.698 40.9264 188.513 41.8463 188.509 43.0596C188.506 43.8718 188.587 44.5547 188.753 45.1083C188.922 45.6619 189.161 46.0796 189.469 46.3614C189.777 46.6399 190.144 46.7791 190.568 46.7791ZM199.929 48.3355C199.11 48.3355 198.407 48.1283 197.82 47.714C197.237 47.2963 196.788 46.6946 196.473 45.9089C196.161 45.1199 196.005 44.1702 196.005 43.0596C196.009 41.9491 196.166 41.0043 196.478 40.2252C196.793 39.4429 197.242 38.8462 197.825 38.4351C198.412 38.024 199.113 37.8185 199.929 37.8185C200.744 37.8185 201.445 38.024 202.032 38.4351C202.619 38.8462 203.068 39.4429 203.38 40.2252C203.695 41.0076 203.852 41.9524 203.852 43.0596C203.852 44.1735 203.695 45.1249 203.38 45.9139C203.068 46.6995 202.619 47.2996 202.032 47.714C201.449 48.1283 200.747 48.3355 199.929 48.3355ZM199.929 46.7791C200.565 46.7791 201.067 46.4658 201.435 45.8393C201.807 45.2094 201.992 44.2829 201.992 43.0596C201.992 42.2507 201.908 41.5711 201.739 41.0208C201.57 40.4705 201.331 40.0562 201.023 39.7777C200.714 39.4959 200.35 39.355 199.929 39.355C199.295 39.355 198.795 39.67 198.427 40.2998C198.059 40.9264 197.873 41.8463 197.87 43.0596C197.867 43.8718 197.948 44.5547 198.114 45.1083C198.283 45.6619 198.521 46.0796 198.83 46.3614C199.138 46.6399 199.504 46.7791 199.929 46.7791Z" fill="#404040"/>
<g filter="url(#filter1_d_521_11612)">
<rect x="78.7056" y="25.1851" width="26.0962" height="26.0962" rx="7.6379" fill="white"/>
<path d="M85.3164 32.0398H97.9089V44.6323H85.3164V32.0398Z" fill="#ED232A"/>
<path d="M87.5205 34.2442H95.7065V42.4302H87.5205V34.2442Z" fill="white"/>
<path d="M90.9834 32.0398H92.2421V44.6323H90.9834V32.0398Z" fill="white"/>
<path d="M85.3164 37.7085H97.9089V38.9673H85.3164V37.7085Z" fill="white"/>
<path d="M89.7241 36.4481H93.502V40.2261H89.7241V36.4481Z" fill="#004C8F"/>
</g>
</g>
</g>
<path d="M155.726 102.872H45.6559C43.8552 102.872 42.1621 102.015 41.0965 100.563V100.563C40.3841 99.5926 40 98.4201 40 97.2162V69.8029C40 67.7013 41.2488 66 42.7915 66H155.726C157.269 66 158.518 67.7013 158.518 69.8029V99.0693C158.518 101.171 157.269 102.872 155.726 102.872Z" fill="#EAEAEA"/>
<path d="M155.726 102.872H45.6559C43.8552 102.872 42.1621 102.015 41.0965 100.563V100.563C40.3841 99.5926 40 98.4201 40 97.2162V69.8029C40 67.7013 41.2488 66 42.7915 66H155.726C157.269 66 158.518 67.7013 158.518 69.8029V99.0693C158.518 101.171 157.269 102.872 155.726 102.872Z" fill="#EAEAEA"/>
<path d="M33.9156 63.0056C33.9156 63.0086 33.9181 63.0111 33.9212 63.0111H151.878C153.481 63.0111 154.785 64.7124 154.785 66.8029V96.0693C154.785 98.1709 153.481 99.8721 151.869 99.8721H33.9156C32.3043 99.8721 31 98.1709 31 96.0693V66.8029C31 64.7037 32.3013 63.0039 33.91 63C33.9131 63 33.9156 63.0025 33.9156 63.0056V63.0056Z" fill="white" stroke="black" stroke-opacity="0.1" stroke-miterlimit="10"/>
<path d="M78.6367 80.6992H77.1758C77.1341 80.4596 77.0573 80.2474 76.9453 80.0625C76.8333 79.875 76.694 79.7161 76.5273 79.5859C76.3607 79.4557 76.1706 79.3581 75.957 79.293C75.7461 79.2253 75.5182 79.1914 75.2734 79.1914C74.8385 79.1914 74.4531 79.3008 74.1172 79.5195C73.7813 79.7357 73.5182 80.0534 73.3281 80.4727C73.138 80.8893 73.043 81.3984 73.043 82C73.043 82.612 73.138 83.1276 73.3281 83.5469C73.5208 83.9635 73.7839 84.2786 74.1172 84.4922C74.4531 84.7031 74.8372 84.8086 75.2695 84.8086C75.5091 84.8086 75.7331 84.7773 75.9414 84.7148C76.1523 84.6497 76.3411 84.5547 76.5078 84.4297C76.6771 84.3047 76.819 84.151 76.9336 83.9687C77.0508 83.7865 77.1315 83.5781 77.1758 83.3437L78.6367 83.3516C78.582 83.7318 78.4635 84.0885 78.2812 84.4219C78.1016 84.7552 77.8659 85.0495 77.5742 85.3047C77.2826 85.5573 76.9414 85.7552 76.5508 85.8984C76.1602 86.0391 75.7266 86.1094 75.25 86.1094C74.5469 86.1094 73.9193 85.9466 73.3672 85.6211C72.8151 85.2956 72.3802 84.8255 72.0625 84.2109C71.7448 83.5964 71.5859 82.8594 71.5859 82C71.5859 81.138 71.7461 80.401 72.0664 79.7891C72.3867 79.1745 72.8229 78.7044 73.375 78.3789C73.9271 78.0534 74.5521 77.8906 75.25 77.8906C75.6953 77.8906 76.1094 77.9531 76.4922 78.0781C76.875 78.2031 77.2161 78.3867 77.5156 78.6289C77.8151 78.8685 78.0612 79.1628 78.2539 79.5117C78.4492 79.8581 78.5768 80.2539 78.6367 80.6992ZM82.5186 86.1172C81.9326 86.1172 81.4248 85.9883 80.9951 85.7305C80.5654 85.4727 80.2321 85.112 79.9951 84.6484C79.7607 84.1849 79.6436 83.6432 79.6436 83.0234C79.6436 82.4036 79.7607 81.8607 79.9951 81.3945C80.2321 80.9284 80.5654 80.5664 80.9951 80.3086C81.4248 80.0508 81.9326 79.9219 82.5186 79.9219C83.1045 79.9219 83.6123 80.0508 84.042 80.3086C84.4717 80.5664 84.8037 80.9284 85.0381 81.3945C85.2751 81.8607 85.3936 82.4036 85.3936 83.0234C85.3936 83.6432 85.2751 84.1849 85.0381 84.6484C84.8037 85.112 84.4717 85.4727 84.042 85.7305C83.6123 85.9883 83.1045 86.1172 82.5186 86.1172ZM82.5264 84.9844C82.8441 84.9844 83.1097 84.8971 83.3232 84.7227C83.5368 84.5456 83.6956 84.3086 83.7998 84.0117C83.9066 83.7148 83.96 83.3841 83.96 83.0195C83.96 82.6523 83.9066 82.3203 83.7998 82.0234C83.6956 81.724 83.5368 81.4857 83.3232 81.3086C83.1097 81.1315 82.8441 81.043 82.5264 81.043C82.2008 81.043 81.93 81.1315 81.7139 81.3086C81.5003 81.4857 81.3402 81.724 81.2334 82.0234C81.1292 82.3203 81.0771 82.6523 81.0771 83.0195C81.0771 83.3841 81.1292 83.7148 81.2334 84.0117C81.3402 84.3086 81.5003 84.5456 81.7139 84.7227C81.93 84.8971 82.2008 84.9844 82.5264 84.9844ZM88.0078 78V86H86.5938V78H88.0078ZM90.876 78V86H89.4619V78H90.876ZM94.9863 86.1172C94.3848 86.1172 93.8652 85.9922 93.4277 85.7422C92.9928 85.4896 92.6582 85.1328 92.4238 84.6719C92.1895 84.2083 92.0723 83.6628 92.0723 83.0352C92.0723 82.418 92.1895 81.8763 92.4238 81.4102C92.6608 80.9414 92.9915 80.5768 93.416 80.3164C93.8405 80.0534 94.3392 79.9219 94.9121 79.9219C95.2819 79.9219 95.6309 79.9818 95.959 80.1016C96.2897 80.2187 96.5814 80.401 96.834 80.6484C97.0892 80.8958 97.2897 81.2109 97.4355 81.5937C97.5814 81.974 97.6543 82.4271 97.6543 82.9531V83.3867H92.7363V82.4336H96.2988C96.2962 82.1628 96.2376 81.9219 96.123 81.7109C96.0085 81.4974 95.8483 81.3294 95.6426 81.207C95.4395 81.0846 95.2025 81.0234 94.9316 81.0234C94.6426 81.0234 94.3887 81.0937 94.1699 81.2344C93.9512 81.3724 93.7806 81.5547 93.6582 81.7812C93.5384 82.0052 93.4772 82.2513 93.4746 82.5195V83.3516C93.4746 83.7005 93.5384 84 93.666 84.25C93.7936 84.4974 93.972 84.6875 94.2012 84.8203C94.4303 84.9505 94.6986 85.0156 95.0059 85.0156C95.2116 85.0156 95.3978 84.987 95.5645 84.9297C95.7311 84.8698 95.8757 84.7826 95.998 84.668C96.1204 84.5534 96.2129 84.4115 96.2754 84.2422L97.5957 84.3906C97.5124 84.7396 97.3535 85.0443 97.1191 85.3047C96.8874 85.5625 96.5905 85.763 96.2285 85.9062C95.8665 86.0469 95.4525 86.1172 94.9863 86.1172ZM101.468 86.1172C100.869 86.1172 100.354 85.9857 99.9248 85.7227C99.4977 85.4596 99.1683 85.0964 98.9365 84.6328C98.7074 84.1667 98.5928 83.6302 98.5928 83.0234C98.5928 82.4141 98.71 81.8763 98.9443 81.4102C99.1787 80.9414 99.5094 80.5768 99.9365 80.3164C100.366 80.0534 100.874 79.9219 101.46 79.9219C101.947 79.9219 102.378 80.0117 102.753 80.1914C103.131 80.3685 103.431 80.6198 103.655 80.9453C103.879 81.2682 104.007 81.6458 104.038 82.0781H102.687C102.632 81.7891 102.502 81.5482 102.296 81.3555C102.093 81.1602 101.821 81.0625 101.479 81.0625C101.19 81.0625 100.937 81.1406 100.718 81.2969C100.499 81.4505 100.328 81.6719 100.206 81.9609C100.086 82.25 100.026 82.5964 100.026 83C100.026 83.4089 100.086 83.7604 100.206 84.0547C100.326 84.3464 100.494 84.5716 100.71 84.7305C100.929 84.8867 101.185 84.9648 101.479 84.9648C101.688 84.9648 101.874 84.9258 102.038 84.8477C102.205 84.7669 102.344 84.651 102.456 84.5C102.568 84.349 102.645 84.1654 102.687 83.9492H104.038C104.004 84.3737 103.879 84.75 103.663 85.0781C103.447 85.4036 103.153 85.6589 102.78 85.8437C102.408 86.026 101.97 86.1172 101.468 86.1172ZM108.195 80V81.0937H104.746V80H108.195ZM105.598 78.5625H107.012V84.1953C107.012 84.3854 107.04 84.5313 107.098 84.6328C107.158 84.7318 107.236 84.7995 107.332 84.8359C107.428 84.8724 107.535 84.8906 107.652 84.8906C107.741 84.8906 107.822 84.8841 107.895 84.8711C107.97 84.8581 108.027 84.8464 108.066 84.8359L108.305 85.9414C108.229 85.9674 108.121 85.9961 107.98 86.0273C107.842 86.0586 107.673 86.0768 107.473 86.082C107.118 86.0924 106.799 86.0391 106.516 85.9219C106.232 85.8021 106.007 85.6172 105.84 85.3672C105.676 85.1172 105.595 84.8047 105.598 84.4297V78.5625ZM109.378 86V80H110.792V86H109.378ZM110.089 79.1484C109.865 79.1484 109.672 79.0742 109.511 78.9258C109.349 78.7747 109.269 78.5937 109.269 78.3828C109.269 78.1693 109.349 77.9883 109.511 77.8398C109.672 77.6888 109.865 77.6133 110.089 77.6133C110.315 77.6133 110.508 77.6888 110.667 77.8398C110.828 77.9883 110.909 78.1693 110.909 78.3828C110.909 78.5937 110.828 78.7747 110.667 78.9258C110.508 79.0742 110.315 79.1484 110.089 79.1484ZM114.863 86.1172C114.277 86.1172 113.77 85.9883 113.34 85.7305C112.91 85.4727 112.577 85.112 112.34 84.6484C112.105 84.1849 111.988 83.6432 111.988 83.0234C111.988 82.4036 112.105 81.8607 112.34 81.3945C112.577 80.9284 112.91 80.5664 113.34 80.3086C113.77 80.0508 114.277 79.9219 114.863 79.9219C115.449 79.9219 115.957 80.0508 116.387 80.3086C116.816 80.5664 117.148 80.9284 117.383 81.3945C117.62 81.8607 117.738 82.4036 117.738 83.0234C117.738 83.6432 117.62 84.1849 117.383 84.6484C117.148 85.112 116.816 85.4727 116.387 85.7305C115.957 85.9883 115.449 86.1172 114.863 86.1172ZM114.871 84.9844C115.189 84.9844 115.454 84.8971 115.668 84.7227C115.882 84.5456 116.04 84.3086 116.145 84.0117C116.251 83.7148 116.305 83.3841 116.305 83.0195C116.305 82.6523 116.251 82.3203 116.145 82.0234C116.04 81.724 115.882 81.4857 115.668 81.3086C115.454 81.1315 115.189 81.043 114.871 81.043C114.546 81.043 114.275 81.1315 114.059 81.3086C113.845 81.4857 113.685 81.724 113.578 82.0234C113.474 82.3203 113.422 82.6523 113.422 83.0195C113.422 83.3841 113.474 83.7148 113.578 84.0117C113.685 84.3086 113.845 84.5456 114.059 84.7227C114.275 84.8971 114.546 84.9844 114.871 84.9844ZM120.353 82.4844V86H118.938V80H120.29V81.0195H120.36C120.498 80.6836 120.718 80.4167 121.021 80.2187C121.325 80.0208 121.701 79.9219 122.149 79.9219C122.563 79.9219 122.924 80.0104 123.231 80.1875C123.541 80.3646 123.781 80.6211 123.95 80.957C124.122 81.293 124.207 81.7005 124.204 82.1797V86H122.79V82.3984C122.79 81.9974 122.686 81.6836 122.478 81.457C122.272 81.2305 121.987 81.1172 121.622 81.1172C121.375 81.1172 121.155 81.1719 120.962 81.2812C120.772 81.388 120.622 81.543 120.513 81.7461C120.406 81.9492 120.353 82.1953 120.353 82.4844ZM130.384 81.5859L129.095 81.7266C129.058 81.5964 128.994 81.474 128.903 81.3594C128.815 81.2448 128.695 81.1523 128.544 81.082C128.393 81.0117 128.208 80.9766 127.989 80.9766C127.695 80.9766 127.448 81.0404 127.247 81.168C127.049 81.2956 126.951 81.4609 126.954 81.6641C126.951 81.8385 127.015 81.9805 127.146 82.0898C127.278 82.1992 127.497 82.2891 127.802 82.3594L128.825 82.5781C129.393 82.7005 129.815 82.8945 130.091 83.1602C130.369 83.4258 130.51 83.7734 130.513 84.2031C130.51 84.5807 130.399 84.9141 130.181 85.2031C129.965 85.4896 129.664 85.7135 129.278 85.875C128.893 86.0365 128.45 86.1172 127.95 86.1172C127.216 86.1172 126.625 85.9635 126.177 85.6562C125.729 85.3464 125.462 84.9154 125.376 84.3633L126.755 84.2305C126.817 84.5013 126.95 84.7057 127.153 84.8437C127.356 84.9818 127.621 85.0508 127.946 85.0508C128.282 85.0508 128.552 84.9818 128.755 84.8437C128.961 84.7057 129.063 84.5352 129.063 84.332C129.063 84.1602 128.997 84.0182 128.864 83.9062C128.734 83.7943 128.531 83.7083 128.255 83.6484L127.231 83.4336C126.656 83.3138 126.23 83.112 125.954 82.8281C125.678 82.5417 125.541 82.1797 125.544 81.7422C125.541 81.3724 125.642 81.0521 125.845 80.7812C126.05 80.5078 126.336 80.2969 126.7 80.1484C127.067 79.9974 127.491 79.9219 127.97 79.9219C128.673 79.9219 129.226 80.0716 129.63 80.3711C130.036 80.6706 130.287 81.0755 130.384 81.5859Z" fill="#979797"/>
<path d="M51.4324 68C42.185 68 38 71.4784 38 81.4324C38 90.6799 41.4784 94.8649 51.4324 94.8649C60.6799 94.8649 64.8649 91.3865 64.8649 81.4324C64.8649 72.185 61.3865 68 51.4324 68Z" fill="#F6F7FB"/>
<g clip-path="url(#clip1_521_11612)">
<path d="M55.017 79.3611V83.4576C55.017 84.3107 54.3239 84.9949 53.4797 85.0038H49.3742C48.53 85.0038 47.8369 84.3107 47.8369 83.4576V79.3611C47.8369 78.508 48.53 77.8237 49.3742 77.8237H53.4797C54.3239 77.8237 55.017 78.508 55.017 79.3611V79.3611Z" fill="#4E74C7"/>
<path d="M55.2603 84.6548H56.4422C56.6999 84.6548 56.9132 84.8681 56.9132 85.1258V86.3076C56.9132 86.5653 56.7088 86.7697 56.4511 86.7697H55.2692C55.0115 86.7697 54.8071 86.5653 54.8071 86.3076V85.1258C54.8071 84.8681 55.0115 84.6637 55.2692 84.6637L55.2603 84.6548Z" fill="#4E74C7"/>
<path d="M55.6509 80.8336H56.3084C56.4506 80.8336 56.5661 80.9491 56.5661 81.0913V81.7489C56.5661 81.8911 56.4506 82.0066 56.3084 82.0066H55.642C55.4998 82.0066 55.3843 81.8911 55.3843 81.7489V81.0824C55.3843 80.9402 55.4998 80.8247 55.642 80.8247L55.6509 80.8336Z" fill="#4E74C7"/>
<path d="M46.3747 75.8843H47.7165C47.992 75.8843 48.223 76.1064 48.223 76.3908V77.7326C48.223 78.0081 48.0009 78.2391 47.7165 78.2391H46.3747C46.0992 78.2391 45.8682 78.017 45.8682 77.7326V76.3908C45.8682 76.1153 46.0903 75.8843 46.3747 75.8843V75.8843Z" fill="#4E74C7"/>
<path d="M55.0612 75.8843H56.403C56.6785 75.8843 56.9095 76.1064 56.9095 76.3908V77.7326C56.9095 78.0081 56.6874 78.2391 56.403 78.2391H55.0612C54.7857 78.2391 54.5547 78.017 54.5547 77.7326V76.3908C54.5547 76.1153 54.7768 75.8843 55.0612 75.8843V75.8843Z" fill="#4E74C7"/>
<path d="M49.151 84.3373V86.1056C49.151 86.47 48.8755 86.7632 48.5379 86.7721H46.8939C46.5562 86.7721 46.2808 86.47 46.2808 86.1056V84.3373C46.2808 83.9729 46.5562 83.6797 46.8939 83.6797H48.5379C48.8755 83.6797 49.151 83.9729 49.151 84.3373Z" fill="#4E74C7"/>
<path d="M47.521 80.6297V81.6427C47.521 81.856 47.3611 82.0248 47.1656 82.0248H46.2236C46.0281 82.0248 45.8682 81.856 45.8682 81.6427V80.6297C45.8682 80.4164 46.0281 80.2476 46.2236 80.2476H47.1656C47.3611 80.2476 47.521 80.4164 47.521 80.6297V80.6297Z" fill="#4E74C7"/>
<path d="M50.6236 79.439C52.6586 79.439 52.5164 82.0071 50.2148 81.6072L51.9743 83.6422" stroke="white" stroke-width="0.399232" stroke-linecap="round" stroke-linejoin="round"/>
<path d="M50.0796 80.6553H52.6477" stroke="white" stroke-width="0.399232" stroke-linecap="round" stroke-linejoin="round"/>
<path d="M50.2148 79.439H52.783" stroke="white" stroke-width="0.399232" stroke-linecap="round" stroke-linejoin="round"/>
<path d="M47.5092 87.9356V88.5932H44.71C44.4612 88.5932 44.2568 88.3888 44.2568 88.14V85.3408H44.9144V87.4824C44.9144 87.7312 45.1188 87.9356 45.3676 87.9356H47.5092Z" fill="#404040"/>
<path d="M58.5854 85.3335V88.1327C58.5854 88.3815 58.381 88.5859 58.1322 88.5859H55.333V87.9283H57.4746C57.7234 87.9283 57.9278 87.7239 57.9278 87.4751V85.3335H58.5854Z" fill="#404040"/>
<path d="M58.1209 74.2705C58.3698 74.2705 58.5741 74.4749 58.5741 74.7237V77.5318H57.9166V75.3902C57.9166 75.1414 57.7122 74.937 57.4634 74.937H55.3218V74.2705H58.1209Z" fill="#404040"/>
<path d="M47.5092 74.2705V74.9281H45.3765C45.1277 74.9281 44.9233 75.1325 44.9233 75.3813V77.5318H44.2568V74.7237C44.2568 74.4749 44.4612 74.2705 44.71 74.2705H47.5092Z" fill="#404040"/>
</g>
<path d="M280.268 104H172.621C170.808 104 169.106 103.125 168.051 101.651V101.651C167.367 100.697 167 99.5529 167 98.3792V70.8161C167 68.7072 168.222 67 169.732 67H280.268C281.778 67 283 68.7072 283 70.8161V100.184C283 102.293 281.778 104 280.268 104Z" fill="#EAEAEA"/>
<path d="M166.709 62.0057C166.709 62.0089 166.711 62.0114 166.714 62.0114H276.299C277.788 62.0114 279 63.7593 279 65.907V95.9753C279 98.1344 277.788 99.8823 276.291 99.8823H166.709C165.212 99.8823 164 98.1344 164 95.9753V65.907C164 63.7506 165.209 62.0045 166.703 62C166.706 62 166.709 62.0026 166.709 62.0057V62.0057Z" fill="#4E74C7"/>
<path d="M183.863 67.2881C174.362 67.2881 170.062 70.8617 170.062 81.0885C170.062 90.5894 173.636 94.889 183.863 94.889C193.364 94.889 197.663 91.3153 197.663 81.0885C197.663 71.5877 194.09 67.2881 183.863 67.2881Z" fill="#F6F7FB"/>
<g clip-path="url(#clip2_521_11612)">
<path d="M180.459 87.1529C181.979 87.1529 183.212 85.9203 183.212 84.3999C183.212 82.8795 181.979 81.647 180.459 81.647C178.939 81.647 177.706 82.8795 177.706 84.3999C177.706 85.9203 178.939 87.1529 180.459 87.1529Z" fill="#4E74C7"/>
<path d="M189.739 75.2876L183.324 81.6928C183.269 81.6378 183.205 81.6011 183.132 81.5827L178.58 80.2154C178.103 80.0594 177.837 79.5547 177.993 79.0683C178.076 78.793 178.287 78.582 178.553 78.4902L188.812 75.0674C189.133 74.9573 189.5 75.0399 189.739 75.2876Z" fill="#4E74C7"/>
<path d="M189.743 75.2861C189.991 75.5247 190.073 75.8826 189.963 76.213L186.54 86.4723C186.375 86.9495 185.852 87.1972 185.375 87.0229C185.109 86.9311 184.898 86.7109 184.815 86.4448L183.448 81.884C183.43 81.8106 183.384 81.7464 183.338 81.6913L189.743 75.2861Z" fill="#404040"/>
</g>
<path d="M207.436 85.4707V77.4707H210.436C211.051 77.4707 211.566 77.5853 211.983 77.8145C212.402 78.0436 212.719 78.3587 212.932 78.7598C213.148 79.1582 213.256 79.6113 213.256 80.1191C213.256 80.6322 213.148 81.0879 212.932 81.4863C212.716 81.8848 212.397 82.1986 211.975 82.4277C211.553 82.6543 211.034 82.7676 210.417 82.7676H208.428V81.5762H210.221C210.581 81.5762 210.875 81.5137 211.104 81.3887C211.333 81.2637 211.502 81.0918 211.612 80.873C211.724 80.6543 211.78 80.403 211.78 80.1191C211.78 79.8353 211.724 79.5853 211.612 79.3691C211.502 79.153 211.332 78.985 211.1 78.8652C210.871 78.7428 210.575 78.6816 210.213 78.6816H208.885V85.4707H207.436ZM216.072 85.5918C215.692 85.5918 215.349 85.5241 215.044 85.3887C214.742 85.2507 214.503 85.0475 214.326 84.7793C214.151 84.5111 214.064 84.1803 214.064 83.7871C214.064 83.4486 214.126 83.1686 214.251 82.9473C214.376 82.7259 214.547 82.5488 214.763 82.416C214.979 82.2832 215.223 82.1829 215.494 82.1152C215.767 82.0449 216.05 81.9941 216.341 81.9629C216.693 81.9264 216.978 81.8939 217.197 81.8652C217.416 81.834 217.574 81.7871 217.673 81.7246C217.775 81.6595 217.826 81.5592 217.826 81.4238V81.4004C217.826 81.1061 217.738 80.8783 217.564 80.7168C217.389 80.5553 217.138 80.4746 216.81 80.4746C216.464 80.4746 216.189 80.5501 215.986 80.7012C215.785 80.8522 215.65 81.0306 215.58 81.2363L214.259 81.0488C214.363 80.6842 214.535 80.3796 214.775 80.1348C215.014 79.8874 215.307 79.7025 215.654 79.5801C216 79.4551 216.383 79.3926 216.802 79.3926C217.091 79.3926 217.379 79.4264 217.666 79.4941C217.952 79.5618 218.214 79.6738 218.451 79.8301C218.688 79.9837 218.878 80.1934 219.021 80.459C219.167 80.7246 219.24 81.0566 219.24 81.4551V85.4707H217.88V84.6465H217.833C217.748 84.8132 217.626 84.9694 217.47 85.1152C217.317 85.2585 217.123 85.3743 216.888 85.4629C216.656 85.5488 216.384 85.5918 216.072 85.5918ZM216.439 84.5527C216.723 84.5527 216.969 84.4967 217.177 84.3848C217.386 84.2702 217.546 84.1191 217.658 83.9316C217.772 83.7441 217.83 83.5397 217.83 83.3184V82.6113C217.785 82.6478 217.71 82.6816 217.603 82.7129C217.499 82.7441 217.382 82.7715 217.251 82.7949C217.121 82.8184 216.992 82.8392 216.865 82.8574C216.737 82.8757 216.626 82.8913 216.533 82.9043C216.322 82.9329 216.133 82.9798 215.966 83.0449C215.8 83.11 215.668 83.2012 215.572 83.3184C215.475 83.4329 215.427 83.5814 215.427 83.7637C215.427 84.0241 215.522 84.2207 215.712 84.3535C215.903 84.4863 216.145 84.5527 216.439 84.5527ZM221.326 87.7207C221.133 87.7207 220.955 87.7051 220.791 87.6738C220.629 87.6452 220.5 87.6113 220.404 87.5723L220.732 86.4707C220.938 86.5306 221.121 86.5592 221.283 86.5566C221.444 86.554 221.586 86.5033 221.708 86.4043C221.833 86.3079 221.939 86.1465 222.025 85.9199L222.146 85.5957L219.97 79.4707H221.47L222.853 84.002H222.916L224.302 79.4707H225.806L223.404 86.1973C223.292 86.515 223.143 86.7871 222.958 87.0137C222.774 87.2428 222.547 87.4173 222.279 87.5371C222.013 87.6595 221.695 87.7207 221.326 87.7207ZM229.198 85.5879C228.612 85.5879 228.104 85.459 227.674 85.2012C227.245 84.9434 226.911 84.5827 226.674 84.1191C226.44 83.6556 226.323 83.1139 226.323 82.4941C226.323 81.8743 226.44 81.3314 226.674 80.8652C226.911 80.3991 227.245 80.0371 227.674 79.7793C228.104 79.5215 228.612 79.3926 229.198 79.3926C229.784 79.3926 230.292 79.5215 230.721 79.7793C231.151 80.0371 231.483 80.3991 231.717 80.8652C231.954 81.3314 232.073 81.8743 232.073 82.4941C232.073 83.1139 231.954 83.6556 231.717 84.1191C231.483 84.5827 231.151 84.9434 230.721 85.2012C230.292 85.459 229.784 85.5879 229.198 85.5879ZM229.206 84.4551C229.523 84.4551 229.789 84.3678 230.002 84.1934C230.216 84.0163 230.375 83.7793 230.479 83.4824C230.586 83.1855 230.639 82.8548 230.639 82.4902C230.639 82.123 230.586 81.791 230.479 81.4941C230.375 81.1947 230.216 80.9564 230.002 80.7793C229.789 80.6022 229.523 80.5137 229.206 80.5137C228.88 80.5137 228.609 80.6022 228.393 80.7793C228.18 80.9564 228.019 81.1947 227.913 81.4941C227.808 81.791 227.756 82.123 227.756 82.4902C227.756 82.8548 227.808 83.1855 227.913 83.4824C228.019 83.7793 228.18 84.0163 228.393 84.1934C228.609 84.3678 228.88 84.4551 229.206 84.4551ZM237.097 82.9473V79.4707H238.511V85.4707H237.14V84.4043H237.078C236.942 84.7402 236.72 85.015 236.41 85.2285C236.102 85.4421 235.723 85.5488 235.273 85.5488C234.88 85.5488 234.532 85.4616 234.23 85.2871C233.931 85.11 233.696 84.8535 233.527 84.5176C233.358 84.179 233.273 83.7702 233.273 83.291V79.4707H234.687V83.0723C234.687 83.4525 234.791 83.7546 235 83.9785C235.208 84.2025 235.481 84.3145 235.82 84.3145C236.028 84.3145 236.23 84.2637 236.425 84.1621C236.621 84.0605 236.781 83.9095 236.906 83.709C237.033 83.5059 237.097 83.252 237.097 82.9473ZM242.961 79.4707V80.5645H239.512V79.4707H242.961ZM240.364 78.0332H241.778V83.666C241.778 83.8561 241.806 84.002 241.864 84.1035C241.924 84.2025 242.002 84.2702 242.098 84.3066C242.194 84.3431 242.301 84.3613 242.418 84.3613C242.507 84.3613 242.588 84.3548 242.661 84.3418C242.736 84.3288 242.793 84.3171 242.833 84.3066L243.071 85.4121C242.995 85.4382 242.887 85.4668 242.747 85.498C242.609 85.5293 242.439 85.5475 242.239 85.5527C241.885 85.5632 241.566 85.5098 241.282 85.3926C240.998 85.2728 240.773 85.0879 240.606 84.8379C240.442 84.5879 240.361 84.2754 240.364 83.9004V78.0332ZM248.8 81.0566L247.511 81.1973C247.475 81.0671 247.411 80.9447 247.32 80.8301C247.231 80.7155 247.111 80.623 246.96 80.5527C246.809 80.4824 246.625 80.4473 246.406 80.4473C246.111 80.4473 245.864 80.5111 245.664 80.6387C245.466 80.7663 245.368 80.9316 245.371 81.1348C245.368 81.3092 245.432 81.4512 245.562 81.5605C245.695 81.6699 245.914 81.7598 246.218 81.8301L247.242 82.0488C247.809 82.1712 248.231 82.3652 248.507 82.6309C248.786 82.8965 248.927 83.2441 248.929 83.6738C248.927 84.0514 248.816 84.3848 248.597 84.6738C248.381 84.9603 248.08 85.1842 247.695 85.3457C247.309 85.5072 246.867 85.5879 246.367 85.5879C245.632 85.5879 245.041 85.4342 244.593 85.127C244.145 84.8171 243.878 84.3861 243.792 83.834L245.171 83.7012C245.234 83.972 245.367 84.1764 245.57 84.3145C245.773 84.4525 246.037 84.5215 246.363 84.5215C246.699 84.5215 246.968 84.4525 247.171 84.3145C247.377 84.1764 247.48 84.0059 247.48 83.8027C247.48 83.6309 247.414 83.4889 247.281 83.377C247.151 83.265 246.947 83.179 246.671 83.1191L245.648 82.9043C245.072 82.7845 244.647 82.5827 244.371 82.2988C244.095 82.0124 243.958 81.6504 243.96 81.2129C243.958 80.8431 244.058 80.5228 244.261 80.252C244.467 79.9785 244.752 79.7676 245.117 79.6191C245.484 79.4681 245.907 79.3926 246.386 79.3926C247.089 79.3926 247.643 79.5423 248.046 79.8418C248.453 80.1413 248.704 80.5462 248.8 81.0566Z" fill="white"/>
<defs>
<filter id="filter0_d_521_11612" x="62.5446" y="6.09052" width="190.948" height="69.3777" filterUnits="userSpaceOnUse" color-interpolation-filters="sRGB">
<feFlood flood-opacity="0" result="BackgroundImageFix"/>
<feColorMatrix in="SourceAlpha" type="matrix" values="0 0 0 0 0 0 0 0 0 0 0 0 0 0 0 0 0 0 127 0" result="hardAlpha"/>
<feOffset dy="2.54597"/>
<feGaussianBlur stdDeviation="2.22772"/>
<feComposite in2="hardAlpha" operator="out"/>
<feColorMatrix type="matrix" values="0 0 0 0 0 0 0 0 0 0 0 0 0 0 0 0 0 0 0.14 0"/>
<feBlend mode="normal" in2="BackgroundImageFix" result="effect1_dropShadow_521_11612"/>
<feBlend mode="normal" in="SourceGraphic" in2="effect1_dropShadow_521_11612" result="shape"/>
</filter>
<filter id="filter1_d_521_11612" x="73.6136" y="22.6391" width="36.2801" height="36.2801" filterUnits="userSpaceOnUse" color-interpolation-filters="sRGB">
<feFlood flood-opacity="0" result="BackgroundImageFix"/>
<feColorMatrix in="SourceAlpha" type="matrix" values="0 0 0 0 0 0 0 0 0 0 0 0 0 0 0 0 0 0 127 0" result="hardAlpha"/>
<feOffset dy="2.54597"/>
<feGaussianBlur stdDeviation="2.54597"/>
<feComposite in2="hardAlpha" operator="out"/>
<feColorMatrix type="matrix" values="0 0 0 0 0 0 0 0 0 0 0 0 0 0 0 0 0 0 0.07 0"/>
<feBlend mode="normal" in2="BackgroundImageFix" result="effect1_dropShadow_521_11612"/>
<feBlend mode="normal" in="SourceGraphic" in2="effect1_dropShadow_521_11612" result="shape"/>
</filter>
<clipPath id="clip0_521_11612">
<rect x="67" y="8" width="182.037" height="60.4667" rx="7.6379" fill="white"/>
</clipPath>
<clipPath id="clip1_521_11612">
<rect x="44.2686" y="74.2686" width="14.3246" height="14.3246" rx="7.16232" fill="white"/>
</clipPath>
<clipPath id="clip2_521_11612">
<rect x="177.708" y="74.939" width="12.2965" height="12.2965" rx="6.14826" fill="white"/>
</clipPath>
</defs>
</svg>
