<svg width="589" height="745" viewBox="0 0 589 745" fill="none" xmlns="http://www.w3.org/2000/svg">
<path d="M0 20C0 8.9543 8.95431 0 20 0H569C580.046 0 589 8.95431 589 20V725C589 736.046 580.046 745 569 745H20C8.95431 745 0 736.046 0 725V20Z" fill="#F5F6FA"/>
<rect x="104" y="156" width="382" height="547" rx="12" fill="white"/>
<path d="M261.719 208.131C261.628 207.324 261.253 206.699 260.594 206.256C259.935 205.807 259.105 205.582 258.105 205.582C257.389 205.582 256.77 205.696 256.247 205.923C255.724 206.145 255.318 206.452 255.028 206.844C254.744 207.23 254.602 207.67 254.602 208.165C254.602 208.58 254.699 208.937 254.892 209.239C255.091 209.54 255.349 209.793 255.668 209.997C255.991 210.196 256.338 210.364 256.707 210.5C257.077 210.631 257.432 210.739 257.773 210.824L259.477 211.267C260.034 211.403 260.605 211.588 261.19 211.821C261.776 212.054 262.318 212.361 262.818 212.741C263.318 213.122 263.722 213.594 264.028 214.156C264.341 214.719 264.497 215.392 264.497 216.176C264.497 217.165 264.241 218.043 263.73 218.81C263.224 219.577 262.489 220.182 261.523 220.625C260.563 221.068 259.401 221.29 258.037 221.29C256.73 221.29 255.599 221.082 254.645 220.668C253.69 220.253 252.943 219.665 252.403 218.903C251.864 218.136 251.565 217.227 251.509 216.176H254.151C254.202 216.807 254.406 217.332 254.764 217.753C255.128 218.168 255.591 218.477 256.153 218.682C256.722 218.881 257.344 218.98 258.02 218.98C258.764 218.98 259.426 218.864 260.006 218.631C260.591 218.392 261.051 218.062 261.386 217.642C261.722 217.216 261.889 216.719 261.889 216.151C261.889 215.634 261.741 215.21 261.446 214.881C261.156 214.551 260.761 214.278 260.261 214.062C259.767 213.847 259.207 213.656 258.582 213.491L256.52 212.929C255.122 212.548 254.014 211.989 253.196 211.25C252.384 210.511 251.977 209.534 251.977 208.318C251.977 207.312 252.25 206.435 252.795 205.685C253.341 204.935 254.08 204.352 255.011 203.938C255.943 203.517 256.994 203.307 258.165 203.307C259.347 203.307 260.389 203.514 261.293 203.929C262.202 204.344 262.918 204.915 263.44 205.642C263.963 206.364 264.236 207.193 264.259 208.131H261.719ZM267.44 221V207.909H269.988V221H267.44ZM268.727 205.889C268.283 205.889 267.903 205.741 267.585 205.446C267.272 205.145 267.116 204.787 267.116 204.372C267.116 203.952 267.272 203.594 267.585 203.298C267.903 202.997 268.283 202.847 268.727 202.847C269.17 202.847 269.548 202.997 269.86 203.298C270.178 203.594 270.337 203.952 270.337 204.372C270.337 204.787 270.178 205.145 269.86 205.446C269.548 205.741 269.17 205.889 268.727 205.889ZM278.905 226.182C277.865 226.182 276.97 226.045 276.22 225.773C275.476 225.5 274.868 225.139 274.396 224.69C273.925 224.241 273.572 223.75 273.339 223.216L275.53 222.312C275.683 222.562 275.888 222.827 276.143 223.105C276.405 223.389 276.757 223.631 277.2 223.83C277.649 224.028 278.226 224.128 278.93 224.128C279.896 224.128 280.695 223.892 281.325 223.42C281.956 222.955 282.271 222.21 282.271 221.188V218.614H282.109C281.956 218.892 281.734 219.202 281.445 219.543C281.161 219.884 280.768 220.179 280.268 220.429C279.768 220.679 279.118 220.804 278.317 220.804C277.283 220.804 276.351 220.562 275.521 220.08C274.697 219.591 274.044 218.872 273.561 217.923C273.084 216.969 272.845 215.795 272.845 214.403C272.845 213.011 273.081 211.818 273.553 210.824C274.03 209.83 274.683 209.068 275.513 208.54C276.342 208.006 277.283 207.739 278.334 207.739C279.146 207.739 279.803 207.875 280.303 208.148C280.803 208.415 281.192 208.727 281.47 209.085C281.754 209.443 281.973 209.759 282.126 210.031H282.314V207.909H284.811V221.29C284.811 222.415 284.55 223.338 284.027 224.06C283.504 224.781 282.797 225.315 281.905 225.662C281.018 226.009 280.018 226.182 278.905 226.182ZM278.879 218.69C279.612 218.69 280.232 218.52 280.737 218.179C281.249 217.832 281.635 217.338 281.896 216.696C282.163 216.048 282.297 215.273 282.297 214.369C282.297 213.489 282.166 212.713 281.905 212.043C281.643 211.372 281.26 210.849 280.754 210.474C280.249 210.094 279.624 209.903 278.879 209.903C278.112 209.903 277.473 210.102 276.962 210.5C276.45 210.892 276.064 211.426 275.803 212.102C275.547 212.778 275.419 213.534 275.419 214.369C275.419 215.227 275.55 215.98 275.811 216.628C276.072 217.276 276.459 217.781 276.97 218.145C277.487 218.509 278.124 218.69 278.879 218.69ZM290.777 213.227V221H288.229V207.909H290.675V210.04H290.837C291.138 209.347 291.609 208.79 292.251 208.369C292.899 207.949 293.714 207.739 294.697 207.739C295.589 207.739 296.371 207.926 297.041 208.301C297.712 208.67 298.232 209.222 298.601 209.955C298.97 210.687 299.155 211.594 299.155 212.673V221H296.607V212.98C296.607 212.031 296.359 211.29 295.865 210.756C295.371 210.216 294.692 209.946 293.828 209.946C293.237 209.946 292.712 210.074 292.251 210.33C291.797 210.585 291.436 210.96 291.169 211.455C290.908 211.943 290.777 212.534 290.777 213.227ZM320.353 203.545H322.995V215.026C322.995 216.247 322.708 217.33 322.134 218.273C321.56 219.21 320.754 219.949 319.714 220.489C318.674 221.023 317.455 221.29 316.058 221.29C314.665 221.29 313.45 221.023 312.41 220.489C311.37 219.949 310.563 219.21 309.989 218.273C309.415 217.33 309.129 216.247 309.129 215.026V203.545H311.762V214.812C311.762 215.602 311.935 216.304 312.282 216.918C312.634 217.531 313.131 218.014 313.773 218.366C314.415 218.713 315.177 218.886 316.058 218.886C316.944 218.886 317.708 218.713 318.35 218.366C318.998 218.014 319.492 217.531 319.833 216.918C320.18 216.304 320.353 215.602 320.353 214.812V203.545ZM326.619 225.909V207.909H329.108V210.031H329.321C329.469 209.759 329.682 209.443 329.96 209.085C330.239 208.727 330.625 208.415 331.119 208.148C331.614 207.875 332.267 207.739 333.08 207.739C334.136 207.739 335.08 208.006 335.909 208.54C336.739 209.074 337.389 209.844 337.861 210.849C338.338 211.855 338.577 213.065 338.577 214.48C338.577 215.895 338.341 217.108 337.869 218.119C337.398 219.125 336.75 219.901 335.926 220.446C335.102 220.986 334.162 221.256 333.105 221.256C332.31 221.256 331.659 221.122 331.153 220.855C330.653 220.588 330.261 220.276 329.977 219.918C329.693 219.56 329.474 219.241 329.321 218.963H329.168V225.909H326.619ZM329.116 214.455C329.116 215.375 329.25 216.182 329.517 216.875C329.784 217.568 330.17 218.111 330.676 218.503C331.182 218.889 331.801 219.082 332.534 219.082C333.295 219.082 333.932 218.881 334.443 218.477C334.955 218.068 335.341 217.514 335.602 216.815C335.869 216.116 336.003 215.33 336.003 214.455C336.003 213.591 335.872 212.815 335.611 212.128C335.355 211.44 334.969 210.898 334.452 210.5C333.94 210.102 333.301 209.903 332.534 209.903C331.795 209.903 331.17 210.094 330.659 210.474C330.153 210.855 329.77 211.386 329.509 212.068C329.247 212.75 329.116 213.545 329.116 214.455Z" fill="black"/>
<path d="M140.765 272.364V284H138.89L133.407 276.074H133.31V284H131.202V272.364H133.089L138.566 280.295H138.668V272.364H140.765ZM145.482 284.176C144.929 284.176 144.431 284.078 143.988 283.881C143.549 283.68 143.2 283.384 142.942 282.994C142.689 282.604 142.562 282.123 142.562 281.551C142.562 281.059 142.653 280.652 142.835 280.33C143.016 280.008 143.264 279.75 143.579 279.557C143.893 279.364 144.247 279.218 144.641 279.119C145.039 279.017 145.45 278.943 145.874 278.898C146.386 278.845 146.8 278.797 147.119 278.756C147.437 278.71 147.668 278.642 147.812 278.551C147.96 278.456 148.033 278.311 148.033 278.114V278.08C148.033 277.652 147.906 277.32 147.653 277.085C147.399 276.85 147.033 276.733 146.556 276.733C146.052 276.733 145.653 276.843 145.357 277.062C145.066 277.282 144.869 277.542 144.766 277.841L142.846 277.568C142.997 277.038 143.247 276.595 143.596 276.239C143.944 275.879 144.371 275.61 144.874 275.432C145.378 275.25 145.935 275.159 146.545 275.159C146.965 275.159 147.384 275.208 147.8 275.307C148.217 275.405 148.598 275.568 148.942 275.795C149.287 276.019 149.564 276.324 149.772 276.71C149.984 277.097 150.09 277.58 150.09 278.159V284H148.113V282.801H148.045C147.92 283.044 147.744 283.271 147.516 283.483C147.293 283.691 147.011 283.86 146.67 283.989C146.333 284.114 145.937 284.176 145.482 284.176ZM146.016 282.665C146.429 282.665 146.787 282.583 147.09 282.42C147.393 282.254 147.626 282.034 147.789 281.761C147.956 281.489 148.039 281.191 148.039 280.869V279.841C147.975 279.894 147.865 279.943 147.71 279.989C147.558 280.034 147.388 280.074 147.198 280.108C147.009 280.142 146.821 280.172 146.636 280.199C146.45 280.225 146.289 280.248 146.153 280.267C145.846 280.309 145.571 280.377 145.329 280.472C145.086 280.566 144.895 280.699 144.755 280.869C144.615 281.036 144.545 281.252 144.545 281.517C144.545 281.896 144.683 282.182 144.96 282.375C145.236 282.568 145.588 282.665 146.016 282.665ZM152.158 284V275.273H154.124V276.756H154.227C154.408 276.256 154.71 275.866 155.13 275.585C155.55 275.301 156.052 275.159 156.636 275.159C157.227 275.159 157.725 275.303 158.13 275.591C158.539 275.875 158.827 276.263 158.994 276.756H159.085C159.278 276.271 159.603 275.884 160.062 275.597C160.524 275.305 161.071 275.159 161.704 275.159C162.507 275.159 163.162 275.413 163.67 275.92C164.177 276.428 164.431 277.169 164.431 278.142V284H162.369V278.46C162.369 277.919 162.225 277.523 161.937 277.273C161.649 277.019 161.297 276.892 160.88 276.892C160.384 276.892 159.996 277.047 159.715 277.358C159.439 277.665 159.3 278.064 159.3 278.557V284H157.283V278.375C157.283 277.924 157.147 277.564 156.874 277.295C156.605 277.027 156.253 276.892 155.817 276.892C155.522 276.892 155.253 276.968 155.011 277.119C154.768 277.267 154.575 277.477 154.431 277.75C154.287 278.019 154.215 278.333 154.215 278.693V284H152.158ZM170.381 284.17C169.506 284.17 168.751 283.989 168.114 283.625C167.482 283.258 166.995 282.739 166.654 282.068C166.313 281.394 166.143 280.6 166.143 279.688C166.143 278.79 166.313 278.002 166.654 277.324C166.999 276.642 167.48 276.112 168.097 275.733C168.715 275.35 169.44 275.159 170.273 275.159C170.811 275.159 171.319 275.246 171.796 275.42C172.277 275.591 172.701 275.856 173.069 276.216C173.44 276.576 173.732 277.034 173.944 277.591C174.156 278.144 174.262 278.803 174.262 279.568V280.199H167.109V278.812H172.29C172.287 278.419 172.201 278.068 172.035 277.761C171.868 277.451 171.635 277.206 171.336 277.028C171.04 276.85 170.696 276.761 170.302 276.761C169.881 276.761 169.512 276.864 169.194 277.068C168.876 277.269 168.628 277.534 168.45 277.864C168.275 278.189 168.186 278.547 168.183 278.938V280.148C168.183 280.655 168.275 281.091 168.461 281.455C168.647 281.814 168.906 282.091 169.239 282.284C169.573 282.473 169.963 282.568 170.41 282.568C170.709 282.568 170.98 282.527 171.222 282.443C171.465 282.356 171.675 282.229 171.853 282.062C172.031 281.896 172.165 281.689 172.256 281.443L174.177 281.659C174.056 282.167 173.825 282.61 173.484 282.989C173.147 283.364 172.715 283.655 172.188 283.864C171.662 284.068 171.059 284.17 170.381 284.17Z" fill="#7986B7"/>
<rect x="128" y="296" width="334" height="64" rx="8" fill="#F5F6FA"/>
<path d="M140.957 322.344V320.455H152.214V322.344H147.676V335H145.488V322.344H140.957ZM157.651 335.22C156.576 335.22 155.65 334.991 154.874 334.531C154.102 334.067 153.505 333.416 153.084 332.578C152.667 331.735 152.459 330.748 152.459 329.616C152.459 328.499 152.667 327.514 153.084 326.662C153.505 325.81 154.093 325.144 154.845 324.666C155.603 324.188 156.488 323.949 157.502 323.949C158.117 323.949 158.714 324.051 159.291 324.254C159.869 324.458 160.387 324.777 160.847 325.213C161.306 325.649 161.668 326.214 161.933 326.911C162.199 327.602 162.331 328.442 162.331 329.432V330.185H153.659V328.594H160.25C160.25 328.035 160.137 327.54 159.909 327.109C159.682 326.674 159.362 326.33 158.95 326.08C158.543 325.829 158.065 325.703 157.516 325.703C156.919 325.703 156.398 325.85 155.953 326.143C155.513 326.432 155.172 326.811 154.931 327.28C154.694 327.744 154.575 328.248 154.575 328.793V330.036C154.575 330.765 154.703 331.385 154.959 331.896C155.219 332.408 155.582 332.798 156.046 333.068C156.51 333.333 157.052 333.466 157.672 333.466C158.075 333.466 158.441 333.409 158.773 333.295C159.104 333.177 159.391 333.002 159.632 332.77C159.874 332.538 160.058 332.251 160.186 331.911L162.196 332.273C162.035 332.865 161.746 333.383 161.33 333.828C160.918 334.268 160.399 334.612 159.774 334.858C159.154 335.099 158.446 335.22 157.651 335.22ZM169.282 335.22C168.227 335.22 167.318 334.981 166.555 334.503C165.798 334.02 165.215 333.355 164.808 332.507C164.401 331.66 164.197 330.689 164.197 329.595C164.197 328.487 164.406 327.509 164.822 326.662C165.239 325.81 165.826 325.144 166.584 324.666C167.341 324.188 168.234 323.949 169.261 323.949C170.09 323.949 170.828 324.103 171.477 324.411C172.126 324.714 172.649 325.14 173.047 325.689C173.449 326.238 173.688 326.88 173.764 327.614H171.697C171.584 327.102 171.323 326.662 170.916 326.293C170.514 325.923 169.974 325.739 169.297 325.739C168.705 325.739 168.186 325.895 167.741 326.207C167.301 326.515 166.958 326.955 166.711 327.528C166.465 328.097 166.342 328.769 166.342 329.545C166.342 330.341 166.463 331.027 166.704 331.605C166.946 332.183 167.287 332.63 167.727 332.947C168.172 333.265 168.695 333.423 169.297 333.423C169.699 333.423 170.064 333.35 170.39 333.203C170.722 333.052 170.999 332.836 171.221 332.557C171.449 332.277 171.607 331.941 171.697 331.548H173.764C173.688 332.254 173.459 332.884 173.075 333.438C172.692 333.991 172.178 334.427 171.534 334.744C170.895 335.062 170.144 335.22 169.282 335.22ZM178.159 328.523V335H176.035V320.455H178.13V325.866H178.265C178.521 325.279 178.911 324.813 179.437 324.467C179.963 324.122 180.649 323.949 181.497 323.949C182.245 323.949 182.898 324.103 183.457 324.411C184.02 324.718 184.456 325.178 184.764 325.788C185.076 326.394 185.232 327.152 185.232 328.061V335H183.109V328.317C183.109 327.517 182.903 326.896 182.491 326.456C182.079 326.011 181.506 325.788 180.772 325.788C180.27 325.788 179.82 325.895 179.423 326.108C179.03 326.321 178.72 326.634 178.492 327.045C178.27 327.453 178.159 327.945 178.159 328.523ZM196.378 335L192.344 320.455H194.652L197.486 331.719H197.621L200.568 320.455H202.855L205.802 331.726H205.937L208.764 320.455H211.079L207.038 335H204.829L201.768 324.105H201.655L198.594 335H196.378ZM212.91 335V324.091H215.034V335H212.91ZM213.982 322.408C213.613 322.408 213.296 322.285 213.031 322.038C212.77 321.787 212.64 321.489 212.64 321.143C212.64 320.793 212.77 320.495 213.031 320.249C213.296 319.998 213.613 319.872 213.982 319.872C214.352 319.872 214.667 319.998 214.927 320.249C215.192 320.495 215.325 320.793 215.325 321.143C215.325 321.489 215.192 321.787 214.927 322.038C214.667 322.285 214.352 322.408 213.982 322.408ZM226.065 326.754L224.14 327.095C224.06 326.849 223.932 326.615 223.757 326.392C223.586 326.17 223.354 325.987 223.061 325.845C222.767 325.703 222.4 325.632 221.96 325.632C221.359 325.632 220.857 325.767 220.454 326.037C220.052 326.302 219.851 326.645 219.851 327.067C219.851 327.431 219.986 327.725 220.256 327.947C220.525 328.17 220.961 328.352 221.562 328.494L223.295 328.892C224.299 329.124 225.047 329.482 225.54 329.964C226.032 330.447 226.278 331.075 226.278 331.847C226.278 332.5 226.089 333.082 225.71 333.594C225.336 334.1 224.813 334.498 224.14 334.787C223.473 335.076 222.699 335.22 221.818 335.22C220.596 335.22 219.6 334.96 218.828 334.439C218.056 333.913 217.583 333.168 217.407 332.202L219.46 331.889C219.588 332.424 219.851 332.829 220.248 333.104C220.646 333.374 221.165 333.509 221.804 333.509C222.5 333.509 223.056 333.364 223.473 333.075C223.89 332.782 224.098 332.424 224.098 332.003C224.098 331.662 223.97 331.375 223.714 331.143C223.463 330.911 223.077 330.736 222.557 330.618L220.71 330.213C219.692 329.981 218.939 329.612 218.452 329.105C217.969 328.598 217.727 327.957 217.727 327.18C217.727 326.536 217.907 325.973 218.267 325.49C218.627 325.007 219.124 324.631 219.758 324.361C220.393 324.086 221.12 323.949 221.939 323.949C223.118 323.949 224.046 324.205 224.723 324.716C225.4 325.223 225.847 325.902 226.065 326.754ZM233.315 335.22C232.24 335.22 231.314 334.991 230.538 334.531C229.766 334.067 229.169 333.416 228.748 332.578C228.331 331.735 228.123 330.748 228.123 329.616C228.123 328.499 228.331 327.514 228.748 326.662C229.169 325.81 229.757 325.144 230.509 324.666C231.267 324.188 232.152 323.949 233.166 323.949C233.781 323.949 234.378 324.051 234.955 324.254C235.533 324.458 236.052 324.777 236.511 325.213C236.97 325.649 237.332 326.214 237.597 326.911C237.863 327.602 237.995 328.442 237.995 329.432V330.185H229.323V328.594H235.914C235.914 328.035 235.801 327.54 235.573 327.109C235.346 326.674 235.026 326.33 234.615 326.08C234.207 325.829 233.729 325.703 233.18 325.703C232.583 325.703 232.062 325.85 231.617 326.143C231.177 326.432 230.836 326.811 230.595 327.28C230.358 327.744 230.24 328.248 230.24 328.793V330.036C230.24 330.765 230.367 331.385 230.623 331.896C230.883 332.408 231.246 332.798 231.71 333.068C232.174 333.333 232.716 333.466 233.336 333.466C233.739 333.466 234.106 333.409 234.437 333.295C234.768 333.177 235.055 333.002 235.296 332.77C235.538 332.538 235.722 332.251 235.85 331.911L237.86 332.273C237.699 332.865 237.41 333.383 236.994 333.828C236.582 334.268 236.063 334.612 235.438 334.858C234.818 335.099 234.11 335.22 233.315 335.22Z" fill="#39416B"/>
<path d="M131.343 399V387.364H138.911V389.131H133.451V392.29H138.519V394.057H133.451V397.233H138.957V399H131.343ZM140.971 399V390.273H142.937V391.756H143.039C143.221 391.256 143.522 390.866 143.942 390.585C144.363 390.301 144.865 390.159 145.448 390.159C146.039 390.159 146.537 390.303 146.942 390.591C147.352 390.875 147.639 391.263 147.806 391.756H147.897C148.09 391.271 148.416 390.884 148.874 390.597C149.336 390.305 149.884 390.159 150.516 390.159C151.319 390.159 151.975 390.413 152.482 390.92C152.99 391.428 153.244 392.169 153.244 393.142V399H151.181V393.46C151.181 392.919 151.037 392.523 150.749 392.273C150.461 392.019 150.109 391.892 149.692 391.892C149.196 391.892 148.808 392.047 148.528 392.358C148.251 392.665 148.113 393.064 148.113 393.557V399H146.096V393.375C146.096 392.924 145.96 392.564 145.687 392.295C145.418 392.027 145.066 391.892 144.63 391.892C144.335 391.892 144.066 391.968 143.823 392.119C143.581 392.267 143.388 392.477 143.244 392.75C143.1 393.019 143.028 393.333 143.028 393.693V399H140.971ZM157.842 399.176C157.289 399.176 156.79 399.078 156.347 398.881C155.908 398.68 155.559 398.384 155.302 397.994C155.048 397.604 154.921 397.123 154.921 396.551C154.921 396.059 155.012 395.652 155.194 395.33C155.376 395.008 155.624 394.75 155.938 394.557C156.253 394.364 156.607 394.218 157.001 394.119C157.398 394.017 157.809 393.943 158.234 393.898C158.745 393.845 159.16 393.797 159.478 393.756C159.796 393.71 160.027 393.642 160.171 393.551C160.319 393.456 160.393 393.311 160.393 393.114V393.08C160.393 392.652 160.266 392.32 160.012 392.085C159.758 391.85 159.393 391.733 158.915 391.733C158.412 391.733 158.012 391.843 157.717 392.062C157.425 392.282 157.228 392.542 157.126 392.841L155.205 392.568C155.357 392.038 155.607 391.595 155.955 391.239C156.304 390.879 156.73 390.61 157.234 390.432C157.737 390.25 158.294 390.159 158.904 390.159C159.325 390.159 159.743 390.208 160.16 390.307C160.576 390.405 160.957 390.568 161.302 390.795C161.647 391.019 161.923 391.324 162.131 391.71C162.344 392.097 162.45 392.58 162.45 393.159V399H160.472V397.801H160.404C160.279 398.044 160.103 398.271 159.876 398.483C159.652 398.691 159.37 398.86 159.029 398.989C158.692 399.114 158.296 399.176 157.842 399.176ZM158.376 397.665C158.789 397.665 159.147 397.583 159.45 397.42C159.753 397.254 159.986 397.034 160.148 396.761C160.315 396.489 160.398 396.191 160.398 395.869V394.841C160.334 394.894 160.224 394.943 160.069 394.989C159.917 395.034 159.747 395.074 159.558 395.108C159.368 395.142 159.181 395.172 158.995 395.199C158.809 395.225 158.648 395.248 158.512 395.267C158.205 395.309 157.931 395.377 157.688 395.472C157.446 395.566 157.254 395.699 157.114 395.869C156.974 396.036 156.904 396.252 156.904 396.517C156.904 396.896 157.042 397.182 157.319 397.375C157.595 397.568 157.948 397.665 158.376 397.665ZM164.518 399V390.273H166.575V399H164.518ZM165.552 389.034C165.226 389.034 164.946 388.926 164.711 388.71C164.476 388.491 164.359 388.227 164.359 387.92C164.359 387.61 164.476 387.347 164.711 387.131C164.946 386.911 165.226 386.801 165.552 386.801C165.881 386.801 166.162 386.911 166.393 387.131C166.628 387.347 166.745 387.61 166.745 387.92C166.745 388.227 166.628 388.491 166.393 388.71C166.162 388.926 165.881 389.034 165.552 389.034ZM170.746 387.364V399H168.69V387.364H170.746Z" fill="#7986B7"/>
<rect x="128" y="411" width="334" height="64" rx="8" fill="#F5F6FA"/>
<path d="M146.899 439.091V440.795H140.94V439.091H146.899ZM142.538 436.477H144.662V446.797C144.662 447.209 144.723 447.519 144.846 447.727C144.969 447.931 145.128 448.071 145.322 448.146C145.521 448.217 145.736 448.253 145.968 448.253C146.139 448.253 146.288 448.241 146.416 448.217C146.544 448.194 146.643 448.175 146.714 448.161L147.098 449.915C146.975 449.962 146.799 450.009 146.572 450.057C146.345 450.109 146.061 450.137 145.72 450.142C145.161 450.152 144.64 450.052 144.157 449.844C143.674 449.635 143.284 449.313 142.985 448.878C142.687 448.442 142.538 447.895 142.538 447.237V436.477ZM153.832 450.22C152.758 450.22 151.832 449.991 151.055 449.531C150.284 449.067 149.687 448.416 149.266 447.578C148.849 446.735 148.641 445.748 148.641 444.616C148.641 443.499 148.849 442.514 149.266 441.662C149.687 440.81 150.274 440.144 151.027 439.666C151.785 439.188 152.67 438.949 153.683 438.949C154.299 438.949 154.895 439.051 155.473 439.254C156.051 439.458 156.569 439.777 157.028 440.213C157.488 440.649 157.85 441.214 158.115 441.911C158.38 442.602 158.513 443.442 158.513 444.432V445.185H149.841V443.594H156.432C156.432 443.035 156.318 442.54 156.091 442.109C155.864 441.674 155.544 441.33 155.132 441.08C154.725 440.829 154.247 440.703 153.697 440.703C153.101 440.703 152.58 440.85 152.135 441.143C151.695 441.432 151.354 441.811 151.112 442.28C150.875 442.744 150.757 443.248 150.757 443.793V445.036C150.757 445.765 150.885 446.385 151.141 446.896C151.401 447.408 151.763 447.798 152.227 448.068C152.691 448.333 153.233 448.466 153.854 448.466C154.256 448.466 154.623 448.409 154.955 448.295C155.286 448.177 155.572 448.002 155.814 447.77C156.055 447.538 156.24 447.251 156.368 446.911L158.378 447.273C158.217 447.865 157.928 448.383 157.511 448.828C157.099 449.268 156.581 449.612 155.956 449.858C155.336 450.099 154.628 450.22 153.832 450.22ZM165.464 450.22C164.408 450.22 163.499 449.981 162.737 449.503C161.979 449.02 161.397 448.355 160.99 447.507C160.583 446.66 160.379 445.689 160.379 444.595C160.379 443.487 160.587 442.509 161.004 441.662C161.421 440.81 162.008 440.144 162.765 439.666C163.523 439.188 164.415 438.949 165.443 438.949C166.271 438.949 167.01 439.103 167.659 439.411C168.307 439.714 168.831 440.14 169.228 440.689C169.631 441.238 169.87 441.88 169.946 442.614H167.879C167.765 442.102 167.505 441.662 167.098 441.293C166.695 440.923 166.155 440.739 165.478 440.739C164.886 440.739 164.368 440.895 163.923 441.207C163.483 441.515 163.139 441.955 162.893 442.528C162.647 443.097 162.524 443.769 162.524 444.545C162.524 445.341 162.645 446.027 162.886 446.605C163.127 447.183 163.468 447.63 163.909 447.947C164.354 448.265 164.877 448.423 165.478 448.423C165.881 448.423 166.245 448.35 166.572 448.203C166.904 448.052 167.181 447.836 167.403 447.557C167.63 447.277 167.789 446.941 167.879 446.548H169.946C169.87 447.254 169.64 447.884 169.257 448.438C168.873 448.991 168.359 449.427 167.716 449.744C167.076 450.062 166.326 450.22 165.464 450.22ZM174.34 443.523V450H172.217V435.455H174.312V440.866H174.447C174.702 440.279 175.093 439.813 175.619 439.467C176.144 439.122 176.831 438.949 177.678 438.949C178.426 438.949 179.08 439.103 179.638 439.411C180.202 439.718 180.638 440.178 180.945 440.788C181.258 441.394 181.414 442.152 181.414 443.061V450H179.29V443.317C179.29 442.517 179.085 441.896 178.673 441.456C178.261 441.011 177.688 440.788 176.954 440.788C176.452 440.788 176.002 440.895 175.604 441.108C175.211 441.321 174.901 441.634 174.674 442.045C174.451 442.453 174.34 442.945 174.34 443.523ZM186.613 450L183.403 439.091H185.597L187.735 447.102H187.842L189.987 439.091H192.181L194.312 447.067H194.418L196.542 439.091H198.737L195.533 450H193.367L191.151 442.124H190.988L188.772 450H186.613ZM200.752 450V439.091H202.875V450H200.752ZM201.824 437.408C201.455 437.408 201.138 437.285 200.873 437.038C200.612 436.787 200.482 436.489 200.482 436.143C200.482 435.793 200.612 435.495 200.873 435.249C201.138 434.998 201.455 434.872 201.824 434.872C202.194 434.872 202.508 434.998 202.769 435.249C203.034 435.495 203.167 435.793 203.167 436.143C203.167 436.489 203.034 436.787 202.769 437.038C202.508 437.285 202.194 437.408 201.824 437.408ZM213.907 441.754L211.982 442.095C211.902 441.849 211.774 441.615 211.599 441.392C211.428 441.17 211.196 440.987 210.903 440.845C210.609 440.703 210.242 440.632 209.802 440.632C209.201 440.632 208.699 440.767 208.296 441.037C207.894 441.302 207.692 441.645 207.692 442.067C207.692 442.431 207.827 442.725 208.097 442.947C208.367 443.17 208.803 443.352 209.404 443.494L211.137 443.892C212.141 444.124 212.889 444.482 213.381 444.964C213.874 445.447 214.12 446.075 214.12 446.847C214.12 447.5 213.931 448.082 213.552 448.594C213.178 449.1 212.655 449.498 211.982 449.787C211.315 450.076 210.54 450.22 209.66 450.22C208.438 450.22 207.442 449.96 206.67 449.439C205.898 448.913 205.424 448.168 205.249 447.202L207.302 446.889C207.43 447.424 207.692 447.829 208.09 448.104C208.488 448.374 209.006 448.509 209.646 448.509C210.342 448.509 210.898 448.364 211.315 448.075C211.731 447.782 211.94 447.424 211.94 447.003C211.94 446.662 211.812 446.375 211.556 446.143C211.305 445.911 210.919 445.736 210.398 445.618L208.552 445.213C207.534 444.981 206.781 444.612 206.293 444.105C205.81 443.598 205.569 442.957 205.569 442.18C205.569 441.536 205.749 440.973 206.109 440.49C206.469 440.007 206.966 439.631 207.6 439.361C208.235 439.086 208.961 438.949 209.781 438.949C210.96 438.949 211.888 439.205 212.565 439.716C213.242 440.223 213.689 440.902 213.907 441.754ZM221.157 450.22C220.082 450.22 219.156 449.991 218.38 449.531C217.608 449.067 217.011 448.416 216.59 447.578C216.173 446.735 215.965 445.748 215.965 444.616C215.965 443.499 216.173 442.514 216.59 441.662C217.011 440.81 217.598 440.144 218.351 439.666C219.109 439.188 219.994 438.949 221.007 438.949C221.623 438.949 222.22 439.051 222.797 439.254C223.375 439.458 223.893 439.777 224.353 440.213C224.812 440.649 225.174 441.214 225.439 441.911C225.704 442.602 225.837 443.442 225.837 444.432V445.185H217.165V443.594H223.756C223.756 443.035 223.642 442.54 223.415 442.109C223.188 441.674 222.868 441.33 222.456 441.08C222.049 440.829 221.571 440.703 221.022 440.703C220.425 440.703 219.904 440.85 219.459 441.143C219.019 441.432 218.678 441.811 218.436 442.28C218.2 442.744 218.081 443.248 218.081 443.793V445.036C218.081 445.765 218.209 446.385 218.465 446.896C218.725 447.408 219.087 447.798 219.551 448.068C220.016 448.333 220.558 448.466 221.178 448.466C221.58 448.466 221.947 448.409 222.279 448.295C222.61 448.177 222.897 448.002 223.138 447.77C223.38 447.538 223.564 447.251 223.692 446.911L225.702 447.273C225.541 447.865 225.252 448.383 224.836 448.828C224.424 449.268 223.905 449.612 223.28 449.858C222.66 450.099 221.952 450.22 221.157 450.22ZM236.95 453.956C235.482 453.956 234.18 453.755 233.044 453.352C231.912 452.955 230.958 452.367 230.182 451.591C229.405 450.819 228.816 449.872 228.413 448.75C228.011 447.628 227.81 446.347 227.81 444.908C227.81 443.506 228.013 442.247 228.42 441.129C228.828 440.012 229.42 439.06 230.196 438.274C230.977 437.483 231.927 436.88 233.044 436.463C234.161 436.046 235.43 435.838 236.851 435.838C238.21 435.838 239.408 436.051 240.445 436.477C241.482 436.903 242.353 437.488 243.058 438.232C243.768 438.975 244.304 439.827 244.663 440.788C245.023 441.75 245.203 442.765 245.203 443.835C245.203 444.583 245.156 445.315 245.061 446.03C244.966 446.74 244.791 447.384 244.536 447.962C244.285 448.535 243.92 448.994 243.442 449.339C242.968 449.68 242.353 449.858 241.595 449.872C241.193 449.886 240.802 449.839 240.423 449.73C240.045 449.621 239.723 449.446 239.457 449.205C239.192 448.958 239.031 448.646 238.974 448.267H238.889C238.776 448.546 238.586 448.807 238.321 449.048C238.056 449.285 237.717 449.474 237.305 449.616C236.898 449.754 236.425 449.811 235.885 449.787C235.288 449.763 234.751 449.628 234.273 449.382C233.795 449.136 233.385 448.795 233.044 448.359C232.708 447.924 232.45 447.408 232.27 446.811C232.09 446.214 232 445.552 232 444.822C232 444.122 232.102 443.494 232.305 442.94C232.509 442.382 232.786 441.901 233.136 441.499C233.491 441.091 233.899 440.769 234.358 440.533C234.817 440.296 235.303 440.147 235.814 440.085C236.311 440.028 236.768 440.043 237.185 440.128C237.601 440.213 237.947 440.343 238.222 440.518C238.501 440.694 238.676 440.885 238.747 441.094H238.839V440.298H240.587V446.889C240.587 447.263 240.684 447.58 240.878 447.841C241.077 448.101 241.358 448.232 241.723 448.232C242.154 448.232 242.49 448.073 242.732 447.756C242.978 447.438 243.151 446.951 243.25 446.293C243.354 445.634 243.406 444.792 243.406 443.764C243.406 443.045 243.309 442.367 243.115 441.733C242.926 441.094 242.644 440.516 242.27 440C241.901 439.479 241.446 439.032 240.906 438.658C240.366 438.284 239.751 437.995 239.06 437.791C238.373 437.588 237.613 437.486 236.78 437.486C235.648 437.486 234.642 437.661 233.761 438.011C232.881 438.357 232.137 438.857 231.531 439.51C230.93 440.163 230.473 440.947 230.161 441.861C229.853 442.77 229.699 443.79 229.699 444.922C229.699 446.101 229.857 447.147 230.175 448.061C230.492 448.97 230.961 449.737 231.581 450.362C232.201 450.987 232.968 451.461 233.882 451.783C234.796 452.109 235.849 452.273 237.043 452.273C237.573 452.273 238.094 452.225 238.605 452.131C239.116 452.041 239.571 451.937 239.969 451.818C240.371 451.705 240.672 451.612 240.871 451.541L241.368 453.097C241.074 453.234 240.684 453.369 240.196 453.501C239.713 453.634 239.188 453.743 238.619 453.828C238.056 453.913 237.5 453.956 236.95 453.956ZM236.297 448.047C236.912 448.047 237.407 447.924 237.781 447.678C238.16 447.431 238.432 447.064 238.598 446.577C238.768 446.084 238.854 445.469 238.854 444.73C238.849 444.01 238.757 443.437 238.577 443.011C238.402 442.58 238.127 442.273 237.753 442.088C237.384 441.899 236.908 441.804 236.325 441.804C235.79 441.804 235.333 441.934 234.955 442.195C234.58 442.455 234.294 442.808 234.095 443.253C233.901 443.698 233.802 444.193 233.797 444.737C233.802 445.31 233.882 445.85 234.038 446.357C234.199 446.858 234.46 447.266 234.82 447.578C235.184 447.891 235.677 448.047 236.297 448.047ZM252.25 450.22C251.176 450.22 250.25 449.991 249.473 449.531C248.702 449.067 248.105 448.416 247.684 447.578C247.267 446.735 247.059 445.748 247.059 444.616C247.059 443.499 247.267 442.514 247.684 441.662C248.105 440.81 248.692 440.144 249.445 439.666C250.203 439.188 251.088 438.949 252.101 438.949C252.717 438.949 253.313 439.051 253.891 439.254C254.469 439.458 254.987 439.777 255.446 440.213C255.906 440.649 256.268 441.214 256.533 441.911C256.798 442.602 256.931 443.442 256.931 444.432V445.185H248.259V443.594H254.85C254.85 443.035 254.736 442.54 254.509 442.109C254.282 441.674 253.962 441.33 253.55 441.08C253.143 440.829 252.665 440.703 252.115 440.703C251.519 440.703 250.998 440.85 250.553 441.143C250.113 441.432 249.772 441.811 249.53 442.28C249.293 442.744 249.175 443.248 249.175 443.793V445.036C249.175 445.765 249.303 446.385 249.559 446.896C249.819 447.408 250.181 447.798 250.645 448.068C251.109 448.333 251.651 448.466 252.272 448.466C252.674 448.466 253.041 448.409 253.373 448.295C253.704 448.177 253.99 448.002 254.232 447.77C254.473 447.538 254.658 447.251 254.786 446.911L256.796 447.273C256.635 447.865 256.346 448.383 255.929 448.828C255.517 449.268 254.999 449.612 254.374 449.858C253.754 450.099 253.046 450.22 252.25 450.22ZM259.287 450V439.091H261.325V440.866H261.46C261.688 440.265 262.059 439.796 262.575 439.46C263.091 439.119 263.709 438.949 264.429 438.949C265.158 438.949 265.769 439.119 266.261 439.46C266.759 439.801 267.125 440.27 267.362 440.866H267.476C267.736 440.284 268.151 439.82 268.719 439.474C269.287 439.124 269.964 438.949 270.75 438.949C271.74 438.949 272.547 439.259 273.172 439.879C273.802 440.5 274.116 441.435 274.116 442.685V450H271.993V442.884C271.993 442.145 271.792 441.61 271.389 441.278C270.987 440.947 270.506 440.781 269.947 440.781C269.256 440.781 268.719 440.994 268.335 441.42C267.952 441.842 267.76 442.384 267.76 443.047V450H265.643V442.749C265.643 442.157 265.459 441.681 265.089 441.321C264.72 440.961 264.24 440.781 263.648 440.781C263.245 440.781 262.874 440.888 262.533 441.101C262.196 441.309 261.924 441.6 261.716 441.974C261.512 442.348 261.411 442.782 261.411 443.274V450H259.287ZM280.137 450.241C279.446 450.241 278.821 450.114 278.262 449.858C277.704 449.598 277.261 449.221 276.934 448.729C276.612 448.236 276.451 447.633 276.451 446.918C276.451 446.302 276.57 445.795 276.806 445.398C277.043 445 277.363 444.685 277.765 444.453C278.168 444.221 278.618 444.046 279.115 443.928C279.612 443.809 280.118 443.719 280.635 443.658C281.288 443.582 281.818 443.52 282.225 443.473C282.633 443.421 282.929 443.338 283.113 443.224C283.298 443.111 283.39 442.926 283.39 442.67V442.621C283.39 442 283.215 441.52 282.865 441.179C282.519 440.838 282.003 440.668 281.316 440.668C280.601 440.668 280.038 440.826 279.626 441.143C279.219 441.456 278.937 441.804 278.781 442.188L276.785 441.733C277.022 441.07 277.368 440.535 277.822 440.128C278.281 439.716 278.809 439.418 279.406 439.233C280.002 439.044 280.63 438.949 281.288 438.949C281.724 438.949 282.185 439.001 282.673 439.105C283.165 439.205 283.625 439.389 284.051 439.659C284.482 439.929 284.834 440.315 285.109 440.817C285.384 441.314 285.521 441.96 285.521 442.756V450H283.447V448.509H283.362C283.225 448.783 283.019 449.053 282.744 449.318C282.469 449.583 282.117 449.804 281.686 449.979C281.255 450.154 280.739 450.241 280.137 450.241ZM280.599 448.537C281.186 448.537 281.688 448.421 282.105 448.189C282.526 447.957 282.846 447.654 283.064 447.28C283.286 446.901 283.397 446.496 283.397 446.065V444.659C283.322 444.735 283.175 444.806 282.957 444.872C282.744 444.934 282.5 444.988 282.225 445.036C281.951 445.078 281.683 445.118 281.423 445.156C281.163 445.189 280.945 445.218 280.77 445.241C280.358 445.294 279.981 445.381 279.64 445.504C279.304 445.627 279.034 445.805 278.831 446.037C278.632 446.264 278.532 446.567 278.532 446.946C278.532 447.472 278.726 447.869 279.115 448.139C279.503 448.404 279.998 448.537 280.599 448.537ZM288.349 450V439.091H290.473V450H288.349ZM289.422 437.408C289.053 437.408 288.735 437.285 288.47 437.038C288.21 436.787 288.08 436.489 288.08 436.143C288.08 435.793 288.21 435.495 288.47 435.249C288.735 434.998 289.053 434.872 289.422 434.872C289.791 434.872 290.106 434.998 290.366 435.249C290.632 435.495 290.764 435.793 290.764 436.143C290.764 436.489 290.632 436.787 290.366 437.038C290.106 437.285 289.791 437.408 289.422 437.408ZM295.453 435.455V450H293.33V435.455H295.453ZM299.71 450.135C299.321 450.135 298.987 449.998 298.708 449.723C298.429 449.444 298.289 449.107 298.289 448.714C298.289 448.326 298.429 447.995 298.708 447.72C298.987 447.441 299.321 447.301 299.71 447.301C300.098 447.301 300.432 447.441 300.711 447.72C300.99 447.995 301.13 448.326 301.13 448.714C301.13 448.975 301.064 449.214 300.931 449.432C300.803 449.645 300.633 449.815 300.42 449.943C300.207 450.071 299.97 450.135 299.71 450.135ZM308.57 450.22C307.514 450.22 306.605 449.981 305.842 449.503C305.085 449.02 304.502 448.355 304.095 447.507C303.688 446.66 303.484 445.689 303.484 444.595C303.484 443.487 303.693 442.509 304.109 441.662C304.526 440.81 305.113 440.144 305.871 439.666C306.628 439.188 307.521 438.949 308.548 438.949C309.377 438.949 310.116 439.103 310.764 439.411C311.413 439.714 311.936 440.14 312.334 440.689C312.736 441.238 312.975 441.88 313.051 442.614H310.984C310.871 442.102 310.61 441.662 310.203 441.293C309.801 440.923 309.261 440.739 308.584 440.739C307.992 440.739 307.473 440.895 307.028 441.207C306.588 441.515 306.245 441.955 305.999 442.528C305.752 443.097 305.629 443.769 305.629 444.545C305.629 445.341 305.75 446.027 305.991 446.605C306.233 447.183 306.574 447.63 307.014 447.947C307.459 448.265 307.982 448.423 308.584 448.423C308.986 448.423 309.351 448.35 309.678 448.203C310.009 448.052 310.286 447.836 310.509 447.557C310.736 447.277 310.894 446.941 310.984 446.548H313.051C312.975 447.254 312.746 447.884 312.362 448.438C311.979 448.991 311.465 449.427 310.821 449.744C310.182 450.062 309.431 450.22 308.57 450.22ZM319.917 450.22C318.895 450.22 318.002 449.986 317.24 449.517C316.477 449.048 315.886 448.393 315.464 447.55C315.043 446.707 314.832 445.722 314.832 444.595C314.832 443.464 315.043 442.474 315.464 441.626C315.886 440.779 316.477 440.121 317.24 439.652C318.002 439.183 318.895 438.949 319.917 438.949C320.94 438.949 321.833 439.183 322.595 439.652C323.357 440.121 323.949 440.779 324.37 441.626C324.792 442.474 325.002 443.464 325.002 444.595C325.002 445.722 324.792 446.707 324.37 447.55C323.949 448.393 323.357 449.048 322.595 449.517C321.833 449.986 320.94 450.22 319.917 450.22ZM319.924 448.438C320.587 448.438 321.136 448.262 321.572 447.912C322.008 447.562 322.33 447.095 322.538 446.513C322.751 445.93 322.858 445.289 322.858 444.588C322.858 443.892 322.751 443.253 322.538 442.67C322.33 442.083 322.008 441.612 321.572 441.257C321.136 440.902 320.587 440.724 319.924 440.724C319.257 440.724 318.703 440.902 318.262 441.257C317.827 441.612 317.502 442.083 317.289 442.67C317.081 443.253 316.977 443.892 316.977 444.588C316.977 445.289 317.081 445.93 317.289 446.513C317.502 447.095 317.827 447.562 318.262 447.912C318.703 448.262 319.257 448.438 319.924 448.438ZM327.373 450V439.091H329.411V440.866H329.546C329.773 440.265 330.145 439.796 330.661 439.46C331.177 439.119 331.795 438.949 332.515 438.949C333.244 438.949 333.855 439.119 334.347 439.46C334.844 439.801 335.211 440.27 335.448 440.866H335.562C335.822 440.284 336.237 439.82 336.805 439.474C337.373 439.124 338.05 438.949 338.836 438.949C339.826 438.949 340.633 439.259 341.258 439.879C341.888 440.5 342.202 441.435 342.202 442.685V450H340.079V442.884C340.079 442.145 339.878 441.61 339.475 441.278C339.073 440.947 338.592 440.781 338.033 440.781C337.342 440.781 336.805 440.994 336.421 441.42C336.038 441.842 335.846 442.384 335.846 443.047V450H333.729V442.749C333.729 442.157 333.545 441.681 333.175 441.321C332.806 440.961 332.326 440.781 331.734 440.781C331.331 440.781 330.96 440.888 330.619 441.101C330.282 441.309 330.01 441.6 329.802 441.974C329.598 442.348 329.496 442.782 329.496 443.274V450H327.373Z" fill="#39416B"/>
<path d="M141.272 506.29H139.147C139.086 505.941 138.975 505.633 138.812 505.364C138.649 505.091 138.446 504.86 138.204 504.67C137.961 504.481 137.685 504.339 137.374 504.244C137.067 504.146 136.736 504.097 136.38 504.097C135.747 504.097 135.187 504.256 134.698 504.574C134.21 504.888 133.827 505.35 133.55 505.96C133.274 506.566 133.136 507.307 133.136 508.182C133.136 509.072 133.274 509.822 133.55 510.432C133.831 511.038 134.213 511.496 134.698 511.807C135.187 512.114 135.746 512.267 136.374 512.267C136.723 512.267 137.049 512.222 137.352 512.131C137.658 512.036 137.933 511.898 138.175 511.716C138.422 511.534 138.628 511.311 138.795 511.045C138.965 510.78 139.083 510.477 139.147 510.136L141.272 510.148C141.192 510.701 141.02 511.22 140.755 511.705C140.494 512.189 140.151 512.617 139.727 512.989C139.302 513.356 138.806 513.644 138.238 513.852C137.67 514.057 137.039 514.159 136.346 514.159C135.323 514.159 134.41 513.922 133.607 513.449C132.804 512.975 132.172 512.292 131.71 511.398C131.247 510.504 131.016 509.432 131.016 508.182C131.016 506.928 131.249 505.856 131.715 504.966C132.181 504.072 132.816 503.388 133.619 502.915C134.422 502.441 135.331 502.205 136.346 502.205C136.994 502.205 137.596 502.295 138.153 502.477C138.71 502.659 139.206 502.926 139.641 503.278C140.077 503.627 140.435 504.055 140.715 504.562C140.999 505.066 141.185 505.642 141.272 506.29ZM146.918 514.17C146.066 514.17 145.327 513.983 144.702 513.608C144.077 513.233 143.593 512.708 143.248 512.034C142.907 511.36 142.737 510.572 142.737 509.67C142.737 508.769 142.907 507.979 143.248 507.301C143.593 506.623 144.077 506.097 144.702 505.722C145.327 505.347 146.066 505.159 146.918 505.159C147.771 505.159 148.509 505.347 149.134 505.722C149.759 506.097 150.242 506.623 150.583 507.301C150.928 507.979 151.1 508.769 151.1 509.67C151.1 510.572 150.928 511.36 150.583 512.034C150.242 512.708 149.759 513.233 149.134 513.608C148.509 513.983 147.771 514.17 146.918 514.17ZM146.93 512.523C147.392 512.523 147.778 512.396 148.089 512.142C148.399 511.884 148.63 511.54 148.782 511.108C148.937 510.676 149.015 510.195 149.015 509.665C149.015 509.131 148.937 508.648 148.782 508.216C148.63 507.78 148.399 507.434 148.089 507.176C147.778 506.919 147.392 506.79 146.93 506.79C146.456 506.79 146.062 506.919 145.748 507.176C145.437 507.434 145.204 507.78 145.049 508.216C144.897 508.648 144.822 509.131 144.822 509.665C144.822 510.195 144.897 510.676 145.049 511.108C145.204 511.54 145.437 511.884 145.748 512.142C146.062 512.396 146.456 512.523 146.93 512.523ZM154.903 508.886V514H152.846V505.273H154.812V506.756H154.914C155.115 506.267 155.435 505.879 155.874 505.591C156.317 505.303 156.865 505.159 157.516 505.159C158.119 505.159 158.643 505.288 159.09 505.545C159.541 505.803 159.889 506.176 160.136 506.665C160.386 507.153 160.509 507.746 160.505 508.443V514H158.448V508.761C158.448 508.178 158.297 507.722 157.994 507.392C157.694 507.062 157.28 506.898 156.749 506.898C156.389 506.898 156.069 506.977 155.789 507.136C155.513 507.292 155.295 507.517 155.136 507.812C154.98 508.108 154.903 508.466 154.903 508.886ZM166.954 505.273V506.864H161.937V505.273H166.954ZM163.175 503.182H165.232V511.375C165.232 511.652 165.274 511.864 165.357 512.011C165.444 512.155 165.558 512.254 165.698 512.307C165.838 512.36 165.994 512.386 166.164 512.386C166.293 512.386 166.41 512.377 166.516 512.358C166.626 512.339 166.71 512.322 166.766 512.307L167.113 513.915C167.003 513.953 166.846 513.994 166.641 514.04C166.441 514.085 166.194 514.112 165.903 514.119C165.388 514.134 164.924 514.057 164.511 513.886C164.098 513.712 163.77 513.443 163.528 513.08C163.289 512.716 163.172 512.261 163.175 511.716V503.182ZM171.185 514.176C170.632 514.176 170.134 514.078 169.691 513.881C169.252 513.68 168.903 513.384 168.646 512.994C168.392 512.604 168.265 512.123 168.265 511.551C168.265 511.059 168.356 510.652 168.538 510.33C168.719 510.008 168.968 509.75 169.282 509.557C169.596 509.364 169.951 509.218 170.344 509.119C170.742 509.017 171.153 508.943 171.577 508.898C172.089 508.845 172.504 508.797 172.822 508.756C173.14 508.71 173.371 508.642 173.515 508.551C173.663 508.456 173.737 508.311 173.737 508.114V508.08C173.737 507.652 173.61 507.32 173.356 507.085C173.102 506.85 172.737 506.733 172.259 506.733C171.755 506.733 171.356 506.843 171.06 507.062C170.769 507.282 170.572 507.542 170.469 507.841L168.549 507.568C168.701 507.038 168.951 506.595 169.299 506.239C169.647 505.879 170.074 505.61 170.577 505.432C171.081 505.25 171.638 505.159 172.248 505.159C172.668 505.159 173.087 505.208 173.504 505.307C173.92 505.405 174.301 505.568 174.646 505.795C174.99 506.019 175.267 506.324 175.475 506.71C175.687 507.097 175.793 507.58 175.793 508.159V514H173.816V512.801H173.748C173.623 513.044 173.447 513.271 173.219 513.483C172.996 513.691 172.714 513.86 172.373 513.989C172.036 514.114 171.64 514.176 171.185 514.176ZM171.719 512.665C172.132 512.665 172.49 512.583 172.793 512.42C173.096 512.254 173.329 512.034 173.492 511.761C173.659 511.489 173.742 511.191 173.742 510.869V509.841C173.678 509.894 173.568 509.943 173.413 509.989C173.261 510.034 173.091 510.074 172.901 510.108C172.712 510.142 172.524 510.172 172.339 510.199C172.153 510.225 171.992 510.248 171.856 510.267C171.549 510.309 171.274 510.377 171.032 510.472C170.79 510.566 170.598 510.699 170.458 510.869C170.318 511.036 170.248 511.252 170.248 511.517C170.248 511.896 170.386 512.182 170.663 512.375C170.939 512.568 171.291 512.665 171.719 512.665ZM181.668 514.17C180.797 514.17 180.049 513.979 179.424 513.597C178.803 513.214 178.324 512.686 177.987 512.011C177.653 511.333 177.487 510.553 177.487 509.67C177.487 508.784 177.657 508.002 177.998 507.324C178.339 506.642 178.82 506.112 179.441 505.733C180.066 505.35 180.805 505.159 181.657 505.159C182.365 505.159 182.992 505.29 183.538 505.551C184.087 505.809 184.524 506.174 184.85 506.648C185.176 507.117 185.362 507.667 185.407 508.295H183.441C183.362 507.875 183.172 507.525 182.873 507.244C182.577 506.96 182.182 506.818 181.685 506.818C181.265 506.818 180.896 506.932 180.577 507.159C180.259 507.383 180.011 507.705 179.833 508.125C179.659 508.545 179.572 509.049 179.572 509.636C179.572 510.231 179.659 510.742 179.833 511.17C180.007 511.595 180.252 511.922 180.566 512.153C180.884 512.381 181.257 512.494 181.685 512.494C181.988 512.494 182.259 512.437 182.498 512.324C182.74 512.206 182.943 512.038 183.106 511.818C183.269 511.598 183.38 511.331 183.441 511.017H185.407C185.358 511.634 185.176 512.182 184.862 512.659C184.547 513.133 184.119 513.504 183.577 513.773C183.036 514.038 182.399 514.17 181.668 514.17ZM191.454 505.273V506.864H186.437V505.273H191.454ZM187.675 503.182H189.732V511.375C189.732 511.652 189.774 511.864 189.857 512.011C189.944 512.155 190.058 512.254 190.198 512.307C190.338 512.36 190.494 512.386 190.664 512.386C190.793 512.386 190.91 512.377 191.016 512.358C191.126 512.339 191.21 512.322 191.266 512.307L191.613 513.915C191.503 513.953 191.346 513.994 191.141 514.04C190.941 514.085 190.694 514.112 190.403 514.119C189.888 514.134 189.424 514.057 189.011 513.886C188.598 513.712 188.27 513.443 188.028 513.08C187.789 512.716 187.672 512.261 187.675 511.716V503.182ZM199.2 508.886V514H197.143V505.273H199.109V506.756H199.211C199.412 506.267 199.732 505.879 200.171 505.591C200.614 505.303 201.162 505.159 201.813 505.159C202.415 505.159 202.94 505.288 203.387 505.545C203.838 505.803 204.186 506.176 204.433 506.665C204.683 507.153 204.806 507.746 204.802 508.443V514H202.745V508.761C202.745 508.178 202.594 507.722 202.29 507.392C201.991 507.062 201.576 506.898 201.046 506.898C200.686 506.898 200.366 506.977 200.086 507.136C199.809 507.292 199.592 507.517 199.433 507.812C199.277 508.108 199.2 508.466 199.2 508.886ZM212.455 510.33V505.273H214.512V514H212.518V512.449H212.427C212.23 512.937 211.906 513.337 211.455 513.648C211.008 513.958 210.457 514.114 209.802 514.114C209.23 514.114 208.724 513.987 208.285 513.733C207.849 513.475 207.508 513.102 207.262 512.614C207.016 512.121 206.893 511.527 206.893 510.83V505.273H208.95V510.511C208.95 511.064 209.101 511.504 209.404 511.83C209.707 512.155 210.105 512.318 210.597 512.318C210.9 512.318 211.194 512.244 211.478 512.097C211.762 511.949 211.995 511.729 212.177 511.438C212.362 511.142 212.455 510.773 212.455 510.33ZM216.627 514V505.273H218.593V506.756H218.695C218.877 506.256 219.178 505.866 219.599 505.585C220.019 505.301 220.521 505.159 221.104 505.159C221.695 505.159 222.193 505.303 222.599 505.591C223.008 505.875 223.296 506.263 223.462 506.756H223.553C223.746 506.271 224.072 505.884 224.531 505.597C224.993 505.305 225.54 505.159 226.173 505.159C226.976 505.159 227.631 505.413 228.138 505.92C228.646 506.428 228.9 507.169 228.9 508.142V514H226.837V508.46C226.837 507.919 226.693 507.523 226.406 507.273C226.118 507.019 225.765 506.892 225.349 506.892C224.853 506.892 224.464 507.047 224.184 507.358C223.907 507.665 223.769 508.064 223.769 508.557V514H221.752V508.375C221.752 507.924 221.616 507.564 221.343 507.295C221.074 507.027 220.722 506.892 220.286 506.892C219.991 506.892 219.722 506.968 219.479 507.119C219.237 507.267 219.044 507.477 218.9 507.75C218.756 508.019 218.684 508.333 218.684 508.693V514H216.627ZM231.077 514V502.364H233.134V506.716H233.219C233.326 506.504 233.475 506.278 233.668 506.04C233.862 505.797 234.123 505.591 234.452 505.42C234.782 505.246 235.202 505.159 235.714 505.159C236.388 505.159 236.996 505.331 237.538 505.676C238.083 506.017 238.515 506.523 238.833 507.193C239.155 507.86 239.316 508.678 239.316 509.648C239.316 510.606 239.159 511.42 238.844 512.091C238.53 512.761 238.102 513.273 237.56 513.625C237.019 513.977 236.405 514.153 235.719 514.153C235.219 514.153 234.805 514.07 234.475 513.903C234.146 513.737 233.88 513.536 233.68 513.301C233.483 513.062 233.329 512.837 233.219 512.625H233.1V514H231.077ZM233.094 509.636C233.094 510.201 233.174 510.695 233.333 511.119C233.496 511.544 233.729 511.875 234.032 512.114C234.339 512.348 234.71 512.466 235.146 512.466C235.6 512.466 235.981 512.345 236.288 512.102C236.594 511.856 236.826 511.521 236.981 511.097C237.14 510.669 237.219 510.182 237.219 509.636C237.219 509.095 237.142 508.614 236.987 508.193C236.831 507.773 236.6 507.443 236.293 507.205C235.987 506.966 235.604 506.847 235.146 506.847C234.706 506.847 234.333 506.962 234.026 507.193C233.719 507.424 233.487 507.748 233.327 508.165C233.172 508.581 233.094 509.072 233.094 509.636ZM244.928 514.17C244.053 514.17 243.298 513.989 242.661 513.625C242.029 513.258 241.542 512.739 241.201 512.068C240.86 511.394 240.69 510.6 240.69 509.688C240.69 508.79 240.86 508.002 241.201 507.324C241.546 506.642 242.027 506.112 242.644 505.733C243.262 505.35 243.987 505.159 244.82 505.159C245.358 505.159 245.866 505.246 246.343 505.42C246.824 505.591 247.248 505.856 247.616 506.216C247.987 506.576 248.279 507.034 248.491 507.591C248.703 508.144 248.809 508.803 248.809 509.568V510.199H241.656V508.812H246.837C246.834 508.419 246.748 508.068 246.582 507.761C246.415 507.451 246.182 507.206 245.883 507.028C245.587 506.85 245.243 506.761 244.849 506.761C244.428 506.761 244.059 506.864 243.741 507.068C243.423 507.269 243.174 507.534 242.996 507.864C242.822 508.189 242.733 508.547 242.729 508.938V510.148C242.729 510.655 242.822 511.091 243.008 511.455C243.193 511.814 243.453 512.091 243.786 512.284C244.12 512.473 244.51 512.568 244.957 512.568C245.256 512.568 245.527 512.527 245.769 512.443C246.012 512.356 246.222 512.229 246.4 512.062C246.578 511.896 246.712 511.689 246.803 511.443L248.724 511.659C248.603 512.167 248.371 512.61 248.031 512.989C247.693 513.364 247.262 513.655 246.735 513.864C246.209 514.068 245.606 514.17 244.928 514.17ZM250.549 514V505.273H252.543V506.727H252.634C252.793 506.223 253.066 505.835 253.452 505.562C253.843 505.286 254.288 505.148 254.788 505.148C254.901 505.148 255.028 505.153 255.168 505.165C255.312 505.172 255.432 505.186 255.526 505.205V507.097C255.439 507.066 255.301 507.04 255.112 507.017C254.926 506.991 254.746 506.977 254.572 506.977C254.197 506.977 253.86 507.059 253.56 507.222C253.265 507.381 253.032 507.602 252.862 507.886C252.691 508.17 252.606 508.498 252.606 508.869V514H250.549Z" fill="#7986B7"/>
<rect x="128" y="526" width="334" height="64" rx="8" fill="#F5F6FA"/>
<path d="M146.371 550.256C147.019 550.26 147.658 550.379 148.288 550.611C148.918 550.843 149.486 551.222 149.993 551.747C150.504 552.273 150.911 552.983 151.214 553.878C151.522 554.768 151.678 555.876 151.683 557.202C151.683 558.475 151.555 559.609 151.3 560.604C151.044 561.593 150.677 562.429 150.199 563.111C149.725 563.793 149.15 564.311 148.473 564.666C147.796 565.021 147.033 565.199 146.186 565.199C145.319 565.199 144.55 565.028 143.878 564.688C143.205 564.347 142.658 563.875 142.237 563.274C141.816 562.668 141.553 561.972 141.449 561.186H143.615C143.757 561.811 144.046 562.318 144.481 562.706C144.922 563.089 145.49 563.281 146.186 563.281C147.251 563.281 148.082 562.817 148.679 561.889C149.275 560.956 149.576 559.654 149.581 557.983H149.467C149.221 558.39 148.913 558.741 148.544 559.034C148.179 559.328 147.77 559.555 147.315 559.716C146.861 559.877 146.375 559.957 145.859 559.957C145.021 559.957 144.259 559.751 143.572 559.339C142.886 558.928 142.339 558.362 141.932 557.642C141.524 556.922 141.321 556.101 141.321 555.178C141.321 554.259 141.529 553.426 141.946 552.678C142.367 551.929 142.954 551.338 143.707 550.902C144.465 550.462 145.353 550.246 146.371 550.256ZM146.378 552.102C145.824 552.102 145.324 552.24 144.879 552.514C144.439 552.784 144.091 553.151 143.835 553.615C143.579 554.074 143.452 554.586 143.452 555.149C143.452 555.713 143.575 556.224 143.821 556.683C144.072 557.138 144.413 557.5 144.844 557.77C145.279 558.035 145.776 558.168 146.335 558.168C146.752 558.168 147.14 558.087 147.5 557.926C147.86 557.765 148.175 557.543 148.444 557.259C148.714 556.97 148.925 556.643 149.077 556.278C149.228 555.914 149.304 555.53 149.304 555.128C149.304 554.593 149.176 554.096 148.92 553.636C148.669 553.177 148.324 552.808 147.883 552.528C147.443 552.244 146.941 552.102 146.378 552.102ZM159.164 565.199C158.146 565.199 157.246 565.024 156.465 564.673C155.688 564.323 155.08 563.84 154.639 563.224C154.199 562.609 153.981 561.908 153.986 561.122C153.981 560.507 154.107 559.941 154.362 559.425C154.623 558.904 154.976 558.471 155.421 558.125C155.866 557.775 156.363 557.552 156.912 557.457V557.372C156.188 557.197 155.608 556.809 155.172 556.207C154.736 555.606 154.521 554.915 154.526 554.134C154.521 553.39 154.718 552.727 155.115 552.145C155.518 551.558 156.069 551.096 156.77 550.76C157.471 550.424 158.269 550.256 159.164 550.256C160.049 550.256 160.84 550.426 161.536 550.767C162.236 551.103 162.788 551.565 163.191 552.152C163.593 552.734 163.797 553.395 163.801 554.134C163.797 554.915 163.574 555.606 163.134 556.207C162.693 556.809 162.12 557.197 161.415 557.372V557.457C161.959 557.552 162.45 557.775 162.885 558.125C163.325 558.471 163.676 558.904 163.936 559.425C164.201 559.941 164.336 560.507 164.341 561.122C164.336 561.908 164.114 562.609 163.673 563.224C163.233 563.84 162.622 564.323 161.841 564.673C161.065 565.024 160.172 565.199 159.164 565.199ZM159.164 563.402C159.765 563.402 160.286 563.303 160.726 563.104C161.166 562.9 161.507 562.618 161.749 562.259C161.99 561.894 162.113 561.468 162.118 560.98C162.113 560.473 161.981 560.026 161.72 559.638C161.465 559.25 161.117 558.944 160.676 558.722C160.236 558.499 159.732 558.388 159.164 558.388C158.591 558.388 158.082 558.499 157.637 558.722C157.191 558.944 156.841 559.25 156.585 559.638C156.33 560.026 156.204 560.473 156.209 560.98C156.204 561.468 156.32 561.894 156.557 562.259C156.798 562.618 157.142 562.9 157.587 563.104C158.032 563.303 158.557 563.402 159.164 563.402ZM159.164 556.634C159.646 556.634 160.075 556.536 160.449 556.342C160.823 556.148 161.117 555.878 161.33 555.533C161.548 555.187 161.659 554.782 161.664 554.318C161.659 553.864 161.55 553.466 161.337 553.125C161.128 552.784 160.837 552.521 160.463 552.337C160.089 552.147 159.656 552.053 159.164 552.053C158.662 552.053 158.221 552.147 157.843 552.337C157.468 552.521 157.177 552.784 156.969 553.125C156.761 553.466 156.659 553.864 156.664 554.318C156.659 554.782 156.763 555.187 156.976 555.533C157.189 555.878 157.483 556.148 157.857 556.342C158.235 556.536 158.671 556.634 159.164 556.634ZM168.611 550.455L172.091 556.143H172.205L175.685 550.455H178.228L173.697 557.727L178.256 565H175.699L172.205 559.389H172.091L168.597 565H166.04L170.678 557.727L166.069 550.455H168.611ZM181.932 550.455L185.412 556.143H185.525L189.006 550.455H191.548L187.017 557.727L191.577 565H189.02L185.525 559.389H185.412L181.917 565H179.361L183.998 557.727L179.389 550.455H181.932ZM195.252 550.455L198.732 556.143H198.846L202.326 550.455H204.868L200.337 557.727L204.897 565H202.34L198.846 559.389H198.732L195.238 565H192.681L197.319 557.727L192.709 550.455H195.252ZM211.761 565.199C210.743 565.199 209.844 565.024 209.062 564.673C208.286 564.323 207.677 563.84 207.237 563.224C206.797 562.609 206.579 561.908 206.584 561.122C206.579 560.507 206.704 559.941 206.96 559.425C207.22 558.904 207.573 558.471 208.018 558.125C208.463 557.775 208.961 557.552 209.51 557.457V557.372C208.785 557.197 208.205 556.809 207.77 556.207C207.334 555.606 207.119 554.915 207.123 554.134C207.119 553.39 207.315 552.727 207.713 552.145C208.115 551.558 208.667 551.096 209.368 550.76C210.068 550.424 210.866 550.256 211.761 550.256C212.647 550.256 213.437 550.426 214.133 550.767C214.834 551.103 215.386 551.565 215.788 552.152C216.191 552.734 216.394 553.395 216.399 554.134C216.394 554.915 216.172 555.606 215.731 556.207C215.291 556.809 214.718 557.197 214.013 557.372V557.457C214.557 557.552 215.047 557.775 215.483 558.125C215.923 558.471 216.273 558.904 216.534 559.425C216.799 559.941 216.934 560.507 216.939 561.122C216.934 561.908 216.711 562.609 216.271 563.224C215.831 563.84 215.22 564.323 214.439 564.673C213.662 565.024 212.77 565.199 211.761 565.199ZM211.761 563.402C212.363 563.402 212.883 563.303 213.324 563.104C213.764 562.9 214.105 562.618 214.346 562.259C214.588 561.894 214.711 561.468 214.716 560.98C214.711 560.473 214.578 560.026 214.318 559.638C214.062 559.25 213.714 558.944 213.274 558.722C212.834 558.499 212.329 558.388 211.761 558.388C211.188 558.388 210.679 558.499 210.234 558.722C209.789 558.944 209.439 559.25 209.183 559.638C208.927 560.026 208.802 560.473 208.807 560.98C208.802 561.468 208.918 561.894 209.155 562.259C209.396 562.618 209.739 562.9 210.184 563.104C210.63 563.303 211.155 563.402 211.761 563.402ZM211.761 556.634C212.244 556.634 212.673 556.536 213.047 556.342C213.421 556.148 213.714 555.878 213.927 555.533C214.145 555.187 214.256 554.782 214.261 554.318C214.256 553.864 214.148 553.466 213.934 553.125C213.726 552.784 213.435 552.521 213.061 552.337C212.687 552.147 212.254 552.053 211.761 552.053C211.259 552.053 210.819 552.147 210.44 552.337C210.066 552.521 209.775 552.784 209.567 553.125C209.358 553.466 209.256 553.864 209.261 554.318C209.256 554.782 209.361 555.187 209.574 555.533C209.787 555.878 210.08 556.148 210.454 556.342C210.833 556.536 211.269 556.634 211.761 556.634ZM219.973 565L226.323 552.443V552.337H218.979V550.455H228.595V552.401L222.267 565H219.973ZM235.797 565.199C234.822 565.199 233.95 565.031 233.183 564.695C232.421 564.358 231.817 563.892 231.372 563.295C230.932 562.694 230.695 561.998 230.662 561.207H232.892C232.921 561.638 233.065 562.012 233.325 562.33C233.591 562.642 233.936 562.884 234.362 563.054C234.789 563.224 235.262 563.31 235.783 563.31C236.356 563.31 236.862 563.21 237.303 563.011C237.748 562.812 238.096 562.536 238.347 562.18C238.598 561.821 238.723 561.406 238.723 560.938C238.723 560.45 238.598 560.021 238.347 559.652C238.101 559.278 237.738 558.984 237.26 558.771C236.787 558.558 236.214 558.452 235.541 558.452H234.313V556.662H235.541C236.081 556.662 236.555 556.565 236.962 556.371C237.374 556.177 237.696 555.907 237.928 555.561C238.16 555.211 238.276 554.801 238.276 554.332C238.276 553.883 238.174 553.492 237.97 553.161C237.771 552.824 237.487 552.562 237.118 552.372C236.753 552.183 236.323 552.088 235.825 552.088C235.352 552.088 234.909 552.176 234.497 552.351C234.09 552.521 233.759 552.768 233.503 553.089C233.247 553.407 233.11 553.788 233.091 554.233H230.968C230.991 553.447 231.223 552.756 231.664 552.159C232.109 551.562 232.696 551.096 233.425 550.76C234.154 550.424 234.964 550.256 235.854 550.256C236.787 550.256 237.592 550.438 238.269 550.803C238.95 551.162 239.476 551.643 239.845 552.244C240.219 552.846 240.404 553.504 240.399 554.219C240.404 555.033 240.177 555.724 239.718 556.293C239.263 556.861 238.657 557.242 237.899 557.436V557.55C238.865 557.696 239.613 558.08 240.144 558.7C240.679 559.321 240.944 560.09 240.939 561.009C240.944 561.809 240.721 562.526 240.271 563.161C239.826 563.795 239.218 564.295 238.446 564.659C237.674 565.019 236.791 565.199 235.797 565.199ZM245.35 550.455L248.83 556.143H248.943L252.423 550.455H254.966L250.435 557.727L254.994 565H252.438L248.943 559.389H248.83L245.335 565H242.779L247.416 557.727L242.807 550.455H245.35ZM258.67 550.455L262.15 556.143H262.264L265.744 550.455H268.286L263.755 557.727L268.315 565H265.758L262.264 559.389H262.15L258.656 565H256.099L260.737 557.727L256.127 550.455H258.67Z" fill="#39416B"/>
<rect x="166" y="622" width="258" height="39" rx="7.37857" fill="#0441FF"/>
<path d="M256.183 636.609L258.627 644.001H258.723L261.162 636.609H263.033L259.723 646H257.622L254.316 636.609H256.183ZM266.481 646.138C265.775 646.138 265.165 645.991 264.651 645.697C264.141 645.401 263.748 644.982 263.473 644.441C263.198 643.897 263.06 643.256 263.06 642.52C263.06 641.795 263.198 641.159 263.473 640.612C263.751 640.062 264.139 639.634 264.637 639.328C265.136 639.019 265.721 638.865 266.394 638.865C266.828 638.865 267.237 638.935 267.623 639.076C268.011 639.214 268.353 639.428 268.65 639.718C268.949 640.008 269.185 640.378 269.356 640.828C269.527 641.274 269.613 641.806 269.613 642.423V642.932H263.84V641.814H268.022C268.018 641.496 267.95 641.213 267.815 640.965C267.681 640.715 267.493 640.517 267.251 640.374C267.013 640.23 266.735 640.158 266.417 640.158C266.077 640.158 265.779 640.241 265.522 640.406C265.266 640.568 265.065 640.782 264.922 641.048C264.781 641.311 264.709 641.6 264.706 641.914V642.891C264.706 643.301 264.781 643.652 264.931 643.946C265.081 644.236 265.29 644.459 265.559 644.615C265.828 644.768 266.143 644.844 266.504 644.844C266.745 644.844 266.964 644.811 267.159 644.744C267.355 644.673 267.525 644.571 267.668 644.436C267.812 644.302 267.921 644.135 267.994 643.937L269.544 644.111C269.446 644.52 269.26 644.878 268.984 645.184C268.712 645.486 268.364 645.722 267.939 645.89C267.514 646.055 267.028 646.138 266.481 646.138ZM270.939 646V638.957H272.549V640.131H272.622C272.751 639.724 272.971 639.411 273.283 639.191C273.597 638.968 273.957 638.856 274.36 638.856C274.452 638.856 274.554 638.861 274.667 638.87C274.784 638.876 274.88 638.887 274.956 638.902V640.429C274.886 640.404 274.774 640.383 274.622 640.365C274.472 640.343 274.327 640.332 274.186 640.332C273.883 640.332 273.611 640.398 273.37 640.53C273.131 640.658 272.943 640.837 272.806 641.066C272.668 641.295 272.599 641.56 272.599 641.859V646H270.939ZM275.982 646V638.957H277.641V646H275.982ZM276.816 637.957C276.553 637.957 276.327 637.87 276.137 637.696C275.948 637.519 275.853 637.306 275.853 637.058C275.853 636.808 275.948 636.595 276.137 636.421C276.327 636.244 276.553 636.155 276.816 636.155C277.082 636.155 277.308 636.244 277.495 636.421C277.684 636.595 277.779 636.808 277.779 637.058C277.779 637.306 277.684 637.519 277.495 637.696C277.308 637.87 277.082 637.957 276.816 637.957ZM282.838 638.957V640.241H278.675V638.957H282.838ZM279.716 646V638.292C279.716 637.818 279.814 637.424 280.009 637.109C280.208 636.794 280.474 636.559 280.807 636.403C281.14 636.247 281.51 636.169 281.917 636.169C282.204 636.169 282.459 636.192 282.682 636.238C282.906 636.284 283.071 636.325 283.178 636.361L282.848 637.645C282.777 637.624 282.689 637.603 282.582 637.581C282.475 637.557 282.355 637.545 282.224 637.545C281.915 637.545 281.697 637.619 281.568 637.769C281.443 637.916 281.38 638.127 281.38 638.402V646H279.716ZM285.093 648.641C284.866 648.641 284.657 648.623 284.464 648.586C284.275 648.553 284.124 648.513 284.01 648.467L284.396 647.174C284.637 647.244 284.853 647.278 285.042 647.275C285.232 647.272 285.398 647.212 285.542 647.096C285.689 646.983 285.812 646.793 285.913 646.527L286.056 646.147L283.501 638.957H285.262L286.885 644.276H286.959L288.587 638.957H290.352L287.532 646.853C287.401 647.226 287.226 647.545 287.009 647.811C286.792 648.08 286.526 648.285 286.211 648.426C285.9 648.569 285.527 648.641 285.093 648.641ZM297.162 646.124C296.609 646.124 296.114 645.982 295.677 645.697C295.24 645.413 294.894 645 294.64 644.459C294.387 643.918 294.26 643.261 294.26 642.488C294.26 641.705 294.388 641.045 294.645 640.507C294.905 639.966 295.255 639.558 295.695 639.282C296.135 639.004 296.626 638.865 297.167 638.865C297.58 638.865 297.919 638.935 298.185 639.076C298.451 639.214 298.662 639.38 298.818 639.576C298.974 639.768 299.094 639.95 299.18 640.122H299.249V636.609H300.913V646H299.281V644.89H299.18C299.094 645.062 298.971 645.243 298.808 645.436C298.646 645.626 298.432 645.788 298.167 645.922C297.901 646.057 297.566 646.124 297.162 646.124ZM297.625 644.762C297.977 644.762 298.277 644.667 298.524 644.478C298.772 644.285 298.96 644.018 299.088 643.675C299.217 643.333 299.281 642.934 299.281 642.478C299.281 642.023 299.217 641.627 299.088 641.291C298.963 640.955 298.776 640.693 298.529 640.507C298.284 640.32 297.983 640.227 297.625 640.227C297.256 640.227 296.947 640.323 296.699 640.516C296.452 640.708 296.265 640.974 296.14 641.314C296.014 641.653 295.952 642.041 295.952 642.478C295.952 642.919 296.014 643.311 296.14 643.657C296.268 643.999 296.456 644.27 296.704 644.468C296.954 644.664 297.262 644.762 297.625 644.762ZM305.723 646.138C305.016 646.138 304.407 645.991 303.893 645.697C303.383 645.401 302.99 644.982 302.715 644.441C302.439 643.897 302.302 643.256 302.302 642.52C302.302 641.795 302.439 641.159 302.715 640.612C302.993 640.062 303.381 639.634 303.879 639.328C304.378 639.019 304.963 638.865 305.635 638.865C306.07 638.865 306.479 638.935 306.864 639.076C307.253 639.214 307.595 639.428 307.892 639.718C308.191 640.008 308.426 640.378 308.598 640.828C308.769 641.274 308.854 641.806 308.854 642.423V642.932H303.081V641.814H307.263C307.26 641.496 307.191 641.213 307.057 640.965C306.922 640.715 306.734 640.517 306.493 640.374C306.255 640.23 305.976 640.158 305.658 640.158C305.319 640.158 305.021 640.241 304.764 640.406C304.507 640.568 304.307 640.782 304.164 641.048C304.023 641.311 303.951 641.6 303.948 641.914V642.891C303.948 643.301 304.023 643.652 304.173 643.946C304.323 644.236 304.532 644.459 304.801 644.615C305.07 644.768 305.385 644.844 305.746 644.844C305.987 644.844 306.206 644.811 306.401 644.744C306.597 644.673 306.767 644.571 306.91 644.436C307.054 644.302 307.162 644.135 307.236 643.937L308.786 644.111C308.688 644.52 308.501 644.878 308.226 645.184C307.954 645.486 307.606 645.722 307.181 645.89C306.756 646.055 306.27 646.138 305.723 646.138ZM313.698 638.957V640.241H309.649V638.957H313.698ZM310.649 637.269H312.309V643.882C312.309 644.105 312.343 644.276 312.41 644.395C312.48 644.511 312.572 644.591 312.685 644.634C312.798 644.676 312.923 644.698 313.061 644.698C313.165 644.698 313.26 644.69 313.345 644.675C313.434 644.66 313.501 644.646 313.547 644.634L313.827 645.931C313.738 645.962 313.611 645.995 313.446 646.032C313.284 646.069 313.085 646.09 312.85 646.096C312.434 646.109 312.06 646.046 311.727 645.908C311.393 645.768 311.129 645.551 310.933 645.257C310.741 644.964 310.646 644.597 310.649 644.157V637.269ZM317.036 646.142C316.589 646.142 316.187 646.063 315.83 645.904C315.475 645.742 315.194 645.503 314.986 645.188C314.781 644.874 314.679 644.485 314.679 644.024C314.679 643.626 314.752 643.298 314.899 643.038C315.046 642.778 315.246 642.57 315.5 642.414C315.753 642.258 316.039 642.141 316.357 642.061C316.678 641.979 317.01 641.919 317.352 641.882C317.765 641.84 318.1 641.801 318.356 641.768C318.613 641.731 318.8 641.676 318.916 641.603C319.035 641.526 319.095 641.408 319.095 641.25V641.222C319.095 640.877 318.992 640.609 318.787 640.42C318.583 640.23 318.288 640.135 317.902 640.135C317.496 640.135 317.173 640.224 316.935 640.401C316.699 640.579 316.541 640.788 316.458 641.029L314.908 640.809C315.03 640.381 315.232 640.024 315.513 639.736C315.795 639.446 316.139 639.229 316.545 639.085C316.952 638.938 317.401 638.865 317.893 638.865C318.233 638.865 318.57 638.905 318.907 638.984C319.243 639.064 319.55 639.195 319.828 639.379C320.106 639.559 320.33 639.805 320.498 640.117C320.669 640.429 320.755 640.818 320.755 641.286V646H319.159V645.032H319.104C319.003 645.228 318.861 645.412 318.677 645.583C318.497 645.751 318.269 645.887 317.994 645.991C317.722 646.092 317.403 646.142 317.036 646.142ZM317.467 644.922C317.8 644.922 318.089 644.857 318.333 644.725C318.578 644.591 318.766 644.413 318.897 644.193C319.032 643.973 319.099 643.733 319.099 643.473V642.643C319.047 642.686 318.959 642.726 318.833 642.763C318.711 642.799 318.573 642.831 318.421 642.859C318.268 642.887 318.116 642.911 317.967 642.932C317.817 642.954 317.687 642.972 317.577 642.987C317.329 643.021 317.108 643.076 316.912 643.152C316.716 643.229 316.562 643.336 316.449 643.473C316.336 643.608 316.279 643.782 316.279 643.996C316.279 644.302 316.391 644.533 316.614 644.689C316.837 644.844 317.121 644.922 317.467 644.922ZM322.346 646V638.957H324.006V646H322.346ZM323.181 637.957C322.918 637.957 322.692 637.87 322.502 637.696C322.313 637.519 322.218 637.306 322.218 637.058C322.218 636.808 322.313 636.595 322.502 636.421C322.692 636.244 322.918 636.155 323.181 636.155C323.447 636.155 323.673 636.244 323.859 636.421C324.049 636.595 324.144 636.808 324.144 637.058C324.144 637.306 324.049 637.519 323.859 637.696C323.673 637.87 323.447 637.957 323.181 637.957ZM327.295 636.609V646H325.635V636.609H327.295ZM334.492 640.818L332.978 640.984C332.936 640.831 332.861 640.687 332.754 640.553C332.65 640.418 332.509 640.31 332.332 640.227C332.155 640.144 331.937 640.103 331.681 640.103C331.335 640.103 331.045 640.178 330.809 640.328C330.577 640.478 330.462 640.672 330.466 640.91C330.462 641.115 330.537 641.282 330.69 641.41C330.846 641.538 331.103 641.644 331.461 641.726L332.662 641.983C333.328 642.127 333.824 642.355 334.148 642.666C334.475 642.978 334.64 643.386 334.643 643.891C334.64 644.334 334.51 644.725 334.253 645.065C333.999 645.401 333.646 645.664 333.194 645.853C332.741 646.043 332.222 646.138 331.635 646.138C330.773 646.138 330.079 645.957 329.553 645.596C329.027 645.233 328.714 644.727 328.613 644.079L330.232 643.923C330.305 644.241 330.461 644.481 330.699 644.643C330.938 644.805 331.248 644.886 331.63 644.886C332.025 644.886 332.341 644.805 332.579 644.643C332.821 644.481 332.942 644.28 332.942 644.042C332.942 643.84 332.864 643.674 332.708 643.542C332.555 643.411 332.317 643.31 331.992 643.24L330.791 642.987C330.116 642.847 329.616 642.61 329.292 642.277C328.968 641.94 328.807 641.515 328.81 641.002C328.807 640.568 328.925 640.192 329.163 639.874C329.405 639.553 329.74 639.305 330.167 639.131C330.599 638.954 331.095 638.865 331.658 638.865C332.483 638.865 333.133 639.041 333.607 639.392C334.083 639.744 334.378 640.219 334.492 640.818Z" fill="white"/>
<rect x="199" y="107" width="191" height="70" rx="8" fill="#DAF1E3"/>
<path d="M258.349 136.273C258.024 136.031 257.771 135.705 257.615 135.331C257.46 134.957 257.408 134.548 257.466 134.148C258.223 129.393 257.358 127.934 256.709 127.286C256.06 126.637 254.618 125.791 249.859 126.547C249.458 126.601 249.05 126.548 248.677 126.393C248.303 126.238 247.977 125.986 247.732 125.665C244.596 121.486 242.955 121 242 121C241.045 121 239.404 121.486 236.268 125.665C236.023 125.986 235.697 126.238 235.323 126.393C234.95 126.548 234.542 126.601 234.141 126.547C229.382 125.791 227.94 126.655 227.291 127.286C226.642 127.916 225.777 129.393 226.534 134.148C226.592 134.548 226.54 134.957 226.385 135.331C226.229 135.705 225.976 136.031 225.651 136.273C221.469 139.407 221 141.045 221 142C221 142.955 221.469 144.593 225.651 147.727C225.976 147.969 226.229 148.295 226.385 148.669C226.54 149.043 226.592 149.452 226.534 149.852C225.849 154.643 226.642 156.066 227.291 156.714C227.94 157.363 229.346 158.137 234.141 157.453C234.542 157.395 234.951 157.447 235.326 157.602C235.7 157.757 236.025 158.011 236.268 158.335C239.404 162.514 241.045 163 242 163C242.955 163 244.596 162.514 247.732 158.335C247.975 158.011 248.3 157.757 248.674 157.602C249.049 157.447 249.458 157.395 249.859 157.453C254.672 158.137 256.06 157.345 256.709 156.714C257.358 156.084 258.151 154.643 257.466 149.852C257.408 149.452 257.46 149.043 257.615 148.669C257.771 148.295 258.024 147.969 258.349 147.727C262.531 144.593 263 142.955 263 142C263 141.045 262.531 139.407 258.349 136.273Z" fill="#55BA6A"/>
<path d="M240.194 147.409C239.957 147.41 239.722 147.365 239.502 147.275C239.283 147.186 239.083 147.054 238.915 146.887L235.309 143.285C234.97 142.945 234.779 142.485 234.779 142.006C234.779 141.526 234.97 141.066 235.309 140.727C235.649 140.388 236.109 140.197 236.589 140.197C237.069 140.197 237.53 140.388 237.869 140.727L240.194 143.068L246.125 137.125C246.292 136.956 246.492 136.822 246.711 136.731C246.931 136.639 247.167 136.592 247.405 136.592C247.643 136.592 247.878 136.639 248.098 136.731C248.318 136.822 248.517 136.956 248.685 137.125C248.853 137.292 248.988 137.492 249.079 137.711C249.171 137.931 249.218 138.166 249.218 138.404C249.218 138.642 249.171 138.877 249.079 139.096C248.988 139.316 248.853 139.515 248.685 139.682L241.474 146.887C241.306 147.054 241.106 147.186 240.886 147.275C240.667 147.365 240.432 147.41 240.194 147.409Z" fill="white"/>
<path d="M281.252 133.045L285.795 146.784H285.974L290.508 133.045H293.985L287.832 150.5H283.928L277.783 133.045H281.252ZM300.537 150.756C299.224 150.756 298.091 150.483 297.136 149.938C296.188 149.386 295.457 148.608 294.946 147.602C294.435 146.591 294.179 145.401 294.179 144.031C294.179 142.685 294.435 141.503 294.946 140.486C295.463 139.463 296.185 138.668 297.111 138.099C298.037 137.526 299.125 137.239 300.375 137.239C301.182 137.239 301.943 137.369 302.659 137.631C303.381 137.886 304.017 138.284 304.568 138.824C305.125 139.364 305.563 140.051 305.881 140.886C306.199 141.716 306.358 142.705 306.358 143.852V144.798H295.628V142.719H303.401C303.395 142.128 303.267 141.602 303.017 141.142C302.767 140.676 302.418 140.31 301.969 140.043C301.526 139.776 301.009 139.642 300.418 139.642C299.787 139.642 299.233 139.795 298.756 140.102C298.278 140.403 297.906 140.801 297.639 141.295C297.378 141.784 297.244 142.321 297.239 142.906V144.722C297.239 145.483 297.378 146.136 297.656 146.682C297.935 147.222 298.324 147.636 298.824 147.926C299.324 148.21 299.909 148.352 300.58 148.352C301.028 148.352 301.435 148.29 301.798 148.165C302.162 148.034 302.477 147.844 302.744 147.594C303.011 147.344 303.213 147.034 303.349 146.665L306.23 146.989C306.048 147.75 305.702 148.415 305.19 148.983C304.685 149.545 304.037 149.983 303.247 150.295C302.457 150.602 301.554 150.756 300.537 150.756ZM308.968 150.5V137.409H311.96V139.591H312.096C312.335 138.835 312.744 138.253 313.323 137.844C313.908 137.429 314.576 137.222 315.326 137.222C315.496 137.222 315.687 137.23 315.897 137.247C316.113 137.259 316.292 137.278 316.434 137.307V140.145C316.303 140.099 316.096 140.06 315.812 140.026C315.533 139.986 315.263 139.966 315.002 139.966C314.44 139.966 313.934 140.088 313.485 140.332C313.042 140.571 312.692 140.903 312.437 141.33C312.181 141.756 312.053 142.247 312.053 142.804V150.5H308.968ZM318.484 150.5V137.409H321.569V150.5H318.484ZM320.035 135.551C319.546 135.551 319.126 135.389 318.773 135.065C318.421 134.736 318.245 134.341 318.245 133.881C318.245 133.415 318.421 133.02 318.773 132.696C319.126 132.366 319.546 132.202 320.035 132.202C320.529 132.202 320.95 132.366 321.296 132.696C321.648 133.02 321.825 133.415 321.825 133.881C321.825 134.341 321.648 134.736 321.296 135.065C320.95 135.389 320.529 135.551 320.035 135.551ZM331.372 137.409V139.795H323.634V137.409H331.372ZM325.568 150.5V136.173C325.568 135.293 325.75 134.56 326.114 133.974C326.483 133.389 326.977 132.952 327.597 132.662C328.216 132.372 328.903 132.227 329.659 132.227C330.193 132.227 330.668 132.27 331.082 132.355C331.497 132.44 331.804 132.517 332.003 132.585L331.389 134.972C331.259 134.932 331.094 134.892 330.895 134.852C330.696 134.807 330.474 134.784 330.23 134.784C329.656 134.784 329.25 134.923 329.011 135.202C328.778 135.474 328.662 135.866 328.662 136.378V150.5H325.568ZM333.788 150.5V137.409H336.874V150.5H333.788ZM335.339 135.551C334.851 135.551 334.43 135.389 334.078 135.065C333.726 134.736 333.55 134.341 333.55 133.881C333.55 133.415 333.726 133.02 334.078 132.696C334.43 132.366 334.851 132.202 335.339 132.202C335.834 132.202 336.254 132.366 336.601 132.696C336.953 133.02 337.129 133.415 337.129 133.881C337.129 134.341 336.953 134.736 336.601 135.065C336.254 135.389 335.834 135.551 335.339 135.551ZM345.842 150.756C344.529 150.756 343.396 150.483 342.441 149.938C341.492 149.386 340.762 148.608 340.251 147.602C339.739 146.591 339.484 145.401 339.484 144.031C339.484 142.685 339.739 141.503 340.251 140.486C340.768 139.463 341.489 138.668 342.415 138.099C343.342 137.526 344.43 137.239 345.68 137.239C346.487 137.239 347.248 137.369 347.964 137.631C348.685 137.886 349.322 138.284 349.873 138.824C350.43 139.364 350.867 140.051 351.185 140.886C351.504 141.716 351.663 142.705 351.663 143.852V144.798H340.933V142.719H348.705C348.7 142.128 348.572 141.602 348.322 141.142C348.072 140.676 347.722 140.31 347.273 140.043C346.83 139.776 346.313 139.642 345.722 139.642C345.092 139.642 344.538 139.795 344.06 140.102C343.583 140.403 343.211 140.801 342.944 141.295C342.683 141.784 342.549 142.321 342.543 142.906V144.722C342.543 145.483 342.683 146.136 342.961 146.682C343.239 147.222 343.629 147.636 344.129 147.926C344.629 148.21 345.214 148.352 345.884 148.352C346.333 148.352 346.739 148.29 347.103 148.165C347.467 148.034 347.782 147.844 348.049 147.594C348.316 147.344 348.518 147.034 348.654 146.665L351.535 146.989C351.353 147.75 351.006 148.415 350.495 148.983C349.989 149.545 349.342 149.983 348.552 150.295C347.762 150.602 346.859 150.756 345.842 150.756ZM359.131 150.73C358.102 150.73 357.182 150.466 356.369 149.938C355.557 149.409 354.915 148.642 354.443 147.636C353.972 146.631 353.736 145.409 353.736 143.972C353.736 142.517 353.974 141.29 354.452 140.29C354.935 139.284 355.585 138.526 356.403 138.014C357.222 137.497 358.134 137.239 359.139 137.239C359.906 137.239 360.537 137.369 361.031 137.631C361.526 137.886 361.918 138.196 362.207 138.56C362.497 138.918 362.722 139.256 362.881 139.574H363.009V133.045H366.102V150.5H363.068V148.438H362.881C362.722 148.756 362.491 149.094 362.19 149.452C361.889 149.804 361.491 150.105 360.997 150.355C360.503 150.605 359.881 150.73 359.131 150.73ZM359.991 148.199C360.645 148.199 361.202 148.023 361.662 147.67C362.122 147.312 362.472 146.815 362.71 146.179C362.949 145.543 363.068 144.801 363.068 143.955C363.068 143.108 362.949 142.372 362.71 141.747C362.477 141.122 362.131 140.636 361.67 140.29C361.216 139.943 360.656 139.77 359.991 139.77C359.304 139.77 358.73 139.949 358.27 140.307C357.81 140.665 357.463 141.159 357.23 141.79C356.997 142.42 356.881 143.142 356.881 143.955C356.881 144.773 356.997 145.503 357.23 146.145C357.469 146.781 357.818 147.284 358.278 147.653C358.744 148.017 359.315 148.199 359.991 148.199Z" fill="black"/>
<rect x="199" y="110" width="191" height="70" rx="8" fill="#DAF1E3"/>
<path d="M258.349 139.273C258.024 139.031 257.771 138.705 257.615 138.331C257.46 137.957 257.408 137.548 257.466 137.148C258.223 132.393 257.358 130.934 256.709 130.286C256.06 129.637 254.618 128.791 249.859 129.547C249.458 129.601 249.05 129.548 248.677 129.393C248.303 129.238 247.977 128.986 247.732 128.665C244.596 124.486 242.955 124 242 124C241.045 124 239.404 124.486 236.268 128.665C236.023 128.986 235.697 129.238 235.323 129.393C234.95 129.548 234.542 129.601 234.141 129.547C229.382 128.791 227.94 129.655 227.291 130.286C226.642 130.916 225.777 132.393 226.534 137.148C226.592 137.548 226.54 137.957 226.385 138.331C226.229 138.705 225.976 139.031 225.651 139.273C221.469 142.407 221 144.045 221 145C221 145.955 221.469 147.593 225.651 150.727C225.976 150.969 226.229 151.295 226.385 151.669C226.54 152.043 226.592 152.452 226.534 152.852C225.849 157.643 226.642 159.066 227.291 159.714C227.94 160.363 229.346 161.137 234.141 160.453C234.542 160.395 234.951 160.447 235.326 160.602C235.7 160.757 236.025 161.011 236.268 161.335C239.404 165.514 241.045 166 242 166C242.955 166 244.596 165.514 247.732 161.335C247.975 161.011 248.3 160.757 248.674 160.602C249.049 160.447 249.458 160.395 249.859 160.453C254.672 161.137 256.06 160.345 256.709 159.714C257.358 159.084 258.151 157.643 257.466 152.852C257.408 152.452 257.46 152.043 257.615 151.669C257.771 151.295 258.024 150.969 258.349 150.727C262.531 147.593 263 145.955 263 145C263 144.045 262.531 142.407 258.349 139.273Z" fill="#55BA6A"/>
<path d="M240.194 150.409C239.957 150.41 239.722 150.365 239.502 150.275C239.283 150.186 239.083 150.054 238.915 149.887L235.309 146.285C234.97 145.945 234.779 145.485 234.779 145.006C234.779 144.526 234.97 144.066 235.309 143.727C235.649 143.388 236.109 143.197 236.589 143.197C237.069 143.197 237.53 143.388 237.869 143.727L240.194 146.068L246.125 140.125C246.292 139.956 246.492 139.822 246.711 139.731C246.931 139.639 247.167 139.592 247.405 139.592C247.643 139.592 247.878 139.639 248.098 139.731C248.318 139.822 248.517 139.956 248.685 140.125C248.853 140.292 248.988 140.492 249.079 140.711C249.171 140.931 249.218 141.166 249.218 141.404C249.218 141.642 249.171 141.877 249.079 142.096C248.988 142.316 248.853 142.515 248.685 142.682L241.474 149.887C241.306 150.054 241.106 150.186 240.886 150.275C240.667 150.365 240.432 150.41 240.194 150.409Z" fill="white"/>
<path d="M281.252 136.045L285.795 149.784H285.974L290.508 136.045H293.985L287.832 153.5H283.928L277.783 136.045H281.252ZM300.537 153.756C299.224 153.756 298.091 153.483 297.136 152.938C296.188 152.386 295.457 151.608 294.946 150.602C294.435 149.591 294.179 148.401 294.179 147.031C294.179 145.685 294.435 144.503 294.946 143.486C295.463 142.463 296.185 141.668 297.111 141.099C298.037 140.526 299.125 140.239 300.375 140.239C301.182 140.239 301.943 140.369 302.659 140.631C303.381 140.886 304.017 141.284 304.568 141.824C305.125 142.364 305.563 143.051 305.881 143.886C306.199 144.716 306.358 145.705 306.358 146.852V147.798H295.628V145.719H303.401C303.395 145.128 303.267 144.602 303.017 144.142C302.767 143.676 302.418 143.31 301.969 143.043C301.526 142.776 301.009 142.642 300.418 142.642C299.787 142.642 299.233 142.795 298.756 143.102C298.278 143.403 297.906 143.801 297.639 144.295C297.378 144.784 297.244 145.321 297.239 145.906V147.722C297.239 148.483 297.378 149.136 297.656 149.682C297.935 150.222 298.324 150.636 298.824 150.926C299.324 151.21 299.909 151.352 300.58 151.352C301.028 151.352 301.435 151.29 301.798 151.165C302.162 151.034 302.477 150.844 302.744 150.594C303.011 150.344 303.213 150.034 303.349 149.665L306.23 149.989C306.048 150.75 305.702 151.415 305.19 151.983C304.685 152.545 304.037 152.983 303.247 153.295C302.457 153.602 301.554 153.756 300.537 153.756ZM308.968 153.5V140.409H311.96V142.591H312.096C312.335 141.835 312.744 141.253 313.323 140.844C313.908 140.429 314.576 140.222 315.326 140.222C315.496 140.222 315.687 140.23 315.897 140.247C316.113 140.259 316.292 140.278 316.434 140.307V143.145C316.303 143.099 316.096 143.06 315.812 143.026C315.533 142.986 315.263 142.966 315.002 142.966C314.44 142.966 313.934 143.088 313.485 143.332C313.042 143.571 312.692 143.903 312.437 144.33C312.181 144.756 312.053 145.247 312.053 145.804V153.5H308.968ZM318.484 153.5V140.409H321.569V153.5H318.484ZM320.035 138.551C319.546 138.551 319.126 138.389 318.773 138.065C318.421 137.736 318.245 137.341 318.245 136.881C318.245 136.415 318.421 136.02 318.773 135.696C319.126 135.366 319.546 135.202 320.035 135.202C320.529 135.202 320.95 135.366 321.296 135.696C321.648 136.02 321.825 136.415 321.825 136.881C321.825 137.341 321.648 137.736 321.296 138.065C320.95 138.389 320.529 138.551 320.035 138.551ZM331.372 140.409V142.795H323.634V140.409H331.372ZM325.568 153.5V139.173C325.568 138.293 325.75 137.56 326.114 136.974C326.483 136.389 326.977 135.952 327.597 135.662C328.216 135.372 328.903 135.227 329.659 135.227C330.193 135.227 330.668 135.27 331.082 135.355C331.497 135.44 331.804 135.517 332.003 135.585L331.389 137.972C331.259 137.932 331.094 137.892 330.895 137.852C330.696 137.807 330.474 137.784 330.23 137.784C329.656 137.784 329.25 137.923 329.011 138.202C328.778 138.474 328.662 138.866 328.662 139.378V153.5H325.568ZM333.788 153.5V140.409H336.874V153.5H333.788ZM335.339 138.551C334.851 138.551 334.43 138.389 334.078 138.065C333.726 137.736 333.55 137.341 333.55 136.881C333.55 136.415 333.726 136.02 334.078 135.696C334.43 135.366 334.851 135.202 335.339 135.202C335.834 135.202 336.254 135.366 336.601 135.696C336.953 136.02 337.129 136.415 337.129 136.881C337.129 137.341 336.953 137.736 336.601 138.065C336.254 138.389 335.834 138.551 335.339 138.551ZM345.842 153.756C344.529 153.756 343.396 153.483 342.441 152.938C341.492 152.386 340.762 151.608 340.251 150.602C339.739 149.591 339.484 148.401 339.484 147.031C339.484 145.685 339.739 144.503 340.251 143.486C340.768 142.463 341.489 141.668 342.415 141.099C343.342 140.526 344.43 140.239 345.68 140.239C346.487 140.239 347.248 140.369 347.964 140.631C348.685 140.886 349.322 141.284 349.873 141.824C350.43 142.364 350.867 143.051 351.185 143.886C351.504 144.716 351.663 145.705 351.663 146.852V147.798H340.933V145.719H348.705C348.7 145.128 348.572 144.602 348.322 144.142C348.072 143.676 347.722 143.31 347.273 143.043C346.83 142.776 346.313 142.642 345.722 142.642C345.092 142.642 344.538 142.795 344.06 143.102C343.583 143.403 343.211 143.801 342.944 144.295C342.683 144.784 342.549 145.321 342.543 145.906V147.722C342.543 148.483 342.683 149.136 342.961 149.682C343.239 150.222 343.629 150.636 344.129 150.926C344.629 151.21 345.214 151.352 345.884 151.352C346.333 151.352 346.739 151.29 347.103 151.165C347.467 151.034 347.782 150.844 348.049 150.594C348.316 150.344 348.518 150.034 348.654 149.665L351.535 149.989C351.353 150.75 351.006 151.415 350.495 151.983C349.989 152.545 349.342 152.983 348.552 153.295C347.762 153.602 346.859 153.756 345.842 153.756ZM359.131 153.73C358.102 153.73 357.182 153.466 356.369 152.938C355.557 152.409 354.915 151.642 354.443 150.636C353.972 149.631 353.736 148.409 353.736 146.972C353.736 145.517 353.974 144.29 354.452 143.29C354.935 142.284 355.585 141.526 356.403 141.014C357.222 140.497 358.134 140.239 359.139 140.239C359.906 140.239 360.537 140.369 361.031 140.631C361.526 140.886 361.918 141.196 362.207 141.56C362.497 141.918 362.722 142.256 362.881 142.574H363.009V136.045H366.102V153.5H363.068V151.438H362.881C362.722 151.756 362.491 152.094 362.19 152.452C361.889 152.804 361.491 153.105 360.997 153.355C360.503 153.605 359.881 153.73 359.131 153.73ZM359.991 151.199C360.645 151.199 361.202 151.023 361.662 150.67C362.122 150.312 362.472 149.815 362.71 149.179C362.949 148.543 363.068 147.801 363.068 146.955C363.068 146.108 362.949 145.372 362.71 144.747C362.477 144.122 362.131 143.636 361.67 143.29C361.216 142.943 360.656 142.77 359.991 142.77C359.304 142.77 358.73 142.949 358.27 143.307C357.81 143.665 357.463 144.159 357.23 144.79C356.997 145.42 356.881 146.142 356.881 146.955C356.881 147.773 356.997 148.503 357.23 149.145C357.469 149.781 357.818 150.284 358.278 150.653C358.744 151.017 359.315 151.199 359.991 151.199Z" fill="black"/>
</svg>
