<svg width="861" height="778" viewBox="0 0 861 778" fill="none" xmlns="http://www.w3.org/2000/svg">
<path d="M293.592 609.441L301.764 613.952C340.4 635.254 384.285 646.504 428.676 646.504C499.014 646.504 565.134 619.119 614.869 569.384C664.608 519.66 691.988 453.53 691.988 383.191C691.988 312.863 664.608 246.733 614.869 197.009C565.134 147.275 499.014 119.879 428.676 119.879C358.348 119.879 292.223 147.275 242.483 197.009C192.749 246.733 165.363 312.863 165.363 383.191C165.363 427.254 176.452 470.837 197.441 509.254L201.895 517.395L168.233 643.035L293.592 609.441ZM428.676 672.811C380.285 672.811 332.421 660.634 290.171 637.587L171.03 669.509C168.962 670.072 166.842 670.353 164.743 670.353C157.436 670.353 150.358 666.827 145.842 660.936C141.301 655.02 139.806 647.467 141.749 640.228L173.759 520.759C151.061 478.759 139.066 431.228 139.066 383.191C139.066 305.837 169.191 233.113 223.884 178.41C278.587 123.707 351.322 93.582 428.676 93.582C506.04 93.582 578.77 123.707 633.473 178.41C688.171 233.113 718.296 305.837 718.296 383.191C718.296 460.556 688.171 533.285 633.473 587.983C578.77 642.686 506.04 672.811 428.676 672.811Z" fill="black"/>
<path d="M689.835 128.616C620.079 58.8659 527.335 20.4492 428.678 20.4492C330.027 20.4492 237.288 58.8659 167.533 128.616C97.7721 198.382 59.3555 291.126 59.3555 389.772C59.3555 423.991 63.9805 457.496 72.9336 489.574L95.9701 483.116C87.6263 453.408 83.1523 422.105 83.1523 389.772C83.1523 199.246 238.152 44.2461 428.678 44.2461C619.21 44.2461 774.204 199.246 774.204 389.772C774.204 580.303 619.21 735.298 428.678 735.298V759.1C527.335 759.1 620.079 720.684 689.835 650.928C759.59 581.168 798.007 488.418 798.007 389.772C798.007 291.126 759.59 198.382 689.835 128.616Z" fill="#FC9D08"/>
<mask id="mask0_1437_232" style="mask-type:luminance" maskUnits="userSpaceOnUse" x="749" y="295" width="103" height="206">
<path d="M749.668 295.332H851.835V500.665H749.668V295.332Z" fill="white"/>
</mask>
<g mask="url(#mask0_1437_232)">
<path d="M845.419 357.993L845.45 355.513C845.731 331.951 828.83 312.222 806.127 308.482L783.924 305.586C783.565 304.545 783.08 303.545 782.445 302.638C781.32 301.039 779.893 299.628 778.2 298.493C774.955 296.295 770.981 295.477 767.091 295.914L766.976 295.925C758.356 297.045 752.205 304.68 752.981 313.331C758.018 369.258 756.95 425.842 749.804 481.524C748.7 490.175 754.83 498.243 763.497 499.503L763.674 499.534C765.132 499.737 766.606 499.758 768.065 499.571C774.336 498.763 779.445 494.383 781.341 488.503C783.351 488.581 785.596 488.55 785.596 488.55C790.591 488.842 800.252 488.628 802.914 488.201C803.07 488.18 803.216 488.191 803.372 488.144C826.487 485.17 844.127 465.326 844.409 441.993L844.44 439.711C848.81 434.435 851.257 427.862 851.393 420.956L852.211 377.701C852.346 370.461 849.945 363.55 845.419 357.993Z" fill="#FC9D08"/>
</g>
<mask id="mask1_1437_232" style="mask-type:luminance" maskUnits="userSpaceOnUse" x="7" y="295" width="104" height="206">
<path d="M7.83203 295.332H110.999V500.665H7.83203V295.332Z" fill="white"/>
</mask>
<g mask="url(#mask1_1437_232)">
<path d="M14.8831 357.993L14.8518 355.513C14.5601 331.951 31.4612 312.222 54.1643 308.482L76.3779 305.586C76.7372 304.545 77.2112 303.545 77.857 302.638C78.9716 301.039 80.4091 299.628 82.1018 298.493C85.3362 296.295 89.3206 295.477 93.2112 295.914L93.3258 295.925C101.946 297.045 108.086 304.68 107.31 313.331C102.274 369.258 103.347 425.842 110.498 481.524C111.607 490.175 105.472 498.243 96.8049 499.503L96.6174 499.534C95.1643 499.737 93.6851 499.758 92.2372 499.571C85.9664 498.763 80.8466 494.383 78.9612 488.503C76.9404 488.581 74.706 488.55 74.706 488.55C69.7008 488.842 60.0497 488.628 57.3883 488.201C57.232 488.18 57.0862 488.191 56.9299 488.144C33.8153 485.17 16.1643 465.326 15.8831 441.993L15.8622 439.711C11.4924 434.435 9.0341 427.862 8.9091 420.956L8.09139 377.701C7.95597 370.461 10.3466 363.55 14.8831 357.993Z" fill="#FC9D08"/>
</g>
<path d="M665.209 97.9492C664.334 90.9544 660.74 84.7982 655.073 80.6419C589.297 32.2461 511.011 6.66797 428.678 6.66797C346.349 6.66797 268.063 32.2461 202.282 80.6419C196.62 84.7982 193.021 90.9544 192.146 97.9492C191.292 104.908 193.355 112.012 197.803 117.413L198.068 117.736C202.943 123.652 210.136 127.043 217.813 127.043C223.277 127.043 228.485 125.335 232.896 122.105C290.053 80.1836 357.761 58.0169 428.678 58.0169C499.599 58.0169 567.303 80.1836 624.464 122.105C628.865 125.335 634.084 127.043 639.547 127.043C647.214 127.043 654.412 123.652 659.292 117.736L659.553 117.413C664.006 112.012 666.073 104.908 665.209 97.9492Z" fill="#FC9D08"/>
<mask id="mask2_1437_232" style="mask-type:luminance" maskUnits="userSpaceOnUse" x="346" y="716" width="165" height="57">
<path d="M346.418 716.668H510.611V772.663H346.418V716.668Z" fill="white"/>
</mask>
<g mask="url(#mask2_1437_232)">
<path d="M483.294 772.664H374.195C359.133 772.664 346.914 760.451 346.914 745.388V744.836C346.914 729.773 359.133 717.555 374.195 717.555H483.294C498.357 717.555 510.576 729.773 510.576 744.836V745.388C510.576 760.451 498.357 772.664 483.294 772.664Z" fill="#FC9D08"/>
</g>
<path d="M319.198 423.077H276.859L312.135 383.02C316.411 378.176 320.042 373.009 322.922 367.655C325.875 362.145 327.37 356.738 327.37 351.582C327.37 343.348 325.766 336.061 322.599 329.9C319.401 323.681 314.807 318.811 308.927 315.441C303.078 312.077 296.198 310.379 288.49 310.379C280.781 310.379 273.74 312.197 267.557 315.77C261.375 319.358 256.432 324.332 252.854 330.561C249.271 336.801 247.453 343.874 247.453 351.582C247.453 354.29 248.484 356.691 250.495 358.712C252.505 360.723 254.964 361.743 257.792 361.743C260.734 361.743 263.224 360.717 265.188 358.686C267.141 356.671 268.12 354.28 268.12 351.582C268.12 347.702 269.026 344.03 270.802 340.665C272.583 337.332 275.068 334.634 278.198 332.66C281.307 330.707 284.776 329.717 288.49 329.717C294.396 329.717 298.896 331.618 302.26 335.535C305.651 339.483 307.37 344.874 307.37 351.582C307.37 356.957 304.01 363.514 297.365 371.113L250.271 426.165C248.406 428.061 247.453 430.499 247.453 433.405C247.453 436.223 248.443 438.66 250.385 440.676C252.349 442.702 254.839 443.733 257.792 443.733H319.198C322.135 443.733 324.641 442.712 326.661 440.702C328.672 438.681 329.693 436.233 329.693 433.405C329.693 430.577 328.672 428.118 326.661 426.108C324.641 424.092 322.135 423.077 319.198 423.077Z" fill="#FC9D08"/>
<path d="M401.314 347.822V395.348H365.126L401.314 347.822ZM436.699 397.577C434.814 396.108 432.361 395.348 429.408 395.348H421.314V320.874C421.314 317.993 420.439 315.52 418.699 313.504C416.892 311.426 414.522 310.379 411.647 310.379C408.283 310.379 405.444 311.853 403.189 314.759L339.626 398.082C338.267 399.837 337.574 401.9 337.574 404.191C337.574 406.884 338.527 409.275 340.402 411.275C342.319 413.316 344.835 414.358 347.918 414.358H401.314V433.405C401.314 436.202 402.267 438.645 404.142 440.655C406.048 442.697 408.408 443.733 411.147 443.733C413.986 443.733 416.418 442.702 418.382 440.676C420.335 438.66 421.314 436.212 421.314 433.405V414.358H429.408C432.199 414.358 434.626 413.447 436.632 411.634C438.689 409.78 439.741 407.504 439.741 404.853C439.741 401.618 438.72 399.171 436.699 397.577Z" fill="#FC9D08"/>
<path d="M509.238 310.379C507.238 310.379 505.342 310.921 503.613 311.983C501.842 313.066 500.53 314.587 499.697 316.53L449.754 441.478C449.103 443.025 448.785 444.493 448.785 445.853C448.785 448.691 449.806 451.118 451.842 453.082C453.858 455.035 456.306 456.02 459.113 456.02C461.098 456.02 462.973 455.514 464.691 454.52C466.499 453.483 467.832 451.915 468.645 449.868L518.608 324.884L518.624 324.827C519.139 323.41 519.405 321.973 519.405 320.54C519.405 317.712 518.41 315.296 516.447 313.332C514.483 311.368 512.056 310.379 509.238 310.379Z" fill="#FC9D08"/>
<path d="M606.98 313.41C604.97 311.4 602.512 310.379 599.694 310.379H536.46C533.527 310.379 531.038 311.368 529.074 313.332C527.121 315.296 526.121 317.775 526.121 320.707C526.121 323.65 527.121 326.129 529.074 328.082C531.038 330.046 533.517 331.035 536.46 331.035H583.939L537.605 427.254C536.491 429.499 535.918 431.566 535.918 433.405C535.918 436.233 536.939 438.681 538.96 440.702C540.97 442.712 543.371 443.733 546.079 443.733C547.954 443.733 549.772 443.228 551.496 442.238C553.23 441.238 554.595 439.848 555.527 438.108L555.548 438.061L608.684 325.993L608.704 325.936C609.585 323.905 610.022 322.197 610.022 320.707C610.022 317.879 609.001 315.431 606.98 313.41Z" fill="#FC9D08"/>
</svg>
