<svg width="1080" height="1080" viewBox="0 0 1080 1080" fill="none" xmlns="http://www.w3.org/2000/svg">
<mask id="mask0_1434_112" style="mask-type:luminance" maskUnits="userSpaceOnUse" x="100" y="25" width="627" height="948">
<path d="M100 25.332H726.667V972.046H100V25.332Z" fill="white"/>
</mask>
<g mask="url(#mask0_1434_112)">
<path d="M100.235 798.003C100.229 800.826 100.386 803.638 100.708 806.44C101.026 809.242 101.511 812.013 102.156 814.758C102.797 817.503 103.599 820.206 104.557 822.857C105.521 825.508 106.63 828.097 107.891 830.617C109.151 833.138 110.557 835.581 112.104 837.94C113.646 840.3 115.328 842.56 117.136 844.722C118.948 846.883 120.875 848.935 122.922 850.873C124.974 852.81 127.13 854.623 129.391 856.31C141.948 865.628 154.854 874.44 168.11 882.742C181.365 891.044 194.922 898.81 208.792 906.044C222.656 913.279 236.787 919.956 251.177 926.076C265.573 932.196 280.182 937.737 295.011 942.706C309.839 947.675 324.844 952.055 340.016 955.836C355.193 959.623 370.49 962.805 385.917 965.388C401.344 967.966 416.844 969.935 432.427 971.294C448.005 972.654 463.615 973.399 479.255 973.524C503.094 973.524 526.833 971.987 550.479 968.919C551.261 968.815 552.037 968.68 552.802 968.498C553.573 968.321 554.328 968.107 555.078 967.852C555.823 967.602 556.557 967.315 557.276 966.987C557.995 966.664 558.698 966.305 559.38 965.914C560.068 965.518 560.729 965.091 561.37 964.633C562.011 964.175 562.63 963.685 563.224 963.169C563.818 962.649 564.386 962.102 564.927 961.529C565.469 960.951 565.979 960.352 566.458 959.727C566.938 959.102 567.391 958.456 567.807 957.784C568.224 957.117 568.61 956.43 568.958 955.722C569.307 955.013 569.625 954.294 569.901 953.555C570.182 952.815 570.422 952.065 570.63 951.305C570.833 950.544 571 949.774 571.13 948.998C571.261 948.216 571.354 947.435 571.406 946.649C571.458 945.862 571.474 945.071 571.448 944.284C571.427 943.498 571.36 942.711 571.261 941.93C571.156 941.143 571.021 940.373 570.839 939.602C570.662 938.831 570.448 938.076 570.198 937.326C569.943 936.581 569.656 935.847 569.328 935.128C569.005 934.409 568.646 933.706 568.255 933.024C567.86 932.341 567.432 931.675 566.974 931.034C566.516 930.393 566.031 929.774 565.511 929.18C564.99 928.586 564.443 928.018 563.87 927.477C563.292 926.94 562.693 926.43 562.068 925.946C561.443 925.466 560.797 925.013 560.125 924.597C559.458 924.18 558.771 923.794 558.063 923.446C557.354 923.097 556.636 922.779 555.896 922.503C555.156 922.222 554.406 921.982 553.646 921.774C552.886 921.571 552.115 921.404 551.339 921.274C550.557 921.143 549.776 921.05 548.99 920.998C548.203 920.946 547.412 920.93 546.625 920.956C545.839 920.982 545.052 921.044 544.271 921.143C535.787 922.206 527.287 923.065 518.761 923.711C510.24 924.362 501.703 924.81 493.156 925.044C484.615 925.284 476.068 925.315 467.521 925.143C458.974 924.966 450.438 924.586 441.912 923.998C433.38 923.409 424.875 922.617 416.386 921.617C407.896 920.617 399.432 919.414 391.005 918.008C382.573 916.597 374.177 914.987 365.823 913.175C357.474 911.362 349.167 909.347 340.912 907.133C332.656 904.914 324.458 902.503 316.318 899.888C308.177 897.279 300.104 894.472 292.104 891.472C284.099 888.466 276.172 885.274 268.323 881.888C260.474 878.508 252.708 874.935 245.031 871.175C237.354 867.414 229.776 863.466 222.292 859.341C214.802 855.216 207.422 850.909 200.146 846.425C192.865 841.946 185.698 837.284 178.646 832.456C171.594 827.628 164.662 822.628 157.849 817.461C156.37 816.315 155.037 815.013 153.854 813.555C152.672 812.097 151.667 810.524 150.849 808.836C150.026 807.154 149.406 805.393 148.995 803.565C148.578 801.732 148.375 799.883 148.386 798.003C148.386 793.524 148.5 789.044 148.724 784.57C148.948 780.097 149.276 775.633 149.719 771.175C150.162 766.711 150.714 762.268 151.37 757.836C152.031 753.404 152.797 748.992 153.677 744.602C154.552 740.206 155.537 735.836 156.625 731.492C157.714 727.143 158.912 722.831 160.214 718.539C161.516 714.253 162.922 710.003 164.432 705.784C165.948 701.565 167.557 697.388 169.276 693.248C170.99 689.112 172.807 685.018 174.724 680.966C176.641 676.919 178.656 672.919 180.766 668.966C182.88 665.018 185.089 661.117 187.396 657.279C189.698 653.435 192.094 649.649 194.583 645.925C197.073 642.201 199.651 638.539 202.323 634.94C204.995 631.341 207.75 627.81 210.589 624.352C213.432 620.888 216.359 617.492 219.37 614.175C222.375 610.857 225.464 607.612 228.636 604.445C231.802 601.274 235.047 598.185 238.365 595.18C241.682 592.169 245.078 589.242 248.537 586.399C252 583.56 255.531 580.805 259.13 578.133C262.729 575.466 266.391 572.883 270.115 570.393C273.839 567.904 277.625 565.508 281.469 563.206C285.307 560.899 289.203 558.69 293.156 556.581C297.11 554.466 301.11 552.451 305.156 550.534C309.208 548.617 313.302 546.8 317.438 545.086C321.578 543.367 325.755 541.758 329.974 540.242C334.193 538.732 338.443 537.326 342.729 536.024C347.021 534.722 351.333 533.529 355.682 532.435C360.026 531.347 364.396 530.362 368.787 529.487C373.182 528.607 377.594 527.841 382.026 527.18C386.458 526.524 390.901 525.972 395.36 525.529C399.823 525.086 404.287 524.758 408.761 524.534C413.235 524.31 417.714 524.195 422.193 524.195H532.615C558.026 524.107 582.922 527.628 607.313 534.758C608.094 534.998 608.891 535.195 609.693 535.352C610.495 535.513 611.307 535.628 612.12 535.706C612.938 535.784 613.755 535.815 614.573 535.81C615.391 535.805 616.208 535.753 617.026 535.664C617.839 535.576 618.646 535.445 619.448 535.268C620.25 535.097 621.037 534.888 621.818 534.633C622.594 534.383 623.36 534.091 624.11 533.758C624.86 533.43 625.589 533.06 626.302 532.654C627.016 532.248 627.703 531.81 628.37 531.336C629.037 530.857 629.677 530.352 630.297 529.81C630.912 529.268 631.495 528.701 632.052 528.102C632.615 527.498 633.136 526.873 633.63 526.216C634.125 525.565 634.583 524.888 635.011 524.185C635.432 523.487 635.823 522.768 636.172 522.029C636.526 521.289 636.839 520.529 637.11 519.758C637.386 518.987 637.62 518.206 637.813 517.409C638.011 516.612 638.162 515.81 638.276 514.998C638.391 514.185 638.458 513.373 638.49 512.55C638.521 511.732 638.505 510.914 638.453 510.097C638.401 509.279 638.307 508.466 638.167 507.659C638.031 506.852 637.854 506.055 637.641 505.263C637.422 504.477 637.162 503.695 636.865 502.935C636.568 502.169 636.235 501.425 635.865 500.695C635.49 499.966 635.083 499.258 634.636 498.57C634.193 497.883 633.714 497.216 633.203 496.576C632.688 495.94 632.146 495.326 631.568 494.742C630.995 494.159 630.391 493.607 629.761 493.086C629.13 492.56 628.474 492.07 627.792 491.617C627.115 491.164 626.412 490.742 625.688 490.357C624.964 489.972 624.224 489.628 623.464 489.32C622.703 489.008 621.932 488.742 621.146 488.508C620.36 488.279 619.563 488.091 618.761 487.94C615.708 487.06 612.448 486.742 609.36 485.956C613.141 483.591 616.854 481.128 620.505 478.56C624.151 475.992 627.729 473.331 631.235 470.576C634.745 467.815 638.172 464.966 641.526 462.024C644.875 459.081 648.146 456.05 651.339 452.93C654.526 449.81 657.63 446.607 660.646 443.32C663.667 440.034 666.594 436.669 669.427 433.227C672.266 429.784 675.005 426.268 677.651 422.68C680.302 419.086 682.849 415.43 685.297 411.701C687.75 407.972 690.099 404.18 692.344 400.326C694.589 396.472 696.729 392.56 698.766 388.591C700.802 384.623 702.729 380.602 704.552 376.529C706.37 372.456 708.078 368.336 709.677 364.169C711.276 360.008 712.761 355.8 714.13 351.555C715.5 347.31 716.761 343.034 717.901 338.722C719.042 334.409 720.068 330.065 720.974 325.701C721.886 321.331 722.672 316.945 723.344 312.534C724.016 308.123 724.568 303.695 725.005 299.258C725.438 294.82 725.75 290.367 725.948 285.914C726.141 281.456 726.214 276.998 726.172 272.539C726.125 268.076 725.958 263.617 725.677 259.169C725.391 254.716 724.985 250.274 724.464 245.847C723.938 241.414 723.297 237.003 722.537 232.607C721.771 228.211 720.896 223.841 719.896 219.492C718.901 215.143 717.787 210.826 716.557 206.534C715.328 202.248 713.99 197.992 712.531 193.779C711.073 189.56 709.5 185.388 707.818 181.258C706.141 177.123 704.344 173.039 702.443 169.008C700.542 164.972 698.531 160.987 696.417 157.06C694.302 153.133 692.083 149.268 689.761 145.461C687.432 141.654 685.011 137.909 682.485 134.232C679.958 130.555 677.339 126.945 674.615 123.409C671.896 119.878 669.083 116.414 666.177 113.029C663.276 109.643 660.281 106.341 657.198 103.117C654.115 99.8934 650.943 96.7528 647.693 93.7007C644.443 90.6486 641.11 87.6851 637.698 84.8101C634.287 81.9351 630.797 79.1538 627.24 76.4663C623.677 73.7788 620.047 71.1903 616.344 68.7007C612.646 66.2059 608.88 63.8205 605.052 61.5288C601.224 59.2424 597.333 57.0549 593.386 54.9767C589.443 52.8986 585.443 50.9246 581.391 49.0601C577.339 47.1955 573.235 45.4403 569.089 43.7997C564.943 42.1538 560.755 40.6226 556.526 39.2059C552.297 37.784 548.031 36.4819 543.729 35.2892C539.432 34.1017 535.104 33.0288 530.745 32.0757C526.391 31.1174 522.011 30.2788 517.604 29.5601C513.203 28.8361 508.787 28.2371 504.349 27.7528C499.917 27.2684 495.474 26.9038 491.016 26.659C486.563 26.4194 482.104 26.2944 477.646 26.2892C473.182 26.284 468.724 26.3986 464.271 26.6382C459.818 26.8726 455.37 27.2267 450.938 27.7007C446.5 28.1746 442.078 28.7684 437.677 29.4819C433.271 30.1955 428.891 31.0236 424.531 31.9715C420.172 32.9246 415.844 33.9872 411.542 35.1694C407.24 36.3517 402.974 37.6434 398.74 39.0549C394.505 40.4663 390.318 41.9924 386.167 43.6278C382.016 45.2632 377.912 47.008 373.86 48.8674C369.802 50.7215 365.797 52.6903 361.849 54.758C357.896 56.8309 354.005 59.008 350.172 61.2892C346.339 63.5705 342.568 65.9559 338.865 68.4403C335.156 70.9247 331.521 73.508 327.958 76.1851C324.391 78.8674 320.901 81.6434 317.485 84.508C314.068 87.3778 310.729 90.3361 307.469 93.383C304.214 96.4299 301.037 99.5601 297.948 102.779C294.86 105.998 291.86 109.3 288.948 112.675C286.037 116.055 283.219 119.513 280.49 123.044C277.766 126.576 275.136 130.175 272.604 133.847C270.073 137.524 267.641 141.258 265.307 145.065C262.979 148.867 260.75 152.732 258.625 156.654C256.505 160.576 254.485 164.555 252.578 168.586C250.667 172.617 248.87 176.695 247.177 180.826C245.49 184.956 243.912 189.128 242.448 193.341C240.979 197.555 239.63 201.8 238.391 206.086C237.156 210.373 236.037 214.69 235.031 219.039C234.026 223.383 233.141 227.753 232.37 232.149C231.599 236.544 230.948 240.956 230.417 245.383C229.886 249.81 229.474 254.253 229.177 258.706C228.886 263.154 228.714 267.612 228.656 272.07C228.604 276.534 228.672 280.992 228.86 285.451C229.042 289.904 229.349 294.352 229.776 298.794C230.198 303.237 230.745 307.659 231.406 312.07C232.073 316.482 232.854 320.873 233.755 325.242C234.656 329.612 235.672 333.956 236.802 338.268C237.938 342.586 239.188 346.867 240.552 351.112C241.912 355.362 243.391 359.565 244.979 363.737C246.573 367.904 248.271 372.024 250.083 376.102C251.896 380.18 253.818 384.206 255.844 388.175C257.875 392.149 260.005 396.065 262.245 399.925C264.485 403.784 266.828 407.576 269.271 411.31C271.714 415.044 274.255 418.706 276.896 422.305C279.537 425.899 282.271 429.419 285.099 432.867C287.927 436.315 290.849 439.685 293.86 442.977C296.87 446.268 299.969 449.477 303.151 452.602C306.339 455.727 309.604 458.763 312.948 461.716C316.297 464.664 319.719 467.518 323.224 470.284C326.724 473.05 330.297 475.722 333.938 478.294C337.583 480.867 341.297 483.336 345.073 485.711C340.745 486.774 336.443 487.925 332.162 489.164C327.886 490.409 323.63 491.737 319.406 493.154C315.182 494.57 310.99 496.076 306.828 497.669C302.667 499.263 298.542 500.94 294.453 502.706C290.36 504.466 286.307 506.315 282.292 508.248C278.276 510.18 274.302 512.195 270.375 514.294C266.443 516.393 262.557 518.57 258.714 520.831C254.875 523.086 251.083 525.425 247.339 527.841C243.599 530.258 239.906 532.753 236.266 535.326C232.625 537.893 229.042 540.539 225.511 543.258C221.985 545.977 218.511 548.768 215.099 551.633C211.688 554.498 208.333 557.43 205.042 560.43C201.75 563.435 198.521 566.503 195.359 569.643C192.193 572.779 189.099 575.982 186.068 579.248C183.037 582.513 180.073 585.841 177.182 589.232C174.292 592.617 171.469 596.065 168.719 599.576C165.969 603.081 163.297 606.643 160.693 610.258C158.094 613.878 155.568 617.55 153.12 621.268C150.672 624.992 148.302 628.763 146.011 632.586C143.719 636.409 141.511 640.274 139.38 644.185C137.245 648.102 135.198 652.055 133.235 656.055C131.266 660.055 129.386 664.091 127.583 668.164C125.787 672.242 124.073 676.357 122.448 680.503C120.818 684.649 119.281 688.831 117.823 693.044C116.37 697.253 115.005 701.492 113.729 705.763C112.453 710.029 111.266 714.326 110.167 718.643C109.068 722.961 108.057 727.3 107.141 731.659C106.219 736.018 105.396 740.399 104.656 744.789C103.922 749.185 103.276 753.591 102.724 758.013C102.172 762.435 101.708 766.867 101.339 771.305C100.969 775.748 100.693 780.19 100.511 784.643C100.328 789.097 100.235 793.55 100.235 798.003ZM276.781 275.425C276.781 272.143 276.865 268.862 277.026 265.581C277.188 262.305 277.427 259.034 277.75 255.763C278.073 252.498 278.474 249.242 278.953 245.998C279.432 242.748 279.995 239.518 280.636 236.3C281.276 233.076 281.995 229.878 282.792 226.69C283.589 223.508 284.464 220.347 285.417 217.206C286.37 214.065 287.396 210.951 288.505 207.857C289.61 204.768 290.787 201.706 292.047 198.675C293.302 195.638 294.63 192.643 296.031 189.675C297.438 186.706 298.912 183.774 300.458 180.878C302.005 177.987 303.62 175.128 305.307 172.315C306.995 169.498 308.75 166.727 310.573 163.998C312.396 161.268 314.287 158.586 316.24 155.945C318.193 153.31 320.214 150.722 322.292 148.185C324.375 145.649 326.516 143.164 328.719 140.732C330.922 138.3 333.188 135.919 335.505 133.602C337.828 131.279 340.203 129.013 342.636 126.81C345.068 124.607 347.547 122.461 350.083 120.378C352.625 118.294 355.208 116.274 357.844 114.32C360.479 112.362 363.162 110.472 365.891 108.649C368.62 106.826 371.391 105.07 374.203 103.378C377.021 101.69 379.875 100.076 382.771 98.5236C385.662 96.9767 388.594 95.5028 391.557 94.0965C394.526 92.6903 397.526 91.3621 400.557 90.1017C403.589 88.8465 406.651 87.6642 409.74 86.5549C412.828 85.4507 415.943 84.4194 419.083 83.4663C422.224 82.5132 425.386 81.633 428.573 80.8361C431.755 80.0392 434.953 79.3153 438.177 78.6746C441.396 78.034 444.625 77.4715 447.875 76.9871C451.12 76.5028 454.375 76.1017 457.641 75.7788C460.906 75.4559 464.182 75.2111 467.458 75.0496C470.735 74.883 474.016 74.8049 477.297 74.7996C480.583 74.7996 483.86 74.8778 487.141 75.0392C490.417 75.1955 493.693 75.4351 496.958 75.758C500.224 76.0757 503.479 76.4767 506.729 76.9559C509.974 77.4351 513.208 77.9924 516.427 78.633C519.646 79.2736 522.849 79.9871 526.031 80.784C529.219 81.5809 532.38 82.4507 535.521 83.4038C538.662 84.3517 541.781 85.383 544.87 86.4871C547.964 87.5913 551.026 88.7684 554.057 90.0236C557.089 91.2736 560.089 92.6017 563.057 94.0028C566.026 95.4038 568.958 96.8778 571.854 98.4246C574.75 99.9715 577.604 101.586 580.422 103.268C583.24 104.956 586.011 106.711 588.745 108.529C591.474 110.352 594.156 112.237 596.797 114.19C599.432 116.149 602.021 118.164 604.563 120.242C607.099 122.326 609.583 124.466 612.021 126.669C614.453 128.867 616.833 131.128 619.156 133.451C621.474 135.768 623.74 138.143 625.948 140.57C628.151 143.003 630.297 145.487 632.38 148.024C634.469 150.555 636.49 153.143 638.448 155.779C640.401 158.409 642.297 161.091 644.12 163.82C645.948 166.544 647.703 169.315 649.396 172.133C651.083 174.945 652.703 177.8 654.255 180.69C655.802 183.586 657.281 186.513 658.688 189.482C660.094 192.445 661.427 195.445 662.682 198.477C663.943 201.508 665.125 204.565 666.235 207.659C667.344 210.748 668.375 213.862 669.333 217.003C670.287 220.138 671.167 223.3 671.969 226.487C672.766 229.669 673.49 232.867 674.136 236.086C674.776 239.305 675.344 242.539 675.828 245.784C676.313 249.029 676.719 252.289 677.042 255.555C677.365 258.82 677.61 262.091 677.776 265.367C677.943 268.649 678.026 271.93 678.026 275.211C678.031 278.492 677.953 281.774 677.797 285.05C677.641 288.331 677.401 291.602 677.083 294.867C676.766 298.133 676.37 301.393 675.891 304.638C675.412 307.888 674.854 311.123 674.219 314.341C673.578 317.56 672.865 320.763 672.073 323.945C671.276 327.133 670.406 330.294 669.458 333.435C668.511 336.581 667.485 339.695 666.38 342.789C665.276 345.878 664.099 348.94 662.849 351.977C661.594 355.008 660.271 358.013 658.87 360.982C657.469 363.951 656 366.883 654.453 369.779C652.912 372.675 651.297 375.534 649.615 378.347C647.932 381.164 646.177 383.94 644.36 386.675C642.537 389.404 640.651 392.086 638.698 394.727C636.75 397.367 634.735 399.956 632.656 402.498C630.573 405.034 628.438 407.524 626.235 409.956C624.031 412.393 621.776 414.774 619.458 417.097C617.141 419.419 614.766 421.685 612.333 423.893C609.906 426.102 607.427 428.248 604.891 430.331C602.354 432.419 599.771 434.44 597.141 436.399C594.505 438.357 591.823 440.253 589.099 442.081C586.375 443.904 583.604 445.664 580.792 447.357C577.979 449.05 575.125 450.669 572.235 452.222C569.339 453.774 566.412 455.253 563.448 456.659C560.479 458.065 557.485 459.404 554.453 460.664C551.422 461.925 548.365 463.107 545.271 464.216C542.182 465.326 539.073 466.362 535.932 467.32C532.792 468.279 529.63 469.159 526.448 469.961C523.266 470.763 520.063 471.487 516.849 472.133C513.63 472.774 510.396 473.341 507.151 473.831C503.906 474.315 500.651 474.722 497.386 475.05C494.115 475.378 490.844 475.623 487.568 475.789C484.287 475.956 481.011 476.039 477.729 476.044H477.083C473.807 476.039 470.531 475.945 467.255 475.779C463.979 475.612 460.714 475.362 457.448 475.029C454.188 474.701 450.932 474.294 447.693 473.805C444.448 473.315 441.224 472.748 438.005 472.102C434.792 471.456 431.599 470.732 428.417 469.925C425.24 469.123 422.083 468.242 418.943 467.284C415.807 466.326 412.698 465.294 409.615 464.18C406.531 463.07 403.474 461.888 400.448 460.628C397.417 459.367 394.422 458.034 391.464 456.628C388.5 455.222 385.573 453.742 382.688 452.19C379.797 450.643 376.948 449.024 374.136 447.331C371.328 445.643 368.557 443.888 365.833 442.06C363.11 440.237 360.432 438.347 357.802 436.388C355.172 434.435 352.589 432.414 350.057 430.331C347.521 428.248 345.042 426.107 342.615 423.899C340.188 421.695 337.818 419.435 335.5 417.112C333.182 414.794 330.922 412.419 328.724 409.987C326.521 407.555 324.386 405.076 322.302 402.539C320.224 400.003 318.208 397.419 316.261 394.784C314.307 392.149 312.422 389.466 310.599 386.742C308.776 384.013 307.026 381.242 305.339 378.43C303.656 375.617 302.037 372.768 300.495 369.878C298.948 366.982 297.474 364.055 296.073 361.091C294.672 358.128 293.344 355.133 292.083 352.102C290.828 349.076 289.651 346.013 288.547 342.93C287.438 339.841 286.412 336.732 285.458 333.591C284.505 330.456 283.625 327.294 282.828 324.117C282.031 320.935 281.313 317.737 280.667 314.524C280.026 311.305 279.464 308.076 278.979 304.836C278.495 301.591 278.094 298.341 277.766 295.076C277.443 291.815 277.198 288.544 277.037 285.268C276.87 281.998 276.787 278.716 276.781 275.44V275.425Z" fill="#FC9D08"/>
</g>
<mask id="mask1_1434_112" style="mask-type:luminance" maskUnits="userSpaceOnUse" x="549" y="540" width="433" height="433">
<path d="M549.336 540H981.487V972.047H549.336V540Z" fill="white"/>
</mask>
<g mask="url(#mask1_1434_112)">
<path d="M766.305 540.246C762.758 540.251 759.216 540.335 755.674 540.512C752.133 540.684 748.596 540.944 745.065 541.293C741.539 541.642 738.018 542.074 734.513 542.595C731.003 543.116 727.513 543.72 724.034 544.413C720.555 545.105 717.096 545.882 713.659 546.741C710.216 547.605 706.799 548.548 703.409 549.579C700.013 550.605 696.648 551.72 693.31 552.913C689.971 554.111 686.664 555.387 683.388 556.741C680.112 558.1 676.872 559.538 673.664 561.053C670.461 562.569 667.294 564.163 664.164 565.835C661.039 567.507 657.956 569.251 654.914 571.074C651.872 572.897 648.878 574.793 645.93 576.767C642.982 578.736 640.081 580.777 637.232 582.887C634.383 585.001 631.591 587.184 628.852 589.428C626.107 591.678 623.424 593.996 620.794 596.376C618.169 598.757 615.602 601.204 613.096 603.71C610.586 606.22 608.143 608.788 605.763 611.413C603.378 614.038 601.065 616.725 598.815 619.465C596.565 622.204 594.383 625.001 592.273 627.85C590.159 630.699 588.117 633.595 586.148 636.543C584.18 639.491 582.284 642.486 580.456 645.527C578.633 648.569 576.888 651.652 575.216 654.783C573.544 657.908 571.951 661.074 570.435 664.283C568.919 667.486 567.482 670.725 566.128 674.001C564.768 677.283 563.492 680.59 562.299 683.928C561.102 687.267 559.992 690.632 558.961 694.022C557.935 697.418 556.987 700.835 556.128 704.272C555.263 707.715 554.487 711.173 553.794 714.652C553.102 718.126 552.497 721.621 551.977 725.126C551.456 728.637 551.023 732.152 550.674 735.684C550.326 739.21 550.065 742.746 549.893 746.288C549.721 749.829 549.633 753.376 549.633 756.923C549.633 760.465 549.721 764.012 549.893 767.553C550.065 771.095 550.326 774.632 550.674 778.158C551.023 781.689 551.456 785.204 551.977 788.715C552.497 792.22 553.102 795.715 553.794 799.194C554.487 802.668 555.263 806.126 556.128 809.569C556.987 813.007 557.935 816.423 558.961 819.819C559.992 823.21 561.102 826.574 562.299 829.918C563.492 833.257 564.768 836.564 566.128 839.84C567.482 843.116 568.919 846.355 570.435 849.559C571.951 852.767 573.544 855.934 575.216 859.059C576.888 862.189 578.633 865.272 580.456 868.314C582.284 871.355 584.18 874.35 586.148 877.298C588.117 880.246 590.159 883.142 592.273 885.991C594.383 888.84 596.565 891.637 598.815 894.376C601.065 897.116 603.378 899.803 605.763 902.428C608.143 905.059 610.586 907.621 613.096 910.132C615.602 912.637 618.169 915.085 620.794 917.465C623.424 919.845 626.107 922.163 628.852 924.413C631.591 926.658 634.383 928.84 637.232 930.954C640.081 933.064 642.982 935.105 645.93 937.079C648.878 939.048 651.872 940.944 654.914 942.767C657.956 944.59 661.039 946.335 664.164 948.007C667.294 949.678 670.461 951.272 673.664 952.788C676.872 954.309 680.112 955.741 683.388 957.1C686.664 958.454 689.971 959.73 693.31 960.928C696.648 962.121 700.013 963.236 703.409 964.262C706.799 965.293 710.216 966.236 713.659 967.1C717.096 967.96 720.555 968.736 724.034 969.428C727.513 970.121 731.003 970.725 734.513 971.246C738.018 971.767 741.539 972.204 745.065 972.548C748.596 972.897 752.133 973.158 755.674 973.329C759.216 973.507 762.758 973.595 766.305 973.595C769.852 973.595 773.393 973.507 776.935 973.329C780.477 973.158 784.013 972.897 787.544 972.548C791.07 972.204 794.591 971.767 798.096 971.246C801.607 970.725 805.096 970.121 808.576 969.428C812.055 968.736 815.513 967.96 818.951 967.1C822.393 966.236 825.81 965.293 829.201 964.262C832.596 963.236 835.961 962.121 839.299 960.928C842.638 959.73 845.945 958.454 849.221 957.1C852.497 955.741 855.737 954.309 858.945 952.788C862.148 951.272 865.315 949.678 868.445 948.007C871.57 946.335 874.654 944.59 877.695 942.767C880.737 940.944 883.732 939.048 886.68 937.079C889.628 935.105 892.529 933.064 895.378 930.954C898.221 928.84 901.018 926.658 903.758 924.413C906.503 922.163 909.185 919.845 911.81 917.465C914.44 915.085 917.008 912.637 919.513 910.132C922.023 907.621 924.466 905.059 926.846 902.428C929.227 899.803 931.544 897.116 933.794 894.376C936.044 891.637 938.227 888.84 940.336 885.991C942.451 883.142 944.492 880.246 946.461 877.298C948.43 874.35 950.326 871.355 952.148 868.314C953.971 865.272 955.721 862.189 957.393 859.059C959.065 855.934 960.659 852.767 962.174 849.559C963.69 846.355 965.128 843.116 966.482 839.84C967.841 836.564 969.117 833.257 970.31 829.918C971.503 826.574 972.617 823.21 973.648 819.819C974.674 816.423 975.622 813.007 976.482 809.569C977.346 806.126 978.122 802.668 978.815 799.194C979.503 795.715 980.112 792.22 980.633 788.715C981.154 785.204 981.586 781.689 981.935 778.158C982.279 774.632 982.539 771.095 982.716 767.553C982.888 764.012 982.977 760.465 982.977 756.923C982.971 753.376 982.883 749.835 982.706 746.293C982.523 742.751 982.263 739.22 981.909 735.689C981.56 732.163 981.122 728.647 980.596 725.142C980.076 721.637 979.466 718.142 978.768 714.668C978.076 711.194 977.294 707.736 976.435 704.298C975.57 700.861 974.622 697.444 973.591 694.053C972.56 690.663 971.445 687.298 970.247 683.96C969.049 680.621 967.773 677.319 966.414 674.043C965.055 670.767 963.617 667.533 962.102 664.329C960.586 661.121 958.987 657.96 957.315 654.835C955.643 651.71 953.898 648.626 952.07 645.585C950.247 642.543 948.352 639.553 946.383 636.605C944.414 633.658 942.372 630.762 940.258 627.913C938.143 625.069 935.966 622.272 933.716 619.533C931.466 616.793 929.154 614.111 926.768 611.486C924.388 608.861 921.945 606.293 919.44 603.788C916.935 601.277 914.367 598.835 911.742 596.454C909.112 594.074 906.43 591.757 903.69 589.512C900.951 587.262 898.159 585.079 895.31 582.965C892.466 580.855 889.565 578.814 886.622 576.845C883.674 574.871 880.68 572.975 877.638 571.152C874.602 569.329 871.518 567.579 868.393 565.908C865.268 564.236 862.102 562.642 858.898 561.126C855.695 559.605 852.456 558.168 849.18 556.809C845.909 555.454 842.602 554.173 839.263 552.98C835.93 551.783 832.565 550.668 829.174 549.637C825.779 548.605 822.367 547.658 818.93 546.793C815.492 545.928 812.034 545.147 808.555 544.454C805.081 543.762 801.591 543.152 798.086 542.626C794.576 542.105 791.06 541.668 787.534 541.314C784.008 540.965 780.471 540.699 776.93 540.522C773.393 540.345 769.852 540.251 766.305 540.246ZM766.305 925.444C763.544 925.444 760.789 925.376 758.034 925.241C755.279 925.105 752.529 924.902 749.784 924.632C747.039 924.361 744.305 924.022 741.576 923.621C738.846 923.215 736.133 922.741 733.43 922.204C730.721 921.668 728.034 921.064 725.357 920.392C722.68 919.725 720.023 918.986 717.383 918.189C714.747 917.387 712.128 916.522 709.529 915.59C706.935 914.663 704.362 913.673 701.815 912.616C699.263 911.559 696.742 910.444 694.253 909.262C691.758 908.085 689.294 906.845 686.862 905.543C684.43 904.246 682.034 902.887 679.664 901.47C677.299 900.048 674.971 898.574 672.68 897.043C670.383 895.512 668.133 893.923 665.914 892.277C663.701 890.637 661.529 888.939 659.393 887.189C657.263 885.439 655.174 883.642 653.133 881.788C651.086 879.934 649.091 878.033 647.143 876.085C645.19 874.137 643.289 872.137 641.435 870.095C639.586 868.048 637.784 865.965 636.034 863.829C634.284 861.699 632.591 859.527 630.945 857.309C629.305 855.095 627.716 852.84 626.185 850.548C624.648 848.251 623.174 845.923 621.758 843.559C620.341 841.194 618.982 838.793 617.68 836.361C616.383 833.928 615.143 831.465 613.961 828.975C612.784 826.48 611.664 823.96 610.612 821.413C609.555 818.866 608.56 816.293 607.633 813.694C606.706 811.095 605.841 808.48 605.039 805.84C604.237 803.199 603.503 800.543 602.831 797.866C602.164 795.194 601.56 792.501 601.018 789.798C600.482 787.095 600.008 784.376 599.607 781.647C599.201 778.918 598.862 776.184 598.591 773.439C598.32 770.694 598.122 767.944 597.987 765.189C597.852 762.434 597.784 759.678 597.784 756.923C597.784 754.163 597.852 751.408 597.987 748.652C598.122 745.897 598.32 743.147 598.591 740.402C598.862 737.658 599.201 734.923 599.607 732.194C600.008 729.465 600.482 726.746 601.018 724.043C601.56 721.34 602.164 718.647 602.831 715.975C603.503 713.298 604.237 710.642 605.039 708.001C605.841 705.361 606.706 702.746 607.633 700.147C608.56 697.548 609.555 694.98 610.612 692.428C611.664 689.882 612.784 687.361 613.961 684.866C615.143 682.376 616.383 679.913 617.68 677.48C618.982 675.048 620.341 672.647 621.758 670.283C623.174 667.918 624.648 665.59 626.185 663.293C627.716 661.001 629.305 658.746 630.945 656.533C632.591 654.319 634.284 652.142 636.034 650.012C637.784 647.882 639.586 645.793 641.435 643.746C643.289 641.704 645.19 639.71 647.143 637.757C649.091 635.809 651.086 633.908 653.133 632.053C655.174 630.199 657.263 628.402 659.393 626.652C661.529 624.902 663.701 623.204 665.914 621.564C668.133 619.918 670.383 618.329 672.68 616.798C674.971 615.267 677.299 613.793 679.664 612.376C682.034 610.954 684.43 609.595 686.862 608.298C689.294 606.996 691.758 605.757 694.253 604.579C696.742 603.397 699.263 602.283 701.815 601.225C704.362 600.168 706.935 599.178 709.529 598.251C712.128 597.319 714.747 596.454 717.383 595.652C720.023 594.855 722.68 594.121 725.357 593.449C728.034 592.777 730.721 592.173 733.43 591.637C736.133 591.1 738.846 590.626 741.576 590.22C744.305 589.819 747.039 589.48 749.784 589.21C752.529 588.939 755.279 588.736 758.034 588.6C760.789 588.465 763.544 588.397 766.305 588.397C769.06 588.397 771.82 588.465 774.576 588.6C777.331 588.736 780.076 588.939 782.82 589.21C785.565 589.48 788.305 589.819 791.034 590.22C793.758 590.626 796.477 591.1 799.18 591.637C801.888 592.173 804.576 592.777 807.253 593.449C809.93 594.121 812.586 594.855 815.221 595.652C817.862 596.454 820.482 597.319 823.076 598.251C825.674 599.178 828.247 600.168 830.794 601.225C833.341 602.283 835.862 603.397 838.357 604.579C840.852 605.757 843.315 606.996 845.747 608.298C848.18 609.595 850.576 610.954 852.94 612.376C855.31 613.793 857.638 615.267 859.93 616.798C862.221 618.329 864.477 619.918 866.695 621.564C868.909 623.204 871.081 624.902 873.216 626.652C875.346 628.402 877.435 630.199 879.477 632.053C881.523 633.908 883.518 635.809 885.466 637.757C887.419 639.71 889.32 641.704 891.169 643.746C893.023 645.793 894.826 647.882 896.576 650.012C898.326 652.142 900.018 654.319 901.664 656.533C903.305 658.746 904.893 661.001 906.424 663.293C907.956 665.59 909.435 667.918 910.852 670.283C912.268 672.647 913.628 675.048 914.93 677.48C916.227 679.913 917.466 682.376 918.648 684.866C919.826 687.361 920.945 689.882 921.997 692.428C923.055 694.98 924.044 697.548 924.977 700.147C925.904 702.746 926.768 705.361 927.57 708.001C928.372 710.642 929.107 713.298 929.779 715.975C930.445 718.647 931.049 721.34 931.591 724.043C932.128 726.746 932.596 729.465 933.003 732.194C933.409 734.923 933.747 737.658 934.018 740.402C934.284 743.147 934.487 745.897 934.622 748.652C934.758 751.408 934.826 754.163 934.826 756.923C934.826 759.678 934.753 762.434 934.612 765.189C934.477 767.939 934.268 770.689 933.997 773.434C933.721 776.178 933.383 778.913 932.977 781.637C932.57 784.366 932.096 787.079 931.555 789.783C931.013 792.486 930.409 795.178 929.737 797.85C929.065 800.522 928.326 803.178 927.523 805.819C926.721 808.454 925.857 811.074 924.924 813.668C923.992 816.262 923.003 818.835 921.945 821.382C920.888 823.928 919.768 826.444 918.591 828.939C917.409 831.428 916.169 833.892 914.867 836.319C913.565 838.751 912.206 841.152 910.789 843.517C909.372 845.876 907.893 848.204 906.362 850.496C904.831 852.793 903.242 855.043 901.602 857.257C899.956 859.47 898.263 861.642 896.513 863.777C894.763 865.908 892.961 867.991 891.112 870.038C889.258 872.079 887.357 874.074 885.409 876.022C883.461 877.975 881.461 879.876 879.419 881.725C877.378 883.579 875.289 885.376 873.159 887.126C871.029 888.876 868.857 890.574 866.643 892.215C864.43 893.861 862.174 895.449 859.883 896.98C857.591 898.512 855.263 899.986 852.898 901.408C850.534 902.824 848.138 904.184 845.706 905.486C843.273 906.783 840.815 908.027 838.32 909.204C835.831 910.387 833.31 911.507 830.763 912.559C828.216 913.616 825.648 914.611 823.049 915.543C820.456 916.47 817.841 917.34 815.201 918.142C812.565 918.944 809.909 919.678 807.232 920.35C804.56 921.027 801.872 921.632 799.169 922.173C796.466 922.71 793.747 923.184 791.023 923.595C788.294 924.001 785.56 924.34 782.815 924.616C780.07 924.887 777.326 925.09 774.57 925.23C771.815 925.371 769.06 925.439 766.305 925.444Z" fill="black"/>
</g>
<path d="M879.617 675.708C879.06 675.151 878.477 674.62 877.867 674.12C877.258 673.62 876.622 673.151 875.966 672.714C875.31 672.276 874.638 671.87 873.94 671.5C873.247 671.13 872.534 670.792 871.805 670.49C871.075 670.187 870.336 669.922 869.581 669.693C868.825 669.464 868.065 669.276 867.289 669.12C866.518 668.964 865.737 668.849 864.956 668.771C864.169 668.698 863.383 668.656 862.591 668.656C861.805 668.656 861.018 668.698 860.232 668.771C859.45 668.849 858.669 668.964 857.898 669.12C857.122 669.276 856.362 669.464 855.607 669.693C854.852 669.922 854.112 670.187 853.383 670.49C852.654 670.792 851.94 671.13 851.247 671.5C850.549 671.87 849.872 672.276 849.221 672.714C848.565 673.151 847.93 673.62 847.32 674.12C846.711 674.62 846.128 675.151 845.57 675.708L734.206 787.094L687.018 739.906C686.456 739.38 685.867 738.885 685.258 738.417C684.643 737.948 684.013 737.505 683.357 737.099C682.706 736.693 682.034 736.313 681.341 735.974C680.654 735.63 679.945 735.318 679.227 735.042C678.508 734.766 677.779 734.526 677.034 734.318C676.289 734.115 675.539 733.943 674.779 733.813C674.023 733.677 673.258 733.578 672.492 733.521C671.721 733.458 670.95 733.438 670.18 733.448C669.409 733.464 668.643 733.51 667.878 733.599C667.112 733.688 666.352 733.813 665.596 733.974C664.841 734.13 664.102 734.328 663.362 734.563C662.628 734.792 661.909 735.057 661.195 735.359C660.487 735.661 659.794 735.995 659.117 736.365C658.44 736.729 657.784 737.13 657.143 737.563C656.503 737.995 655.888 738.453 655.294 738.943C654.695 739.432 654.128 739.953 653.581 740.495C653.039 741.042 652.518 741.609 652.029 742.208C651.539 742.802 651.081 743.417 650.648 744.057C650.216 744.698 649.815 745.354 649.45 746.031C649.081 746.708 648.747 747.401 648.445 748.109C648.143 748.823 647.878 749.542 647.648 750.276C647.414 751.01 647.216 751.755 647.06 752.51C646.898 753.266 646.773 754.026 646.685 754.792C646.602 755.557 646.549 756.323 646.534 757.094C646.523 757.865 646.544 758.635 646.607 759.406C646.664 760.172 646.763 760.938 646.898 761.693C647.029 762.453 647.2 763.203 647.404 763.948C647.612 764.693 647.852 765.422 648.128 766.141C648.404 766.859 648.716 767.568 649.06 768.255C649.404 768.943 649.779 769.615 650.185 770.271C650.591 770.927 651.034 771.557 651.503 772.167C651.971 772.781 652.466 773.37 652.992 773.932L717.19 838.13C717.758 838.677 718.346 839.193 718.961 839.682C719.575 840.172 720.211 840.625 720.867 841.052C721.529 841.479 722.206 841.875 722.898 842.24C723.596 842.599 724.31 842.927 725.034 843.224C725.763 843.516 726.503 843.776 727.253 843.995C728.008 844.219 728.768 844.406 729.539 844.557C730.31 844.708 731.086 844.818 731.867 844.896C732.648 844.969 733.43 845.005 734.216 845.005C734.997 845.005 735.784 844.969 736.565 844.896C737.346 844.818 738.117 844.708 738.888 844.557C739.659 844.406 740.419 844.219 741.174 844C741.924 843.776 742.664 843.516 743.393 843.224C744.122 842.927 744.831 842.599 745.529 842.24C746.227 841.875 746.904 841.479 747.56 841.052C748.216 840.625 748.857 840.172 749.466 839.682C750.081 839.193 750.674 838.677 751.237 838.13L879.633 709.734C880.19 709.177 880.721 708.594 881.216 707.984C881.716 707.375 882.185 706.74 882.622 706.083C883.06 705.427 883.466 704.755 883.836 704.057C884.206 703.365 884.539 702.651 884.841 701.922C885.143 701.193 885.409 700.453 885.633 699.698C885.862 698.948 886.055 698.182 886.206 697.411C886.362 696.635 886.477 695.859 886.549 695.073C886.628 694.292 886.669 693.505 886.664 692.719C886.664 691.927 886.628 691.141 886.549 690.359C886.471 689.573 886.357 688.797 886.2 688.026C886.049 687.25 885.857 686.49 885.628 685.734C885.398 684.979 885.133 684.24 884.831 683.51C884.529 682.781 884.195 682.073 883.82 681.375C883.45 680.682 883.044 680.01 882.607 679.354C882.169 678.698 881.7 678.068 881.2 677.458C880.7 676.849 880.174 676.266 879.617 675.708Z" fill="black"/>
</svg>
