<svg width="784" height="819" viewBox="0 0 784 819" fill="none" xmlns="http://www.w3.org/2000/svg">
<path fill-rule="evenodd" clip-rule="evenodd" d="M646.18 632.875H42.3099C26.5859 632.875 12.4297 618.724 12.4297 602.995V194.13C12.4297 178.401 26.5859 164.25 42.3099 164.25H95.7786C100.497 164.25 103.638 167.396 103.638 172.115V326.224C103.638 332.516 108.357 338.807 116.221 338.807H270.331C273.477 326.224 276.622 315.219 282.914 305.781C300.211 275.901 331.664 257.031 364.685 252.313V172.115C364.685 167.396 367.831 164.25 372.549 164.25H440.169C444.888 164.25 448.034 167.396 448.034 172.115V192.557L493.638 197.276C496.784 198.844 498.357 200.417 499.93 203.563C501.503 211.427 504.648 217.719 509.362 225.578C510.935 228.724 510.935 231.87 507.789 233.443L479.487 269.609L506.216 294.771L540.815 268.042C543.961 264.896 547.107 264.896 550.253 266.469C556.539 271.182 564.404 272.755 572.268 275.901C575.414 275.901 576.982 279.047 576.982 282.193L583.273 327.797H619.445L624.159 282.193C625.732 279.047 627.305 275.901 630.451 275.901C638.315 272.755 644.607 271.182 652.466 266.469C655.612 264.896 658.758 264.896 660.331 268.042L672.909 275.901C674.482 277.474 676.055 280.62 676.055 282.193V602.995C676.055 618.724 661.904 632.875 646.18 632.875ZM42.3099 179.974C34.4453 179.974 28.1589 186.266 28.1589 194.13V602.995C28.1589 610.859 34.4453 617.151 42.3099 617.151H646.18C654.039 617.151 660.331 610.859 660.331 602.995V286.911L655.612 282.193C650.893 285.339 644.607 286.911 639.888 288.484L633.596 335.661C633.596 340.38 630.451 343.521 625.732 343.521H575.414C572.268 343.521 569.122 340.38 567.549 335.661L562.831 288.484C558.112 286.911 551.826 285.339 547.107 282.193L509.362 312.073C506.216 315.219 503.076 313.646 499.93 312.073L463.758 275.901C460.612 272.755 460.612 268.042 463.758 264.896L492.065 228.724C490.492 224.005 487.346 217.719 485.773 213L440.169 206.708C435.451 206.708 432.31 203.563 432.31 198.844V179.974H380.414V260.177C380.414 264.896 377.268 268.042 372.549 268.042C341.096 269.609 312.794 285.339 297.065 313.646C290.779 323.078 286.06 335.661 284.487 348.24C284.487 351.385 281.341 354.531 276.622 354.531H116.221C100.497 354.531 87.9141 341.948 87.9141 326.224V179.974H42.3099Z" fill="#FC9D08"/>
<path fill-rule="evenodd" clip-rule="evenodd" d="M444.885 752.392H243.599C238.88 752.392 235.734 749.246 235.734 744.527V625.012C235.734 620.298 238.88 617.152 243.599 617.152H444.885C448.031 617.152 452.75 620.298 452.75 625.012V744.527C452.75 749.246 448.031 752.392 444.885 752.392ZM251.458 736.668H437.021V632.876H251.458V736.668Z" fill="#FC9D08"/>
<path fill-rule="evenodd" clip-rule="evenodd" d="M668.195 532.228H20.2943C17.1484 532.228 12.4297 529.087 12.4297 524.368C12.4297 519.65 17.1484 516.504 20.2943 516.504H668.195C671.336 516.504 676.055 519.65 676.055 524.368C676.055 529.087 671.336 532.228 668.195 532.228Z" fill="#FC9D08"/>
<path fill-rule="evenodd" clip-rule="evenodd" d="M488.914 632.874C484.195 632.874 481.055 628.155 481.055 625.009V582.551C481.055 546.384 510.93 516.504 547.102 516.504C551.82 516.504 554.961 519.65 554.961 524.368C554.961 529.087 551.82 532.228 547.102 532.228C520.367 532.228 496.779 555.816 496.779 582.551V625.009C496.779 628.155 493.633 632.874 488.914 632.874Z" fill="#FC9D08"/>
<path fill-rule="evenodd" clip-rule="evenodd" d="M394.56 582.552H293.914C289.201 582.552 286.055 579.406 286.055 574.693C286.055 569.974 289.201 566.828 293.914 566.828H394.56C399.279 566.828 402.424 569.974 402.424 574.693C402.424 579.406 399.279 582.552 394.56 582.552Z" fill="#FC9D08"/>
<path fill-rule="evenodd" clip-rule="evenodd" d="M204.284 582.552H188.56C183.841 582.552 180.695 579.406 180.695 574.693C180.695 569.974 183.841 566.828 188.56 566.828H204.284C209.003 566.828 212.148 569.974 212.148 574.693C212.148 579.406 209.003 582.552 204.284 582.552Z" fill="#FC9D08"/>
<path fill-rule="evenodd" clip-rule="evenodd" d="M149.245 582.552H133.516C128.797 582.552 125.656 579.406 125.656 574.693C125.656 569.974 128.797 566.828 133.516 566.828H149.245C153.958 566.828 157.104 569.974 157.104 574.693C157.104 579.406 153.958 582.552 149.245 582.552Z" fill="#FC9D08"/>
<path fill-rule="evenodd" clip-rule="evenodd" d="M94.2057 582.552H78.4818C73.763 582.552 70.6172 579.406 70.6172 574.693C70.6172 569.974 73.763 566.828 78.4818 566.828H94.2057C98.9245 566.828 102.07 569.974 102.07 574.693C102.07 579.406 98.9245 582.552 94.2057 582.552Z" fill="#FC9D08"/>
<mask id="mask0_1437_68" style="mask-type:luminance" maskUnits="userSpaceOnUse" x="142" y="677" width="404" height="134">
<path d="M142 677.332H546V810.421H142V677.332Z" fill="white"/>
</mask>
<g mask="url(#mask0_1437_68)">
<path fill-rule="evenodd" clip-rule="evenodd" d="M537.667 810.576H150.813C149.245 810.576 146.099 809.003 144.526 807.43C142.953 805.857 142.953 802.711 142.953 799.565L175.974 684.768C177.547 680.049 180.693 678.477 183.839 678.477H243.599C248.313 678.477 251.458 681.622 251.458 686.341C251.458 691.06 248.313 694.206 243.599 694.206H190.13L161.823 794.846H526.661L498.354 694.206H444.885C440.167 694.206 437.021 691.06 437.021 686.341C437.021 681.622 440.167 678.477 444.885 678.477H504.646C507.786 678.477 510.932 680.049 510.932 684.768L545.531 799.565C545.531 802.711 545.531 805.857 543.958 807.43C542.385 809.003 539.24 810.576 537.667 810.576Z" fill="#FC9D08"/>
</g>
<path fill-rule="evenodd" clip-rule="evenodd" d="M547.104 595.137C534.521 595.137 523.516 585.699 523.516 573.121C523.516 562.111 534.521 551.105 547.104 551.105C558.109 551.105 569.12 562.111 569.12 573.121C569.12 585.699 558.109 595.137 547.104 595.137ZM547.104 566.829C542.385 566.829 539.24 569.975 539.24 573.121C539.24 577.835 542.385 579.408 547.104 579.408C550.25 579.408 553.391 577.835 553.391 573.121C553.391 569.975 550.25 566.829 547.104 566.829Z" fill="#FC9D08"/>
<path fill-rule="evenodd" clip-rule="evenodd" d="M610.008 595.137C597.43 595.137 587.992 585.699 587.992 573.121C587.992 562.111 597.43 551.105 610.008 551.105C622.591 551.105 632.023 562.111 632.023 573.121C632.023 585.699 622.591 595.137 610.008 595.137ZM610.008 566.829C606.862 566.829 603.716 569.975 603.716 573.121C603.716 577.835 606.862 579.408 610.008 579.408C613.154 579.408 616.299 577.835 616.299 573.121C616.299 569.975 613.154 566.829 610.008 566.829Z" fill="#FC9D08"/>
<path fill-rule="evenodd" clip-rule="evenodd" d="M342.664 88.7669H125.654C120.935 88.7669 117.789 84.0482 117.789 80.9023C117.789 76.1888 120.935 73.043 125.654 73.043H342.664C347.383 73.043 350.529 76.1888 350.529 80.9023C350.529 84.0482 347.383 88.7669 342.664 88.7669Z" fill="black"/>
<path fill-rule="evenodd" clip-rule="evenodd" d="M342.664 120.217H125.654C120.935 120.217 117.789 117.072 117.789 112.353C117.789 109.207 120.935 104.488 125.654 104.488H342.664C347.383 104.488 350.529 109.207 350.529 112.353C350.529 117.072 347.383 120.217 342.664 120.217Z" fill="black"/>
<path fill-rule="evenodd" clip-rule="evenodd" d="M342.664 153.24H125.654C120.935 153.24 117.789 150.099 117.789 145.38C117.789 140.661 120.935 137.516 125.654 137.516H342.664C347.383 137.516 350.529 140.661 350.529 145.38C350.529 150.099 347.383 153.24 342.664 153.24Z" fill="black"/>
<path fill-rule="evenodd" clip-rule="evenodd" d="M342.664 186.267H125.654C120.935 186.267 117.789 181.548 117.789 178.402C117.789 173.689 120.935 170.543 125.654 170.543H342.664C347.383 170.543 350.529 173.689 350.529 178.402C350.529 181.548 347.383 186.267 342.664 186.267Z" fill="black"/>
<path fill-rule="evenodd" clip-rule="evenodd" d="M342.664 217.717H125.654C120.935 217.717 117.789 214.572 117.789 209.853C117.789 206.707 120.935 201.988 125.654 201.988H342.664C347.383 201.988 350.529 206.707 350.529 209.853C350.529 214.572 347.383 217.717 342.664 217.717Z" fill="#FC9D08"/>
<path fill-rule="evenodd" clip-rule="evenodd" d="M342.664 250.74H125.654C120.935 250.74 117.789 247.594 117.789 242.88C117.789 238.161 120.935 235.016 125.654 235.016H342.664C347.383 235.016 350.529 238.161 350.529 242.88C350.529 247.594 347.383 250.74 342.664 250.74Z" fill="#FC9D08"/>
<path fill-rule="evenodd" clip-rule="evenodd" d="M322.221 283.767H125.654C120.935 283.767 117.789 279.048 117.789 275.902C117.789 271.184 120.935 268.043 125.654 268.043H322.221C326.94 268.043 330.086 271.184 330.086 275.902C330.086 279.048 326.94 283.767 322.221 283.767Z" fill="#FC9D08"/>
<path fill-rule="evenodd" clip-rule="evenodd" d="M290.773 315.217H125.654C120.935 315.217 117.789 312.072 117.789 307.353C117.789 304.207 120.935 299.488 125.654 299.488H290.773C295.487 299.488 298.633 304.207 298.633 307.353C298.633 312.072 295.487 315.217 290.773 315.217Z" fill="#FC9D08"/>
<path fill-rule="evenodd" clip-rule="evenodd" d="M276.622 354.53H116.221C100.497 354.53 87.9141 341.947 87.9141 326.223V62.0299C87.9141 46.306 100.497 33.7227 116.221 33.7227H352.107C367.831 33.7227 380.414 46.306 380.414 62.0299V260.176C380.414 264.895 377.268 268.04 372.549 268.04C341.096 269.608 312.794 285.337 297.065 313.645C290.779 323.077 286.06 335.66 284.487 348.238C284.487 351.384 281.341 354.53 276.622 354.53ZM116.221 49.4518C108.357 49.4518 103.638 55.7435 103.638 62.0299V326.223C103.638 332.514 108.357 338.806 116.221 338.806H270.331C273.477 326.223 276.622 315.217 282.914 305.78C300.211 275.9 331.664 257.03 364.685 252.311V62.0299C364.685 55.7435 359.971 49.4518 352.107 49.4518H116.221Z" fill="#FC9D08"/>
<path fill-rule="evenodd" clip-rule="evenodd" d="M375.695 466.182C356.825 466.182 337.956 461.464 320.654 452.031C297.065 436.302 279.768 414.286 271.904 385.984C264.044 359.25 268.758 329.37 282.914 305.781C301.784 272.755 337.956 252.312 375.695 252.312C394.565 252.312 413.435 257.031 429.164 268.042C454.325 282.193 471.622 304.208 477.914 332.516C485.773 360.823 481.06 389.125 466.904 412.714C448.034 445.74 413.435 466.182 375.695 466.182ZM375.695 268.042C342.669 268.042 312.794 285.339 297.065 313.646C284.487 334.089 281.341 359.25 287.633 382.839C293.919 406.427 308.075 425.297 328.518 437.875C342.669 445.74 358.398 450.458 375.695 450.458C407.148 450.458 437.023 433.161 454.325 404.854C465.331 384.411 470.049 359.25 463.758 337.234C457.471 313.646 441.742 293.203 421.299 280.62C407.148 272.755 391.419 268.042 375.695 268.042Z" fill="#FC9D08"/>
<path fill-rule="evenodd" clip-rule="evenodd" d="M342.664 411.147C341.091 411.147 339.518 411.147 339.518 411.147C336.378 409.574 334.805 406.428 334.805 403.283V315.22C334.805 312.074 336.378 308.928 339.518 307.355C341.091 305.783 344.237 305.783 347.383 307.355L411.857 352.96C415.003 354.533 415.003 356.105 415.003 359.251C415.003 362.397 415.003 363.97 411.857 365.538L347.383 411.147C345.81 411.147 344.237 411.147 342.664 411.147ZM350.529 329.371V389.126L394.56 359.251L350.529 329.371Z" fill="#FC9D08"/>
<mask id="mask1_1437_68" style="mask-type:luminance" maskUnits="userSpaceOnUse" x="431" y="5" width="341" height="339">
<path d="M431.336 5.42188H771.336V344H431.336V5.42188Z" fill="white"/>
</mask>
<g mask="url(#mask1_1437_68)">
<path fill-rule="evenodd" clip-rule="evenodd" d="M625.734 343.521H575.417C572.271 343.521 569.125 340.38 567.552 335.661L562.833 288.484C558.115 286.911 551.828 285.339 547.109 282.193L509.365 312.073C506.219 315.219 503.078 313.646 499.932 312.073L463.76 275.901C460.615 272.755 460.615 268.042 463.76 264.896L492.068 228.724C490.495 224.005 487.349 217.719 485.776 213L440.172 206.708C435.453 206.708 432.312 203.563 432.312 198.844V148.526C432.312 145.38 435.453 142.234 440.172 140.661L485.776 135.943C487.349 131.224 490.495 124.938 492.068 120.219L463.76 82.474C460.615 79.3333 460.615 76.1875 463.76 73.0417L499.932 36.8698C503.078 33.724 506.219 33.724 509.365 36.8698L547.109 65.1771C551.828 63.6042 558.115 60.4583 562.833 58.8854L567.552 13.2813C569.125 8.56771 572.271 5.42188 575.417 5.42188H625.734C630.453 5.42188 633.599 8.56771 633.599 13.2813L639.891 58.8854C644.609 60.4583 650.896 63.6042 655.615 65.1771L691.786 36.8698C694.927 33.724 699.646 33.724 702.792 36.8698L738.964 73.0417C740.536 76.1875 742.104 79.3333 738.964 82.474L709.083 120.219C712.229 124.938 713.802 131.224 715.375 135.943L762.552 140.661C767.266 142.234 770.411 145.38 770.411 148.526V198.844C770.411 203.563 767.266 206.708 762.552 206.708L715.375 213C713.802 217.719 712.229 224.005 709.083 228.724L738.964 264.896C742.104 268.042 740.536 272.755 738.964 275.901L702.792 312.073C699.646 313.646 694.927 315.219 691.786 312.073L655.615 282.193C650.896 285.339 644.609 286.911 639.891 288.484L633.599 335.661C633.599 340.38 630.453 343.521 625.734 343.521ZM583.276 327.797H619.448L624.161 282.193C625.734 279.047 627.307 275.901 630.453 275.901C638.318 272.755 644.609 271.182 652.469 266.469C655.615 264.896 658.76 264.896 660.333 268.042L696.5 294.771L721.661 269.609L694.927 233.443C691.786 231.87 691.786 228.724 693.359 225.578C698.073 217.719 701.219 211.427 702.792 203.563C702.792 200.417 705.938 198.844 709.083 197.276L754.688 192.557V156.385L709.083 150.099C705.938 150.099 702.792 148.526 702.792 145.38C701.219 137.516 698.073 129.651 693.359 123.365C691.786 120.219 691.786 117.073 694.927 113.927L721.661 79.3333L696.5 52.599L660.333 80.901C658.76 84.0469 655.615 84.0469 652.469 82.474C644.609 77.7604 638.318 74.6146 630.453 73.0417C627.307 71.4688 625.734 69.8958 624.161 66.75L619.448 21.1458H583.276L576.984 66.75C576.984 69.8958 575.417 71.4688 572.271 73.0417C564.406 74.6146 556.542 77.7604 550.255 82.474C547.109 84.0469 543.964 84.0469 540.818 80.901L506.219 52.599L479.49 79.3333L507.792 113.927C510.938 117.073 510.938 120.219 509.365 123.365C504.651 129.651 501.505 137.516 499.932 145.38C498.359 148.526 496.786 150.099 493.641 150.099L448.036 156.385V192.557L493.641 197.276C496.786 198.844 498.359 200.417 499.932 203.563C501.505 211.427 504.651 217.719 509.365 225.578C510.938 228.724 510.938 231.87 507.792 233.443L479.49 269.609L506.219 294.771L540.818 268.042C543.964 264.896 547.109 264.896 550.255 266.469C556.542 271.182 564.406 272.755 572.271 275.901C575.417 275.901 576.984 279.047 576.984 282.193L583.276 327.797Z" fill="black"/>
</g>
<path fill-rule="evenodd" clip-rule="evenodd" d="M600.57 246.021C561.258 246.021 529.805 214.573 529.805 173.688C529.805 134.37 561.258 102.922 600.57 102.922C641.461 102.922 672.909 134.37 672.909 173.688C672.909 214.573 641.461 246.021 600.57 246.021ZM600.57 118.646C570.695 118.646 545.534 143.807 545.534 173.688C545.534 205.135 570.695 230.297 600.57 230.297C632.023 230.297 657.185 205.135 657.185 173.688C657.185 143.807 632.023 118.646 600.57 118.646Z" fill="black"/>
<path fill-rule="evenodd" clip-rule="evenodd" d="M103.638 472.473C100.497 472.473 98.9245 470.9 97.3516 469.327L69.0443 441.02C67.4714 439.447 65.8984 437.874 65.8984 436.301C65.8984 433.16 67.4714 431.587 69.0443 430.014L97.3516 401.707C100.497 398.561 105.211 398.561 108.357 401.707C111.503 404.853 111.503 409.572 108.357 412.712L86.3411 436.301L108.357 458.322C111.503 461.462 111.503 466.181 108.357 469.327C106.784 470.9 105.211 472.473 103.638 472.473Z" fill="#FC9D08"/>
<path fill-rule="evenodd" clip-rule="evenodd" d="M175.974 472.473C174.401 472.473 171.26 470.9 169.688 469.327C166.542 466.181 166.542 461.462 169.688 458.322L193.276 436.301L169.688 412.712C166.542 409.572 166.542 404.853 169.688 401.707C172.833 398.561 177.547 398.561 180.693 401.707L209 430.014C210.573 431.587 212.146 433.16 212.146 436.301C212.146 437.874 210.573 439.447 209 441.02L180.693 469.327C179.12 470.9 177.547 472.473 175.974 472.473Z" fill="#FC9D08"/>
<path fill-rule="evenodd" clip-rule="evenodd" d="M122.509 492.918C120.936 492.918 120.936 492.918 119.363 492.918C114.645 491.345 113.072 486.626 114.645 483.48L149.243 382.84C150.811 378.121 155.53 376.548 158.676 378.121C163.395 379.694 164.967 384.413 163.395 387.559L128.796 488.199C128.796 491.345 125.655 492.918 122.509 492.918Z" fill="#FC9D08"/>
<path fill-rule="evenodd" clip-rule="evenodd" d="M512.503 472.473C510.93 472.473 507.784 470.9 506.211 469.327L477.909 441.02C476.336 439.447 476.336 437.874 476.336 436.301C476.336 433.16 476.336 431.587 477.909 430.014L506.211 401.707C509.357 398.561 515.648 398.561 518.794 401.707C520.367 404.853 520.367 409.572 518.794 412.712L495.206 436.301L518.794 458.322C520.367 461.462 520.367 466.181 518.794 469.327C517.221 470.9 514.076 472.473 512.503 472.473Z" fill="#FC9D08"/>
<path fill-rule="evenodd" clip-rule="evenodd" d="M584.844 472.473C583.271 472.473 581.698 470.9 580.125 469.327C576.979 466.181 576.979 461.462 580.125 458.322L602.141 436.301L580.125 412.712C576.979 409.572 576.979 404.853 580.125 401.707C583.271 398.561 587.99 398.561 591.135 401.707L619.443 430.014C621.016 431.587 621.016 433.16 621.016 436.301C621.016 437.874 621.016 439.447 619.443 441.02L591.135 469.327C589.563 470.9 587.99 472.473 584.844 472.473Z" fill="#FC9D08"/>
<path fill-rule="evenodd" clip-rule="evenodd" d="M531.375 492.918C531.375 492.918 529.802 492.918 528.234 492.918C525.089 491.345 523.516 486.626 523.516 483.48L559.682 382.84C559.682 378.121 564.401 376.548 569.12 378.121C572.266 379.694 575.411 384.413 573.839 387.559L539.24 488.199C537.667 491.345 534.521 492.918 531.375 492.918Z" fill="#FC9D08"/>
</svg>
