<svg width="1080" height="1080" viewBox="0 0 1080 1080" fill="none" xmlns="http://www.w3.org/2000/svg">
<path fill-rule="evenodd" clip-rule="evenodd" d="M713.232 573.28C710.794 573.28 707.867 571.816 705.919 569.863C695.19 558.16 680.07 551.822 663.487 551.822C650.32 551.822 637.638 555.723 627.393 564.014C623.982 566.452 620.081 566.452 616.664 564.499C613.253 562.551 611.299 558.16 611.789 555.233C612.279 551.822 612.279 548.405 612.279 544.993C612.279 508.415 592.279 474.275 560.091 457.691C557.654 456.228 555.701 452.816 554.727 449.889C554.727 446.473 556.19 443.061 558.138 441.108C576.674 426.967 599.107 418.676 623.492 418.676C682.018 418.676 730.305 466.957 730.305 525.973C730.305 540.113 727.378 553.77 722.013 566.452C721.039 569.863 718.112 571.816 714.695 572.79C714.695 573.28 714.211 573.28 713.232 573.28ZM663.977 531.822C680.07 531.822 695.674 536.702 709.331 545.967C710.794 540.113 711.284 533.285 711.284 525.973C711.284 477.686 672.263 438.671 623.982 438.671C608.862 438.671 595.695 442.082 583.503 448.426C612.279 469.884 630.81 502.072 632.273 538.65C641.539 534.749 653.242 531.822 663.977 531.822Z" fill="#010101"/>
<mask id="mask0_1437_187" style="mask-type:luminance" maskUnits="userSpaceOnUse" x="188" y="108" width="774" height="833">
<path d="M188 108H961.333V941H188V108Z" fill="white"/>
</mask>
<g mask="url(#mask0_1437_187)">
<path fill-rule="evenodd" clip-rule="evenodd" d="M872.717 940.531H277.217C228.447 940.531 188.941 901.026 188.941 852.255V196.276C188.941 147.995 228.447 108 277.217 108H872.717C920.514 108 960.509 147.505 960.509 196.276V852.255C960.02 900.536 920.514 940.531 872.717 940.531ZM277.217 127.51C239.176 127.51 207.962 158.234 207.962 196.276V852.255C207.962 890.297 239.176 920.536 276.728 920.536H871.744C909.785 920.536 940.509 889.807 940.509 852.255V196.276C940.509 158.234 909.785 127.51 871.744 127.51H277.217Z" fill="#FC9D08"/>
</g>
<path fill-rule="evenodd" clip-rule="evenodd" d="M950.264 317.229H198.697C193.332 317.229 188.941 313.328 188.941 307.964V196.276C188.941 147.995 228.447 108 277.217 108H872.717C920.514 108 960.509 147.505 960.509 196.276V307.964C960.02 312.354 955.629 317.229 950.264 317.229ZM207.962 297.724H940.509V196.276C940.509 158.234 909.785 127.51 871.744 127.51H277.217C239.176 127.51 207.962 158.234 207.962 196.276V297.724Z" fill="#FC9D08"/>
<path fill-rule="evenodd" clip-rule="evenodd" d="M296.724 262.604C269.901 262.604 247.469 240.172 247.469 212.859C247.469 185.057 269.901 162.625 296.724 162.625C324.526 162.625 346.964 185.057 346.964 212.859C347.448 240.172 324.526 262.604 296.724 262.604ZM296.724 181.646C280.146 181.646 266.49 195.302 266.49 212.37C266.49 229.443 280.146 242.609 296.724 242.609C313.797 242.609 327.453 229.443 327.453 212.37C327.943 196.276 313.797 181.646 296.724 181.646Z" fill="#010101"/>
<path fill-rule="evenodd" clip-rule="evenodd" d="M417.19 262.604C389.878 262.604 367.445 240.172 367.445 212.859C367.445 185.057 389.878 162.625 417.19 162.625C444.503 162.625 466.935 185.057 466.935 212.859C466.935 240.172 444.503 262.604 417.19 262.604ZM417.19 181.646C400.607 181.646 386.951 195.302 386.951 212.37C386.951 229.443 400.607 242.609 417.19 242.609C434.258 242.609 447.914 229.443 447.914 212.37C447.43 196.276 433.773 181.646 417.19 181.646Z" fill="#010101"/>
<path fill-rule="evenodd" clip-rule="evenodd" d="M536.68 262.604C508.883 262.604 486.445 240.172 486.445 212.859C486.445 185.057 508.883 162.625 536.68 162.625C563.503 162.625 585.94 185.057 585.94 212.859C585.94 240.172 563.503 262.604 536.68 262.604ZM536.68 181.646C519.612 181.646 505.956 195.302 505.956 212.37C505.956 229.443 519.612 242.609 536.68 242.609C553.753 242.609 566.919 229.443 566.919 212.37C566.919 196.276 552.773 181.646 536.68 181.646Z" fill="#010101"/>
<path fill-rule="evenodd" clip-rule="evenodd" d="M864.427 250.41H674.708C654.224 250.41 637.641 233.342 637.641 212.858C637.641 191.884 654.224 174.816 674.708 174.816H864.427C885.401 174.816 902.469 191.884 902.469 212.858C902.469 233.342 885.401 250.41 864.427 250.41ZM674.708 193.837C665.438 193.837 656.661 202.613 656.661 212.368C656.661 221.634 664.464 230.415 674.708 230.415H864.427C874.672 230.415 882.474 222.613 882.474 212.368C882.474 202.129 874.672 193.837 864.427 193.837H674.708Z" fill="#FC9D08"/>
<path fill-rule="evenodd" clip-rule="evenodd" d="M756.639 722.522H384.025C330.863 722.522 287.457 679.116 287.457 625.47C287.457 571.819 330.863 528.413 384.025 528.413C387.441 528.413 391.832 528.413 396.217 529.387C404.025 470.861 453.28 426.48 513.759 426.48C576.676 426.48 628.858 476.225 632.275 538.652C642.514 533.777 653.244 531.824 663.978 531.824C697.629 531.824 727.379 554.262 737.619 585.475C738.598 585.475 739.572 585.475 740.546 585.475C779.566 585.475 811.754 617.178 811.754 656.684C812.244 687.897 789.316 722.522 756.639 722.522ZM384.025 548.897C341.598 548.897 306.967 583.522 306.967 625.954C306.967 668.876 341.598 703.501 384.025 703.501H756.639C778.587 703.501 792.733 676.189 792.733 657.168C792.733 628.882 769.811 605.96 741.035 605.96C737.619 605.96 735.181 605.96 732.254 606.449C727.379 606.934 722.014 603.522 721.525 599.132C716.16 571.819 691.775 552.798 663.978 552.798C651.296 552.798 638.129 557.189 627.884 564.991C624.473 567.918 620.566 567.918 617.155 565.965C613.738 564.017 611.79 559.626 612.28 556.215C613.254 552.798 613.254 549.387 613.254 545.97C612.28 489.882 569.358 446.475 513.759 446.475C460.108 446.475 416.702 488.418 415.238 542.069C415.238 544.996 414.264 548.408 411.337 549.387C408.41 551.824 405.973 551.824 403.046 550.845C397.681 549.387 392.316 548.897 384.025 548.897Z" fill="#FC9D08"/>
<path fill-rule="evenodd" clip-rule="evenodd" d="M577.161 555.236C571.797 555.236 567.896 550.845 567.896 545.48C567.896 515.73 543.51 491.835 514.25 491.835C485.958 491.835 462.062 515.246 461.573 543.533C461.573 548.897 456.698 552.798 451.333 552.798C445.969 552.798 441.578 548.408 441.578 543.043C443.042 504.027 475.719 472.324 514.25 472.324C554.729 472.324 587.406 505.001 587.406 545.48C586.917 550.845 582.526 555.236 577.161 555.236Z" fill="#010101"/>
<path fill-rule="evenodd" clip-rule="evenodd" d="M414.755 853.229H346.474C341.109 853.229 336.719 848.839 336.719 843.474C336.719 838.109 341.109 834.208 346.474 834.208H404.51V712.766C404.51 707.401 408.411 703.5 414.266 703.5C419.63 703.5 423.531 707.401 423.531 712.766V843.474C424.021 848.354 420.12 853.229 414.755 853.229Z" fill="#FC9D08"/>
<path fill-rule="evenodd" clip-rule="evenodd" d="M323.063 875.177C305.505 875.177 290.875 860.547 290.875 842.99C290.875 824.453 305.016 810.312 323.063 810.312C341.599 810.312 355.74 825.432 355.74 842.99C356.229 861.031 341.599 875.177 323.063 875.177ZM323.063 829.818C316.724 829.818 310.38 836.161 310.38 842.99C310.38 849.818 316.724 855.667 323.063 855.667C330.865 855.667 336.229 849.818 336.229 842.99C336.719 836.161 330.865 829.818 323.063 829.818Z" fill="#010101"/>
<path fill-rule="evenodd" clip-rule="evenodd" d="M753.227 853.229H684.945C679.581 853.229 675.68 848.839 675.68 843.474V712.766C675.68 707.401 679.581 703.5 684.945 703.5C690.31 703.5 694.211 707.401 694.211 712.766V834.208H752.737C758.102 834.208 762.003 838.109 762.003 843.474C762.003 848.839 758.591 853.229 753.227 853.229Z" fill="#FC9D08"/>
<path fill-rule="evenodd" clip-rule="evenodd" d="M775.661 875.177C758.104 875.177 742.984 860.547 742.984 842.99C742.984 824.453 757.62 810.312 775.661 810.312C794.198 810.312 808.339 825.432 808.339 842.99C808.828 861.031 794.198 875.177 775.661 875.177ZM775.661 829.818C768.833 829.818 762.984 836.161 762.984 842.99C762.984 849.818 768.833 855.667 775.661 855.667C782.979 855.667 788.344 849.818 788.344 842.99C789.318 836.161 782.979 829.818 775.661 829.818Z" fill="#010101"/>
<path fill-rule="evenodd" clip-rule="evenodd" d="M497.18 833.234C491.815 833.234 487.914 829.333 487.914 823.969V712.766C487.914 707.401 491.815 703.5 497.18 703.5C502.544 703.5 506.935 707.401 506.935 712.766V823.969C507.424 829.333 502.544 833.234 497.18 833.234Z" fill="#FC9D08"/>
<path fill-rule="evenodd" clip-rule="evenodd" d="M497.18 878.592C479.133 878.592 464.992 864.447 464.992 846.4C464.992 827.868 479.622 813.723 497.18 813.723C514.737 813.723 529.857 828.842 529.857 846.4C529.857 863.957 514.737 878.592 497.18 878.592ZM497.18 833.233C489.867 833.233 484.497 839.572 484.497 846.4C484.497 853.228 490.352 859.082 497.18 859.082C504.008 859.082 510.346 853.228 510.346 846.4C510.346 839.572 504.008 833.233 497.18 833.233Z" fill="#010101"/>
<path fill-rule="evenodd" clip-rule="evenodd" d="M602.529 833.234C596.674 833.234 592.773 829.333 592.773 823.969V712.766C592.773 707.401 596.674 703.5 602.529 703.5C607.893 703.5 611.794 707.401 611.794 712.766V823.969C611.794 829.333 607.893 833.234 602.529 833.234Z" fill="#FC9D08"/>
<path fill-rule="evenodd" clip-rule="evenodd" d="M602.529 878.592C584.482 878.592 569.852 863.957 569.852 846.4C569.852 827.868 583.992 813.723 602.529 813.723C620.57 813.723 634.716 828.842 634.716 846.4C634.716 864.447 620.57 878.592 602.529 878.592ZM602.529 833.233C595.701 833.233 589.357 839.572 589.357 846.4C589.357 853.228 595.701 859.082 602.529 859.082C609.841 859.082 615.206 853.228 615.206 846.4C615.695 839.572 609.841 833.233 602.529 833.233Z" fill="#010101"/>
<path fill-rule="evenodd" clip-rule="evenodd" d="M733.232 605.96H730.789C726.403 605.96 722.013 602.543 721.039 598.158C715.185 571.329 690.799 552.309 663.487 552.309C650.32 552.309 637.638 556.215 627.393 564.501C623.982 567.428 620.081 567.428 616.664 564.991C613.252 563.038 611.299 559.137 611.789 555.725C612.278 552.309 612.278 548.897 612.278 545.48C612.278 489.882 569.357 446.475 513.758 446.475H506.93C505.956 446.475 504.976 447.449 503.513 447.449H501.565C500.591 447.449 500.101 447.939 499.127 447.939C494.737 449.402 489.372 447.449 487.419 443.064L486.445 442.574C483.034 436.72 484.008 428.918 487.909 425.017L520.586 391.85C521.075 390.876 521.075 390.876 521.56 390.876C526.44 387.949 532.778 386.975 538.143 390.387C538.633 390.387 538.633 390.876 539.117 390.876L559.117 404.533C565.945 401.121 573.258 397.704 580.575 395.751L585.94 372.345C587.403 364.538 592.768 360.152 600.081 360.152H646.414C653.242 360.152 658.607 364.538 660.56 372.345L665.924 395.751C674.216 398.678 681.534 401.121 687.872 404.533L707.383 390.876C707.867 390.876 707.867 390.387 708.846 390.387C714.211 387.949 721.039 387.949 724.94 390.876C725.424 390.876 725.424 391.85 726.403 391.85L758.591 424.527C762.982 427.454 765.419 434.283 761.028 442.574L747.862 463.059C751.273 469.887 754.69 477.204 756.638 484.517L780.539 489.397C787.851 490.861 792.732 496.225 792.732 503.538V550.361C792.732 557.189 787.851 562.553 780.539 564.501L756.153 568.408C751.763 579.621 745.909 592.793 741.034 601.085C739.57 603.522 736.643 605.96 733.232 605.96ZM663.976 531.824C693.726 531.824 720.06 548.897 733.232 573.772C736.643 567.428 738.596 561.09 739.081 557.673C739.57 554.262 742.982 550.845 746.398 550.361L772.247 544.996V507.439L746.398 502.074C742.982 501.59 739.57 498.663 739.081 495.246C736.643 485.98 732.252 475.741 727.377 466.96C725.424 463.548 725.424 460.132 727.377 456.72L742.008 434.283L715.185 407.46L693.726 422.09C690.31 424.527 686.409 424.527 683.482 422.09C675.68 417.699 666.414 413.314 655.195 410.871C651.778 409.897 648.857 406.486 648.367 403.069L643.002 377.71H605.935L599.107 403.069C598.133 406.486 595.695 409.408 592.278 410.871C581.549 413.314 571.794 417.699 563.502 422.09C560.091 424.527 556.19 424.527 553.752 422.09L531.805 407.46L512.784 426.48H513.758C576.674 426.48 628.857 476.225 632.273 538.652C641.539 534.751 653.242 531.824 663.976 531.824Z" fill="#FC9D08"/>
</svg>
