<svg width="760" height="850" viewBox="0 0 760 850" fill="none" xmlns="http://www.w3.org/2000/svg">
<path d="M367.623 325.384C367.628 329.394 367.066 333.316 365.92 337.16C364.774 341.003 363.102 344.597 360.904 347.946C359.352 350.467 357.534 352.774 355.446 354.873C352.363 357.931 348.889 360.446 345.019 362.415C341.154 364.389 337.076 365.722 332.79 366.415V375.024C332.764 375.962 332.649 376.889 332.446 377.806C332.243 378.722 331.951 379.608 331.571 380.467C331.196 381.326 330.743 382.144 330.206 382.915C329.67 383.686 329.071 384.399 328.394 385.056C327.722 385.707 326.993 386.295 326.212 386.806C325.425 387.321 324.597 387.753 323.727 388.108C322.857 388.462 321.962 388.727 321.04 388.91C320.118 389.087 319.191 389.175 318.248 389.175C317.31 389.175 316.383 389.087 315.462 388.91C314.54 388.727 313.644 388.462 312.774 388.108C311.904 387.753 311.076 387.321 310.29 386.806C309.508 386.295 308.779 385.707 308.102 385.056C307.43 384.399 306.826 383.686 306.295 382.915C305.758 382.144 305.305 381.326 304.925 380.467C304.55 379.608 304.258 378.722 304.055 377.806C303.852 376.889 303.738 375.962 303.712 375.024V366.415C299.185 365.691 294.92 364.222 290.909 362.009C287.279 360.144 284.029 357.764 281.149 354.873C279.206 352.941 277.472 350.837 275.946 348.561C274.42 346.285 273.128 343.878 272.076 341.352C271.019 338.821 270.222 336.212 269.685 333.524C269.144 330.837 268.873 328.123 268.868 325.384C268.946 324.477 269.107 323.582 269.352 322.701C269.592 321.821 269.915 320.972 270.321 320.155C270.722 319.337 271.196 318.561 271.743 317.832C272.29 317.097 272.899 316.425 273.571 315.806C274.243 315.191 274.962 314.639 275.738 314.155C276.514 313.675 277.326 313.269 278.175 312.936C279.024 312.602 279.899 312.352 280.795 312.186C281.691 312.019 282.597 311.936 283.508 311.936C284.42 311.936 285.326 312.019 286.222 312.186C287.118 312.352 287.993 312.602 288.842 312.936C289.696 313.269 290.508 313.675 291.279 314.155C292.055 314.639 292.779 315.191 293.451 315.806C294.123 316.425 294.732 317.097 295.279 317.832C295.821 318.561 296.295 319.337 296.701 320.155C297.102 320.972 297.425 321.821 297.67 322.701C297.909 323.582 298.071 324.477 298.149 325.384C298.144 327.014 298.451 328.587 299.066 330.092C299.685 331.602 300.571 332.936 301.717 334.097C302.878 335.285 304.227 336.201 305.753 336.858C307.284 337.514 308.878 337.852 310.545 337.873H326.076C326.889 337.858 327.696 337.764 328.493 337.592C329.29 337.42 330.066 337.175 330.816 336.858C331.566 336.54 332.274 336.149 332.951 335.691C333.628 335.238 334.253 334.722 334.831 334.144C335.404 333.566 335.92 332.941 336.378 332.264C336.831 331.587 337.222 330.873 337.54 330.123C337.857 329.373 338.102 328.602 338.274 327.806C338.446 327.003 338.534 326.201 338.55 325.384C338.534 323.868 338.243 322.399 337.68 320.993C337.123 319.582 336.326 318.316 335.3 317.201C334.123 315.894 332.727 314.884 331.123 314.17C329.514 313.457 327.831 313.102 326.076 313.108H310.545C303.592 313.014 297.045 311.337 290.909 308.071C287.269 306.134 284.014 303.686 281.149 300.722L280.415 299.988C279.118 298.628 277.915 297.186 276.816 295.66C275.717 294.139 274.722 292.545 273.837 290.889C272.951 289.227 272.185 287.519 271.529 285.753C270.878 283.993 270.347 282.191 269.941 280.358C269.534 278.519 269.253 276.665 269.097 274.795C268.941 272.92 268.915 271.045 269.014 269.165C269.113 267.29 269.337 265.425 269.691 263.582C270.045 261.733 270.519 259.92 271.118 258.139C271.717 256.358 272.435 254.623 273.269 252.941C274.107 251.253 275.05 249.634 276.107 248.076C277.159 246.524 278.316 245.045 279.571 243.644C280.831 242.248 282.175 240.941 283.607 239.722C285.04 238.509 286.55 237.394 288.139 236.384C289.722 235.373 291.368 234.472 293.076 233.686C294.784 232.899 296.534 232.233 298.337 231.686C300.133 231.134 301.962 230.712 303.816 230.41V221.071C303.868 220.134 304.008 219.207 304.238 218.295C304.467 217.384 304.779 216.503 305.18 215.655C305.581 214.806 306.06 213.998 306.618 213.243C307.17 212.483 307.795 211.785 308.488 211.149C309.18 210.514 309.925 209.951 310.727 209.457C311.524 208.967 312.368 208.556 313.248 208.227C314.128 207.894 315.034 207.655 315.962 207.498C316.889 207.347 317.821 207.285 318.758 207.311C319.701 207.337 320.628 207.457 321.545 207.66C322.462 207.868 323.347 208.165 324.212 208.54C325.071 208.92 325.883 209.378 326.654 209.915C327.425 210.457 328.139 211.061 328.795 211.738C329.446 212.41 330.029 213.144 330.54 213.931C331.055 214.722 331.482 215.55 331.837 216.425C332.185 217.295 332.451 218.191 332.628 219.118C332.8 220.04 332.889 220.972 332.883 221.91V230.41C336.883 231.123 340.706 232.378 344.347 234.181C347.988 235.983 351.305 238.259 354.295 241.009C354.722 241.326 355.029 241.743 355.446 242.061C358.592 245.201 361.17 248.753 363.18 252.717C365.191 256.681 366.529 260.858 367.201 265.253C367.587 267.3 367.758 269.363 367.727 271.446V273.962C367.644 274.925 367.467 275.868 367.196 276.79C366.925 277.717 366.571 278.608 366.123 279.462C365.68 280.316 365.154 281.123 364.555 281.873C363.951 282.628 363.279 283.311 362.54 283.931C361.805 284.55 361.014 285.097 360.17 285.561C359.321 286.024 358.441 286.405 357.524 286.691C356.602 286.983 355.665 287.181 354.706 287.29C353.748 287.394 352.79 287.405 351.826 287.326C350.868 287.243 349.925 287.066 348.998 286.795C348.071 286.53 347.18 286.175 346.326 285.727C345.472 285.285 344.665 284.764 343.915 284.16C343.159 283.561 342.472 282.889 341.852 282.155C341.232 281.415 340.685 280.623 340.222 279.78C339.758 278.936 339.378 278.056 339.087 277.139C338.795 276.217 338.592 275.28 338.488 274.321C338.378 273.363 338.368 272.405 338.446 271.446C338.456 270.035 338.212 268.67 337.712 267.352C337.055 265.576 336.081 264.003 334.784 262.628C333.613 261.503 332.274 260.628 330.769 260.014C329.264 259.399 327.701 259.082 326.076 259.061H310.425C308.816 259.082 307.269 259.399 305.779 260.014C304.295 260.634 302.972 261.503 301.821 262.628H301.717C300.972 263.28 300.378 264.05 299.93 264.936C298.675 266.925 298.05 269.092 298.055 271.446C298.05 273.014 298.326 274.53 298.883 275.998C299.446 277.467 300.253 278.78 301.305 279.946C302.503 281.155 303.883 282.108 305.441 282.795C306.998 283.483 308.628 283.863 310.331 283.931H325.956C330.31 283.878 334.56 284.519 338.712 285.847C342.857 287.175 346.685 289.128 350.201 291.696C352.123 292.962 353.868 294.431 355.446 296.108L356.284 297.05C358.821 299.691 360.951 302.623 362.68 305.847C364.415 309.076 365.675 312.472 366.477 316.045C367.274 319.108 367.654 322.222 367.623 325.384ZM741.951 764.748C739.498 769.748 736.774 774.597 733.774 779.295C730.779 783.988 727.524 788.498 724.019 792.826C720.514 797.155 716.774 801.274 712.805 805.181C708.837 809.092 704.659 812.764 700.274 816.201C695.889 819.634 691.326 822.816 686.587 825.738C681.847 828.665 676.951 831.311 671.915 833.686C666.873 836.056 661.717 838.139 656.441 839.931C651.17 841.722 645.811 843.212 640.368 844.399C627.201 847.618 613.837 849.227 600.279 849.227C585.352 849.076 570.654 847.144 556.191 843.436C541.732 839.727 527.92 834.347 514.764 827.295C498.05 818.3 481.925 808.368 466.373 797.493L458.185 792.139C426.821 771.363 395.639 750.373 364.368 729.28L345.373 716.477C343.435 715.352 341.592 714.087 339.842 712.681C338.092 711.28 336.462 709.754 334.941 708.102C333.425 706.451 332.04 704.696 330.79 702.837C329.534 700.977 328.43 699.035 327.467 697.009C326.508 694.983 325.706 692.899 325.06 690.748C324.42 688.602 323.941 686.42 323.623 684.201C323.31 681.977 323.165 679.748 323.185 677.509C323.206 675.264 323.394 673.04 323.753 670.826C323.956 669.321 324.222 667.832 324.555 666.347C324.889 664.868 325.29 663.41 325.758 661.962C326.222 660.519 326.753 659.102 327.347 657.707C327.941 656.311 328.597 654.941 329.316 653.608C330.029 652.269 330.805 650.967 331.644 649.701C332.477 648.431 333.368 647.207 334.31 646.019C335.253 644.832 336.253 643.691 337.3 642.592C338.347 641.493 339.441 640.446 340.587 639.446C341.727 638.451 342.909 637.503 344.139 636.613C345.368 635.722 346.628 634.884 347.935 634.108C349.238 633.332 350.571 632.613 351.935 631.957C353.305 631.295 354.701 630.701 356.118 630.17C357.54 629.639 358.982 629.17 360.446 628.769C361.909 628.363 363.383 628.03 364.878 627.759C366.373 627.493 367.873 627.29 369.383 627.155C370.894 627.024 372.409 626.957 373.93 626.957C378.842 627.29 383.607 628.3 388.227 629.998C392.847 631.696 397.139 634.003 401.097 636.931C410.868 643.54 420.732 650.149 430.805 656.972L435.003 659.806L423.368 620.556C409.185 572.983 395.055 525.446 380.972 477.941C376.774 479.405 372.529 480.717 368.238 481.884C363.951 483.045 359.623 484.061 355.264 484.925C350.904 485.785 346.519 486.493 342.107 487.05C337.696 487.602 333.274 488.003 328.831 488.248C324.394 488.493 319.951 488.582 315.508 488.519C311.066 488.451 306.628 488.233 302.196 487.852C297.769 487.477 293.357 486.946 288.967 486.259C284.576 485.571 280.212 484.733 275.878 483.743C271.545 482.753 267.253 481.608 262.998 480.316C258.748 479.024 254.545 477.587 250.394 475.998C246.238 474.41 242.149 472.681 238.118 470.806C234.086 468.936 230.123 466.92 226.238 464.769C222.347 462.618 218.534 460.337 214.805 457.92C211.076 455.498 207.435 452.957 203.883 450.285C200.331 447.608 196.878 444.816 193.519 441.899C190.165 438.988 186.915 435.957 183.769 432.816C181.613 430.655 179.503 428.446 177.451 426.191C175.394 423.931 173.399 421.623 171.456 419.269C169.514 416.915 167.628 414.514 165.8 412.066C163.972 409.618 162.206 407.134 160.498 404.602C158.79 402.071 157.144 399.498 155.56 396.889C153.977 394.28 152.456 391.628 150.998 388.946C149.545 386.264 148.154 383.545 146.826 380.795C145.503 378.045 144.243 375.264 143.05 372.457C141.857 369.644 140.732 366.806 139.68 363.941C138.623 361.076 137.639 358.186 136.722 355.274C135.805 352.363 134.961 349.431 134.185 346.477C133.409 343.524 132.706 340.55 132.076 337.566C131.441 334.576 130.883 331.576 130.394 328.561C129.909 325.55 129.493 322.524 129.149 319.493C128.81 316.457 128.54 313.415 128.342 310.368C128.149 307.321 128.024 304.274 127.977 301.222C127.925 298.165 127.951 295.113 128.05 292.066C128.149 289.014 128.321 285.962 128.56 282.92C128.805 279.878 129.123 276.842 129.514 273.816C129.904 270.785 130.368 267.769 130.904 264.764C131.441 261.759 132.05 258.764 132.727 255.79C133.409 252.811 134.159 249.852 134.982 246.915C135.805 243.972 136.696 241.056 137.659 238.155C138.623 235.259 139.654 232.389 140.753 229.54C141.857 226.691 143.024 223.873 144.264 221.082C145.498 218.29 146.8 215.53 148.17 212.8C149.54 210.071 150.977 207.378 152.472 204.717C153.972 202.056 155.534 199.436 157.159 196.847C158.784 194.264 160.472 191.722 162.222 189.217C163.967 186.712 165.774 184.253 167.644 181.837C169.508 179.42 171.43 177.05 173.409 174.727C175.394 172.404 177.425 170.128 179.519 167.905C181.607 165.675 183.748 163.503 185.946 161.378C188.139 159.259 190.383 157.186 192.675 155.17C194.972 153.16 197.31 151.201 199.701 149.295C202.086 147.394 204.519 145.55 206.998 143.764C209.477 141.983 211.993 140.259 214.555 138.592C217.113 136.931 219.712 135.326 222.347 133.79C224.988 132.248 227.659 130.774 230.368 129.363C233.076 127.957 235.816 126.613 238.586 125.332C241.363 124.056 244.165 122.842 246.993 121.701C249.826 120.556 252.68 119.483 255.566 118.477C258.446 117.472 261.352 116.535 264.279 115.67C267.206 114.8 270.154 114.009 273.123 113.285C276.086 112.556 279.071 111.905 282.066 111.326C285.066 110.743 288.071 110.238 291.097 109.8C294.118 109.363 297.149 109.003 300.185 108.712C303.227 108.42 306.274 108.207 309.321 108.061C312.373 107.915 315.425 107.847 318.477 107.852C321.529 107.852 324.581 107.931 327.628 108.082C330.68 108.233 333.722 108.457 336.764 108.753C339.8 109.05 342.831 109.42 345.852 109.863C348.873 110.306 351.883 110.816 354.878 111.405C357.873 111.993 360.852 112.649 363.821 113.384C366.784 114.113 369.727 114.915 372.654 115.79C375.581 116.66 378.482 117.602 381.363 118.613C384.243 119.628 387.097 120.707 389.925 121.858C392.758 123.009 395.555 124.222 398.326 125.509C401.097 126.795 403.831 128.144 406.54 129.561C409.243 130.977 411.909 132.457 414.545 134.003C417.18 135.545 419.774 137.155 422.331 138.821C424.889 140.493 427.399 142.222 429.873 144.014C432.347 145.8 434.774 147.649 437.159 149.561C439.545 151.467 441.883 153.431 444.17 155.451C446.462 157.472 448.701 159.545 450.889 161.67C453.081 163.8 455.217 165.977 457.3 168.207C459.389 170.441 461.415 172.717 463.394 175.045C465.368 177.373 467.284 179.748 469.144 182.17C471.008 184.592 472.81 187.056 474.55 189.561C476.295 192.071 477.972 194.618 479.592 197.207C481.212 199.795 482.769 202.42 484.264 205.082C485.758 207.748 487.185 210.441 488.55 213.175C489.909 215.905 491.212 218.67 492.441 221.467C493.67 224.259 494.831 227.082 495.925 229.931C497.024 232.78 498.045 235.655 499.003 238.556C499.962 241.457 500.847 244.378 501.659 247.321C502.477 250.259 503.222 253.222 503.894 256.201C504.571 259.175 505.17 262.17 505.701 265.175C506.227 268.186 506.686 271.201 507.071 274.233C507.451 277.259 507.764 280.295 508.003 283.342C508.238 286.384 508.404 289.431 508.493 292.483C508.587 295.535 508.602 298.587 508.55 301.639C508.493 304.691 508.363 307.743 508.159 310.79C507.956 313.837 507.68 316.878 507.331 319.91C506.982 322.941 506.561 325.967 506.071 328.977C505.576 331.993 505.008 334.993 504.368 337.977C503.732 340.962 503.019 343.931 502.238 346.884C501.456 349.832 500.602 352.764 499.68 355.675C498.758 358.587 497.769 361.472 496.706 364.337C495.644 367.196 494.514 370.035 493.316 372.842C492.118 375.649 490.852 378.425 489.524 381.175C488.191 383.92 486.795 386.639 485.331 389.316C483.868 391.998 482.342 394.639 480.753 397.248C479.165 399.852 477.514 402.42 475.8 404.946C474.087 407.477 472.311 409.962 470.477 412.405C468.649 414.842 466.758 417.243 464.81 419.592C468.175 430.613 471.43 441.524 474.675 452.545L480.232 471.436C482.587 469.378 485.097 467.55 487.774 465.946C490.456 464.342 493.253 462.988 496.175 461.889C499.092 460.785 502.092 459.951 505.159 459.389C508.227 458.821 511.326 458.535 514.446 458.524C517.779 458.462 521.081 458.753 524.352 459.399C527.618 460.045 530.784 461.03 533.842 462.347C536.904 463.67 539.79 465.3 542.503 467.238C545.212 469.175 547.686 471.378 549.925 473.847C552.248 471.337 554.795 469.082 557.571 467.087C560.347 465.092 563.295 463.394 566.42 461.998C569.54 460.597 572.769 459.53 576.102 458.785C579.441 458.04 582.821 457.639 586.238 457.582C589.68 457.378 593.102 457.571 596.498 458.149C599.899 458.727 603.186 459.681 606.368 461.003C609.55 462.332 612.545 464.003 615.347 466.009C618.149 468.019 620.691 470.316 622.967 472.905C627.732 467.837 633.253 463.811 639.54 460.837C642.717 459.363 646.008 458.238 649.425 457.467C652.842 456.696 656.3 456.295 659.8 456.259C663.3 456.222 666.764 456.556 670.196 457.253C673.628 457.957 676.946 459.009 680.149 460.415C683.253 461.79 686.165 463.488 688.894 465.498C691.623 467.514 694.102 469.8 696.337 472.352C698.566 474.91 700.493 477.675 702.118 480.655C703.743 483.634 705.024 486.748 705.967 490.009C721.29 540.274 737.029 592.222 751.826 644.483C753.363 649.41 754.654 654.394 755.712 659.441C756.769 664.493 757.576 669.582 758.144 674.707C758.712 679.832 759.029 684.972 759.102 690.129C759.175 695.29 758.998 700.436 758.576 705.576C758.154 710.717 757.488 715.826 756.576 720.899C755.665 725.977 754.508 730.998 753.113 735.962C751.717 740.931 750.087 745.816 748.222 750.623C746.357 755.431 744.269 760.139 741.951 764.748ZM373.3 452.259C371.514 446.28 369.727 440.295 367.935 434.316C366.363 429.076 365.415 423.722 365.102 418.259C365.081 416.889 365.123 415.524 365.222 414.16C365.321 412.795 365.482 411.436 365.696 410.087C365.915 408.738 366.196 407.399 366.529 406.071C366.863 404.743 367.258 403.436 367.706 402.144C368.154 400.852 368.659 399.582 369.222 398.332C369.784 397.087 370.399 395.863 371.066 394.67C371.732 393.477 372.451 392.316 373.222 391.181C373.988 390.05 374.805 388.957 375.67 387.894C376.534 386.837 377.446 385.816 378.399 384.837C379.357 383.852 380.352 382.915 381.389 382.024C382.425 381.128 383.498 380.285 384.607 379.483C385.717 378.686 386.857 377.936 388.034 377.238C389.212 376.535 390.415 375.889 391.649 375.295C392.878 374.701 394.133 374.16 395.415 373.675C396.696 373.191 397.993 372.764 399.31 372.394C400.628 372.024 401.956 371.712 403.3 371.457C405.602 370.821 407.935 370.373 410.305 370.108C412.675 369.842 415.05 369.759 417.435 369.863C419.816 369.967 422.175 370.253 424.514 370.727C426.852 371.196 429.139 371.847 431.373 372.675C433.613 373.503 435.769 374.498 437.852 375.665C439.93 376.826 441.909 378.144 443.784 379.618C445.659 381.092 447.409 382.701 449.034 384.446C450.659 386.191 452.139 388.056 453.477 390.03C454.883 387.951 456.248 385.842 457.56 383.701C458.873 381.561 460.139 379.389 461.352 377.191C462.566 374.988 463.727 372.764 464.837 370.509C465.946 368.259 467.003 365.983 468.008 363.681C469.014 361.378 469.967 359.05 470.863 356.707C471.764 354.363 472.607 351.993 473.394 349.613C474.185 347.227 474.92 344.826 475.597 342.405C476.274 339.988 476.894 337.556 477.462 335.108C478.029 332.66 478.54 330.201 478.988 327.733C479.441 325.259 479.837 322.78 480.175 320.29C480.514 317.8 480.795 315.306 481.019 312.806C481.238 310.3 481.404 307.795 481.514 305.285C481.618 302.78 481.67 300.264 481.659 297.753C481.649 295.243 481.587 292.733 481.462 290.222C481.337 287.717 481.154 285.212 480.915 282.712C480.675 280.212 480.373 277.717 480.019 275.227C479.665 272.743 479.253 270.264 478.784 267.8C478.316 265.332 477.79 262.873 477.206 260.431C476.623 257.988 475.982 255.561 475.29 253.144C474.592 250.733 473.842 248.337 473.04 245.957C472.232 243.576 471.373 241.217 470.456 238.878C469.545 236.54 468.576 234.222 467.555 231.925C466.534 229.634 465.462 227.363 464.337 225.118C463.206 222.873 462.029 220.655 460.805 218.462C459.576 216.269 458.295 214.108 456.967 211.977C455.639 209.847 454.264 207.743 452.842 205.675C451.415 203.608 449.941 201.571 448.425 199.571C446.904 197.571 445.342 195.608 443.732 193.681C442.123 191.748 440.467 189.858 438.774 188.009C437.076 186.155 435.337 184.342 433.555 182.571C431.774 180.8 429.956 179.071 428.097 177.384C426.232 175.696 424.337 174.05 422.399 172.451C420.467 170.847 418.493 169.295 416.488 167.785C414.477 166.274 412.435 164.816 410.363 163.399C408.284 161.983 406.18 160.618 404.04 159.3C401.899 157.983 399.732 156.712 397.54 155.493C395.342 154.28 393.118 153.113 390.868 151.993C388.613 150.878 386.342 149.816 384.04 148.806C381.743 147.795 379.42 146.842 377.076 145.936C374.732 145.035 372.368 144.186 369.982 143.389C367.602 142.597 365.201 141.858 362.784 141.175C360.368 140.493 357.935 139.863 355.488 139.295C353.045 138.722 350.587 138.207 348.118 137.748C345.644 137.29 343.165 136.894 340.68 136.55C338.191 136.207 335.696 135.92 333.196 135.691C330.691 135.462 328.185 135.29 325.68 135.181C323.17 135.066 320.659 135.014 318.144 135.014C315.633 135.019 313.123 135.082 310.613 135.201C308.107 135.316 305.602 135.493 303.102 135.733C300.597 135.967 298.107 136.259 295.618 136.608C293.128 136.957 290.654 137.363 288.185 137.826C285.717 138.29 283.258 138.811 280.816 139.389C278.368 139.967 275.941 140.602 273.524 141.29C271.107 141.983 268.712 142.727 266.331 143.524C263.951 144.326 261.586 145.181 259.248 146.092C256.904 146.998 254.587 147.962 252.29 148.977C249.993 149.993 247.717 151.066 245.472 152.186C243.222 153.306 241.003 154.477 238.81 155.701C236.613 156.925 234.451 158.201 232.316 159.524C230.18 160.847 228.076 162.217 226.008 163.639C223.935 165.061 221.899 166.524 219.894 168.04C217.889 169.556 215.92 171.118 213.988 172.722C212.055 174.326 210.165 175.977 208.305 177.67C206.451 179.363 204.639 181.097 202.863 182.873H202.764C199.519 186.123 196.42 189.509 193.456 193.024C190.498 196.535 187.691 200.17 185.034 203.92C182.383 207.67 179.889 211.524 177.56 215.488C175.232 219.446 173.076 223.498 171.086 227.644C169.102 231.785 167.295 236.003 165.665 240.3C164.029 244.597 162.581 248.951 161.321 253.368C160.055 257.79 158.982 262.248 158.092 266.759C157.206 271.269 156.514 275.806 156.008 280.373C155.503 284.941 155.191 289.519 155.071 294.113C154.956 298.707 155.029 303.295 155.3 307.884C155.571 312.467 156.029 317.035 156.685 321.587C157.336 326.134 158.185 330.644 159.217 335.123C160.253 339.597 161.472 344.024 162.883 348.399C164.29 352.769 165.878 357.076 167.654 361.316C169.425 365.556 171.368 369.712 173.493 373.79C175.613 377.863 177.904 381.842 180.363 385.727C182.821 389.608 185.435 393.378 188.211 397.04C190.988 400.701 193.909 404.243 196.988 407.655C200.06 411.071 203.274 414.352 206.623 417.493C209.972 420.639 213.451 423.634 217.055 426.488C220.659 429.337 224.378 432.03 228.206 434.566C232.04 437.102 235.967 439.477 239.998 441.681C244.029 443.889 248.144 445.92 252.347 447.78C256.55 449.634 260.826 451.316 265.17 452.811C269.514 454.311 273.909 455.623 278.363 456.748C282.821 457.878 287.31 458.811 291.847 459.561C296.378 460.311 300.935 460.863 305.519 461.227C310.097 461.592 314.685 461.764 319.279 461.738C323.873 461.717 328.462 461.498 333.034 461.087C337.613 460.675 342.165 460.076 346.691 459.28C351.217 458.488 355.701 457.503 360.144 456.332C364.587 455.16 368.972 453.8 373.3 452.259ZM724.529 645.462L681.727 501.691C681.107 499.498 680.337 497.363 679.404 495.285C678.8 493.743 677.998 492.306 677.014 490.972C676.024 489.639 674.883 488.457 673.581 487.425C672.285 486.394 670.873 485.55 669.352 484.889C667.831 484.227 666.248 483.78 664.607 483.535C662.623 483.212 660.628 483.139 658.628 483.311C656.623 483.483 654.67 483.889 652.769 484.54C650.863 485.191 649.066 486.061 647.378 487.149C645.691 488.238 644.154 489.519 642.779 490.983C641.566 492.378 640.561 493.91 639.758 495.576C638.956 497.243 638.389 498.983 638.055 500.806C637.722 502.623 637.639 504.451 637.8 506.295C637.962 508.139 638.363 509.925 639.003 511.66L642.149 522.155C644.774 530.863 647.399 539.571 649.915 548.389C650.253 549.477 650.446 550.597 650.498 551.738C650.555 552.878 650.467 554.004 650.238 555.123C650.008 556.243 649.644 557.316 649.149 558.342C648.649 559.368 648.029 560.321 647.295 561.191C646.508 562.03 645.628 562.759 644.665 563.378C643.696 563.998 642.665 564.493 641.576 564.858C640.488 565.227 639.368 565.451 638.222 565.545C637.076 565.634 635.941 565.582 634.805 565.389C633.498 565.181 632.248 564.78 631.06 564.186C629.873 563.597 628.8 562.842 627.847 561.92C626.889 561.003 626.092 559.962 625.451 558.8C624.816 557.634 624.363 556.404 624.102 555.102L621.795 547.55C617.081 531.389 612.253 515.123 607.31 499.066C606.868 497.748 606.305 496.483 605.618 495.274C604.93 494.066 604.139 492.931 603.232 491.873C602.331 490.821 601.337 489.858 600.248 488.993C599.159 488.128 597.998 487.373 596.764 486.733C595.529 486.092 594.248 485.571 592.915 485.181C591.581 484.785 590.222 484.519 588.842 484.384C587.456 484.253 586.071 484.253 584.691 484.384C583.305 484.514 581.946 484.78 580.613 485.175C579.279 485.566 577.998 486.087 576.764 486.727C575.529 487.368 574.368 488.118 573.279 488.983C572.191 489.847 571.196 490.806 570.29 491.863C569.383 492.92 568.592 494.05 567.904 495.259C567.217 496.467 566.654 497.733 566.206 499.05C565.764 500.368 565.451 501.717 565.269 503.092C565.081 504.472 565.029 505.852 565.113 507.243C565.196 508.628 565.409 509.998 565.753 511.342C569.321 523.936 573.097 536.425 576.784 548.915L581.81 565.493C582.274 566.941 582.665 568.41 582.972 569.899C583.243 571.087 583.337 572.29 583.253 573.498C583.165 574.712 582.909 575.889 582.482 577.03C582.05 578.165 581.467 579.217 580.732 580.186C579.993 581.149 579.133 581.993 578.149 582.707C577.649 583.155 577.118 583.561 576.55 583.92C575.982 584.28 575.394 584.592 574.774 584.858C574.159 585.123 573.524 585.337 572.873 585.493C572.222 585.655 571.561 585.764 570.894 585.811C570.222 585.863 569.555 585.863 568.883 585.806C568.217 585.748 567.555 585.634 566.909 585.467C566.258 585.3 565.623 585.082 565.008 584.816C564.394 584.545 563.805 584.227 563.243 583.858C561.633 582.618 560.248 581.165 559.081 579.503C557.92 577.837 557.029 576.035 556.415 574.097C548.962 549.858 541.722 525.618 534.691 501.165C534.3 499.498 533.712 497.905 532.925 496.384C532.139 494.863 531.18 493.457 530.045 492.175C528.909 490.894 527.633 489.769 526.222 488.806C524.805 487.842 523.295 487.061 521.685 486.472C519.899 485.894 518.071 485.53 516.196 485.378C514.321 485.227 512.456 485.29 510.597 485.571C508.743 485.858 506.941 486.347 505.196 487.05C503.456 487.748 501.816 488.644 500.279 489.727C499.352 490.352 498.477 491.05 497.67 491.826C496.857 492.597 496.118 493.436 495.446 494.332C494.774 495.233 494.185 496.181 493.675 497.181C493.165 498.175 492.743 499.212 492.404 500.28C492.071 501.352 491.826 502.441 491.675 503.55C491.519 504.66 491.462 505.78 491.498 506.899C491.534 508.019 491.665 509.128 491.889 510.227C492.113 511.326 492.425 512.394 492.826 513.441C496.816 527.087 500.899 540.727 504.899 554.368L515.066 588.373C515.305 589.024 515.482 589.691 515.613 590.373C515.738 591.056 515.811 591.743 515.821 592.436C515.837 593.128 515.795 593.816 515.691 594.503C515.592 595.191 515.436 595.863 515.222 596.524C515.014 597.186 514.748 597.821 514.43 598.441C514.113 599.056 513.748 599.644 513.331 600.196C512.92 600.753 512.462 601.274 511.962 601.753C511.462 602.233 510.925 602.67 510.352 603.066C509.784 603.509 509.18 603.899 508.545 604.243C507.909 604.587 507.248 604.878 506.566 605.113C505.883 605.347 505.185 605.524 504.472 605.639C503.758 605.759 503.045 605.821 502.321 605.821C501.597 605.821 500.878 605.759 500.17 605.639C499.456 605.524 498.758 605.347 498.076 605.113C497.389 604.878 496.732 604.587 496.097 604.243C495.462 603.899 494.857 603.509 494.284 603.066C491.748 600.425 489.972 597.342 488.946 593.826C474.045 544.191 459.206 494.55 444.441 444.915L443.389 441.556L435.206 413.852C435.107 413.535 434.993 413.118 434.889 412.8C434.717 412.009 434.472 411.238 434.154 410.493C433.816 409.493 433.399 408.53 432.904 407.597C432.415 406.665 431.852 405.774 431.222 404.931C430.587 404.082 429.894 403.295 429.139 402.556C428.383 401.821 427.576 401.149 426.712 400.54C425.852 399.931 424.946 399.394 424.003 398.925C423.055 398.462 422.076 398.071 421.071 397.759C420.066 397.446 419.04 397.212 417.993 397.061C416.951 396.91 415.899 396.837 414.847 396.852C413.034 396.868 411.253 397.082 409.493 397.488C407.727 397.899 406.034 398.493 404.399 399.269C402.769 400.05 401.243 400.998 399.816 402.113C398.394 403.227 397.107 404.483 395.956 405.878C394.93 407.28 394.092 408.785 393.435 410.399C392.784 412.009 392.342 413.675 392.102 415.394C391.863 417.118 391.842 418.842 392.029 420.571C392.222 422.3 392.618 423.977 393.227 425.608C394.8 430.748 396.373 435.889 397.847 441.03C400.581 449.743 403.206 458.556 405.717 467.269C410.753 483.951 415.696 500.535 420.618 517.222L464.17 663.722C466.477 671.384 468.795 679.04 470.998 686.701C471.29 687.446 471.514 688.212 471.67 688.993C471.821 689.78 471.909 690.571 471.92 691.368C471.935 692.165 471.883 692.957 471.753 693.748C471.628 694.535 471.435 695.306 471.17 696.061C470.909 696.816 470.581 697.54 470.191 698.238C469.8 698.931 469.347 699.587 468.842 700.207C468.331 700.821 467.774 701.389 467.165 701.905C466.555 702.42 465.909 702.884 465.217 703.285C464.003 703.951 462.717 704.431 461.357 704.717C459.998 705.003 458.628 705.087 457.243 704.967C455.863 704.842 454.529 704.524 453.238 704.004C451.951 703.488 450.769 702.79 449.685 701.92C434.685 691.743 419.68 681.628 404.665 671.592L384.935 658.264C383.795 657.384 382.576 656.634 381.274 656.009C379.977 655.384 378.628 654.905 377.227 654.561C375.831 654.217 374.409 654.019 372.967 653.972C371.529 653.925 370.102 654.024 368.68 654.274C367.56 654.519 366.462 654.842 365.383 655.248C364.31 655.649 363.269 656.128 362.264 656.686C361.264 657.243 360.3 657.868 359.389 658.561C358.477 659.259 357.618 660.019 356.816 660.837C356.014 661.66 355.274 662.535 354.597 663.462C353.925 664.394 353.321 665.368 352.79 666.384C352.258 667.399 351.8 668.451 351.42 669.535C351.04 670.618 350.743 671.722 350.524 672.852C350.316 673.894 350.185 674.946 350.139 676.009C350.092 677.071 350.133 678.128 350.253 679.186C350.378 680.243 350.581 681.28 350.868 682.306C351.154 683.332 351.524 684.326 351.967 685.29C352.415 686.253 352.93 687.181 353.524 688.066C354.113 688.946 354.769 689.78 355.493 690.561C356.217 691.337 356.998 692.056 357.837 692.712C358.67 693.368 359.555 693.951 360.482 694.467L390.185 714.41C412.748 729.519 435.243 744.597 457.675 759.639C462.592 762.998 467.54 766.352 472.462 769.608C486.837 779.368 501.644 789.441 516.743 798.155C520.805 800.649 524.967 802.967 529.227 805.097C533.493 807.227 537.842 809.165 542.279 810.91C546.717 812.649 551.222 814.196 555.795 815.54C560.368 816.884 564.993 818.024 569.665 818.957C574.337 819.889 579.045 820.618 583.784 821.134C588.524 821.649 593.274 821.951 598.04 822.05C602.805 822.144 607.566 822.024 612.321 821.696C617.076 821.373 621.805 820.832 626.514 820.087C629.607 819.587 632.67 818.967 635.717 818.238C638.758 817.504 641.774 816.66 644.753 815.701C647.732 814.748 650.675 813.675 653.576 812.498C656.472 811.321 659.326 810.035 662.128 808.644C664.936 807.248 667.68 805.753 670.373 804.155C673.066 802.556 675.691 800.858 678.253 799.061C680.821 797.269 683.311 795.379 685.732 793.394C688.154 791.41 690.498 789.337 692.769 787.181C695.034 785.019 697.217 782.78 699.316 780.457C701.409 778.129 703.42 775.733 705.337 773.259C707.253 770.785 709.076 768.243 710.805 765.629C712.534 763.019 714.159 760.347 715.686 757.613C717.212 754.879 718.633 752.092 719.951 749.254C721.269 746.415 722.477 743.53 723.576 740.597C724.675 737.67 725.665 734.701 726.545 731.696C727.42 728.691 728.185 725.655 728.837 722.592C730.133 716.207 731.019 709.764 731.493 703.264C731.962 696.764 732.019 690.259 731.654 683.748C731.295 677.243 730.514 670.785 729.321 664.378C728.128 657.967 726.534 651.665 724.529 645.462ZM157.711 556.186C157.045 556.988 156.456 557.847 155.956 558.764C155.456 559.686 155.05 560.644 154.743 561.639C154.435 562.639 154.227 563.66 154.118 564.701C154.014 565.743 154.014 566.78 154.113 567.821C154.217 568.863 154.42 569.884 154.722 570.884C155.029 571.884 155.43 572.842 155.925 573.764C156.42 574.686 157.003 575.545 157.67 576.352C158.336 577.154 159.081 577.889 159.894 578.545C160.706 579.201 161.576 579.769 162.503 580.253C163.43 580.738 164.399 581.123 165.404 581.415C166.404 581.707 167.43 581.894 168.472 581.983C169.514 582.071 170.555 582.05 171.592 581.931C172.633 581.811 173.649 581.592 174.644 581.264C175.639 580.941 176.592 580.524 177.503 580.014C178.415 579.498 179.264 578.899 180.055 578.217C180.847 577.535 181.566 576.785 182.206 575.957L217.982 531.67C218.654 530.868 219.243 530.009 219.743 529.092C220.243 528.175 220.644 527.212 220.956 526.217C221.264 525.217 221.472 524.196 221.576 523.155C221.685 522.118 221.685 521.076 221.581 520.035C221.482 518.993 221.279 517.972 220.972 516.972C220.67 515.972 220.269 515.014 219.774 514.092C219.279 513.17 218.696 512.311 218.024 511.503C217.357 510.701 216.618 509.967 215.805 509.311C214.993 508.655 214.118 508.087 213.191 507.602C212.264 507.118 211.3 506.733 210.295 506.441C209.29 506.149 208.269 505.962 207.227 505.873C206.18 505.79 205.144 505.806 204.102 505.925C203.066 506.045 202.05 506.269 201.055 506.592C200.06 506.915 199.107 507.332 198.196 507.842C197.284 508.358 196.43 508.957 195.639 509.639C194.847 510.321 194.133 511.076 193.488 511.899L157.711 556.186ZM487.18 30.4201C487.68 29.5191 488.092 28.5764 488.404 27.5972C488.722 26.6128 488.941 25.6128 489.06 24.5868C489.185 23.566 489.206 22.5399 489.128 21.5087C489.05 20.4826 488.873 19.4722 488.597 18.4774C488.326 17.4826 487.956 16.5243 487.498 15.6024C487.034 14.6805 486.488 13.8108 485.857 12.993C485.232 12.1753 484.529 11.4253 483.753 10.7483C482.977 10.066 482.144 9.46701 481.253 8.95138C480.347 8.45659 479.409 8.05555 478.425 7.74826C477.446 7.43576 476.446 7.22221 475.42 7.10763C474.399 6.98784 473.378 6.96701 472.352 7.05034C471.326 7.12846 470.316 7.30555 469.326 7.58159C468.331 7.85242 467.378 8.21701 466.456 8.67534C465.534 9.13367 464.665 9.67534 463.847 10.3003C463.034 10.9305 462.284 11.6285 461.602 12.3941C460.92 13.1649 460.316 13.993 459.79 14.8785L431.732 64.3837C431.227 65.2795 430.821 66.217 430.503 67.1962C430.185 68.1753 429.967 69.1753 429.847 70.1962C429.727 71.2222 429.706 72.243 429.79 73.2691C429.868 74.2951 430.045 75.3056 430.326 76.2951C430.602 77.2847 430.972 78.2378 431.441 79.1545C431.904 80.0764 432.451 80.941 433.087 81.7483C433.722 82.5608 434.43 83.3003 435.206 83.9722C435.988 84.6441 436.826 85.2326 437.722 85.7378C438.618 86.2483 439.55 86.6597 440.529 86.9878C441.503 87.3108 442.503 87.5347 443.524 87.6649C444.545 87.7899 445.571 87.816 446.597 87.7483C447.623 87.6753 448.628 87.5035 449.623 87.2326C450.618 86.9618 451.571 86.5972 452.493 86.1389C453.415 85.6806 454.284 85.1337 455.097 84.5087C455.909 83.8785 456.659 83.1753 457.337 82.3993C458.014 81.6285 458.607 80.7951 459.123 79.9045L487.18 30.4201ZM623.883 282.139L566.993 283.186C565.956 283.207 564.936 283.326 563.925 283.545C562.915 283.764 561.936 284.082 560.988 284.498C560.04 284.91 559.144 285.41 558.295 285.998C557.446 286.592 556.665 287.259 555.946 288.003C555.227 288.748 554.592 289.556 554.029 290.425C553.472 291.295 553.003 292.207 552.628 293.17C552.248 294.134 551.967 295.123 551.784 296.139C551.602 297.16 551.519 298.186 551.54 299.217C551.555 300.248 551.675 301.274 551.899 302.285C552.118 303.295 552.436 304.269 552.847 305.217C553.258 306.165 553.764 307.066 554.352 307.915C554.941 308.764 555.607 309.545 556.352 310.264C557.097 310.983 557.904 311.618 558.774 312.175C559.644 312.738 560.561 313.207 561.524 313.582C562.482 313.962 563.472 314.243 564.493 314.425C565.508 314.608 566.534 314.691 567.571 314.67L624.456 313.618C625.493 313.602 626.514 313.483 627.524 313.264C628.534 313.04 629.514 312.727 630.462 312.311C631.409 311.899 632.305 311.399 633.154 310.806C634.003 310.217 634.785 309.55 635.503 308.806C636.222 308.061 636.857 307.253 637.42 306.384C637.977 305.514 638.446 304.597 638.821 303.639C639.201 302.675 639.482 301.686 639.665 300.665C639.847 299.649 639.93 298.623 639.91 297.592C639.894 296.556 639.774 295.535 639.55 294.524C639.331 293.514 639.014 292.535 638.602 291.587C638.191 290.639 637.686 289.743 637.097 288.894C636.508 288.045 635.842 287.264 635.097 286.545C634.352 285.826 633.545 285.191 632.675 284.628C631.805 284.071 630.889 283.602 629.925 283.227C628.967 282.847 627.977 282.566 626.956 282.384C625.941 282.201 624.915 282.118 623.883 282.139ZM73.0865 282.139L16.1958 283.186C15.1646 283.207 14.1438 283.326 13.1333 283.545C12.1229 283.769 11.1438 284.087 10.1958 284.498C9.24792 284.91 8.35209 285.415 7.50313 286.003C6.65417 286.592 5.87292 287.259 5.15417 288.003C4.43542 288.748 3.80001 289.556 3.24271 290.425C2.68021 291.295 2.21667 292.212 1.83646 293.175C1.46146 294.139 1.18021 295.128 0.997922 296.144C0.815631 297.165 0.732298 298.191 0.75313 299.222C0.768755 300.253 0.888546 301.28 1.1125 302.29C1.33125 303.295 1.64896 304.274 2.06042 305.222C2.47709 306.17 2.97709 307.071 3.56563 307.92C4.15938 308.769 4.82605 309.55 5.57084 310.269C6.31563 310.983 7.12292 311.623 7.99271 312.181C8.86251 312.738 9.77917 313.207 10.7375 313.582C11.701 313.962 12.6906 314.243 13.7115 314.425C14.7271 314.608 15.7531 314.691 16.7844 314.67L73.675 313.618C74.7115 313.602 75.7323 313.483 76.7427 313.264C77.7531 313.045 78.7323 312.727 79.6802 312.316C80.6281 311.899 81.5292 311.399 82.3781 310.811C83.2271 310.217 84.0136 309.55 84.7271 308.806C85.4458 308.061 86.0865 307.253 86.6438 306.384C87.2011 305.514 87.6698 304.597 88.05 303.634C88.4302 302.67 88.7063 301.681 88.8886 300.665C89.0761 299.644 89.1542 298.618 89.1386 297.587C89.1177 296.55 88.9979 295.53 88.774 294.519C88.5552 293.509 88.2375 292.53 87.8261 291.582C87.4094 290.634 86.9094 289.733 86.3156 288.884C85.7271 288.035 85.0604 287.253 84.3156 286.535C83.5656 285.816 82.7584 285.181 81.8886 284.623C81.0188 284.066 80.1021 283.597 79.1386 283.217C78.175 282.842 77.1854 282.561 76.1646 282.378C75.149 282.196 74.1229 282.118 73.0865 282.139ZM182.659 79.9045C183.154 80.8264 183.738 81.6962 184.404 82.5087C185.071 83.316 185.816 84.0503 186.628 84.7118C187.446 85.3733 188.321 85.9514 189.248 86.4358C190.18 86.9201 191.149 87.3108 192.159 87.6024C193.17 87.8993 194.196 88.0868 195.243 88.1753C196.29 88.2587 197.336 88.243 198.378 88.118C199.42 87.9983 200.441 87.7743 201.441 87.4462C202.435 87.118 203.394 86.6962 204.305 86.1805C205.222 85.6597 206.076 85.0608 206.868 84.368C207.659 83.6805 208.378 82.9201 209.019 82.0868C209.659 81.2587 210.211 80.368 210.67 79.4253C211.133 78.4826 211.498 77.5035 211.769 76.4878C212.034 75.4722 212.201 74.441 212.258 73.3941C212.321 72.342 212.274 71.3003 212.128 70.2587C211.977 69.2222 211.727 68.2066 211.378 67.217C211.024 66.2274 210.581 65.2795 210.04 64.3837L181.977 14.8785C181.456 13.993 180.852 13.1649 180.17 12.3941C179.488 11.6285 178.738 10.9305 177.92 10.3003C177.102 9.67534 176.232 9.13367 175.316 8.67534C174.394 8.21701 173.435 7.85242 172.446 7.58159C171.451 7.30555 170.446 7.12846 169.42 7.05034C168.394 6.96701 167.368 6.98784 166.347 7.10763C165.326 7.22221 164.321 7.43576 163.342 7.74826C162.363 8.05555 161.42 8.45659 160.514 8.95138C159.628 9.46701 158.795 10.066 158.019 10.7483C157.248 11.4305 156.545 12.1753 155.915 12.993C155.284 13.8108 154.743 14.6805 154.279 15.6024C153.821 16.5243 153.456 17.4774 153.18 18.4722C152.904 19.467 152.727 20.4774 152.649 21.5035C152.571 22.5295 152.592 23.5555 152.711 24.5816C152.836 25.6024 153.05 26.6076 153.368 27.5868C153.68 28.566 154.086 29.5087 154.586 30.4097L182.659 79.9045Z" fill="#FC9D08"/>
<rect y="283.48" width="89.078" height="31.9906" rx="15.9953" transform="rotate(-1.18717 0 283.48)" fill="black"/>
<rect x="145.453" y="569.109" width="91.6383" height="32.8061" rx="16.403" transform="rotate(-50.4465 145.453 569.109)" fill="black"/>
<rect x="174.609" y="0.703125" width="89.078" height="31.9906" rx="15.9953" transform="rotate(60.4959 174.609 0.703125)" fill="black"/>
<rect x="495.914" y="15.9609" width="90.0447" height="31.9906" rx="15.9953" transform="rotate(119.929 495.914 15.9609)" fill="black"/>
<rect x="640.75" y="315" width="90" height="33" rx="16.5" transform="rotate(-180 640.75 315)" fill="black"/>
</svg>
