<svg width="903" height="831" viewBox="0 0 903 831" fill="none" xmlns="http://www.w3.org/2000/svg">
<path d="M609.417 787.392V783.585C609.417 761.533 605.094 740.137 596.573 719.986C588.344 700.533 576.562 683.064 561.562 668.059C546.562 653.059 529.094 641.283 509.641 633.053C505.885 631.465 502.083 630.027 498.25 628.73C505.182 624.538 511.594 619.507 517.401 613.704C526.661 604.439 533.938 593.647 539.021 581.626C544.286 569.178 546.958 555.965 546.958 542.345C546.958 528.725 544.286 515.512 539.021 503.064C533.938 491.043 526.661 480.251 517.401 470.991C508.135 461.725 497.344 454.449 485.328 449.366C472.88 444.1 459.661 441.434 446.042 441.434C432.427 441.434 419.208 444.1 406.76 449.366C394.745 454.449 383.953 461.725 374.688 470.991C365.422 480.251 358.146 491.043 353.068 503.064C347.802 515.512 345.13 528.725 345.13 542.345C345.13 555.965 347.802 569.178 353.068 581.626C358.146 593.647 365.422 604.439 374.688 613.704C380.495 619.512 386.906 624.538 393.839 628.73C390 630.027 386.203 631.47 382.448 633.053C362.995 641.283 345.521 653.064 330.521 668.059C315.521 683.059 303.745 700.533 295.516 719.986C286.995 740.137 282.672 761.533 282.672 783.585V787.392C282.672 800.73 293.521 811.579 306.859 811.579H585.229C598.562 811.579 609.417 800.73 609.417 787.392ZM390.979 597.402C376.276 582.694 368.172 563.142 368.172 542.34C368.172 521.538 376.276 501.986 390.979 487.277C405.688 472.569 425.24 464.47 446.042 464.47C466.844 464.47 486.401 472.569 501.104 487.277C515.812 501.986 523.911 521.538 523.911 542.34C523.911 563.142 515.812 582.694 501.104 597.402C486.401 612.111 466.844 620.21 446.042 620.21C425.24 620.21 405.688 612.111 390.979 597.402ZM305.719 787.392V783.585C305.719 764.632 309.427 746.257 316.74 728.965C323.807 712.257 333.927 697.251 346.818 684.355C359.708 671.465 374.714 661.35 391.422 654.283C408.719 646.965 427.094 643.257 446.042 643.257C464.99 643.257 483.365 646.965 500.656 654.283C517.365 661.35 532.375 671.465 545.266 684.355C558.156 697.251 568.276 712.257 575.344 728.965C582.656 746.262 586.365 764.632 586.365 783.585V787.392C586.365 788.022 585.854 788.533 585.224 788.533H306.854C306.229 788.533 305.719 788.022 305.719 787.392Z" fill="black"/>
<path d="M277.169 800.051C277.169 793.691 272.008 788.53 265.643 788.53H104.294C103.664 788.53 103.154 788.02 103.154 787.389V785.228C103.154 768.327 106.461 751.936 112.982 736.514C119.289 721.613 128.315 708.228 139.81 696.728C151.31 685.228 164.695 676.207 179.596 669.9C195.018 663.379 211.409 660.072 228.31 660.072C253.393 660.072 277.586 667.462 298.279 681.436C303.549 684.999 310.716 683.613 314.273 678.337C317.836 673.066 316.451 665.905 311.18 662.337C300.773 655.306 289.617 649.691 277.961 645.546C283.456 642.009 288.617 637.858 293.352 633.129C310.727 615.754 320.294 592.65 320.294 568.082C320.294 543.514 310.727 520.415 293.352 503.04C275.977 485.665 252.878 476.098 228.31 476.098C203.737 476.098 180.638 485.665 163.263 503.04C145.888 520.415 136.32 543.514 136.32 568.082C136.32 592.65 145.888 615.754 163.263 633.129C167.997 637.858 173.159 642.009 178.654 645.546C175.951 646.509 173.273 647.551 170.612 648.671C152.966 656.139 137.117 666.822 123.508 680.431C109.904 694.035 99.2161 709.884 91.7526 727.53C84.0234 745.811 80.1016 765.223 80.1016 785.223V787.389C80.1016 800.723 90.9505 811.572 104.289 811.572H265.643C272.013 811.577 277.169 806.415 277.169 800.051ZM159.367 568.082C159.367 549.671 166.539 532.353 179.56 519.337C192.581 506.316 209.893 499.145 228.31 499.145C246.721 499.145 264.034 506.316 277.055 519.337C290.076 532.353 297.247 549.671 297.247 568.082C297.247 586.493 290.076 603.811 277.055 616.832C264.034 629.848 246.721 637.02 228.31 637.02C209.893 637.02 192.581 629.848 179.56 616.832C166.539 603.811 159.367 586.493 159.367 568.082Z" fill="black"/>
<path d="M767.383 680.431C753.779 666.822 737.93 656.139 720.279 648.671C717.628 647.551 714.945 646.509 712.242 645.546C717.742 642.009 722.898 637.858 727.633 633.129C745.008 615.754 754.576 592.655 754.576 568.082C754.576 543.514 745.008 520.415 727.633 503.04C710.258 485.665 687.159 476.098 662.586 476.098C638.018 476.098 614.919 485.665 597.544 503.04C580.169 520.415 570.602 543.514 570.602 568.082C570.602 592.655 580.169 615.754 597.544 633.129C602.279 637.863 607.44 642.009 612.94 645.551C601.607 649.582 590.747 654.999 580.596 661.749C575.299 665.275 573.862 672.426 577.388 677.728C580.909 683.025 588.065 684.462 593.362 680.936C613.883 667.285 637.826 660.066 662.586 660.066C679.487 660.066 695.878 663.374 711.299 669.9C726.206 676.202 739.591 685.228 751.086 696.728C762.586 708.223 771.612 721.608 777.914 736.509C784.435 751.936 787.747 768.327 787.747 785.223V787.389C787.747 788.014 787.237 788.525 786.607 788.525H627.341C620.977 788.525 615.815 793.686 615.815 800.051C615.815 806.415 620.977 811.572 627.341 811.572H786.607C799.945 811.572 810.794 800.723 810.794 787.389V785.223C810.794 765.223 806.872 745.811 799.143 727.53C791.674 709.884 780.992 694.035 767.383 680.431ZM662.591 637.02C644.18 637.02 626.862 629.848 613.841 616.832C600.826 603.811 593.654 586.493 593.654 568.082C593.654 549.671 600.826 532.353 613.841 519.337C626.862 506.316 644.18 499.145 662.591 499.145C681.003 499.145 698.32 506.316 711.336 519.337C724.357 532.353 731.529 549.671 731.529 568.082C731.529 586.493 724.357 603.811 711.336 616.832C698.32 629.853 681.003 637.02 662.591 637.02Z" fill="black"/>
<path d="M150.724 163.254L148.276 165.702L145.828 163.254C136.135 153.561 123.25 148.228 109.536 148.223C95.8333 148.228 82.9427 153.561 73.25 163.254C53.2396 183.264 53.2396 215.822 73.25 235.832L140.13 302.712C142.292 304.868 145.224 306.087 148.276 306.087C151.333 306.087 154.266 304.868 156.427 302.712L223.302 235.832C233 226.139 238.333 213.249 238.333 199.54C238.333 185.832 232.995 172.947 223.302 163.249C203.297 143.243 170.734 143.243 150.724 163.254ZM207.005 219.535L148.276 278.264L89.5417 219.535C78.5208 208.509 78.5208 190.572 89.5417 179.546C94.8802 174.207 101.979 171.264 109.531 171.264C117.089 171.264 124.188 174.207 129.531 179.546L140.125 190.145C144.625 194.645 151.922 194.645 156.422 190.145L167.016 179.546C172.354 174.207 179.458 171.264 187.01 171.264C194.562 171.264 201.661 174.207 207.005 179.546C212.344 184.889 215.286 191.988 215.286 199.54C215.286 207.092 212.349 214.197 207.005 219.535Z" fill="#FC9D08"/>
<mask id="mask0_1436_231" style="mask-type:luminance" maskUnits="userSpaceOnUse" x="10" y="74" width="252" height="372">
<path d="M10.1797 74.668H261.336V445.335H10.1797V74.668Z" fill="white"/>
</mask>
<g mask="url(#mask0_1436_231)">
<path d="M148.281 351.409C157.094 351.409 165.865 350.581 174.464 348.93L226.469 439.388C228.568 443.039 232.427 445.169 236.458 445.169C237.693 445.169 238.948 444.971 240.172 444.555C245.391 442.779 248.615 437.56 247.875 432.102L233.01 322.378C242.568 314.951 251.094 306.315 258.427 296.633C262.271 291.56 261.271 284.336 256.198 280.492C251.125 276.648 243.896 277.643 240.052 282.716C232.74 292.372 223.995 300.779 214.073 307.711C210.531 310.185 208.672 314.43 209.25 318.706L217.141 376.93L190.208 330.081C187.625 325.576 182.344 323.362 177.323 324.669C167.891 327.122 158.12 328.362 148.281 328.362C117.547 328.362 88.651 316.393 66.9219 294.664C45.1875 272.93 33.2188 244.034 33.2188 213.299C33.2188 182.565 45.1875 153.669 66.9219 131.94C88.651 110.206 117.547 98.237 148.281 98.237C164.88 98.237 180.885 101.69 195.859 108.503C210.333 115.081 223.094 124.44 233.786 136.305C238.047 141.034 245.333 141.414 250.062 137.154C254.792 132.893 255.167 125.607 250.906 120.878C238.083 106.648 222.771 95.4245 205.396 87.5234C187.406 79.3464 168.188 75.1953 148.281 75.1953C129.641 75.1953 111.552 78.8516 94.5208 86.0547C78.0729 93.013 63.3021 102.971 50.625 115.648C37.9427 128.326 27.9896 143.096 21.0312 159.544C13.8281 176.576 10.1719 194.664 10.1719 213.305C10.1719 231.94 13.8281 250.029 21.0312 267.065C27.9896 283.513 37.9479 298.284 50.625 310.961C63.3021 323.643 78.0729 333.596 94.5208 340.549C111.557 347.758 129.641 351.409 148.281 351.409Z" fill="#FC9D08"/>
</g>
<path d="M685.513 181.891H690.831C697.195 181.891 702.352 176.729 702.352 170.365C702.352 164.005 697.195 158.844 690.831 158.844H685.513C679.154 158.844 673.992 164.005 673.992 170.365C673.992 176.729 679.154 181.891 685.513 181.891Z" fill="#FC9D08"/>
<path d="M885.144 159.535C878.186 143.087 868.228 128.322 855.551 115.639C842.874 102.962 828.103 93.0039 811.655 86.0508C794.624 78.8424 776.535 75.1914 757.894 75.1914C717.467 75.1914 679.196 92.8268 652.894 123.577C648.759 128.415 649.327 135.686 654.165 139.827C658.999 143.962 666.275 143.395 670.41 138.556C692.327 112.931 724.212 98.2331 757.894 98.2331C788.629 98.2331 817.525 110.202 839.259 131.936C860.988 153.665 872.957 182.561 872.957 213.296C872.957 244.03 860.988 272.926 839.259 294.66C817.525 316.389 788.629 328.358 757.894 328.358C752.66 328.358 747.379 328.004 742.212 327.301C737.566 326.665 733.004 328.91 730.67 332.978L705.4 376.921L712.056 327.77C712.717 322.915 710.228 318.171 705.858 315.952C690.551 308.176 676.931 296.837 666.462 283.165C662.597 278.108 655.363 277.145 650.311 281.014C645.259 284.884 644.29 292.118 648.165 297.171C659.035 311.374 672.749 323.478 688.16 332.525L674.665 432.098C673.926 437.556 677.155 442.775 682.368 444.551C683.592 444.967 684.847 445.165 686.082 445.165C690.113 445.165 693.972 443.04 696.071 439.384L746.894 350.973C750.556 351.259 754.228 351.405 757.889 351.405C776.53 351.405 794.618 347.754 811.65 340.546C828.097 333.592 842.868 323.634 855.545 310.957C868.228 298.28 878.181 283.509 885.139 267.061C892.342 250.025 895.999 231.936 895.999 213.301C895.999 194.66 892.347 176.572 885.144 159.535Z" fill="#FC9D08"/>
<path d="M831.326 181.891C837.69 181.891 842.846 176.729 842.846 170.365C842.846 164.005 837.69 158.844 831.326 158.844H727.201C720.841 158.844 715.68 164.005 715.68 170.365C715.68 176.729 720.841 181.891 727.201 181.891H831.326Z" fill="#FC9D08"/>
<path d="M685.513 224.824H831.331C837.695 224.824 842.852 219.663 842.852 213.298C842.852 206.939 837.695 201.777 831.331 201.777H685.513C679.154 201.777 673.992 206.939 673.992 213.298C673.992 219.663 679.154 224.824 685.513 224.824Z" fill="#FC9D08"/>
<path d="M831.331 244.707H827.534C821.169 244.707 816.008 249.863 816.008 256.228C816.008 262.592 821.169 267.754 827.534 267.754H831.331C837.695 267.754 842.852 262.592 842.852 256.228C842.852 249.863 837.695 244.707 831.331 244.707Z" fill="#FC9D08"/>
<path d="M685.513 267.754H790.242C796.607 267.754 801.768 262.592 801.768 256.228C801.768 249.863 796.607 244.707 790.242 244.707H685.513C679.154 244.707 673.992 249.863 673.992 256.228C673.992 262.592 679.154 267.754 685.513 267.754Z" fill="#FC9D08"/>
<path d="M414.635 298.693H555.948C571.135 298.693 583.49 286.339 583.49 271.151C583.49 266.552 582.359 262.214 580.354 258.401C585.24 253.427 588.255 246.615 588.255 239.115C588.255 234 586.854 229.214 584.417 225.104C588.609 220.271 591.156 213.964 591.156 207.078C591.156 202.859 590.198 198.854 588.495 195.276C593.948 190.245 597.37 183.031 597.37 175.047C597.37 159.859 585.016 147.505 569.828 147.505H506.167C507.167 133.589 507.057 119.568 505.828 105.688C505.526 85.9219 489.354 69.9375 469.521 69.9375C455.438 69.9375 443.974 81.3958 443.974 95.4792V103.896C443.974 114.979 442.625 126.057 439.948 136.818C437.057 148.479 426.646 156.62 414.63 156.62C408.271 156.62 403.109 161.781 403.109 168.141V287.172C403.109 293.531 408.271 298.693 414.635 298.693ZM426.156 178.302C443.682 174.104 457.823 160.49 462.318 142.365C465.443 129.792 467.021 116.844 467.021 103.891V95.474C467.021 94.099 468.141 92.974 469.521 92.974C476.833 92.974 482.786 98.9271 482.786 106.245C482.786 106.594 482.802 106.938 482.839 107.281C484.266 123.083 484.104 139.089 482.359 154.859L482.036 157.755C481.677 161.01 482.719 164.266 484.906 166.708C487.089 169.151 490.214 170.547 493.49 170.547H569.833C572.307 170.547 574.328 172.562 574.328 175.042C574.328 177.521 572.307 179.536 569.833 179.536H563.615C557.25 179.536 552.094 184.698 552.094 191.062C552.094 197.422 557.25 202.583 563.615 202.583C566.094 202.583 568.109 204.599 568.109 207.078C568.109 209.557 566.094 211.573 563.615 211.573H560.714C554.354 211.573 549.193 216.734 549.193 223.099C549.193 229.458 554.354 234.62 560.714 234.62C563.193 234.62 565.208 236.635 565.208 239.115C565.208 241.594 563.193 243.609 560.714 243.609H555.948C549.589 243.609 544.427 248.771 544.427 255.135C544.427 261.5 549.589 266.656 555.948 266.656C558.427 266.656 560.448 268.677 560.448 271.151C560.448 273.63 558.427 275.651 555.948 275.651H426.161V178.302H426.156Z" fill="#FC9D08"/>
<path d="M333.776 298.694H378.391C384.755 298.694 389.911 293.533 389.911 287.168V170.288C389.911 163.923 384.755 158.762 378.391 158.762H333.776C327.411 158.762 322.25 163.923 322.25 170.288V287.168C322.25 293.533 327.411 298.694 333.776 298.694ZM345.297 181.809H366.865V275.642H345.297V181.809Z" fill="#FC9D08"/>
<path d="M265.357 286.27C275.534 309.509 289.747 330.379 307.648 348.379L296.711 450.577C296.227 455.113 298.461 459.504 302.409 461.785C304.195 462.816 306.185 463.327 308.169 463.327C310.56 463.327 312.945 462.582 314.961 461.113L397.221 401.108C415.185 406.16 433.794 408.712 452.628 408.712C480.211 408.712 506.977 403.306 532.174 392.65C556.513 382.358 578.367 367.624 597.128 348.858C615.893 330.098 630.628 308.243 640.919 283.91C651.576 258.707 656.982 231.941 656.982 204.358C656.982 176.775 651.576 150.014 640.919 124.811C630.628 100.473 615.893 78.6237 597.128 59.8581C578.367 41.0977 556.508 26.3633 532.174 16.0716C506.977 5.41016 480.211 0.00390625 452.628 0.00390625C425.044 0.00390625 398.284 5.41016 373.081 16.0716C348.742 26.3633 326.893 41.0977 308.128 59.8581C289.367 78.6237 274.633 100.478 264.336 124.811C253.68 150.014 248.273 176.775 248.273 204.358C248.273 232.837 254.023 260.395 265.357 286.27ZM285.565 133.796C294.695 112.207 307.768 92.8112 324.424 76.1602C341.081 59.5091 360.471 46.431 382.06 37.3008C404.404 27.8477 428.143 23.056 452.628 23.056C477.112 23.056 500.852 27.8477 523.201 37.3008C544.789 46.431 564.18 59.5039 580.831 76.1602C597.487 92.8164 610.56 112.207 619.695 133.796C629.143 156.139 633.935 179.884 633.935 204.363C633.935 228.842 629.143 252.587 619.695 274.931C610.56 296.52 597.487 315.91 580.831 332.566C564.174 349.223 544.789 362.296 523.201 371.426C500.852 380.879 477.112 385.671 452.628 385.671C434.154 385.671 415.935 382.9 398.471 377.447C394.987 376.358 391.195 376.983 388.247 379.134L322.398 427.165L331.159 345.275C331.539 341.712 330.242 338.176 327.648 335.707C310.034 318.936 296.18 299.197 286.466 277.025C276.419 254.082 271.326 229.634 271.326 204.363C271.32 179.879 276.112 156.139 285.565 133.796Z" fill="#FC9D08"/>
</svg>
