<svg width="730" height="730" viewBox="0 0 730 730" fill="none" xmlns="http://www.w3.org/2000/svg">
<mask id="mask0_1432_30" style="mask-type:luminance" maskUnits="userSpaceOnUse" x="0" y="0" width="730" height="730">
<path d="M0 0H729.333V730H0V0Z" fill="white"/>
</mask>
<g mask="url(#mask0_1432_30)">
<path d="M717.56 655.975H700.477V616.116C700.477 609.283 695.919 604.73 689.086 604.73H666.31V569.423C666.31 562.59 661.753 558.038 654.924 558.038H653.784V335.96H654.924C661.753 335.96 666.31 331.408 666.31 324.574V289.267H717.56C724.393 289.267 728.945 284.715 728.945 277.882V227.772C728.945 224.355 726.669 219.798 723.253 217.522L370.211 2.27734C366.794 0.00130207 362.237 0.00130207 358.82 2.27734L5.77865 217.522C2.36198 219.798 0.0859375 223.215 0.0859375 227.772V277.882C0.0859375 284.715 4.64323 289.267 11.4766 289.267H62.7214V324.574C62.7214 331.408 67.2786 335.96 74.112 335.96H75.2474V559.173C68.4141 559.173 63.862 563.73 63.862 570.564V605.866H39.9453C33.112 605.866 28.5547 610.423 28.5547 617.257V655.975H11.4766C4.64323 655.975 0.0859375 660.533 0.0859375 667.366V718.616C0.0859375 725.444 4.64323 730.001 11.4766 730.001H717.56C724.393 730.001 728.945 725.444 728.945 718.616V667.366C728.945 661.673 724.393 655.975 717.56 655.975ZM538.758 604.73V569.423C538.758 562.59 534.206 558.038 527.372 558.038H526.232V335.96H527.372C534.206 335.96 538.758 331.408 538.758 324.574V289.267H570.648V324.574C570.648 331.408 575.201 335.96 582.034 335.96H583.174V559.173H582.034C575.201 559.173 570.648 563.73 570.648 570.564V605.866H538.758V604.73ZM262.018 313.184H211.909V289.267H262.018V313.184ZM225.576 335.96H250.633V559.173H225.576V335.96ZM262.018 580.814V604.73H211.909V580.814H262.018ZM273.409 558.038L272.268 334.824H273.409C280.242 334.824 284.799 330.267 284.799 323.434V288.132H316.685V323.434C316.685 330.267 321.242 334.824 328.076 334.824H329.211V558.038H328.076C321.242 558.038 316.685 562.59 316.685 569.423V604.73H284.799V569.423C284.799 563.73 280.242 558.038 273.409 558.038ZM389.57 580.814V604.73H339.461V580.814H389.57ZM377.044 558.038H351.987V335.96H377.044V558.038ZM389.57 313.184H339.461V289.267H389.57V313.184ZM400.961 558.038L399.82 334.824H400.961C407.794 334.824 412.346 330.267 412.346 323.434V288.132H444.237V323.434C444.237 330.267 448.789 334.824 455.622 334.824H456.763V558.038H455.622C448.789 558.038 444.237 562.59 444.237 569.423V604.73H412.346V569.423C412.346 563.73 406.654 558.038 400.961 558.038ZM515.982 580.814V604.73H465.872V580.814H515.982ZM503.456 558.038H478.398V335.96H503.456V558.038ZM515.982 313.184H465.872V289.267H515.982V313.184ZM642.393 580.814V604.73H592.284V580.814H642.393ZM631.008 558.038H605.951V335.96H631.008V558.038ZM642.393 313.184H592.284V289.267H642.393V313.184ZM22.862 233.465L364.518 26.194L706.169 233.465V266.491H22.862V233.465ZM135.607 289.267V313.184H86.638V289.267H135.607ZM98.0286 335.96H123.081V559.173H98.0286V335.96ZM135.607 580.814V604.73H86.638V580.814H135.607ZM146.997 558.038L145.857 334.824H146.997C153.831 334.824 158.383 330.267 158.383 323.434V288.132H190.273V323.434C190.273 330.267 194.831 334.824 201.664 334.824H202.799V558.038H201.664C194.831 558.038 190.273 562.59 190.273 569.423V604.73H158.383V569.423C158.383 563.73 153.831 558.038 146.997 558.038ZM51.3359 627.507H677.701V655.975H51.3359V627.507ZM706.169 707.225H22.862V678.751H706.169V707.225Z" fill="#FC9D08"/>
</g>
<path d="M74.5 336H97.9392V559.5H74.5V336Z" fill="black"/>
<path d="M123 336H146.439L147 559H123V336Z" fill="black"/>
<path d="M202 337H225.439V559L202.5 558L202 337Z" fill="black"/>
<path d="M250.622 336H272.5L275 559H250L250.622 336Z" fill="black"/>
</svg>
