<svg width="745" height="759" viewBox="0 0 745 759" fill="none" xmlns="http://www.w3.org/2000/svg">
<path d="M168.422 674.322C168.422 675.275 168.328 676.223 168.141 677.16C167.953 678.092 167.677 679.004 167.313 679.884C166.948 680.764 166.5 681.603 165.969 682.4C165.438 683.191 164.839 683.926 164.161 684.603C163.484 685.275 162.75 685.879 161.958 686.41C161.167 686.941 160.328 687.389 159.443 687.754C158.563 688.118 157.656 688.395 156.719 688.582C155.781 688.764 154.833 688.858 153.88 688.858C152.927 688.858 151.979 688.764 151.047 688.582C150.109 688.395 149.198 688.118 148.318 687.754C147.438 687.389 146.599 686.941 145.802 686.41C145.01 685.879 144.276 685.275 143.599 684.603C142.927 683.926 142.323 683.191 141.792 682.4C141.26 681.603 140.812 680.764 140.448 679.884C140.083 679.004 139.807 678.092 139.625 677.16C139.438 676.223 139.344 675.275 139.344 674.322C139.344 673.368 139.438 672.421 139.625 671.483C139.807 670.551 140.083 669.639 140.448 668.759C140.812 667.874 141.26 667.04 141.792 666.243C142.323 665.452 142.927 664.717 143.599 664.04C144.276 663.368 145.01 662.764 145.802 662.233C146.599 661.702 147.438 661.254 148.318 660.889C149.198 660.525 150.109 660.249 151.047 660.061C151.979 659.879 152.927 659.785 153.88 659.785C154.833 659.785 155.781 659.879 156.719 660.061C157.656 660.249 158.563 660.525 159.443 660.889C160.328 661.254 161.167 661.702 161.958 662.233C162.75 662.764 163.484 663.368 164.161 664.04C164.839 664.717 165.438 665.452 165.969 666.243C166.5 667.04 166.948 667.874 167.313 668.759C167.677 669.639 167.953 670.551 168.141 671.483C168.328 672.421 168.422 673.368 168.422 674.322Z" fill="#FC9D08"/>
<path d="M590.023 674.322C590.023 675.275 589.93 676.223 589.742 677.16C589.555 678.092 589.279 679.004 588.914 679.884C588.549 680.764 588.102 681.603 587.57 682.4C587.044 683.191 586.44 683.926 585.763 684.603C585.091 685.275 584.357 685.879 583.56 686.41C582.768 686.941 581.93 687.389 581.049 687.754C580.164 688.118 579.258 688.395 578.32 688.582C577.383 688.764 576.44 688.858 575.482 688.858C574.529 688.858 573.586 688.764 572.648 688.582C571.711 688.395 570.805 688.118 569.919 687.754C569.039 687.389 568.201 686.941 567.409 686.41C566.612 685.879 565.878 685.275 565.206 684.603C564.529 683.926 563.924 683.191 563.398 682.4C562.867 681.603 562.419 680.764 562.055 679.884C561.685 679.004 561.414 678.092 561.227 677.16C561.039 676.223 560.945 675.275 560.945 674.322C560.945 673.368 561.039 672.421 561.227 671.483C561.414 670.551 561.685 669.639 562.055 668.759C562.419 667.874 562.867 667.04 563.398 666.243C563.924 665.452 564.529 664.717 565.206 664.04C565.878 663.368 566.612 662.764 567.409 662.233C568.201 661.702 569.039 661.254 569.919 660.889C570.805 660.525 571.711 660.249 572.648 660.061C573.586 659.879 574.529 659.785 575.482 659.785C576.44 659.785 577.383 659.879 578.32 660.061C579.258 660.249 580.164 660.525 581.049 660.889C581.93 661.254 582.768 661.702 583.56 662.233C584.357 662.764 585.091 663.368 585.763 664.04C586.44 664.717 587.044 665.452 587.57 666.243C588.102 667.04 588.549 667.874 588.914 668.759C589.279 669.639 589.555 670.551 589.742 671.483C589.93 672.421 590.023 673.368 590.023 674.322Z" fill="#FC9D08"/>
<mask id="mask0_1727_72" style="mask-type:luminance" maskUnits="userSpaceOnUse" x="8" y="280" width="728" height="468">
<path d="M8.5 280.668H735.5V747.111H8.5V280.668Z" fill="white"/>
</mask>
<g mask="url(#mask0_1727_72)">
<path d="M720.87 601.632H706.328V441.715C706.328 437.788 704.729 434.152 702.115 431.392L614.885 344.163C612.125 341.548 608.49 339.949 604.563 339.949H473.719V296.335C473.719 288.335 467.177 281.793 459.182 281.793H23.0365C15.0417 281.793 8.5 288.335 8.5 296.335V674.324C8.5 682.319 15.0417 688.861 23.0365 688.861H82.6458C89.4792 722.007 118.844 747.017 153.88 747.017C188.917 747.017 218.286 722.007 225.12 688.861H299.26C307.26 688.861 313.802 682.319 313.802 674.324C313.802 666.329 307.26 659.788 299.26 659.788H225.12C222.938 649.027 218.141 639.142 211.599 630.71H517.771C511.229 639.142 506.432 649.027 504.25 659.788H415.568C407.573 659.788 401.031 666.329 401.031 674.324C401.031 682.319 407.573 688.861 415.568 688.861H504.25C511.083 722.007 540.448 747.017 575.484 747.017C610.521 747.017 639.891 722.007 646.724 688.861H720.87C728.865 688.861 735.406 682.319 735.406 674.324V616.173C735.406 608.178 728.865 601.632 720.87 601.632ZM82.6458 659.788H37.5781V630.71H96.1667C89.625 639.142 84.8229 649.027 82.6458 659.788ZM153.88 717.939C129.891 717.939 110.266 698.314 110.266 674.324C110.266 650.335 129.891 630.71 153.88 630.71C177.87 630.71 197.495 650.335 197.495 674.324C197.495 698.314 177.87 717.939 153.88 717.939ZM444.646 601.632H37.5781V310.871H444.646V601.632ZM575.484 717.939C551.5 717.939 531.875 698.314 531.875 674.324C531.875 650.335 551.5 630.71 575.484 630.71C599.474 630.71 619.099 650.335 619.099 674.324C619.099 698.314 599.474 717.939 575.484 717.939ZM473.719 601.632V369.022H598.604L677.255 447.673V601.632H473.719ZM706.328 659.788H646.724C644.542 649.027 639.745 639.142 633.203 630.71H706.328V659.788Z" fill="#FC9D08"/>
</g>
<path d="M648.177 499.863V465.796C648.177 461.941 646.646 458.243 643.917 455.52L590.75 402.358C588.021 399.629 584.323 398.098 580.469 398.098H517.333C509.307 398.098 502.797 404.608 502.797 412.634V499.863C502.797 507.895 509.307 514.4 517.333 514.4H633.641C641.667 514.4 648.177 507.895 648.177 499.863ZM619.099 485.327H531.875V427.176H574.448L619.099 471.816V485.327Z" fill="#FC9D08"/>
<path d="M371.953 558.017V354.486C371.953 346.454 365.443 339.949 357.417 339.949H124.807C116.776 339.949 110.266 346.454 110.266 354.486V558.017C110.266 566.048 116.776 572.559 124.807 572.559H357.417C365.443 572.559 371.953 566.048 371.953 558.017ZM270.188 369.022V412.637H212.031V369.022H270.188ZM342.875 543.48H139.344V369.022H182.958V427.178C182.958 435.204 189.469 441.715 197.495 441.715H284.724C292.755 441.715 299.26 435.204 299.26 427.178V369.022H342.875V543.48Z" fill="black"/>
<mask id="mask1_1727_72" style="mask-type:luminance" maskUnits="userSpaceOnUse" x="95" y="20" width="322" height="234">
<path d="M95.3359 20.1094H416.669V254H95.3359V20.1094Z" fill="white"/>
</mask>
<g mask="url(#mask1_1727_72)">
<path d="M222.599 223.641H110.271C102.245 223.641 95.7344 230.151 95.7344 238.177C95.7344 246.208 102.245 252.719 110.271 252.719H299.266C363.396 252.719 415.573 200.542 415.573 136.411C415.573 72.2813 363.396 20.1094 299.266 20.1094C235.141 20.1094 182.964 72.2813 182.964 136.411C182.964 171.161 198.359 202.313 222.599 223.641ZM299.266 49.1823C347.37 49.1823 386.495 88.3125 386.495 136.411C386.495 184.51 347.37 223.641 299.266 223.641C251.167 223.641 212.036 184.51 212.036 136.411C212.036 88.3125 251.167 49.1823 299.266 49.1823Z" fill="#FC9D08"/>
</g>
<path d="M318.06 175.767C323.372 181.079 332.799 181.59 338.622 175.767C344.299 170.09 344.299 160.892 338.622 155.21L313.805 130.392V92.7982C313.805 84.7721 307.294 78.2617 299.263 78.2617C291.237 78.2617 284.727 84.7721 284.727 92.7982V136.413C284.727 140.267 286.258 143.965 288.987 146.694C288.987 146.694 318.049 175.757 318.06 175.767Z" fill="#FC9D08"/>
<path d="M37.5807 78.2617H168.424C176.451 78.2617 182.961 71.7513 182.961 63.7253C182.961 55.694 176.451 49.1836 168.424 49.1836H37.5807C29.5495 49.1836 23.0391 55.694 23.0391 63.7253C23.0391 71.7513 29.5495 78.2617 37.5807 78.2617Z" fill="#FC9D08"/>
<path d="M81.1901 136.41H124.805C132.831 136.41 139.341 129.9 139.341 121.874C139.341 113.842 132.831 107.332 124.805 107.332H81.1901C73.1589 107.332 66.6484 113.842 66.6484 121.874C66.6484 129.9 73.1589 136.41 81.1901 136.41Z" fill="#FC9D08"/>
<path d="M81.1901 194.561H153.878C161.909 194.561 168.419 188.056 168.419 180.025C168.419 171.999 161.909 165.488 153.878 165.488H81.1901C73.1589 165.488 66.6484 171.999 66.6484 180.025C66.6484 188.056 73.1589 194.561 81.1901 194.561Z" fill="#FC9D08"/>
<path d="M371.953 674.322C371.953 675.275 371.859 676.223 371.672 677.16C371.49 678.092 371.214 679.004 370.849 679.884C370.479 680.764 370.031 681.603 369.505 682.4C368.974 683.191 368.37 683.926 367.693 684.603C367.021 685.275 366.286 685.879 365.49 686.41C364.698 686.941 363.859 687.389 362.979 687.754C362.099 688.118 361.188 688.395 360.25 688.582C359.313 688.764 358.37 688.858 357.417 688.858C356.458 688.858 355.516 688.764 354.578 688.582C353.641 688.395 352.734 688.118 351.849 687.754C350.969 687.389 350.13 686.941 349.339 686.41C348.547 685.879 347.813 685.275 347.135 684.603C346.458 683.926 345.859 683.191 345.328 682.4C344.797 681.603 344.349 680.764 343.984 679.884C343.62 679.004 343.344 678.092 343.156 677.16C342.969 676.223 342.875 675.275 342.875 674.322C342.875 673.368 342.969 672.421 343.156 671.483C343.344 670.551 343.62 669.639 343.984 668.759C344.349 667.874 344.797 667.04 345.328 666.243C345.859 665.452 346.458 664.717 347.135 664.04C347.813 663.368 348.547 662.764 349.339 662.233C350.13 661.702 350.969 661.254 351.849 660.889C352.734 660.525 353.641 660.249 354.578 660.061C355.516 659.879 356.458 659.785 357.417 659.785C358.37 659.785 359.313 659.879 360.25 660.061C361.188 660.249 362.099 660.525 362.979 660.889C363.859 661.254 364.698 661.702 365.49 662.233C366.286 662.764 367.021 663.368 367.693 664.04C368.37 664.717 368.974 665.452 369.505 666.243C370.031 667.04 370.479 667.874 370.849 668.759C371.214 669.639 371.49 670.551 371.672 671.483C371.859 672.421 371.953 673.368 371.953 674.322Z" fill="#FC9D08"/>
</svg>
