<svg width="408" height="432" viewBox="0 0 408 432" fill="none" xmlns="http://www.w3.org/2000/svg">
<mask id="mask0_1437_163" style="mask-type:luminance" maskUnits="userSpaceOnUse" x="0" y="0" width="408" height="432">
<path d="M0.421875 0H407.422V432H0.421875V0Z" fill="white"/>
</mask>
<g mask="url(#mask0_1437_163)">
<path d="M357.049 0C329.206 0 306.544 22.6563 306.544 50.5052C306.544 62.8385 310.992 74.1458 318.367 82.9219L259.029 144.557C246.872 134.521 231.305 128.479 214.346 128.479C197.388 128.479 181.076 134.823 168.799 145.313L117.086 93.3281C120.143 88.8281 121.924 83.4063 121.924 77.5833C121.924 62.0833 109.326 49.4844 93.8255 49.4844C78.3307 49.4844 65.7266 62.0833 65.7266 77.5833C65.7266 93.0781 78.3307 105.677 93.8255 105.677C99.6068 105.677 104.987 103.922 109.456 100.922L161.174 152.911C150.549 165.224 144.096 181.234 144.096 198.74C144.096 211.635 147.602 223.719 153.695 234.115L68.7318 292.839C61.5339 284.995 51.2161 280.073 39.763 280.073C18.0807 280.073 0.445312 297.714 0.445312 319.391C0.445312 341.073 18.0807 358.714 39.763 358.714C61.4453 358.714 79.0807 341.073 79.0807 319.391C79.0807 313.021 77.5495 307.005 74.8516 301.682L159.82 242.958C171.633 257.495 189.117 267.224 208.878 268.755L208.799 331.313C183.445 333.974 163.612 355.479 163.612 381.531C163.612 409.38 186.268 432.026 214.112 432.026C241.961 432.026 264.617 409.37 264.617 381.531C264.617 355.521 244.857 334.047 219.565 331.333L219.643 268.771C235.096 267.615 249.159 261.448 260.216 251.885L291.034 282.495C288.039 286.958 286.284 292.333 286.284 298.109C286.284 313.604 298.883 326.203 314.378 326.203C329.878 326.203 342.477 313.604 342.477 298.109C342.477 282.609 329.878 270.01 314.378 270.01C308.534 270.01 303.107 271.802 298.607 274.865L267.794 244.26C278.253 231.99 284.586 216.109 284.586 198.755C284.586 181.406 277.841 164.49 266.763 152.068L326.122 90.4219C334.669 97.0729 345.409 101.047 357.049 101.047C384.898 101.047 407.544 78.3854 407.544 50.5417C407.544 22.6927 384.888 0.0364583 357.049 0.0364583V0ZM39.763 347.932C24.0182 347.932 11.2005 335.115 11.2005 319.365C11.2005 303.62 24.0182 290.802 39.763 290.802C55.513 290.802 68.3255 303.62 68.3255 319.365C68.3255 335.115 55.513 347.932 39.763 347.932ZM76.4818 77.5625C76.4818 68 84.263 60.2188 93.8255 60.2188C103.388 60.2188 111.169 68 111.169 77.5625C111.169 87.125 103.388 94.9063 93.8255 94.9063C84.263 94.9063 76.4818 87.125 76.4818 77.5625ZM228.497 185.229C228.497 193.036 222.154 199.385 214.346 199.385C206.539 199.385 200.195 193.036 200.195 185.229V179.63C200.195 171.823 206.539 165.479 214.346 165.479C222.154 165.479 228.497 171.823 228.497 179.63V185.229ZM241.549 237.943V251.589C233.393 255.802 224.143 258.203 214.346 258.203C204.549 258.203 195.299 255.813 187.138 251.589V237.943C187.138 222.938 199.346 210.74 214.346 210.74C229.352 210.74 241.56 222.948 241.56 237.943H241.549ZM196.815 417.281V408.786C196.815 399.25 204.57 391.5 214.107 391.5C223.643 391.5 231.393 399.25 231.393 408.786V417.281C226.159 419.818 220.299 421.245 214.107 421.245C207.914 421.245 202.039 419.818 196.815 417.281ZM222.326 372.12C222.326 376.646 218.638 380.328 214.112 380.328C209.586 380.328 205.904 376.646 205.904 372.12V368.224C205.904 363.698 209.586 360.01 214.112 360.01C218.638 360.01 222.326 363.698 222.326 368.224V372.12ZM253.857 381.505C253.857 392.484 249.372 402.443 242.148 409.641V408.786C242.148 398.516 236.591 389.516 228.331 384.63C231.268 381.292 233.07 376.917 233.07 372.13V368.229C233.07 357.771 224.565 349.266 214.107 349.266C203.648 349.266 195.138 357.771 195.138 368.229V372.13C195.138 376.922 196.94 381.292 199.883 384.63C191.617 389.516 186.06 398.516 186.06 408.786V409.641C178.836 402.443 174.367 392.484 174.367 381.505C174.367 359.589 192.19 341.755 214.112 341.755C236.039 341.755 253.862 359.583 253.862 381.505H253.857ZM314.372 280.719C323.935 280.719 331.711 288.5 331.711 298.063C331.711 307.625 323.935 315.406 314.372 315.406C304.81 315.406 297.029 307.625 297.029 298.063C297.029 288.5 304.81 280.719 314.372 280.719ZM252.305 244.474V237.943C252.305 222.953 243.576 209.969 230.93 203.802C236.039 199.24 239.253 192.609 239.253 185.24V179.641C239.253 165.901 228.081 154.729 214.346 154.729C200.617 154.729 189.44 165.906 189.44 179.641V185.24C189.44 192.609 192.659 199.24 197.768 203.802C185.122 209.969 176.388 222.953 176.388 237.943V244.474C163.253 233.557 154.862 217.094 154.862 198.714C154.862 165.906 181.544 139.224 214.346 139.224C247.148 139.224 273.831 165.906 273.831 198.714C273.831 217.094 265.451 233.547 252.305 244.474ZM339.763 86.2813V77.7865C339.763 68.25 347.513 60.5 357.049 60.5C366.586 60.5 374.341 68.25 374.341 77.7865V86.2813C369.107 88.8177 363.242 90.2448 357.049 90.2448C350.857 90.2448 344.987 88.8177 339.763 86.2813ZM365.263 41.1198C365.263 45.6458 361.576 49.3281 357.049 49.3281C352.523 49.3281 348.841 45.6458 348.841 41.1198V37.224C348.841 32.6979 352.523 29.0104 357.049 29.0104C361.576 29.0104 365.263 32.6979 365.263 37.224V41.1198ZM385.096 78.6406V77.7865C385.096 67.5052 379.539 58.5156 371.273 53.6302C374.216 50.2917 376.018 45.9167 376.018 41.1302V37.2292C376.018 26.7708 367.508 18.2656 357.049 18.2656C346.591 18.2656 338.086 26.7708 338.086 37.2292V41.1302C338.086 45.9271 339.888 50.2969 342.826 53.6302C334.565 58.5156 329.008 67.5156 329.008 77.7865V78.6406C321.784 71.4427 317.31 61.4844 317.31 50.5052C317.31 28.5885 335.138 10.7552 357.06 10.7552C378.982 10.7552 396.799 28.5833 396.799 50.5052C396.799 61.4844 392.32 71.4427 385.102 78.6406H385.096Z" fill="#FC9D08"/>
</g>
</svg>
