<svg width="791" height="870" viewBox="0 0 791 870" fill="none" xmlns="http://www.w3.org/2000/svg">
<path d="M213.076 562.752C211.899 562.752 210.784 562.491 209.732 561.965C208.675 561.439 207.794 560.705 207.091 559.757C205.425 557.575 203.654 555.486 201.768 553.491C198.555 549.976 195.414 546.496 192.581 542.715C192.284 542.325 192.034 541.908 191.82 541.465C191.607 541.022 191.435 540.559 191.315 540.085C191.19 539.611 191.117 539.127 191.091 538.637C191.06 538.142 191.086 537.658 191.154 537.168C191.221 536.684 191.336 536.21 191.503 535.741C191.664 535.278 191.867 534.835 192.117 534.413C192.372 533.991 192.659 533.595 192.987 533.231C193.315 532.866 193.675 532.533 194.07 532.241C194.461 531.944 194.883 531.689 195.326 531.481C195.768 531.267 196.227 531.101 196.701 530.976C197.18 530.856 197.664 530.783 198.154 530.757C198.643 530.731 199.133 530.752 199.617 530.825C200.107 530.892 200.581 531.007 201.044 531.174C201.508 531.335 201.951 531.543 202.372 531.793C202.794 532.049 203.19 532.335 203.555 532.663C203.919 532.996 204.247 533.356 204.544 533.752C207.096 537.153 209.93 540.246 212.763 543.356C214.992 545.726 217.086 548.205 219.05 550.793C219.466 551.345 219.8 551.95 220.05 552.595C220.3 553.246 220.456 553.913 220.518 554.606C220.581 555.299 220.55 555.981 220.419 556.663C220.289 557.345 220.07 557.996 219.763 558.621C219.451 559.241 219.06 559.809 218.596 560.319C218.128 560.83 217.596 561.272 217.008 561.637C216.414 562.002 215.789 562.278 215.122 562.47C214.451 562.658 213.774 562.752 213.076 562.752Z" fill="#FC9D08"/>
<path d="M170.31 502.642C169.622 502.647 168.945 502.553 168.279 502.366C167.617 502.178 166.992 501.908 166.404 501.548C165.815 501.189 165.284 500.757 164.815 500.251C164.346 499.741 163.956 499.184 163.643 498.569C161.518 494.434 159.513 490.246 157.628 485.996C155.742 481.751 153.977 477.454 152.331 473.105C150.69 468.762 149.169 464.371 147.773 459.939C146.378 455.501 145.107 451.033 143.966 446.533C142.82 442.027 141.805 437.491 140.919 432.928C140.034 428.366 139.273 423.783 138.643 419.178C138.018 414.574 137.518 409.954 137.154 405.324C136.784 400.689 136.549 396.053 136.445 391.402C136.341 386.757 136.367 382.111 136.523 377.47C136.68 372.824 136.971 368.189 137.388 363.559C137.81 358.928 138.362 354.319 139.039 349.72C139.721 345.121 140.529 340.548 141.466 335.996C142.409 331.444 143.471 326.923 144.669 322.434C145.862 317.939 147.185 313.486 148.628 309.069C150.076 304.652 151.643 300.283 153.336 295.954C155.029 291.626 156.846 287.345 158.779 283.121C160.711 278.897 162.768 274.73 164.935 270.621C167.107 266.512 169.393 262.465 171.789 258.486C174.19 254.501 176.695 250.595 179.315 246.757C181.935 242.918 184.664 239.152 187.497 235.47C190.326 231.788 193.263 228.184 196.299 224.663C199.336 221.147 202.466 217.715 205.695 214.371C208.924 211.033 212.247 207.783 215.659 204.632C219.076 201.475 222.57 198.418 226.159 195.465C229.742 192.507 233.409 189.652 237.159 186.908C240.904 184.158 244.727 181.517 248.622 178.98C252.518 176.449 256.482 174.027 260.518 171.72C264.549 169.408 268.643 167.215 272.805 165.137C276.961 163.059 281.174 161.1 285.44 159.262C289.706 157.423 294.023 155.704 298.388 154.105C302.753 152.512 307.159 151.038 311.607 149.694C316.055 148.345 320.539 147.126 325.055 146.033C329.57 144.939 334.117 143.975 338.69 143.137C343.258 142.298 347.852 141.595 352.461 141.017C357.076 140.439 361.701 139.991 366.336 139.673C370.971 139.361 375.612 139.173 380.263 139.121C384.909 139.069 389.555 139.147 394.195 139.355C398.836 139.564 403.471 139.902 408.096 140.371C412.716 140.845 417.326 141.444 421.914 142.173C426.503 142.908 431.07 143.767 435.612 144.757C440.154 145.741 444.659 146.861 449.138 148.105C453.617 149.345 458.055 150.715 462.456 152.21C466.857 153.704 471.211 155.324 475.523 157.064C479.831 158.803 484.086 160.663 488.289 162.647C492.497 164.626 496.638 166.725 500.727 168.939C504.81 171.158 508.831 173.486 512.784 175.928C516.737 178.371 520.622 180.923 524.43 183.585C528.237 186.246 531.971 189.012 535.622 191.887C539.279 194.757 542.846 197.73 546.331 200.803C549.815 203.882 553.211 207.048 556.518 210.319C559.826 213.585 563.034 216.939 566.154 220.387C569.268 223.835 572.284 227.366 575.201 230.986C578.117 234.605 580.93 238.303 583.638 242.079C586.346 245.855 588.945 249.71 591.435 253.632C593.924 257.553 596.305 261.548 598.57 265.605C600.831 269.663 602.982 273.783 605.013 277.96C607.044 282.142 608.956 286.376 610.747 290.663C612.544 294.949 614.211 299.288 615.763 303.668C617.31 308.048 618.732 312.47 620.029 316.934C621.326 321.397 622.497 325.892 623.539 330.423C624.586 334.949 625.503 339.507 626.289 344.085C627.07 348.668 627.732 353.267 628.258 357.882C628.784 362.501 629.18 367.126 629.445 371.767C629.706 376.408 629.841 381.053 629.846 385.699C629.878 403.194 628.091 420.496 624.477 437.611C620.867 454.725 615.513 471.277 608.414 487.267C608.216 487.715 607.977 488.142 607.695 488.548C607.414 488.949 607.096 489.324 606.742 489.663C606.388 490.001 606.003 490.303 605.586 490.569C605.169 490.835 604.737 491.053 604.279 491.236C603.82 491.413 603.346 491.543 602.862 491.626C602.378 491.715 601.888 491.751 601.398 491.741C600.909 491.725 600.419 491.668 599.94 491.564C599.461 491.454 598.997 491.303 598.544 491.1C598.096 490.902 597.669 490.663 597.268 490.382C596.867 490.095 596.497 489.777 596.154 489.418C595.815 489.064 595.518 488.678 595.253 488.262C594.992 487.845 594.768 487.408 594.596 486.949C594.419 486.491 594.289 486.022 594.206 485.533C594.122 485.048 594.086 484.564 594.096 484.069C594.112 483.579 594.174 483.095 594.279 482.616C594.388 482.137 594.544 481.668 594.747 481.22C601.419 466.184 606.451 450.616 609.846 434.522C613.242 418.423 614.924 402.152 614.888 385.699C614.878 381.34 614.742 376.991 614.482 372.637C614.227 368.288 613.841 363.949 613.341 359.621C612.836 355.293 612.211 350.98 611.461 346.689C610.716 342.397 609.852 338.126 608.862 333.882C607.872 329.642 606.768 325.428 605.539 321.246C604.315 317.064 602.971 312.918 601.513 308.814C600.055 304.71 598.482 300.647 596.789 296.632C595.102 292.611 593.305 288.647 591.388 284.73C589.477 280.814 587.456 276.96 585.326 273.158C583.195 269.355 580.961 265.616 578.617 261.939C576.279 258.267 573.836 254.658 571.289 251.121C568.747 247.585 566.102 244.121 563.362 240.736C560.622 237.345 557.789 234.038 554.862 230.809C551.935 227.579 548.919 224.439 545.815 221.382C542.711 218.324 539.523 215.355 536.253 212.475C532.982 209.595 529.633 206.814 526.201 204.126C522.773 201.434 519.273 198.845 515.695 196.355C512.122 193.861 508.482 191.475 504.768 189.189C501.06 186.902 497.289 184.72 493.456 182.647C489.622 180.574 485.737 178.611 481.789 176.757C477.846 174.908 473.857 173.163 469.815 171.538C465.773 169.908 461.685 168.392 457.56 166.996C453.435 165.6 449.268 164.319 445.07 163.158C440.872 161.991 436.643 160.949 432.383 160.022C428.122 159.1 423.846 158.298 419.539 157.616C415.237 156.934 410.919 156.371 406.581 155.934C402.247 155.491 397.904 155.178 393.549 154.98C389.195 154.788 384.841 154.72 380.482 154.772C376.128 154.824 371.773 154.996 367.424 155.293C363.081 155.59 358.742 156.012 354.419 156.553C350.096 157.095 345.789 157.762 341.508 158.548C337.221 159.329 332.961 160.236 328.721 161.262C324.487 162.288 320.284 163.434 316.117 164.694C311.945 165.96 307.815 167.34 303.721 168.835C299.628 170.329 295.581 171.939 291.581 173.663C287.576 175.387 283.628 177.225 279.732 179.173C275.831 181.121 271.992 183.173 268.211 185.34C264.424 187.501 260.711 189.772 257.055 192.147C253.398 194.522 249.815 196.996 246.299 199.574C242.789 202.147 239.346 204.819 235.987 207.59C232.622 210.361 229.336 213.225 226.138 216.178C222.935 219.137 219.82 222.178 216.789 225.309C213.758 228.444 210.82 231.658 207.971 234.954C205.122 238.251 202.367 241.626 199.711 245.079C197.049 248.533 194.492 252.053 192.034 255.652C189.57 259.251 187.216 262.913 184.966 266.642C182.711 270.371 180.565 274.163 178.529 278.017C176.487 281.866 174.56 285.772 172.742 289.73C170.924 293.694 169.216 297.699 167.628 301.757C166.034 305.814 164.555 309.913 163.195 314.048C161.836 318.189 160.591 322.366 159.466 326.574C158.341 330.783 157.336 335.022 156.451 339.288C155.565 343.553 154.799 347.84 154.154 352.152C153.508 356.46 152.987 360.788 152.586 365.126C152.185 369.465 151.909 373.809 151.753 378.168C151.602 382.522 151.57 386.876 151.659 391.23C151.753 395.59 151.966 399.939 152.299 404.283C152.638 408.626 153.096 412.96 153.674 417.277C154.258 421.595 154.961 425.897 155.784 430.173C156.607 434.454 157.549 438.704 158.612 442.934C159.68 447.158 160.857 451.35 162.159 455.512C163.461 459.668 164.878 463.788 166.409 467.866C167.94 471.944 169.586 475.98 171.346 479.965C173.107 483.949 174.977 487.882 176.961 491.767C177.107 492.048 177.232 492.34 177.341 492.642C177.451 492.939 177.534 493.246 177.607 493.559C177.674 493.866 177.721 494.184 177.753 494.501C177.779 494.814 177.789 495.132 177.773 495.454C177.763 495.772 177.732 496.085 177.68 496.402C177.628 496.715 177.555 497.027 177.461 497.329C177.367 497.637 177.258 497.934 177.128 498.225C176.997 498.517 176.852 498.798 176.685 499.069C176.518 499.34 176.336 499.6 176.133 499.85C175.935 500.095 175.721 500.329 175.492 500.553C175.263 500.772 175.018 500.98 174.763 501.168C174.508 501.361 174.242 501.533 173.961 501.689C173.685 501.845 173.398 501.98 173.102 502.1C172.81 502.22 172.508 502.319 172.195 502.402C171.888 502.48 171.576 502.543 171.263 502.585C170.945 502.621 170.628 502.642 170.31 502.642Z" fill="#FC9D08"/>
<path d="M251.499 701.819C251.009 701.819 250.525 701.772 250.04 701.678C249.561 701.585 249.092 701.439 248.639 701.251C248.186 701.064 247.754 700.835 247.348 700.564C246.936 700.288 246.561 699.98 246.212 699.632C245.863 699.283 245.556 698.908 245.28 698.501C245.009 698.09 244.78 697.658 244.592 697.204C244.405 696.751 244.264 696.283 244.165 695.803C244.072 695.319 244.025 694.835 244.025 694.345V672.819C244.113 660.871 243.129 649.012 241.077 637.241C239.02 625.47 235.926 613.975 231.796 602.767C231.618 602.309 231.493 601.835 231.41 601.35C231.332 600.866 231.301 600.376 231.316 599.887C231.332 599.397 231.395 598.908 231.504 598.434C231.613 597.954 231.775 597.491 231.973 597.043C232.176 596.595 232.421 596.173 232.707 595.772C232.993 595.371 233.316 595.007 233.676 594.668C234.035 594.335 234.421 594.033 234.837 593.777C235.254 593.517 235.697 593.298 236.155 593.126C236.613 592.954 237.087 592.829 237.572 592.746C238.056 592.668 238.546 592.637 239.035 592.652C239.525 592.673 240.009 592.736 240.488 592.845C240.967 592.96 241.431 593.116 241.879 593.319C242.327 593.522 242.749 593.767 243.145 594.059C243.546 594.345 243.91 594.668 244.249 595.027C244.582 595.387 244.879 595.772 245.139 596.189C245.395 596.611 245.613 597.048 245.785 597.507C250.238 609.559 253.572 621.913 255.79 634.564C258.009 647.22 259.072 659.97 258.978 672.819V694.345C258.978 694.835 258.931 695.319 258.837 695.803C258.738 696.283 258.598 696.751 258.41 697.204C258.223 697.658 257.993 698.09 257.717 698.501C257.447 698.908 257.134 699.288 256.79 699.632C256.441 699.98 256.066 700.288 255.655 700.564C255.249 700.835 254.816 701.064 254.363 701.251C253.91 701.439 253.441 701.585 252.962 701.678C252.478 701.772 251.993 701.819 251.499 701.819Z" fill="#FC9D08"/>
<path d="M434.508 526.255C433.399 526.26 432.341 526.021 431.336 525.552C430.331 525.083 429.477 524.422 428.763 523.568L413.789 505.62C412.419 503.896 410.873 502.359 409.133 501.01C407.399 499.656 405.529 498.531 403.524 497.63C401.513 496.729 399.43 496.073 397.268 495.672C395.107 495.271 392.925 495.13 390.727 495.255C385.518 495.635 380.305 495.682 375.091 495.385C372.925 495.26 370.779 495.396 368.643 495.781C366.513 496.172 364.456 496.807 362.477 497.688C360.498 498.568 358.649 499.667 356.93 500.99C355.211 502.313 353.675 503.818 352.315 505.505L337.331 523.453C336.763 524.125 336.096 524.682 335.336 525.125C334.57 525.563 333.758 525.859 332.888 526.01C332.024 526.167 331.154 526.167 330.284 526.016C329.419 525.865 328.602 525.568 327.836 525.13L285.612 500.599C284.857 500.162 284.195 499.604 283.633 498.932C283.07 498.266 282.638 497.516 282.341 496.698C282.039 495.875 281.888 495.026 281.888 494.151C281.883 493.276 282.029 492.427 282.326 491.604L290.206 469.641C291.003 467.625 291.555 465.547 291.857 463.406C292.159 461.26 292.206 459.115 291.998 456.958C291.789 454.807 291.336 452.703 290.628 450.662C289.919 448.615 288.982 446.682 287.815 444.854C284.846 440.396 282.237 435.729 279.982 430.865C278.987 428.927 277.784 427.13 276.362 425.474C274.945 423.823 273.352 422.354 271.591 421.073C269.826 419.792 267.935 418.734 265.925 417.901C263.909 417.068 261.831 416.474 259.675 416.13L236.685 412.13C235.815 411.979 234.998 411.688 234.237 411.245C233.471 410.807 232.805 410.25 232.237 409.573C231.675 408.901 231.237 408.151 230.94 407.318C230.638 406.49 230.487 405.635 230.492 404.755L230.623 355.802C230.628 354.927 230.779 354.083 231.076 353.26C231.378 352.438 231.805 351.688 232.367 351.021C232.93 350.349 233.591 349.792 234.346 349.354C235.102 348.911 235.914 348.615 236.774 348.458L259.628 344.328C261.784 344 263.878 343.427 265.899 342.604C267.925 341.781 269.826 340.734 271.596 339.464C273.373 338.193 274.977 336.729 276.404 335.078C277.836 333.427 279.055 331.63 280.06 329.693C281.044 327.604 282.18 325.443 283.32 323.281C285.32 319.995 286.602 317.969 287.982 315.953C289.149 314.115 290.086 312.167 290.8 310.109C291.508 308.047 291.977 305.938 292.19 303.771C292.409 301.604 292.373 299.438 292.081 297.281C291.794 295.125 291.258 293.026 290.477 290.995L282.586 269C282.289 268.177 282.143 267.323 282.143 266.448C282.149 265.568 282.3 264.719 282.602 263.896C282.909 263.073 283.341 262.328 283.904 261.656C284.471 260.984 285.133 260.427 285.893 259.99L328.248 235.573C329.013 235.135 329.826 234.844 330.695 234.693C331.56 234.542 332.425 234.547 333.294 234.698C334.159 234.854 334.971 235.151 335.732 235.594C336.492 236.036 337.154 236.594 337.721 237.266L352.695 255.214C354.06 256.922 355.602 258.448 357.331 259.792C359.055 261.13 360.914 262.255 362.904 263.156C364.899 264.057 366.966 264.714 369.112 265.125C371.258 265.531 373.425 265.688 375.607 265.583C380.93 265.151 386.248 265.156 391.57 265.599C393.721 265.635 395.852 265.438 397.956 265C400.065 264.563 402.096 263.901 404.055 263.01C406.013 262.12 407.846 261.021 409.565 259.724C411.279 258.422 412.826 256.948 414.211 255.302L429.164 237.516C429.727 236.839 430.388 236.276 431.149 235.833C431.909 235.396 432.727 235.094 433.591 234.943C434.461 234.792 435.326 234.792 436.19 234.948C437.06 235.104 437.873 235.406 438.628 235.854L480.857 260.255C481.617 260.693 482.279 261.25 482.846 261.922C483.409 262.594 483.841 263.344 484.143 264.167C484.445 264.995 484.596 265.844 484.591 266.724C484.591 267.604 484.44 268.453 484.143 269.281L476.138 291.229C475.362 293.245 474.826 295.323 474.529 297.458C474.237 299.599 474.195 301.745 474.404 303.896C474.612 306.047 475.06 308.141 475.763 310.188C476.461 312.229 477.383 314.167 478.534 315.995C481.414 320.427 484.029 325.005 486.383 329.74C487.367 331.698 488.565 333.516 489.977 335.193C491.388 336.87 492.977 338.359 494.742 339.661C496.508 340.964 498.404 342.042 500.419 342.901C502.44 343.755 504.534 344.359 506.695 344.724H506.711L529.831 348.854C530.695 349.01 531.508 349.307 532.268 349.75C533.024 350.188 533.69 350.745 534.253 351.422C534.815 352.094 535.248 352.844 535.544 353.672C535.846 354.5 535.992 355.349 535.992 356.229L535.862 405.167C535.857 406.042 535.706 406.896 535.404 407.724C535.102 408.547 534.669 409.297 534.102 409.969C533.539 410.641 532.873 411.193 532.112 411.63C531.346 412.068 530.534 412.359 529.669 412.51L506.68 416.51C504.539 416.854 502.461 417.438 500.456 418.266C498.451 419.094 496.565 420.141 494.805 421.412C493.044 422.682 491.456 424.141 490.039 425.787C488.623 427.432 487.414 429.219 486.419 431.146C485.352 433.453 484.076 435.849 482.664 438.245C481.461 440.391 480.06 442.635 478.503 444.901C477.326 446.74 476.378 448.693 475.659 450.755C474.935 452.818 474.466 454.938 474.237 457.109C474.013 459.281 474.039 461.453 474.32 463.62C474.602 465.787 475.133 467.891 475.904 469.932L483.883 491.823C484.185 492.646 484.336 493.5 484.336 494.38C484.336 495.26 484.185 496.115 483.883 496.938C483.581 497.766 483.149 498.516 482.581 499.193C482.018 499.865 481.352 500.422 480.591 500.859L438.237 525.266C437.081 525.927 435.841 526.255 434.508 526.255ZM392.367 480.24C395.518 480.276 398.628 480.656 401.701 481.375C404.768 482.089 407.727 483.13 410.565 484.495C413.409 485.859 416.07 487.516 418.55 489.464C421.029 491.412 423.268 493.604 425.268 496.042L436.221 509.156L467.68 491.031L461.836 474.984C460.664 471.828 459.873 468.578 459.461 465.24C459.055 461.896 459.039 458.552 459.414 455.208C459.789 451.859 460.55 448.604 461.69 445.438C462.831 442.271 464.32 439.276 466.164 436.458C467.471 434.547 468.638 432.677 469.706 430.797C470.93 428.693 471.992 426.703 472.925 424.703C474.44 421.703 476.279 418.922 478.451 416.354C480.623 413.787 483.06 411.51 485.768 409.516C488.477 407.526 491.378 405.88 494.477 404.573C497.576 403.266 500.779 402.339 504.096 401.792L520.919 398.854L521.024 362.464L504.081 359.443C500.763 358.875 497.56 357.932 494.466 356.615C491.373 355.292 488.471 353.63 485.768 351.625C483.065 349.62 480.633 347.328 478.471 344.75C476.31 342.172 474.477 339.38 472.977 336.37C470.909 332.208 468.617 328.188 466.091 324.292C464.289 321.49 462.841 318.521 461.737 315.38C460.633 312.24 459.904 309.01 459.555 305.703C459.206 302.391 459.248 299.083 459.669 295.786C460.096 292.484 460.899 289.276 462.076 286.161L467.945 270.052L436.576 251.932L425.638 264.943C423.503 267.49 421.102 269.766 418.445 271.766C415.789 273.766 412.94 275.438 409.899 276.786C406.857 278.135 403.706 279.125 400.44 279.755C397.175 280.38 393.878 280.635 390.555 280.51C385.94 280.167 381.331 280.161 376.716 280.495C373.346 280.693 370.003 280.495 366.68 279.896C363.357 279.297 360.154 278.313 357.065 276.948C353.977 275.583 351.091 273.875 348.414 271.818C345.737 269.766 343.336 267.422 341.216 264.797L330.263 251.682L298.768 269.833L304.539 285.896C305.716 289.042 306.513 292.276 306.935 295.609C307.352 298.943 307.383 302.276 307.018 305.615C306.654 308.948 305.914 312.198 304.789 315.365C303.664 318.526 302.19 321.516 300.362 324.333C299.034 326.26 297.878 328.115 296.727 329.958C295.508 332.234 294.471 334.193 293.544 336.161C292.024 339.172 290.175 341.964 287.992 344.531C285.815 347.104 283.362 349.385 280.643 351.375C277.919 353.365 275.003 355.005 271.893 356.302C268.779 357.599 265.56 358.516 262.232 359.047L245.56 362.068L245.461 398.49L262.237 401.411C265.57 401.964 268.794 402.896 271.904 404.208C275.013 405.521 277.93 407.182 280.649 409.188C283.362 411.193 285.81 413.49 287.982 416.073C290.154 418.662 291.998 421.464 293.508 424.484C295.445 428.682 297.701 432.708 300.258 436.563C302.081 439.359 303.55 442.333 304.664 445.479C305.779 448.63 306.508 451.865 306.857 455.182C307.201 458.505 307.154 461.818 306.716 465.13C306.279 468.438 305.456 471.651 304.253 474.766L298.508 490.797L329.893 509.026L340.831 495.927C342.956 493.354 345.346 491.057 348.008 489.047C350.669 487.037 353.529 485.354 356.581 484.016C359.638 482.672 362.805 481.698 366.086 481.099C369.367 480.5 372.675 480.287 376.008 480.458C380.55 480.75 385.086 480.708 389.617 480.344C390.534 480.271 391.451 480.24 392.367 480.24ZM378.091 425.74C374.133 425.74 370.242 425.219 366.419 424.177C362.602 423.135 358.987 421.615 355.57 419.609C351.43 417.177 347.758 414.182 344.55 410.609C341.341 407.042 338.753 403.068 336.779 398.693C335.367 395.443 334.346 392.068 333.721 388.573C333.102 385.083 332.888 381.568 333.086 378.026C333.284 374.484 333.883 371.01 334.893 367.609C335.904 364.208 337.289 360.969 339.055 357.891C339.768 356.667 340.539 355.474 341.362 354.318C342.19 353.161 343.065 352.047 343.998 350.969C344.93 349.896 345.909 348.87 346.935 347.891C347.966 346.911 349.039 345.979 350.154 345.099C351.268 344.219 352.425 343.396 353.617 342.625C354.81 341.854 356.039 341.146 357.3 340.49C358.56 339.833 359.852 339.24 361.169 338.708C362.487 338.177 363.826 337.708 365.185 337.302C366.55 336.896 367.925 336.557 369.32 336.281C370.716 336.005 372.117 335.797 373.534 335.651C374.945 335.51 376.362 335.432 377.784 335.422C379.206 335.417 380.623 335.474 382.039 335.599C383.451 335.724 384.857 335.911 386.258 336.172C387.654 336.427 389.034 336.75 390.404 337.141C391.768 337.526 393.112 337.979 394.44 338.495C395.763 339.01 397.06 339.589 398.331 340.224C399.596 340.865 400.836 341.557 402.039 342.313C403.242 343.068 404.409 343.88 405.534 344.745C406.664 345.609 407.748 346.526 408.789 347.495C409.826 348.458 410.82 349.474 411.763 350.536C412.711 351.594 413.602 352.698 414.445 353.844C415.284 354.99 416.07 356.172 416.8 357.391C417.529 358.615 418.195 359.865 418.805 361.146C419.419 362.427 419.966 363.74 420.451 365.073C420.94 366.406 421.362 367.76 421.721 369.135C422.081 370.51 422.373 371.901 422.602 373.302C422.831 374.703 422.992 376.115 423.086 377.531C423.18 378.953 423.206 380.37 423.169 381.792C423.128 383.208 423.024 384.625 422.846 386.036C422.675 387.448 422.435 388.844 422.133 390.234C421.826 391.62 421.456 392.99 421.018 394.344C420.586 395.698 420.086 397.026 419.529 398.328L419.471 398.448L417.529 402.578C416.55 404.328 415.461 406 414.263 407.604C413.065 409.203 411.768 410.719 410.367 412.151C408.966 413.578 407.477 414.912 405.904 416.141C404.326 417.375 402.675 418.495 400.951 419.51C399.227 420.526 397.44 421.417 395.596 422.193C393.753 422.974 391.867 423.625 389.935 424.151C388.003 424.677 386.05 425.073 384.065 425.339C382.081 425.604 380.091 425.74 378.091 425.74ZM378.055 350.297C375.414 350.302 372.815 350.651 370.263 351.339C367.716 352.026 365.294 353.031 363.008 354.354C360.721 355.677 358.649 357.271 356.779 359.141C354.909 361.005 353.315 363.083 351.992 365.37C350.815 367.427 349.888 369.589 349.216 371.865C348.539 374.135 348.133 376.453 348.003 378.818C347.867 381.188 348.008 383.536 348.419 385.87C348.831 388.203 349.508 390.458 350.445 392.635C351.784 395.578 353.539 398.25 355.701 400.651C357.867 403.052 360.341 405.073 363.128 406.714C364.831 407.708 366.617 408.526 368.482 409.167C370.346 409.807 372.258 410.255 374.216 410.516C376.169 410.781 378.133 410.844 380.102 410.714C382.07 410.583 384.008 410.266 385.909 409.75C387.826 409.24 389.675 408.547 391.456 407.677C393.237 406.802 394.914 405.76 396.487 404.557C398.065 403.349 399.508 402 400.815 400.51C402.123 399.021 403.274 397.417 404.268 395.703L405.852 392.271C406.091 391.698 406.31 391.12 406.513 390.536C406.716 389.953 406.904 389.359 407.07 388.766C407.237 388.167 407.388 387.568 407.518 386.964C407.649 386.354 407.758 385.75 407.852 385.135C407.945 384.521 408.018 383.911 408.07 383.292C408.128 382.677 408.164 382.057 408.18 381.438C408.201 380.818 408.195 380.203 408.175 379.583C408.154 378.964 408.117 378.344 408.06 377.729C407.998 377.115 407.925 376.5 407.826 375.885C407.732 375.276 407.617 374.667 407.482 374.063C407.346 373.458 407.195 372.859 407.029 372.266C406.857 371.667 406.669 371.078 406.461 370.495C406.253 369.911 406.029 369.333 405.789 368.766C405.55 368.193 405.289 367.63 405.013 367.078C404.737 366.526 404.445 365.979 404.133 365.443C403.826 364.906 403.498 364.38 403.159 363.865C402.815 363.349 402.456 362.844 402.086 362.349C401.711 361.854 401.326 361.37 400.919 360.901C400.518 360.432 400.102 359.974 399.669 359.526C399.242 359.083 398.8 358.651 398.341 358.234C397.883 357.818 397.414 357.411 396.935 357.026C396.451 356.635 395.956 356.26 395.456 355.901C394.951 355.542 394.435 355.198 393.909 354.875C393.383 354.547 392.846 354.234 392.305 353.943C391.758 353.646 391.206 353.37 390.643 353.109C390.081 352.849 389.513 352.604 388.935 352.38C388.357 352.156 387.774 351.948 387.185 351.755C386.596 351.568 386.003 351.396 385.404 351.245C384.805 351.089 384.201 350.953 383.591 350.839C382.982 350.724 382.373 350.625 381.758 350.547C381.143 350.469 380.529 350.406 379.909 350.365C379.289 350.323 378.675 350.302 378.055 350.297Z" fill="black"/>
<path d="M456.073 752.52H245.667C244.657 752.52 243.646 752.467 242.636 752.368C241.625 752.27 240.625 752.118 239.631 751.921C238.636 751.723 237.657 751.473 236.688 751.181C235.719 750.884 234.766 750.54 233.828 750.155C232.891 749.764 231.98 749.332 231.084 748.853C230.188 748.374 229.323 747.853 228.48 747.29C227.636 746.728 226.823 746.124 226.042 745.483C225.256 744.837 224.506 744.16 223.792 743.441C223.073 742.723 222.396 741.973 221.75 741.191C221.11 740.41 220.506 739.592 219.943 738.754C219.381 737.91 218.86 737.04 218.381 736.15C217.901 735.254 217.469 734.337 217.084 733.405C216.693 732.467 216.349 731.514 216.058 730.546C215.761 729.577 215.516 728.592 215.318 727.598C215.12 726.603 214.969 725.603 214.87 724.598C214.766 723.587 214.719 722.577 214.719 721.561V717.967C214.714 716.952 214.766 715.941 214.86 714.931C214.959 713.921 215.11 712.915 215.302 711.915C215.5 710.921 215.745 709.936 216.042 708.962C216.334 707.993 216.672 707.035 217.058 706.098C217.448 705.155 217.881 704.238 218.355 703.342C218.834 702.447 219.355 701.572 219.917 700.728C220.48 699.884 221.084 699.066 221.724 698.28C222.365 697.493 223.047 696.738 223.761 696.02C224.48 695.301 225.23 694.613 226.011 693.967C226.797 693.322 227.61 692.717 228.453 692.15C229.297 691.582 230.167 691.056 231.058 690.577C231.953 690.098 232.87 689.66 233.808 689.264C234.745 688.874 235.698 688.53 236.667 688.233C237.641 687.936 238.625 687.686 239.62 687.483C240.615 687.28 241.62 687.129 242.631 687.025C243.641 686.921 244.651 686.868 245.667 686.863H439.177C439.672 686.863 440.157 686.91 440.636 687.009C441.12 687.103 441.589 687.243 442.042 687.431C442.495 687.624 442.927 687.853 443.334 688.124C443.74 688.4 444.12 688.707 444.464 689.056C444.813 689.4 445.125 689.78 445.396 690.186C445.667 690.598 445.901 691.025 446.089 691.478C446.276 691.936 446.417 692.4 446.511 692.884C446.61 693.363 446.657 693.853 446.657 694.342C446.657 694.832 446.61 695.316 446.511 695.801C446.417 696.28 446.276 696.749 446.089 697.202C445.901 697.655 445.667 698.087 445.396 698.493C445.125 698.905 444.813 699.28 444.464 699.629C444.12 699.978 443.74 700.285 443.334 700.556C442.927 700.832 442.495 701.061 442.042 701.249C441.589 701.436 441.12 701.577 440.636 701.676C440.157 701.77 439.672 701.816 439.177 701.816H245.667C244.615 701.827 243.568 701.931 242.537 702.145C241.5 702.358 240.5 702.665 239.526 703.077C238.552 703.483 237.631 703.983 236.756 704.577C235.881 705.165 235.073 705.837 234.328 706.587C233.589 707.337 232.922 708.15 232.344 709.03C231.761 709.91 231.271 710.837 230.87 711.816C230.469 712.79 230.167 713.796 229.969 714.832C229.766 715.868 229.667 716.915 229.672 717.967V721.561C229.672 722.613 229.776 723.655 229.98 724.681C230.188 725.712 230.49 726.712 230.891 727.681C231.297 728.655 231.787 729.577 232.37 730.447C232.953 731.322 233.62 732.129 234.36 732.874C235.105 733.613 235.912 734.28 236.782 734.863C237.657 735.447 238.578 735.941 239.547 736.342C240.516 736.743 241.516 737.051 242.547 737.254C243.578 737.462 244.62 737.566 245.667 737.566H456.073C456.568 737.566 457.052 737.613 457.532 737.712C458.016 737.806 458.485 737.947 458.938 738.139C459.391 738.327 459.823 738.556 460.23 738.827C460.636 739.103 461.016 739.41 461.365 739.759C461.709 740.103 462.021 740.483 462.292 740.889C462.563 741.301 462.797 741.728 462.985 742.181C463.172 742.639 463.313 743.103 463.407 743.587C463.506 744.066 463.552 744.556 463.552 745.046C463.552 745.535 463.506 746.02 463.407 746.504C463.313 746.983 463.172 747.452 462.985 747.905C462.797 748.358 462.563 748.79 462.292 749.197C462.021 749.608 461.709 749.983 461.365 750.332C461.016 750.681 460.636 750.988 460.23 751.259C459.823 751.535 459.391 751.764 458.938 751.952C458.485 752.139 458.016 752.28 457.532 752.379C457.052 752.473 456.568 752.52 456.073 752.52Z" fill="#FC9D08"/>
<path d="M496.743 803.212H269.748C268.732 803.207 267.717 803.155 266.706 803.051C265.696 802.947 264.69 802.796 263.696 802.592C262.701 802.389 261.717 802.145 260.748 801.842C259.774 801.546 258.821 801.202 257.883 800.811C256.946 800.421 256.029 799.983 255.133 799.499C254.243 799.02 253.373 798.493 252.529 797.926C251.685 797.363 250.873 796.754 250.086 796.108C249.305 795.462 248.555 794.78 247.836 794.056C247.118 793.337 246.44 792.582 245.8 791.796C245.154 791.009 244.55 790.197 243.987 789.348C243.425 788.504 242.904 787.629 242.43 786.733C241.951 785.837 241.519 784.921 241.133 783.978C240.743 783.04 240.404 782.087 240.112 781.113C239.815 780.139 239.571 779.155 239.378 778.16C239.18 777.16 239.034 776.155 238.935 775.145C238.836 774.134 238.784 773.118 238.789 772.103V768.514C238.789 767.499 238.842 766.488 238.94 765.478C239.039 764.473 239.19 763.473 239.388 762.478C239.592 761.483 239.836 760.504 240.133 759.53C240.425 758.561 240.769 757.608 241.159 756.676C241.545 755.738 241.977 754.822 242.456 753.931C242.935 753.035 243.456 752.171 244.019 751.327C244.581 750.483 245.185 749.671 245.831 748.889C246.472 748.108 247.154 747.358 247.868 746.639C248.586 745.926 249.336 745.243 250.118 744.603C250.904 743.957 251.717 743.353 252.56 742.79C253.399 742.228 254.269 741.707 255.164 741.233C256.055 740.754 256.972 740.322 257.909 739.931C258.842 739.546 259.795 739.202 260.769 738.905C261.737 738.613 262.717 738.368 263.711 738.165C264.706 737.967 265.706 737.822 266.717 737.717C267.722 737.618 268.732 737.566 269.748 737.566C270.237 737.566 270.722 737.613 271.206 737.712C271.685 737.806 272.154 737.947 272.607 738.139C273.06 738.327 273.493 738.556 273.899 738.827C274.31 739.103 274.685 739.41 275.034 739.759C275.383 740.103 275.69 740.483 275.961 740.889C276.237 741.301 276.467 741.728 276.654 742.181C276.842 742.639 276.982 743.103 277.081 743.587C277.175 744.066 277.222 744.556 277.222 745.046C277.222 745.535 277.175 746.02 277.081 746.504C276.982 746.983 276.842 747.452 276.654 747.905C276.467 748.358 276.237 748.79 275.961 749.197C275.69 749.608 275.383 749.983 275.034 750.332C274.685 750.681 274.31 750.988 273.899 751.259C273.493 751.535 273.06 751.764 272.607 751.952C272.154 752.139 271.685 752.28 271.206 752.379C270.722 752.473 270.237 752.52 269.748 752.52C268.696 752.525 267.659 752.624 266.628 752.832C265.597 753.035 264.597 753.337 263.628 753.738C262.654 754.145 261.732 754.634 260.862 755.217C259.987 755.801 259.18 756.462 258.435 757.207C257.696 757.947 257.029 758.754 256.446 759.629C255.862 760.504 255.368 761.426 254.967 762.395C254.565 763.363 254.258 764.363 254.055 765.395C253.847 766.421 253.743 767.462 253.743 768.514V772.103C253.737 773.16 253.836 774.207 254.039 775.243C254.243 776.28 254.539 777.285 254.94 778.259C255.342 779.238 255.831 780.165 256.414 781.046C256.998 781.926 257.659 782.743 258.404 783.493C259.149 784.238 259.956 784.91 260.831 785.504C261.706 786.092 262.628 786.592 263.602 786.999C264.576 787.41 265.581 787.717 266.612 787.931C267.649 788.145 268.69 788.249 269.748 788.254H496.743C497.237 788.165 497.737 788.118 498.243 788.118C498.743 788.118 499.243 788.171 499.737 788.264C500.232 788.363 500.711 788.504 501.18 788.691C501.644 788.879 502.092 789.108 502.513 789.384C502.935 789.655 503.331 789.967 503.69 790.311C504.055 790.66 504.383 791.04 504.675 791.452C504.967 791.858 505.222 792.296 505.43 792.749C505.638 793.207 505.805 793.681 505.92 794.171C506.034 794.639 506.102 795.113 506.123 795.598C506.138 796.077 506.112 796.556 506.034 797.035C505.956 797.509 505.831 797.973 505.659 798.426C505.493 798.879 505.279 799.306 505.019 799.717C504.763 800.124 504.472 800.504 504.138 800.853C503.805 801.202 503.44 801.514 503.045 801.79C502.649 802.066 502.232 802.301 501.789 802.493C501.347 802.686 500.888 802.832 500.414 802.931C499.201 803.145 497.977 803.233 496.743 803.212Z" fill="#FC9D08"/>
<mask id="mask0_1434_152" style="mask-type:luminance" maskUnits="userSpaceOnUse" x="316" y="788" width="134" height="62">
<path d="M316 788H449.333V850H316V788Z" fill="white"/>
</mask>
<g mask="url(#mask0_1434_152)">
<path d="M426.846 850.469H339.659C338.924 850.469 338.19 850.432 337.461 850.359C336.732 850.286 336.003 850.177 335.284 850.031C334.565 849.891 333.852 849.708 333.148 849.495C332.445 849.281 331.758 849.036 331.081 848.755C330.398 848.474 329.737 848.161 329.091 847.813C328.44 847.469 327.815 847.089 327.201 846.682C326.591 846.271 326.003 845.833 325.435 845.37C324.867 844.901 324.326 844.411 323.805 843.891C323.284 843.37 322.794 842.828 322.326 842.26C321.862 841.693 321.424 841.104 321.018 840.495C320.607 839.885 320.232 839.255 319.883 838.609C319.539 837.958 319.221 837.297 318.94 836.62C318.659 835.938 318.414 835.25 318.201 834.547C317.987 833.844 317.805 833.13 317.664 832.411C317.518 831.693 317.409 830.969 317.336 830.234C317.268 829.505 317.227 828.771 317.227 828.036V795.661C317.227 795.172 317.279 794.687 317.372 794.203C317.466 793.724 317.612 793.255 317.799 792.802C317.987 792.349 318.216 791.917 318.487 791.51C318.763 791.099 319.07 790.724 319.419 790.375C319.763 790.026 320.143 789.719 320.549 789.448C320.961 789.172 321.388 788.943 321.846 788.755C322.299 788.568 322.763 788.427 323.247 788.328C323.727 788.234 324.216 788.188 324.706 788.188C325.195 788.188 325.685 788.234 326.164 788.328C326.643 788.427 327.112 788.568 327.565 788.755C328.018 788.943 328.451 789.172 328.857 789.448C329.268 789.719 329.643 790.026 329.992 790.375C330.341 790.724 330.648 791.099 330.924 791.51C331.195 791.917 331.424 792.349 331.612 792.802C331.799 793.255 331.945 793.724 332.039 794.203C332.133 794.687 332.18 795.172 332.18 795.661V828.036C332.185 828.526 332.232 829.016 332.326 829.495C332.424 829.979 332.565 830.443 332.753 830.896C332.94 831.349 333.174 831.781 333.445 832.188C333.716 832.599 334.029 832.974 334.372 833.323C334.721 833.667 335.102 833.979 335.508 834.25C335.914 834.526 336.346 834.755 336.799 834.943C337.253 835.13 337.721 835.271 338.201 835.37C338.685 835.464 339.169 835.516 339.659 835.516H426.852C427.341 835.516 427.826 835.464 428.31 835.37C428.789 835.271 429.258 835.13 429.711 834.943C430.164 834.755 430.591 834.526 431.003 834.25C431.409 833.979 431.789 833.667 432.133 833.323C432.482 832.974 432.789 832.599 433.065 832.188C433.336 831.781 433.565 831.349 433.753 830.896C433.945 830.443 434.086 829.979 434.18 829.495C434.279 829.016 434.326 828.526 434.326 828.036V795.661C434.326 795.172 434.372 794.687 434.471 794.203C434.565 793.724 434.706 793.255 434.893 792.802C435.086 792.349 435.315 791.917 435.586 791.51C435.857 791.099 436.169 790.724 436.518 790.375C436.862 790.026 437.242 789.719 437.648 789.448C438.06 789.172 438.487 788.943 438.94 788.755C439.393 788.568 439.862 788.427 440.346 788.328C440.826 788.234 441.31 788.188 441.805 788.188C442.294 788.188 442.779 788.234 443.263 788.328C443.742 788.427 444.211 788.568 444.664 788.755C445.117 788.943 445.549 789.172 445.956 789.448C446.367 789.719 446.742 790.026 447.091 790.375C447.44 790.724 447.747 791.099 448.018 791.51C448.294 791.917 448.523 792.349 448.711 792.802C448.898 793.255 449.039 793.724 449.138 794.203C449.232 794.687 449.279 795.172 449.279 795.661V828.036C449.279 828.771 449.242 829.505 449.169 830.234C449.096 830.969 448.987 831.693 448.846 832.411C448.701 833.13 448.523 833.844 448.31 834.547C448.096 835.25 447.846 835.938 447.565 836.62C447.284 837.297 446.971 837.958 446.622 838.609C446.279 839.255 445.898 839.885 445.492 840.495C445.086 841.104 444.648 841.693 444.18 842.26C443.716 842.828 443.221 843.375 442.706 843.891C442.185 844.411 441.638 844.906 441.07 845.37C440.503 845.833 439.914 846.271 439.305 846.682C438.695 847.089 438.065 847.469 437.419 847.813C436.768 848.161 436.107 848.474 435.43 848.755C434.753 849.036 434.06 849.281 433.357 849.5C432.654 849.714 431.945 849.891 431.221 850.031C430.503 850.177 429.779 850.286 429.044 850.359C428.315 850.432 427.581 850.469 426.846 850.469Z" fill="#FC9D08"/>
</g>
<mask id="mask1_1434_152" style="mask-type:luminance" maskUnits="userSpaceOnUse" x="10" y="412" width="70" height="16">
<path d="M10.2891 412H80.0026V428H10.2891V412Z" fill="white"/>
</mask>
<g mask="url(#mask1_1434_152)">
<path d="M71.9193 427.957H17.8255C17.3359 427.957 16.8516 427.91 16.3672 427.816C15.888 427.717 15.4193 427.577 14.9661 427.389C14.513 427.202 14.0807 426.973 13.6745 426.697C13.263 426.426 12.888 426.118 12.5391 425.77C12.1953 425.421 11.8828 425.046 11.612 424.634C11.3359 424.228 11.1068 423.796 10.9193 423.342C10.7318 422.889 10.5911 422.421 10.4922 421.941C10.3984 421.457 10.3516 420.973 10.3516 420.483C10.3516 419.993 10.3984 419.504 10.4922 419.025C10.5911 418.54 10.7318 418.077 10.9193 417.618C11.1068 417.165 11.3359 416.738 11.612 416.327C11.8828 415.921 12.1953 415.54 12.5391 415.197C12.888 414.848 13.263 414.54 13.6745 414.264C14.0807 413.993 14.513 413.764 14.9661 413.577C15.4193 413.384 15.888 413.243 16.3672 413.15C16.8516 413.051 17.3359 413.004 17.8255 413.004H71.9193C72.4089 413.004 72.8932 413.051 73.3776 413.15C73.8568 413.243 74.3255 413.384 74.7786 413.572C75.2318 413.764 75.6641 413.993 76.0703 414.264C76.4818 414.54 76.8568 414.848 77.2057 415.197C77.5547 415.54 77.862 415.921 78.1328 416.327C78.4089 416.738 78.638 417.165 78.8255 417.618C79.013 418.077 79.1536 418.54 79.2526 419.025C79.3464 419.504 79.3932 419.993 79.3932 420.483C79.3932 420.973 79.3464 421.457 79.2526 421.941C79.1536 422.421 79.013 422.889 78.8255 423.342C78.638 423.796 78.4089 424.228 78.1328 424.634C77.862 425.046 77.5547 425.421 77.2057 425.77C76.8568 426.118 76.4818 426.426 76.0703 426.697C75.6641 426.973 75.2318 427.202 74.7786 427.389C74.3255 427.577 73.8568 427.717 73.3776 427.816C72.8932 427.91 72.4089 427.957 71.9193 427.957Z" fill="#FC9D08"/>
</g>
<path d="M87.1576 326.599C86.3295 326.599 85.517 326.458 84.7357 326.187L33.2878 308.578C32.819 308.417 32.3763 308.219 31.9493 307.974C31.5222 307.724 31.1263 307.443 30.7565 307.114C30.3868 306.792 30.0482 306.432 29.7513 306.042C29.4545 305.651 29.194 305.239 28.9753 304.797C28.7618 304.354 28.5899 303.896 28.4649 303.422C28.3347 302.948 28.2565 302.463 28.2253 301.974C28.194 301.479 28.2149 300.989 28.2774 300.505C28.3451 300.016 28.4545 299.542 28.6159 299.078C28.7774 298.609 28.9805 298.167 29.2253 297.739C29.4753 297.318 29.7618 296.917 30.0847 296.552C30.4128 296.182 30.7722 295.849 31.1628 295.552C31.5534 295.255 31.9701 294.995 32.4128 294.781C32.8555 294.568 33.3138 294.396 33.7878 294.271C34.267 294.146 34.7461 294.068 35.2409 294.042C35.7305 294.01 36.2201 294.031 36.7045 294.099C37.194 294.167 37.668 294.281 38.1315 294.443L89.5795 312.052C90.418 312.338 91.1836 312.76 91.8711 313.318C92.5586 313.875 93.1263 314.536 93.5795 315.292C94.0326 316.052 94.3451 316.87 94.5065 317.739C94.6732 318.609 94.6784 319.479 94.5326 320.354C94.3868 321.224 94.1003 322.047 93.6628 322.818C93.2253 323.583 92.668 324.255 91.9909 324.828C91.3138 325.401 90.5638 325.838 89.7305 326.141C88.9024 326.448 88.043 326.599 87.1576 326.599Z" fill="#FC9D08"/>
<path d="M131.361 235.168C129.678 235.168 128.163 234.658 126.829 233.632L83.069 200.132C82.6784 199.835 82.319 199.501 81.9961 199.132C81.6732 198.762 81.3868 198.366 81.142 197.944C80.8972 197.517 80.694 197.074 80.5326 196.611C80.3763 196.142 80.267 195.668 80.1993 195.184C80.1368 194.694 80.1159 194.204 80.1472 193.715C80.1784 193.225 80.2618 192.746 80.3868 192.272C80.5118 191.793 80.6836 191.34 80.8972 190.897C81.1159 190.454 81.3711 190.043 81.6732 189.652C81.9701 189.262 82.3034 188.902 82.6732 188.579C83.0378 188.257 83.4336 187.97 83.8607 187.725C84.2826 187.475 84.7305 187.272 85.194 187.116C85.6576 186.954 86.1315 186.845 86.6211 186.777C87.1055 186.715 87.5951 186.694 88.0847 186.725C88.5743 186.757 89.0586 186.835 89.5326 186.965C90.0065 187.09 90.4649 187.262 90.9024 187.475C91.3451 187.689 91.7618 187.949 92.1524 188.246L135.913 221.746C136.533 222.22 137.064 222.783 137.512 223.423C137.954 224.064 138.293 224.762 138.522 225.507C138.746 226.257 138.856 227.022 138.845 227.803C138.829 228.585 138.699 229.345 138.449 230.09C138.199 230.829 137.84 231.512 137.376 232.142C136.908 232.767 136.356 233.309 135.72 233.767C135.085 234.22 134.397 234.569 133.652 234.809C132.908 235.048 132.142 235.168 131.361 235.168Z" fill="#FC9D08"/>
<path d="M200.258 162.583C199.024 162.588 197.868 162.301 196.774 161.734C195.685 161.161 194.795 160.369 194.092 159.359L162.295 113.254C162.019 112.848 161.779 112.421 161.586 111.973C161.394 111.52 161.243 111.056 161.144 110.577C161.039 110.098 160.987 109.614 160.977 109.119C160.972 108.629 161.013 108.145 161.102 107.661C161.191 107.181 161.326 106.708 161.508 106.254C161.685 105.796 161.909 105.364 162.175 104.952C162.446 104.541 162.748 104.161 163.092 103.806C163.43 103.452 163.805 103.14 164.206 102.859C164.612 102.583 165.039 102.343 165.487 102.15C165.941 101.958 166.404 101.806 166.883 101.702C167.362 101.598 167.847 101.546 168.336 101.536C168.831 101.53 169.316 101.567 169.8 101.655C170.279 101.744 170.753 101.879 171.206 102.062C171.664 102.239 172.097 102.463 172.508 102.728C172.92 102.994 173.305 103.296 173.659 103.64C174.008 103.978 174.326 104.353 174.607 104.754L206.404 150.859C206.685 151.265 206.92 151.692 207.112 152.14C207.31 152.593 207.456 153.056 207.56 153.536C207.664 154.015 207.717 154.504 207.727 154.994C207.732 155.484 207.691 155.973 207.602 156.452C207.513 156.937 207.378 157.405 207.196 157.864C207.019 158.317 206.795 158.754 206.524 159.166C206.258 159.577 205.956 159.958 205.612 160.312C205.269 160.661 204.894 160.978 204.493 161.254C203.222 162.145 201.81 162.588 200.258 162.583Z" fill="#FC9D08"/>
<path d="M287.042 115.999C286.24 115.999 285.464 115.874 284.704 115.624C283.943 115.374 283.24 115.014 282.6 114.54C281.959 114.067 281.402 113.504 280.938 112.848C280.48 112.197 280.131 111.494 279.891 110.728L263.178 56.5196C263.037 56.0509 262.938 55.5717 262.891 55.0821C262.839 54.5978 262.839 54.1082 262.886 53.6186C262.933 53.1342 263.027 52.6551 263.167 52.1811C263.308 51.7123 263.495 51.2644 263.725 50.8269C263.954 50.3946 264.225 49.9884 264.532 49.6082C264.844 49.228 265.188 48.8842 265.563 48.5717C265.943 48.2592 266.344 47.9832 266.777 47.7488C267.209 47.5196 267.657 47.3269 268.126 47.1863C268.594 47.0405 269.074 46.9415 269.563 46.8894C270.048 46.8426 270.537 46.8373 271.027 46.8842C271.516 46.9311 271.995 47.0196 272.464 47.1603C272.933 47.3009 273.386 47.4832 273.818 47.7123C274.256 47.9415 274.662 48.2123 275.042 48.5196C275.423 48.8269 275.772 49.1707 276.084 49.5509C276.397 49.9259 276.673 50.3321 276.907 50.7592C277.141 51.1915 277.329 51.6394 277.475 52.1082L294.188 106.317C294.334 106.785 294.433 107.264 294.48 107.754C294.532 108.244 294.532 108.728 294.485 109.218C294.438 109.707 294.344 110.186 294.204 110.655C294.068 111.129 293.881 111.577 293.652 112.014C293.423 112.447 293.152 112.853 292.844 113.233C292.532 113.619 292.188 113.962 291.813 114.275C291.433 114.587 291.027 114.863 290.594 115.098C290.167 115.332 289.714 115.52 289.245 115.665C288.527 115.889 287.792 116.004 287.042 115.999Z" fill="#FC9D08"/>
<path d="M383.253 99.9531C382.758 99.9531 382.273 99.9063 381.789 99.8073C381.31 99.7135 380.841 99.5729 380.388 99.3854C379.935 99.1979 379.503 98.9635 379.096 98.6927C378.685 98.4219 378.31 98.1094 377.961 97.7604C377.617 97.4167 377.305 97.0365 377.034 96.6302C376.758 96.2188 376.529 95.7917 376.341 95.3385C376.154 94.8802 376.013 94.4167 375.914 93.9323C375.82 93.4531 375.773 92.9635 375.773 92.474V35.4792C375.773 34.9844 375.82 34.5 375.919 34.0208C376.013 33.5365 376.154 33.0677 376.341 32.6146C376.529 32.1615 376.758 31.7292 377.034 31.3229C377.305 30.9167 377.617 30.5365 377.961 30.1875C378.31 29.8437 378.69 29.5313 379.096 29.2604C379.503 28.9896 379.935 28.7552 380.388 28.5677C380.841 28.3802 381.31 28.2396 381.789 28.1458C382.273 28.0469 382.758 28 383.253 28C383.742 28 384.227 28.0469 384.711 28.1458C385.19 28.2396 385.659 28.3802 386.112 28.5677C386.565 28.7552 386.997 28.9896 387.404 29.2604C387.81 29.5313 388.19 29.8437 388.539 30.1875C388.883 30.5365 389.195 30.9167 389.466 31.3229C389.742 31.7292 389.971 32.1615 390.159 32.6146C390.346 33.0677 390.487 33.5365 390.586 34.0208C390.68 34.5 390.727 34.9844 390.727 35.4792V92.474C390.727 92.9635 390.68 93.4531 390.586 93.9323C390.487 94.4167 390.346 94.8802 390.159 95.3385C389.971 95.7917 389.742 96.2188 389.466 96.6302C389.195 97.0365 388.888 97.4167 388.539 97.7604C388.19 98.1094 387.815 98.4219 387.404 98.6927C386.997 98.9635 386.565 99.1979 386.112 99.3854C385.659 99.5729 385.19 99.7135 384.711 99.8073C384.227 99.9063 383.742 99.9531 383.253 99.9531Z" fill="#FC9D08"/>
<path d="M479.451 115.999C478.701 116.004 477.962 115.89 477.248 115.666C476.78 115.52 476.326 115.332 475.894 115.098C475.462 114.864 475.061 114.588 474.681 114.275C474.3 113.963 473.957 113.619 473.649 113.234C473.342 112.853 473.071 112.447 472.842 112.015C472.613 111.577 472.425 111.129 472.29 110.655C472.149 110.187 472.056 109.707 472.009 109.218C471.962 108.728 471.967 108.244 472.019 107.754C472.066 107.265 472.165 106.786 472.311 106.317L489.03 52.1241C489.17 51.6502 489.358 51.197 489.587 50.7648C489.816 50.3273 490.087 49.921 490.399 49.5408C490.712 49.1606 491.061 48.8116 491.441 48.5043C491.821 48.1918 492.233 47.921 492.665 47.6918C493.102 47.4627 493.556 47.2752 494.03 47.1345C494.498 46.9991 494.983 46.9054 495.472 46.8637C495.962 46.822 496.451 46.8273 496.941 46.8793C497.431 46.9366 497.91 47.0356 498.378 47.1866C498.847 47.3325 499.295 47.52 499.727 47.7543C500.16 47.9887 500.566 48.2648 500.941 48.5773C501.321 48.8898 501.665 49.2335 501.972 49.6189C502.285 49.9991 502.55 50.4054 502.785 50.8377C503.014 51.2752 503.196 51.7231 503.337 52.197C503.477 52.6658 503.571 53.145 503.613 53.6345C503.66 54.1241 503.66 54.6085 503.608 55.0981C503.556 55.5877 503.457 56.0668 503.316 56.5356L486.592 110.728C486.358 111.494 486.009 112.197 485.545 112.853C485.087 113.504 484.535 114.067 483.889 114.541C483.248 115.015 482.545 115.374 481.79 115.624C481.03 115.874 480.248 115.999 479.451 115.999Z" fill="#FC9D08"/>
<path d="M566.227 162.585C564.675 162.59 563.264 162.148 561.993 161.257C561.586 160.981 561.217 160.663 560.873 160.314C560.529 159.96 560.227 159.58 559.956 159.168C559.691 158.757 559.467 158.319 559.284 157.866C559.102 157.408 558.967 156.939 558.878 156.455C558.79 155.976 558.753 155.486 558.758 154.997C558.764 154.507 558.821 154.017 558.925 153.538C559.024 153.059 559.175 152.596 559.368 152.142C559.566 151.694 559.8 151.267 560.081 150.861L591.878 104.757C592.159 104.356 592.472 103.981 592.826 103.642C593.18 103.304 593.56 102.997 593.972 102.731C594.389 102.471 594.821 102.247 595.279 102.064C595.732 101.887 596.201 101.752 596.685 101.663C597.165 101.575 597.654 101.538 598.144 101.543C598.633 101.554 599.118 101.606 599.597 101.71C600.076 101.814 600.545 101.965 600.993 102.158C601.441 102.351 601.868 102.59 602.274 102.866C602.675 103.148 603.05 103.46 603.389 103.814C603.732 104.163 604.034 104.549 604.3 104.96C604.571 105.372 604.795 105.804 604.972 106.257C605.154 106.715 605.29 107.184 605.378 107.668C605.467 108.148 605.508 108.632 605.503 109.127C605.498 109.616 605.441 110.101 605.336 110.58C605.237 111.059 605.092 111.523 604.894 111.976C604.701 112.424 604.467 112.851 604.191 113.257L572.389 159.361C571.691 160.372 570.795 161.163 569.706 161.736C568.618 162.304 567.456 162.59 566.227 162.585Z" fill="#FC9D08"/>
<path d="M635.121 235.167C634.34 235.167 633.58 235.047 632.835 234.807C632.09 234.568 631.397 234.219 630.762 233.766C630.126 233.307 629.574 232.766 629.111 232.141C628.647 231.51 628.288 230.828 628.038 230.089C627.783 229.344 627.653 228.583 627.642 227.802C627.626 227.021 627.736 226.255 627.965 225.505C628.189 224.76 628.528 224.063 628.975 223.422C629.418 222.781 629.955 222.219 630.574 221.745L674.335 188.245C674.725 187.948 675.137 187.693 675.58 187.474C676.022 187.26 676.475 187.089 676.955 186.964C677.429 186.839 677.908 186.76 678.397 186.729C678.887 186.698 679.376 186.719 679.861 186.781C680.35 186.849 680.824 186.958 681.288 187.12C681.751 187.276 682.194 187.479 682.621 187.729C683.043 187.974 683.439 188.26 683.809 188.583C684.179 188.906 684.512 189.266 684.809 189.656C685.106 190.042 685.361 190.458 685.58 190.901C685.793 191.339 685.965 191.797 686.09 192.271C686.22 192.745 686.298 193.229 686.33 193.719C686.361 194.208 686.345 194.693 686.278 195.182C686.215 195.667 686.106 196.141 685.944 196.604C685.788 197.073 685.585 197.516 685.34 197.943C685.095 198.365 684.809 198.76 684.486 199.13C684.163 199.5 683.804 199.833 683.418 200.13L639.658 233.63C638.319 234.656 636.809 235.167 635.121 235.167Z" fill="#FC9D08"/>
<path d="M679.326 326.599C678.441 326.599 677.581 326.448 676.748 326.141C675.92 325.838 675.165 325.401 674.493 324.828C673.816 324.255 673.258 323.583 672.821 322.818C672.383 322.047 672.092 321.224 671.946 320.354C671.8 319.479 671.81 318.609 671.977 317.739C672.139 316.87 672.446 316.052 672.899 315.292C673.357 314.536 673.925 313.875 674.613 313.318C675.3 312.76 676.06 312.338 676.899 312.052L728.347 294.443C728.81 294.281 729.29 294.167 729.774 294.099C730.264 294.031 730.753 294.01 731.243 294.042C731.732 294.068 732.217 294.146 732.691 294.271C733.17 294.396 733.628 294.568 734.071 294.781C734.514 294.995 734.93 295.255 735.321 295.552C735.711 295.849 736.071 296.182 736.394 296.552C736.722 296.917 737.008 297.318 737.258 297.739C737.503 298.167 737.706 298.609 737.868 299.078C738.024 299.542 738.139 300.016 738.206 300.505C738.269 300.989 738.284 301.479 738.253 301.974C738.227 302.463 738.144 302.948 738.019 303.422C737.894 303.896 737.722 304.354 737.503 304.797C737.29 305.239 737.029 305.651 736.732 306.042C736.43 306.432 736.097 306.792 735.727 307.114C735.357 307.443 734.961 307.724 734.534 307.974C734.107 308.219 733.665 308.417 733.196 308.578L681.748 326.187C680.961 326.458 680.154 326.599 679.326 326.599Z" fill="#FC9D08"/>
<mask id="mask2_1434_152" style="mask-type:luminance" maskUnits="userSpaceOnUse" x="686" y="412" width="72" height="16">
<path d="M686.664 412H757.284V428H686.664V412Z" fill="white"/>
</mask>
<g mask="url(#mask2_1434_152)">
<path d="M748.669 427.957H694.576C694.086 427.957 693.602 427.91 693.117 427.816C692.638 427.717 692.169 427.577 691.716 427.389C691.263 427.202 690.831 426.973 690.424 426.697C690.013 426.426 689.638 426.118 689.289 425.77C688.94 425.421 688.633 425.046 688.362 424.634C688.086 424.228 687.857 423.796 687.669 423.342C687.482 422.889 687.341 422.421 687.242 421.941C687.148 421.457 687.102 420.973 687.102 420.483C687.102 419.993 687.148 419.504 687.242 419.025C687.341 418.54 687.482 418.077 687.669 417.618C687.857 417.165 688.086 416.738 688.362 416.327C688.633 415.921 688.94 415.54 689.289 415.197C689.638 414.848 690.013 414.54 690.424 414.264C690.831 413.993 691.263 413.764 691.716 413.577C692.169 413.384 692.638 413.243 693.117 413.15C693.602 413.051 694.086 413.004 694.576 413.004H748.669C749.159 413.004 749.643 413.051 750.128 413.15C750.607 413.243 751.076 413.384 751.529 413.572C751.982 413.764 752.414 413.993 752.82 414.264C753.232 414.54 753.607 414.848 753.956 415.197C754.305 415.54 754.612 415.921 754.883 416.327C755.159 416.738 755.388 417.165 755.576 417.618C755.763 418.077 755.904 418.54 756.003 419.025C756.096 419.504 756.143 419.993 756.143 420.483C756.143 420.973 756.096 421.457 756.003 421.941C755.904 422.421 755.763 422.889 755.576 423.342C755.388 423.796 755.159 424.228 754.883 424.634C754.612 425.046 754.305 425.421 753.956 425.77C753.607 426.118 753.232 426.426 752.82 426.697C752.414 426.973 751.982 427.202 751.529 427.389C751.076 427.577 750.607 427.717 750.128 427.816C749.643 427.91 749.159 427.957 748.669 427.957Z" fill="#FC9D08"/>
</g>
<path d="M594.544 775.699C589.206 775.694 583.888 775.376 578.586 774.736C573.284 774.1 568.044 773.152 562.857 771.887C557.669 770.626 552.576 769.059 547.576 767.189C542.576 765.319 537.701 763.163 532.956 760.715C528.216 758.262 523.633 755.543 519.216 752.548C514.794 749.548 510.57 746.303 506.539 742.803C502.503 739.309 498.695 735.579 495.107 731.626C491.518 727.678 488.174 723.522 485.081 719.173C486.242 721.814 487.492 724.408 488.841 726.954C490.19 729.507 491.628 732.001 493.154 734.449C494.68 736.892 496.294 739.277 497.992 741.605C499.695 743.934 501.477 746.199 503.341 748.397C505.206 750.6 507.143 752.725 509.164 754.788C511.18 756.845 513.273 758.829 515.435 760.736C517.596 762.642 519.82 764.47 522.117 766.22C524.409 767.965 526.763 769.626 529.18 771.199C531.591 772.777 534.06 774.267 536.581 775.663C539.102 777.059 541.669 778.366 544.284 779.579C546.904 780.788 549.56 781.908 552.253 782.923C554.951 783.944 557.68 784.866 560.445 785.689C563.206 786.512 565.997 787.23 568.81 787.85C571.628 788.475 574.461 788.991 577.315 789.408C580.169 789.824 583.034 790.132 585.909 790.34C588.784 790.548 591.664 790.652 594.544 790.652C597.43 790.652 600.305 790.548 603.18 790.34C606.06 790.132 608.919 789.824 611.773 789.408C614.628 788.991 617.461 788.475 620.279 787.85C623.091 787.23 625.883 786.512 628.643 785.689C631.409 784.866 634.138 783.944 636.836 782.923C639.529 781.908 642.185 780.788 644.805 779.579C647.419 778.366 649.987 777.059 652.508 775.663C655.029 774.267 657.497 772.777 659.914 771.199C662.326 769.626 664.68 767.965 666.971 766.22C669.268 764.47 671.492 762.642 673.654 760.736C675.815 758.829 677.909 756.845 679.924 754.788C681.945 752.725 683.883 750.6 685.747 748.397C687.612 746.199 689.393 743.934 691.096 741.605C692.794 739.277 694.409 736.892 695.935 734.449C697.466 732.001 698.904 729.507 700.247 726.954C701.596 724.408 702.846 721.814 704.008 719.173C700.909 723.517 697.56 727.663 693.971 731.611C690.378 735.559 686.565 739.277 682.529 742.772C678.497 746.267 674.268 749.512 669.852 752.507C665.43 755.496 660.852 758.215 656.107 760.668C651.367 763.116 646.497 765.272 641.497 767.147C636.497 769.017 631.409 770.585 626.221 771.85C621.039 773.116 615.794 774.069 610.497 774.715C605.201 775.361 599.883 775.689 594.544 775.699ZM594.544 521.48C592.586 521.48 590.628 521.533 588.674 521.626C586.721 521.725 584.768 521.866 582.82 522.059C580.872 522.251 578.93 522.491 576.992 522.777C575.055 523.064 573.128 523.397 571.206 523.783C569.284 524.163 567.378 524.59 565.477 525.069C563.576 525.543 561.69 526.064 559.815 526.632C557.945 527.204 556.086 527.814 554.242 528.475C552.398 529.137 550.57 529.84 548.763 530.59C546.956 531.34 545.164 532.132 543.393 532.97C541.628 533.803 539.878 534.684 538.148 535.611C536.424 536.533 534.721 537.496 533.039 538.501C531.362 539.512 529.711 540.559 528.081 541.642C526.451 542.73 524.852 543.861 523.279 545.027C521.706 546.194 520.164 547.397 518.648 548.637C517.138 549.882 515.654 551.158 514.206 552.475C512.753 553.788 511.336 555.137 509.951 556.522C508.57 557.908 507.216 559.324 505.904 560.772C504.586 562.225 503.31 563.71 502.07 565.22C500.826 566.736 499.622 568.277 498.456 569.85C497.289 571.423 496.164 573.022 495.076 574.652C493.987 576.277 492.94 577.934 491.935 579.611C490.924 581.293 489.961 582.996 489.039 584.72C488.117 586.449 487.237 588.194 486.398 589.965C485.56 591.736 484.768 593.522 484.018 595.335C483.268 597.142 482.565 598.97 481.904 600.814C481.247 602.658 480.633 604.512 480.065 606.387C479.497 608.262 478.971 610.147 478.497 612.048C478.023 613.944 477.591 615.855 477.211 617.777C476.831 619.694 476.497 621.626 476.206 623.559C475.919 625.496 475.68 627.439 475.487 629.387C475.299 631.335 475.154 633.288 475.055 635.246C474.961 637.199 474.914 639.158 474.914 641.116C474.914 643.074 474.961 645.027 475.055 646.986C475.154 648.939 475.299 650.892 475.487 652.84C475.68 654.788 475.919 656.73 476.206 658.668C476.497 660.605 476.831 662.533 477.211 664.454C477.591 666.371 478.023 668.283 478.497 670.184C478.971 672.079 479.497 673.97 480.065 675.84C480.633 677.715 481.247 679.574 481.904 681.418C482.565 683.262 483.268 685.085 484.018 686.897C484.768 688.704 485.56 690.491 486.398 692.262C487.237 694.033 488.117 695.783 489.039 697.507C489.961 699.236 490.924 700.939 491.935 702.616C492.94 704.298 493.987 705.949 495.076 707.579C496.164 709.204 497.289 710.809 498.456 712.376C499.622 713.949 500.826 715.496 502.07 717.007C503.31 718.522 504.586 720.001 505.904 721.454C507.216 722.902 508.57 724.324 509.951 725.704C511.336 727.09 512.753 728.439 514.206 729.757C515.654 731.069 517.138 732.35 518.648 733.59C520.164 734.835 521.706 736.038 523.279 737.204C524.852 738.371 526.451 739.496 528.081 740.585C529.711 741.673 531.362 742.72 533.039 743.725C534.721 744.73 536.424 745.699 538.148 746.621C539.878 747.543 541.628 748.423 543.393 749.262C545.164 750.095 546.956 750.892 548.763 751.642C550.57 752.387 552.398 753.095 554.242 753.751C556.086 754.413 557.945 755.027 559.815 755.595C561.69 756.163 563.576 756.684 565.477 757.163C567.378 757.637 569.284 758.064 571.206 758.449C573.128 758.829 575.055 759.163 576.992 759.449C578.93 759.741 580.872 759.98 582.82 760.168C584.768 760.361 586.721 760.507 588.674 760.6C590.628 760.699 592.586 760.746 594.544 760.746C596.503 760.746 598.461 760.699 600.414 760.6C602.372 760.507 604.32 760.361 606.268 760.168C608.221 759.98 610.164 759.741 612.096 759.449C614.034 759.163 615.961 758.829 617.883 758.449C619.805 758.064 621.711 757.637 623.612 757.163C625.513 756.684 627.398 756.163 629.273 755.595C631.143 755.027 633.003 754.413 634.846 753.751C636.69 753.095 638.518 752.387 640.326 751.642C642.133 750.892 643.924 750.095 645.695 749.262C647.466 748.423 649.211 747.543 650.94 746.621C652.664 745.699 654.367 744.73 656.049 743.725C657.727 742.72 659.383 741.673 661.008 740.585C662.638 739.496 664.237 738.371 665.81 737.204C667.383 736.038 668.924 734.835 670.44 733.59C671.951 732.35 673.435 731.069 674.883 729.757C676.336 728.439 677.753 727.09 679.138 725.704C680.523 724.324 681.872 722.902 683.185 721.454C684.503 720.001 685.779 718.522 687.023 717.007C688.263 715.496 689.466 713.949 690.633 712.382C691.799 710.809 692.924 709.204 694.013 707.579C695.102 705.949 696.148 704.298 697.154 702.616C698.164 700.939 699.128 699.236 700.049 697.507C700.971 695.783 701.852 694.033 702.69 692.262C703.529 690.491 704.32 688.704 705.07 686.897C705.82 685.085 706.523 683.262 707.185 681.418C707.841 679.574 708.456 677.715 709.023 675.84C709.591 673.97 710.117 672.079 710.591 670.184C711.065 668.283 711.497 666.371 711.878 664.454C712.258 662.533 712.596 660.605 712.883 658.668C713.169 656.73 713.409 654.788 713.602 652.84C713.794 650.892 713.935 648.939 714.034 646.986C714.128 645.027 714.174 643.074 714.174 641.116C714.174 639.158 714.122 637.199 714.023 635.246C713.924 633.293 713.779 631.34 713.586 629.392C713.393 627.444 713.148 625.507 712.862 623.569C712.57 621.632 712.237 619.704 711.852 617.788C711.466 615.866 711.039 613.96 710.56 612.059C710.081 610.163 709.56 608.277 708.992 606.402C708.419 604.533 707.805 602.673 707.143 600.835C706.482 598.991 705.779 597.168 705.029 595.355C704.279 593.548 703.482 591.762 702.643 589.991C701.81 588.225 700.93 586.475 700.003 584.751C699.081 583.027 698.117 581.324 697.107 579.647C696.102 577.965 695.055 576.314 693.966 574.689C692.878 573.059 691.753 571.46 690.586 569.892C689.419 568.319 688.216 566.777 686.971 565.262C685.732 563.751 684.451 562.267 683.138 560.819C681.826 559.371 680.477 557.954 679.091 556.569C677.706 555.184 676.289 553.835 674.841 552.522C673.388 551.204 671.909 549.928 670.393 548.684C668.883 547.444 667.341 546.241 665.768 545.074C664.195 543.908 662.596 542.783 660.971 541.694C659.346 540.605 657.69 539.559 656.013 538.548C654.336 537.543 652.633 536.579 650.909 535.658C649.18 534.73 647.435 533.85 645.664 533.012C643.898 532.173 642.107 531.382 640.299 530.632C638.492 529.882 636.669 529.173 634.826 528.517C632.982 527.855 631.128 527.241 629.253 526.668C627.383 526.1 625.497 525.574 623.596 525.1C621.701 524.621 619.794 524.189 617.872 523.809C615.956 523.423 614.029 523.085 612.091 522.798C610.154 522.507 608.211 522.267 606.268 522.074C604.32 521.876 602.367 521.73 600.414 521.632C598.456 521.538 596.503 521.486 594.544 521.48ZM662.138 624.517L594.544 692.105C592.273 694.402 589.643 696.173 586.664 697.418C583.685 698.658 580.576 699.283 577.346 699.288C575.747 699.293 574.164 699.137 572.591 698.829C571.023 698.517 569.497 698.053 568.023 697.434C566.544 696.819 565.143 696.064 563.82 695.168C562.492 694.267 561.273 693.251 560.148 692.105L526.805 658.908C526.242 658.345 525.716 657.751 525.211 657.137C524.711 656.517 524.242 655.876 523.799 655.215C523.362 654.553 522.956 653.871 522.586 653.168C522.211 652.465 521.872 651.746 521.57 651.007C521.268 650.272 521.003 649.522 520.773 648.762C520.544 648.001 520.357 647.23 520.201 646.449C520.044 645.668 519.93 644.887 519.852 644.095C519.773 643.303 519.737 642.507 519.737 641.715C519.737 640.918 519.773 640.126 519.852 639.335C519.93 638.543 520.044 637.757 520.201 636.975C520.357 636.194 520.544 635.423 520.773 634.663C521.003 633.902 521.268 633.152 521.57 632.418C521.872 631.678 522.211 630.96 522.586 630.257C522.956 629.559 523.362 628.871 523.799 628.21C524.242 627.548 524.711 626.908 525.211 626.288C525.716 625.673 526.242 625.079 526.805 624.517C527.362 623.949 527.951 623.413 528.565 622.902C529.18 622.392 529.82 621.913 530.482 621.47C531.143 621.022 531.82 620.611 532.523 620.23C533.227 619.855 533.945 619.512 534.685 619.204C535.419 618.897 536.169 618.626 536.93 618.392C537.695 618.163 538.466 617.965 539.247 617.809C540.029 617.652 540.82 617.533 541.612 617.454C542.409 617.376 543.201 617.34 544.003 617.34C544.799 617.34 545.591 617.376 546.388 617.454C547.18 617.533 547.971 617.652 548.753 617.809C549.534 617.965 550.305 618.163 551.07 618.392C551.831 618.626 552.581 618.897 553.315 619.204C554.055 619.512 554.773 619.855 555.477 620.23C556.18 620.611 556.857 621.022 557.518 621.47C558.18 621.913 558.82 622.392 559.435 622.902C560.049 623.413 560.638 623.949 561.195 624.517L577.346 640.517L627.742 590.121C628.31 589.564 628.898 589.033 629.518 588.533C630.133 588.027 630.773 587.559 631.435 587.121C632.102 586.678 632.784 586.277 633.487 585.902C634.19 585.533 634.909 585.194 635.643 584.892C636.378 584.59 637.128 584.324 637.888 584.095C638.648 583.866 639.419 583.673 640.201 583.517C640.982 583.366 641.768 583.251 642.56 583.173C643.352 583.095 644.143 583.053 644.94 583.053C645.737 583.053 646.529 583.095 647.32 583.173C648.112 583.251 648.898 583.366 649.68 583.517C650.456 583.673 651.227 583.866 651.992 584.095C652.753 584.324 653.497 584.59 654.237 584.892C654.971 585.194 655.69 585.533 656.393 585.902C657.096 586.277 657.779 586.678 658.44 587.121C659.107 587.559 659.747 588.027 660.362 588.533C660.982 589.033 661.57 589.564 662.138 590.121C662.706 590.684 663.242 591.272 663.753 591.887C664.258 592.496 664.737 593.137 665.185 593.798C665.628 594.46 666.039 595.142 666.419 595.845C666.799 596.548 667.138 597.267 667.445 598.001C667.753 598.736 668.023 599.486 668.258 600.251C668.492 601.012 668.685 601.783 668.841 602.569C668.997 603.35 669.117 604.137 669.195 604.934C669.273 605.725 669.315 606.522 669.315 607.319C669.315 608.116 669.273 608.913 669.195 609.704C669.117 610.501 668.997 611.288 668.841 612.069C668.685 612.85 668.492 613.626 668.258 614.387C668.023 615.152 667.753 615.897 667.445 616.637C667.138 617.371 666.799 618.09 666.419 618.793C666.039 619.496 665.628 620.178 665.185 620.84C664.737 621.501 664.258 622.137 663.753 622.751C663.242 623.366 662.706 623.954 662.138 624.517ZM638.362 600.741L582.581 656.366C582.237 656.72 581.862 657.038 581.451 657.319C581.044 657.6 580.612 657.835 580.154 658.027C579.701 658.22 579.227 658.366 578.742 658.465C578.258 658.564 577.768 658.611 577.273 658.611C576.779 658.611 576.289 658.564 575.805 658.465C575.315 658.366 574.846 658.22 574.393 658.027C573.935 657.835 573.503 657.6 573.096 657.319C572.685 657.038 572.31 656.72 571.966 656.366L550.581 634.986C549.701 634.121 548.695 633.454 547.555 632.991C546.414 632.527 545.232 632.293 544.003 632.293C542.773 632.319 541.596 632.569 540.461 633.033C539.326 633.496 538.315 634.147 537.419 634.986C536.539 635.882 535.867 636.913 535.398 638.079C534.93 639.246 534.706 640.454 534.727 641.715C534.721 642.944 534.951 644.132 535.419 645.272C535.888 646.413 536.555 647.418 537.419 648.293L570.768 681.491C571.201 681.918 571.674 682.298 572.185 682.632C572.69 682.97 573.227 683.251 573.794 683.48C574.357 683.715 574.94 683.887 575.534 684.007C576.133 684.121 576.737 684.184 577.346 684.184C577.956 684.184 578.56 684.121 579.159 684.007C579.758 683.887 580.336 683.715 580.904 683.48C581.466 683.251 582.003 682.97 582.513 682.632C583.018 682.298 583.492 681.918 583.93 681.491L651.518 613.897C652.409 613.033 653.096 612.027 653.591 610.887C654.081 609.751 654.336 608.559 654.362 607.319C654.367 606.069 654.122 604.876 653.628 603.73C653.133 602.585 652.43 601.59 651.518 600.741C651.091 600.293 650.628 599.897 650.122 599.548C649.617 599.199 649.081 598.908 648.518 598.663C647.951 598.423 647.367 598.241 646.763 598.121C646.164 597.996 645.555 597.934 644.94 597.934C644.326 597.934 643.716 597.996 643.112 598.121C642.513 598.241 641.93 598.423 641.362 598.663C640.799 598.908 640.263 599.199 639.758 599.548C639.253 599.897 638.784 600.293 638.362 600.741Z" fill="black"/>
</svg>
