<svg width="24" height="24" viewBox="0 0 24 24" fill="none" xmlns="http://www.w3.org/2000/svg">
<path d="M23.3077 9.92308C23.6901 9.92308 24 9.6131 24 9.23079V5.53849C24 5.15613 23.69 4.84619 23.3077 4.84619H0.692297C0.309984 4.84619 0 5.15613 0 5.53849V9.23079C0 9.61314 0.309984 9.92308 0.692297 9.92308C1.8375 9.92308 2.76923 10.8548 2.76923 12C2.76923 13.1453 1.83755 14.077 0.692297 14.077C0.309984 14.077 0 14.3869 0 14.7693V18.4616C0 18.8439 0.309984 19.1538 0.692297 19.1538H23.3077C23.6901 19.1538 24 18.8439 24 18.4616V14.7693C24 14.3869 23.69 14.077 23.3077 14.077C22.1625 14.077 21.2308 13.1453 21.2308 12C21.2308 10.8548 22.1625 9.92308 23.3077 9.92308ZM22.6154 15.392V17.7693H8.07694V15.6923C8.07694 15.31 7.76695 15 7.38464 15C7.00233 15 6.69234 15.31 6.69234 15.6923V17.7693H1.38459V15.392C2.96264 15.0703 4.15383 13.6716 4.15383 12C4.15383 10.3284 2.96264 8.92966 1.38459 8.60805V6.23079H6.6923V8.30772C6.6923 8.69008 7.00228 9.00002 7.38459 9.00002C7.76691 9.00002 8.07689 8.69004 8.07689 8.30772V6.23079H22.6154V8.60805C21.0373 8.92971 19.8461 10.3284 19.8461 12C19.8461 13.6716 21.0374 15.0704 22.6154 15.392Z" fill="#39416B"/>
<path d="M7.38468 10.3845C7.00232 10.3845 6.69238 10.6945 6.69238 11.0768V12.923C6.69238 13.3053 7.00237 13.6153 7.38468 13.6153C7.76699 13.6153 8.07698 13.3053 8.07698 12.923V11.0768C8.07702 10.6945 7.76704 10.3845 7.38468 10.3845Z" fill="#39416B"/>
</svg>
