<svg width="823" height="804" viewBox="0 0 823 804" fill="none" xmlns="http://www.w3.org/2000/svg">
<mask id="mask0_1437_2" style="mask-type:luminance" maskUnits="userSpaceOnUse" x="232" y="413" width="358" height="384">
<path d="M232.664 413.668H589.997V796.142H232.664V413.668Z" fill="white"/>
</mask>
<g mask="url(#mask0_1437_2)">
<path d="M487.573 628.158C488.115 627.611 488.661 626.996 489.141 626.449L490.438 625.017C502.385 610.814 510.375 593.741 513.38 575.715C514.339 570.116 514.818 564.173 514.818 558.033V518.428C514.818 461.069 468.177 414.434 410.823 414.434C353.464 414.434 306.828 461.069 306.828 518.428V558.033C306.828 564.105 307.302 570.048 308.26 575.647C311.333 593.673 319.255 610.746 331.271 625.085C332.229 626.178 333.25 627.132 334.208 628.225C277.531 633.413 233.016 681.142 233.016 739.184V779.199C233.016 788.621 240.661 796.267 250.083 796.267C259.505 796.267 267.156 788.621 267.156 779.199V739.184C267.156 696.574 301.844 661.887 344.448 661.887H406.927C408.224 661.954 409.453 662.095 410.755 662.095C412.188 662.095 413.62 661.954 415.052 661.887H477.464C520.073 661.887 554.76 696.574 554.76 739.184V779.199C554.76 788.621 562.406 796.267 571.833 796.267C581.255 796.267 588.901 788.621 588.901 779.199V739.184C589.036 681.007 544.313 633.21 487.573 628.158ZM341.036 518.428C341.036 479.913 372.38 448.574 410.891 448.574C449.401 448.574 480.74 479.913 480.74 518.428V558.033C480.74 562.126 480.401 566.225 479.786 569.98C477.74 582.064 472.411 593.47 464.833 602.548L463.875 603.574C462.714 604.871 461.557 606.168 460.328 607.397C448.172 619.553 432.26 626.652 415.26 627.678H407.135C388.016 626.652 370.057 617.845 357.563 603.027C349.505 593.47 344.177 581.996 342.13 569.913C341.516 566.293 341.172 562.194 341.172 558.033V518.428H341.036Z" fill="black"/>
</g>
<path d="M805.292 149.082L705.057 22.3529C701.844 18.2539 696.859 15.8633 691.672 15.8633H436.979H436.911H130.526C125.339 15.8633 120.354 18.2539 117.141 22.3529L16.9063 149.082C14.5156 152.087 13.2188 155.842 13.2188 159.665V259.905C13.2188 302.243 41.5521 337.952 80.2708 349.29V760.962C80.2708 770.384 87.9167 778.035 97.3438 778.035C106.766 778.035 114.411 770.384 114.411 760.962V352.77C142.542 350.379 167.125 335.426 182.625 313.577C199.49 337.478 227.349 353.181 258.828 353.181C290.307 353.181 318.099 337.478 334.964 313.577C351.828 337.478 379.688 353.181 411.099 353.181C442.51 353.181 470.37 337.478 487.234 313.577C504.099 337.478 531.958 353.181 563.37 353.181C594.849 353.181 622.641 337.478 639.573 313.577C655.005 335.426 679.589 350.379 707.786 352.77V761.098C707.786 770.525 715.432 778.171 724.859 778.171C734.281 778.171 741.927 770.525 741.927 761.098V349.358C780.646 338.02 808.979 302.243 808.979 259.973V159.665C808.979 155.842 807.682 152.087 805.292 149.082ZM106.422 319.04C73.8542 319.04 47.3594 292.546 47.3594 259.973V165.608L138.786 50.0039H228.854L168.083 151.681C166.51 154.342 165.693 157.348 165.693 160.421V250.618C165.693 252.124 165.964 253.624 166.307 254.988C165.828 256.561 165.49 258.202 165.49 259.905C165.557 292.546 138.995 319.04 106.422 319.04ZM258.76 319.04C226.193 319.04 199.63 292.546 199.63 259.973C199.63 258.473 199.354 256.973 199.016 255.603C199.49 254.035 199.833 252.395 199.833 250.686V165.197L268.594 50.0768H360.5L319.193 154.207C318.37 156.186 317.964 158.368 317.964 160.488V250.686C317.964 252.191 318.234 253.691 318.578 255.056C318.099 256.629 317.755 258.27 317.755 259.973C317.896 292.546 291.333 319.04 258.76 319.04ZM411.099 319.04C378.526 319.04 352.036 292.546 352.036 259.973C352.036 258.473 351.76 256.973 351.422 255.603C351.896 254.035 352.24 252.395 352.24 250.686V163.697L397.307 50.0039H424.958L470.026 163.697V250.618C470.026 252.327 470.37 253.967 470.849 255.535C470.438 256.973 470.234 258.405 470.234 259.905C470.161 292.546 443.672 319.04 411.099 319.04ZM563.438 319.04C530.865 319.04 504.375 292.546 504.375 259.973C504.375 258.27 504.031 256.629 503.552 255.056C503.964 253.624 504.167 252.191 504.167 250.686V160.488C504.167 158.301 503.76 156.186 502.938 154.207L461.63 50.0768H553.536L622.297 165.197V250.686C622.297 252.395 622.641 254.035 623.115 255.603C622.708 257.04 622.5 258.473 622.5 259.973C622.5 292.546 596.01 319.04 563.438 319.04ZM715.776 319.04C683.203 319.04 656.641 292.546 656.641 259.973C656.641 258.27 656.302 256.629 655.823 255.056C656.234 253.624 656.438 252.191 656.438 250.686V160.488C656.438 157.415 655.62 154.41 654.047 151.749L593.276 50.0768H683.344L774.771 165.676V259.973C774.839 292.546 748.349 319.04 715.776 319.04Z" fill="#FC9D08"/>
</svg>
