<svg width="24" height="24" viewBox="0 0 24 24" fill="none" xmlns="http://www.w3.org/2000/svg">
<g clip-path="url(#clip0_2528_43961)">
<path d="M20.4853 3.51469C18.2188 1.24823 15.2053 0 12 0C8.79469 0 5.78123 1.24823 3.51469 3.51469C1.24823 5.78123 0 8.79469 0 12C0 15.2053 1.24823 18.2188 3.51469 20.4853C5.78123 22.7518 8.79469 24 12 24C15.2053 24 18.2188 22.7518 20.4853 20.4853C22.7518 18.2188 24 15.2053 24 12C24 8.79469 22.7518 5.78123 20.4853 3.51469ZM19.4909 19.4909C17.49 21.4918 14.8297 22.5938 12 22.5938C9.1703 22.5938 6.51 21.4918 4.50909 19.4909C2.50819 17.49 1.40625 14.8297 1.40625 12C1.40625 9.1703 2.50819 6.51 4.50909 4.50909C6.51 2.50819 9.1703 1.40625 12 1.40625C14.8297 1.40625 17.49 2.50819 19.4909 4.50909C21.4918 6.51 22.5938 9.1703 22.5938 12C22.5938 14.8297 21.4918 17.49 19.4909 19.4909Z" fill="#39416B"/>
<path d="M7.8629 9.54087C7.58831 9.26632 7.14314 9.26632 6.86854 9.54087C6.594 9.81546 6.594 10.2606 6.86854 10.5352C7.25948 10.9261 7.47478 11.4459 7.47478 11.9989C7.47478 12.5517 7.25948 13.0715 6.86854 13.4625C6.59395 13.7371 6.59395 14.1822 6.86854 14.4568C7.11131 14.6923 7.55395 14.7553 7.8629 14.4568C8.51943 13.8003 8.88103 12.9274 8.88103 11.9989C8.88103 11.0703 8.51943 10.1974 7.8629 9.54087Z" fill="#39416B"/>
<path d="M9.8546 7.68983C9.58005 7.41524 9.13484 7.41524 8.86024 7.68983C8.58565 7.96443 8.58565 8.4096 8.86024 8.68419C9.74566 9.56961 10.2333 10.7468 10.2333 11.999C10.2333 13.1584 9.80674 14.2712 9.03232 15.1324C8.77263 15.4211 8.79621 15.8657 9.08496 16.1253C9.32585 16.3403 9.78537 16.3903 10.078 16.0727C11.0849 14.9529 11.6395 13.5062 11.6395 11.999C11.6396 10.3712 11.0057 8.84085 9.8546 7.68983Z" fill="#39416B"/>
<path d="M12.1903 6.13508C11.9292 5.84764 11.4845 5.82641 11.1971 6.0875C10.9097 6.34864 10.8884 6.79335 11.1495 7.08074C12.3745 8.42896 13.0491 10.1756 13.0491 11.9989C13.0491 13.8222 12.3745 15.5688 11.1495 16.917C10.8884 17.2044 10.9097 17.6491 11.1971 17.9102C11.4363 18.126 11.8968 18.179 12.1903 17.8626C13.651 16.2551 14.4554 14.1726 14.4554 11.9989C14.4554 9.82513 13.651 7.74271 12.1903 6.13508Z" fill="#39416B"/>
<path d="M13.3046 4.22444C13.0202 4.48882 13.0038 4.93366 13.2682 5.21814C14.9856 7.06628 15.9314 9.47444 15.9314 11.999C15.9314 14.5246 14.9849 16.9335 13.2663 18.7819C13.0019 19.0663 13.0181 19.5112 13.3025 19.7756C13.538 19.9933 14.0005 20.0529 14.2962 19.7395C16.2575 17.63 17.3376 14.8811 17.3376 11.9991C17.3376 9.11824 16.2582 6.3701 14.2983 4.26091C14.0339 3.97643 13.589 3.96007 13.3046 4.22444Z" fill="#39416B"/>
</g>
<defs>
<clipPath id="clip0_2528_43961">
<rect width="24" height="24" fill="white"/>
</clipPath>
</defs>
</svg>
