<svg width="100" height="100" viewBox="0 0 100 100" fill="none" xmlns="http://www.w3.org/2000/svg">
<g clip-path="url(#clip0_2493_3331)">
<path d="M10.0803 99.1166C9.79532 99.1166 9.51699 98.9699 9.36199 98.7066C9.12865 98.3133 9.25865 97.8049 9.65032 97.5683L12.2753 95.9883L7.05032 99.0049C6.65365 99.2333 6.15032 99.1033 5.91699 98.7099C5.68365 98.3166 5.81032 97.8116 6.19865 97.5716L33.0353 81.1316L3.34865 98.2716C2.95032 98.5016 2.44532 98.3683 2.21365 97.9733C1.98032 97.5799 2.11032 97.0716 2.50199 96.8349L5.52199 95.0183L2.33532 96.8583C1.93865 97.0883 1.43365 96.9549 1.20032 96.5616C0.966988 96.1683 1.09699 95.6599 1.48699 95.4233L11.042 89.6416L2.25699 94.7116C1.86032 94.9399 1.35532 94.8083 1.12199 94.4149C0.888655 94.0216 1.01865 93.5149 1.40699 93.2766L11.1653 87.3549L2.66199 92.2633C2.27032 92.4933 1.76699 92.3649 1.53199 91.9733C1.29699 91.5849 1.41699 91.0799 1.79865 90.8366L35.2153 69.6966L3.36032 88.0949C2.96365 88.3233 2.46365 88.1916 2.22865 87.8033C1.99365 87.4133 2.11699 86.9083 2.50199 86.6666L24.4187 72.9699L3.90532 84.8116C3.51365 85.0399 3.01365 84.9133 2.77699 84.5249C2.54032 84.1399 2.65699 83.6349 3.03699 83.3899L29.837 66.1133L4.59199 80.6883C4.20032 80.9199 3.69865 80.7883 3.46365 80.3999C3.22699 80.0133 3.34532 79.5099 3.72532 79.2649L22.1953 67.4516L5.15532 77.2883C4.76365 77.5133 4.26865 77.3899 4.03032 77.0066C3.79199 76.6249 3.90199 76.1249 4.27532 75.8733L25.2237 61.8849L5.85699 73.0649C5.46532 73.2933 4.96532 73.1666 4.73032 72.7799C4.49365 72.3966 4.60699 71.8933 4.98365 71.6449L16.087 64.4016L6.36532 70.0133C5.97365 70.2416 5.47532 70.1133 5.23866 69.7283C5.00199 69.3433 5.11532 68.8416 5.49199 68.5933L12.1703 64.2316L6.81032 67.3249C6.42199 67.5516 5.93032 67.4283 5.69032 67.0516C5.45032 66.6733 5.55032 66.1766 5.91699 65.9199L16.122 58.7966L7.39365 63.8349C7.01199 64.0599 6.51532 63.9383 6.27532 63.5633C6.03365 63.1866 6.13199 62.6899 6.49699 62.4316L12.3003 58.3449L7.88199 60.8949C7.50532 61.1183 7.01699 61.0033 6.77365 60.6383C6.53032 60.2733 6.60865 59.7833 6.95532 59.5149L12.4087 55.3016L8.43032 57.5983C8.06699 57.8099 7.60032 57.7149 7.34865 57.3766C7.09532 57.0399 7.13366 56.5683 7.43866 56.2749L11.337 52.5366L9.05532 53.8533C8.71532 54.0549 8.28032 53.9833 8.01699 53.6866C7.75365 53.3916 7.73365 52.9533 7.97032 52.6349L9.32865 50.8016C9.06699 50.7783 8.82032 50.6316 8.68032 50.3883C8.44865 49.9899 8.58532 49.4799 8.98532 49.2499L11.747 47.6549C12.0887 47.4566 12.522 47.5266 12.7853 47.8216C13.0487 48.1166 13.0687 48.5549 12.832 48.8733L11.6987 50.4016L16.462 47.6533C16.822 47.4383 17.2903 47.5366 17.5437 47.8749C17.797 48.2116 17.7587 48.6833 17.4537 48.9766L13.557 52.7116L22.322 47.6533C22.7003 47.4316 23.1887 47.5466 23.4303 47.9099C23.6737 48.2749 23.5953 48.7649 23.2487 49.0333L17.7887 53.2499L27.487 47.6533C27.8753 47.4283 28.3653 47.5499 28.6053 47.9249C28.847 48.3016 28.7487 48.7983 28.3837 49.0566L22.5853 53.1383L32.087 47.6533C32.4737 47.4283 32.967 47.5499 33.207 47.9266C33.447 48.3033 33.347 48.8016 32.9803 49.0583L22.7703 56.1849L37.5503 47.6533C37.942 47.4249 38.4403 47.5516 38.677 47.9383C38.9137 48.3216 38.8003 48.8249 38.4237 49.0733L31.762 53.4233L41.757 47.6533C42.1487 47.4249 42.647 47.5516 42.8837 47.9383C43.1203 48.3216 43.007 48.8249 42.6303 49.0733L31.5187 56.3233L46.5337 47.6549C46.9237 47.4266 47.4187 47.5516 47.6587 47.9366C47.897 48.3183 47.787 48.8183 47.4137 49.0699L26.467 63.0583L53.1453 47.6566C53.5387 47.4283 54.0403 47.5583 54.2737 47.9449C54.5103 48.3316 54.392 48.8349 54.012 49.0799L35.567 60.8766L58.4636 47.6566C58.8553 47.4283 59.357 47.5549 59.592 47.9433C59.8287 48.3283 59.712 48.8333 59.332 49.0783L32.5187 66.3633L64.9203 47.6566C65.3137 47.4249 65.817 47.5583 66.052 47.9483C66.287 48.3383 66.1637 48.8433 65.7786 49.0849L43.872 62.7733L70.0553 47.6583C70.4503 47.4299 70.9503 47.5599 71.1853 47.9483C71.4203 48.3366 71.3003 48.8416 70.9186 49.0849L37.4953 70.2283L76.587 47.6599C76.9837 47.4283 77.487 47.5633 77.722 47.9566C77.9553 48.3499 77.8253 48.8566 77.437 49.0949L67.6587 55.0283L80.4186 47.6616C80.8137 47.4299 81.3186 47.5649 81.5536 47.9583C81.787 48.3516 81.657 48.8599 81.267 49.0966L71.767 54.8449L84.2086 47.6616C84.6037 47.4299 85.112 47.5633 85.3437 47.9599C85.577 48.3533 85.447 48.8616 85.0553 49.0983L82.032 50.9183L87.6337 47.6849C88.027 47.4549 88.5303 47.5849 88.767 47.9799C89.0003 48.3716 88.8736 48.8783 88.4853 49.1183L61.6137 65.5799L90.0887 49.1416C90.4837 48.9083 90.9903 49.0433 91.2236 49.4399C91.457 49.8333 91.327 50.3416 90.9353 50.5783L88.3353 52.1416L90.662 50.7983C91.057 50.5666 91.557 50.6999 91.7936 51.0899C92.0286 51.4799 91.9053 51.9866 91.5203 52.2266L57.932 73.1799L91.192 53.9783C91.587 53.7499 92.087 53.8766 92.322 54.2699C92.5587 54.6583 92.437 55.1633 92.0536 55.4049L60.0386 75.5399L91.737 57.2416C92.1303 57.0099 92.637 57.1433 92.8703 57.5383C93.1037 57.9299 92.977 58.4366 92.587 58.6749L87.217 61.9449L92.0536 59.1533C92.4487 58.9266 92.952 59.0566 93.1853 59.4449C93.4203 59.8333 93.297 60.3383 92.9137 60.5816L70.2853 74.7733L92.5187 61.9383C92.912 61.7083 93.4137 61.8399 93.6503 62.2316C93.8853 62.6216 93.7603 63.1283 93.3753 63.3683L80.8753 71.1199L92.8936 64.1816C93.287 63.9499 93.7903 64.0816 94.027 64.4766C94.2603 64.8683 94.1353 65.3749 93.747 65.6133L91.507 66.9883L93.1986 66.0133C93.5903 65.7866 94.0903 65.9133 94.327 66.2999C94.5637 66.6866 94.447 67.1899 94.067 67.4366L74.332 80.1216L93.687 68.9483C94.077 68.7183 94.5753 68.8449 94.812 69.2316C95.0503 69.6133 94.9387 70.1149 94.5653 70.3649L74.0603 83.9366L94.2437 72.2849C94.637 72.0549 95.132 72.1849 95.3703 72.5683C95.607 72.9516 95.4953 73.4549 95.1186 73.7033L80.687 83.1883L94.712 75.0933C95.1003 74.8649 95.5986 74.9916 95.837 75.3733C96.0753 75.7549 95.9653 76.2566 95.5937 76.5083L82.9253 84.9849L95.182 77.9099C95.572 77.6849 96.0653 77.8083 96.3036 78.1866C96.5436 78.5649 96.4403 79.0633 96.0703 79.3183L84.752 87.1166L95.6653 80.8166C96.0553 80.5933 96.5453 80.7149 96.787 81.0916C97.027 81.4699 96.9236 81.9683 96.5553 82.2233L89.1187 87.3699L96.087 83.3466C96.4653 83.1233 96.9553 83.2383 97.1986 83.6083C97.442 83.9766 97.357 84.4699 97.0053 84.7333L89.072 90.6966L96.5886 86.3566C96.9636 86.1349 97.447 86.2483 97.6936 86.6066C97.9387 86.9666 97.867 87.4549 97.527 87.7266L92.0387 92.1333L97.067 89.2316C97.4237 89.0233 97.882 89.1133 98.1403 89.4399C98.3986 89.7666 98.3736 90.2333 98.0837 90.5316L94.147 94.6083L97.6303 92.5983C97.962 92.4033 98.3853 92.4633 98.6487 92.7433C98.9137 93.0216 98.9553 93.4466 98.7486 93.7683L97.4086 95.8599L97.4903 95.8133C97.8853 95.5799 98.3987 95.7183 98.6287 96.1183C98.8603 96.5166 98.7236 97.0266 98.3236 97.2566L95.2737 99.0183C94.942 99.2133 94.5187 99.1516 94.2553 98.8733C93.9903 98.5949 93.9486 98.1699 94.1553 97.8483L95.497 95.7566L89.8453 99.0183C89.487 99.2266 89.0303 99.1383 88.772 98.8099C88.5153 98.4833 88.5387 98.0166 88.8287 97.7183L92.7653 93.6416L83.4503 99.0199C83.072 99.2416 82.5903 99.1266 82.3453 98.7699C82.1003 98.4099 82.172 97.9216 82.512 97.6499L88.002 93.2416L77.992 99.0199C77.612 99.2416 77.1236 99.1266 76.8803 98.7583C76.637 98.3899 76.722 97.8966 77.0736 97.6333L85.002 91.6733L72.277 99.0199C71.8903 99.2466 71.397 99.1233 71.1553 98.7449C70.9153 98.3666 71.0187 97.8683 71.387 97.6133L78.827 92.4649L67.4736 99.0199C67.087 99.2466 66.592 99.1233 66.352 98.7433C66.112 98.3649 66.2153 97.8666 66.5853 97.6116L77.9053 89.8116L61.9586 99.0183C61.5653 99.2449 61.072 99.1199 60.8336 98.7383C60.5953 98.3566 60.7053 97.8549 61.077 97.6033L73.7536 89.1199L56.6087 99.0166C56.2187 99.2449 55.7203 99.1166 55.482 98.7333C55.2453 98.3499 55.357 97.8466 55.7337 97.5983L70.1587 88.1183L51.2787 99.0166C50.887 99.2433 50.3887 99.1183 50.1537 98.7333C49.9153 98.3516 50.027 97.8499 50.4003 97.5999L70.9036 84.0283L44.9453 99.0149C44.5537 99.2433 44.052 99.1133 43.817 98.7283C43.5803 98.3416 43.697 97.8383 44.077 97.5916L63.812 84.9066L39.3737 99.0149C38.977 99.2433 38.4737 99.1133 38.2403 98.7199C38.007 98.3266 38.132 97.8216 38.5203 97.5833L40.7687 96.2033L35.897 99.0149C35.5003 99.2433 34.9987 99.1116 34.7653 98.7216C34.5303 98.3316 34.6553 97.8249 35.0403 97.5849L47.542 89.8333L31.637 99.0149C31.2453 99.2449 30.742 99.1133 30.5053 98.7233C30.2703 98.3349 30.3937 97.8299 30.777 97.5866L53.3953 83.4016L26.352 99.0133C25.957 99.2416 25.4503 99.1099 25.2187 98.7166C24.9853 98.3249 25.112 97.8183 25.502 97.5799L30.8853 94.2999L22.7237 99.0116C22.3303 99.2416 21.8303 99.1133 21.5937 98.7199C21.357 98.3316 21.4787 97.8266 21.862 97.5849L53.8753 77.4499L16.5303 99.0116C16.1337 99.2399 15.6337 99.1083 15.3987 98.7199C15.1637 98.3299 15.287 97.8233 15.672 97.5833L49.2553 76.6333L10.492 99.0116C10.3603 99.0883 10.217 99.1233 10.0753 99.1233L10.0803 99.1166Z" fill="#F5F6FA"/>
<path d="M23.7055 99.1167C23.4189 99.1167 23.1372 98.9667 22.9839 98.7001C22.7522 98.3017 22.8889 97.7917 23.2889 97.5617L30.1939 93.5751C30.5222 93.3817 30.9439 93.4417 31.2105 93.7184C31.4755 93.9934 31.5205 94.4151 31.3155 94.7384L30.5972 95.8801L71.0339 72.5351C71.4272 72.3067 71.9222 72.4351 72.1605 72.8184C72.3972 73.2017 72.2855 73.7051 71.9089 73.9534L58.0755 83.0351L92.7055 63.0417C93.0989 62.8101 93.6022 62.9417 93.8389 63.3367C94.0722 63.7284 93.9455 64.2367 93.5572 64.4751L93.0889 64.7617C93.4622 64.5967 93.9122 64.7384 94.1305 65.0984C94.3655 65.4867 94.2422 65.9917 93.8589 66.2351L80.2805 74.7501L93.3955 67.1784C93.7872 66.9501 94.2855 67.0784 94.5222 67.4634C94.7589 67.8484 94.6455 68.3517 94.2672 68.5984L73.6072 82.0551L93.9205 70.3284C94.3155 70.1001 94.8155 70.2284 95.0505 70.6184C95.2855 71.0084 95.1655 71.5117 94.7822 71.7551L87.5522 76.3151L94.2722 72.4367C94.6605 72.2067 95.1605 72.3351 95.3972 72.7184C95.6355 73.1017 95.5239 73.6034 95.1505 73.8534L79.6839 84.1084L94.7672 75.4001C95.1589 75.1734 95.6572 75.3001 95.8939 75.6851C96.1305 76.0701 96.0172 76.5717 95.6405 76.8184L86.8055 82.5984L95.1639 77.7734C95.5539 77.5484 96.0472 77.6717 96.2855 78.0484C96.5255 78.4267 96.4222 78.9251 96.0539 79.1801L84.3489 87.2667L95.6572 80.7384C96.0472 80.5101 96.5455 80.6351 96.7822 81.0201C97.0205 81.4034 96.9089 81.9051 96.5355 82.1551L93.6672 84.0551L95.9872 82.7167C96.3755 82.4867 96.8705 82.6151 97.1105 82.9967C97.3489 83.3784 97.2422 83.8784 96.8689 84.1301L94.7839 85.5334L96.3089 84.6551C96.6955 84.4301 97.1872 84.5517 97.4289 84.9267C97.6689 85.3034 97.5705 85.8001 97.2056 86.0584L94.0955 88.2451L96.6605 86.7634C97.0339 86.5434 97.5122 86.6534 97.7589 87.0067C98.0055 87.3601 97.9439 87.8451 97.6139 88.1234L91.9889 92.8634L97.1772 89.8684C97.5539 89.6451 98.0355 89.7617 98.2822 90.1184C98.5272 90.4801 98.4555 90.9684 98.1139 91.2401L97.1122 92.0384L97.4989 91.8151C97.8239 91.6234 98.2372 91.68 98.5055 91.9484C98.7722 92.2151 98.8239 92.6284 98.6339 92.9551L96.8622 95.9967L97.5972 95.5734C97.9939 95.3384 98.5072 95.4784 98.7355 95.8784C98.9672 96.2767 98.8305 96.7867 98.4305 97.0167L94.9822 99.0067C94.6539 99.1984 94.2439 99.1401 93.9755 98.8734C93.7089 98.6067 93.6572 98.1934 93.8472 97.8667L95.6189 94.8251L88.3689 99.0084C87.9905 99.2301 87.5089 99.1151 87.2639 98.7584C87.0189 98.3967 87.0905 97.9084 87.4322 97.6367L88.4289 96.8417L84.6739 99.0084C84.3005 99.2284 83.8222 99.1184 83.5755 98.7651C83.3289 98.4117 83.3905 97.9267 83.7206 97.6484L89.3456 92.9084L78.7805 99.0067C78.3989 99.2317 77.9022 99.1101 77.6605 98.7351C77.4205 98.3584 77.5189 97.8617 77.8839 97.6034L80.9955 95.4167L74.7755 99.0067C74.3839 99.2334 73.8905 99.1084 73.6522 98.7267C73.4139 98.3451 73.5205 97.8451 73.8939 97.5934L75.9839 96.1851L71.0972 99.0051C70.7072 99.2317 70.2089 99.1067 69.9722 98.7234C69.7339 98.3401 69.8455 97.8384 70.2189 97.5884L73.0805 95.6917L67.3439 99.0034C66.9555 99.2301 66.4622 99.1067 66.2222 98.7284C65.9822 98.3501 66.0855 97.8517 66.4539 97.5967L78.1555 89.5134L61.7205 99.0017C61.3289 99.2301 60.8289 99.1034 60.5939 98.7167C60.3572 98.3334 60.4705 97.8301 60.8472 97.5834L69.6889 91.7984L57.2139 99.0001C56.8222 99.2267 56.3255 99.1017 56.0889 98.7184C55.8505 98.3351 55.9622 97.8334 56.3355 97.5834L71.8022 87.3284L51.5855 99.0001C51.1939 99.2301 50.6922 99.1017 50.4555 98.7101C50.2205 98.3217 50.3405 97.8167 50.7239 97.5734L57.9389 93.0217L47.5839 99.0001C47.1922 99.2284 46.6922 99.1017 46.4572 98.7151C46.2205 98.3301 46.3339 97.8267 46.7122 97.5801L67.3739 84.1217L41.6022 99.0001C41.2105 99.2301 40.7072 99.0984 40.4706 98.7084C40.2355 98.32 40.3589 97.8151 40.7422 97.5717L54.3255 89.0534L37.0972 99.0001C36.7022 99.2284 36.1989 99.0984 35.9639 98.7051C35.7305 98.3134 35.8572 97.8051 36.2455 97.5667L36.5005 97.4101L33.7489 98.9984C33.3572 99.2267 32.8622 99.0984 32.6222 98.7151C32.3855 98.3317 32.4972 97.8284 32.8739 97.5801L46.7072 88.4984L28.5206 98.9984C28.1906 99.1917 27.7689 99.1317 27.5039 98.8551C27.2389 98.5801 27.1939 98.1584 27.3989 97.8351L28.1172 96.6934L24.1239 98.9984C23.9922 99.0751 23.8489 99.1101 23.7072 99.1101L23.7055 99.1167Z" fill="#58669F"/>
<path d="M4.98107 75.9434C4.6994 75.9434 4.4244 75.8 4.26774 75.5417C4.03274 75.155 4.15107 74.65 4.53274 74.4067L13.7944 68.5167L5.85107 73.1017C5.46107 73.3284 4.9644 73.2034 4.72607 72.82C4.48774 72.4367 4.59774 71.9367 4.97107 71.6867L19.2927 62.15L6.4394 69.57C6.05774 69.795 5.5594 69.675 5.3194 69.295C5.0794 68.9184 5.1794 68.42 5.54774 68.165L18.7194 59.0017L7.08274 65.72C6.69607 65.9467 6.20274 65.8234 5.96274 65.4467C5.72274 65.07 5.82274 64.5717 6.1894 64.315L14.1277 58.77L7.61607 62.53C7.2294 62.7584 6.7344 62.6334 6.4944 62.2534C6.2544 61.8734 6.3594 61.375 6.72774 61.1217L8.65107 59.8017L8.0094 60.1717C7.63607 60.39 7.15774 60.28 6.91107 59.9284C6.6644 59.575 6.72607 59.0917 7.05607 58.8133L13.0077 53.7883L8.65607 56.3017C8.29607 56.5117 7.83107 56.4184 7.57607 56.085C7.32274 55.75 7.35607 55.28 7.65774 54.985L10.3061 52.3884L9.20274 53.025C8.8544 53.23 8.4044 53.1484 8.14274 52.835C7.8844 52.5217 7.8894 52.0667 8.15607 51.7584L9.04607 50.7284C8.90107 50.6567 8.77607 50.545 8.6894 50.395C8.45774 49.9967 8.5944 49.4867 8.9944 49.2567L11.7577 47.6617C12.1077 47.4584 12.5561 47.5384 12.8177 47.8517C13.0761 48.165 13.0711 48.62 12.8044 48.9284L12.6411 49.1167L15.1694 47.6584C15.5294 47.4467 15.9944 47.54 16.2494 47.875C16.5027 48.21 16.4694 48.68 16.1677 48.975L13.5227 51.5684L20.2944 47.6584C20.6661 47.44 21.1461 47.5484 21.3927 47.9017C21.6394 48.255 21.5777 48.7384 21.2477 49.0167L15.2961 54.04L26.3494 47.66C26.7394 47.4367 27.2327 47.5583 27.4711 47.9367C27.7111 48.3167 27.6061 48.815 27.2377 49.0684L25.3127 50.3884L30.0411 47.66C30.4277 47.435 30.9227 47.5567 31.1611 47.9334C31.4011 48.31 31.3011 48.8084 30.9344 49.065L22.9961 54.61L35.0344 47.66C35.4211 47.435 35.9144 47.5567 36.1544 47.935C36.3944 48.3117 36.2944 48.81 35.9261 49.065L22.7561 58.2267L41.0577 47.66C41.4477 47.4317 41.9444 47.5567 42.1827 47.9417C42.4211 48.3234 42.3111 48.825 41.9377 49.075L27.6094 58.615L46.5861 47.6617C46.9811 47.4334 47.4811 47.5634 47.7161 47.9517C47.9511 48.34 47.8327 48.8434 47.4511 49.0867L38.2111 54.9634L50.8577 47.6617C51.2494 47.4334 51.7494 47.5633 51.9861 47.9483C52.2227 48.335 52.1061 48.8384 51.7261 49.085L50.4927 49.8784L54.3311 47.6634C54.6394 47.4884 55.0211 47.52 55.2861 47.75C55.5544 47.9784 55.6511 48.3484 55.5277 48.68L55.1494 49.68L58.6427 47.665C59.0411 47.43 59.5527 47.57 59.7811 47.97C60.0127 48.3684 59.8761 48.8784 59.4761 49.1084L53.9644 52.2884C53.6577 52.4634 53.2761 52.43 53.0094 52.2017C52.7411 51.9734 52.6444 51.6034 52.7677 51.2717L53.1444 50.2734L21.1461 68.7467C20.7544 68.9734 20.2544 68.845 20.0177 68.46C19.7811 68.0734 19.8977 67.57 20.2777 67.3234L21.5061 66.5333L5.3994 75.8317C5.26774 75.9084 5.1244 75.9434 4.98274 75.9434H4.98107Z" fill="#58669F"/>
<path d="M79.0117 73.6184C78.725 73.6184 78.4434 73.4684 78.29 73.2017C78.0584 72.8034 78.195 72.2934 78.595 72.0634L92.865 63.825C93.26 63.5917 93.7734 63.73 94.0034 64.13C94.235 64.5284 94.0984 65.0384 93.6984 65.2684L79.4284 73.5067C79.2967 73.5834 79.1534 73.6184 79.0117 73.6184Z" fill="#7986B7"/>
<path d="M14.6074 99.1167C14.3191 99.1167 14.0391 98.9667 13.8857 98.7C13.6541 98.3017 13.7907 97.7917 14.1907 97.5617L20.6874 93.8117C20.9891 93.6367 21.3624 93.6667 21.6324 93.89C21.9007 94.11 22.0041 94.475 21.8924 94.8017L21.3291 96.45L66.7991 70.1984C67.1874 69.97 67.6841 70.095 67.9241 70.48C68.1624 70.8617 68.0524 71.3617 67.6791 71.6134L47.8841 84.84L92.0941 59.3184C92.4824 59.0917 92.9791 59.2167 93.2191 59.5984C93.4574 59.98 93.3474 60.4817 92.9757 60.7334L76.8707 71.51L92.6224 62.4167C93.0074 62.1917 93.5024 62.315 93.7441 62.6917C93.9841 63.07 93.8807 63.5684 93.5124 63.8234L74.1941 77.1884C74.3274 77.4967 74.2641 77.8617 74.0174 78.11L73.3307 78.7934L74.9557 77.8567C75.3124 77.6467 75.7707 77.7367 76.0307 78.065C76.2857 78.3917 76.2624 78.8584 75.9724 79.1567L75.0307 80.13L77.0207 78.9834C77.3607 78.7817 77.8007 78.855 78.0624 79.1534C78.3241 79.4517 78.3407 79.8917 78.1007 80.2084L76.2941 82.5984L79.8674 80.5367C80.2124 80.3317 80.6557 80.41 80.9207 80.7184C81.1807 81.0267 81.1841 81.475 80.9274 81.7867L79.2957 83.7684L82.4524 81.9467C82.7891 81.75 83.2157 81.8167 83.4824 82.1034C83.7457 82.39 83.7757 82.8217 83.5541 83.1417L81.6407 85.9067L85.5641 83.6434C85.9207 83.435 86.3824 83.5234 86.6391 83.8534C86.8941 84.18 86.8691 84.6484 86.5791 84.945L85.6824 85.865L87.6041 84.7567C87.9607 84.5467 88.4174 84.635 88.6757 84.9617C88.9307 85.285 88.9124 85.75 88.6274 86.05L87.5524 87.1867L89.7424 85.9217C90.0974 85.7134 90.5541 85.8 90.8124 86.125C91.0691 86.4467 91.0507 86.9117 90.7691 87.2117L89.6374 88.4184L91.9124 87.1067C92.2574 86.9034 92.6974 86.9784 92.9607 87.2817C93.2207 87.585 93.2307 88.03 92.9824 88.345L91.2591 90.5234L94.6207 88.5834C94.9507 88.3884 95.3724 88.4517 95.6407 88.73C95.9057 89.0084 95.9457 89.4317 95.7391 89.755L93.7807 92.8017L97.3307 90.7534C97.6691 90.555 98.1041 90.6217 98.3674 90.9184C98.6291 91.21 98.6524 91.6484 98.4207 91.965L96.9141 94.035L97.7874 93.5317C98.1207 93.3384 98.5424 93.4 98.8091 93.68C99.0724 93.96 99.1124 94.385 98.9024 94.7067L98.1191 95.9117C98.2907 95.9767 98.4407 96.1 98.5391 96.2717C98.7707 96.67 98.6341 97.18 98.2341 97.41L96.3157 98.5184C95.9857 98.715 95.5624 98.6517 95.2957 98.37C95.0307 98.0917 94.9907 97.665 95.2007 97.3434L95.6091 96.7134L94.3457 97.4434C94.0057 97.6434 93.5741 97.575 93.3091 97.2784C93.0474 96.9867 93.0241 96.5484 93.2557 96.2317L94.7607 94.1617L91.6374 95.965C91.3074 96.16 90.8857 96.1 90.6174 95.8184C90.3524 95.54 90.3124 95.1167 90.5191 94.7934L92.4791 91.745L88.3124 94.1484C87.9674 94.35 87.5274 94.275 87.2641 93.9734C87.0041 93.67 86.9941 93.225 87.2424 92.91L88.9657 90.7334L85.6057 92.6717C85.2507 92.88 84.7941 92.795 84.5357 92.4684C84.2791 92.1467 84.2974 91.6817 84.5791 91.3817L85.7074 90.1767L83.4357 91.4884C83.0807 91.6967 82.6224 91.61 82.3641 91.2834C82.1091 90.96 82.1274 90.495 82.4124 90.195L83.4891 89.055L81.2957 90.3217C80.9391 90.53 80.4791 90.4417 80.2207 90.1117C79.9657 89.785 79.9907 89.3167 80.2807 89.02L81.1757 88.1017L79.2574 89.2084C78.9207 89.405 78.4941 89.3384 78.2274 89.0517C77.9641 88.765 77.9341 88.3334 78.1557 88.0134L80.0691 85.2467L76.1457 87.51C75.7991 87.7117 75.3541 87.6334 75.0924 87.3284C74.8324 87.02 74.8291 86.5717 75.0857 86.26L76.7157 84.28L73.5607 86.1C73.2174 86.3 72.7807 86.2267 72.5191 85.93C72.2574 85.6317 72.2407 85.1917 72.4807 84.875L74.2891 82.4834L70.7157 84.545C70.3574 84.755 69.9007 84.6634 69.6407 84.3367C69.3857 84.01 69.4091 83.5434 69.6991 83.245L70.6424 82.2684L68.6507 83.4167C68.2907 83.6284 67.8274 83.535 67.5741 83.2017C67.3191 82.87 67.3491 82.4017 67.6474 82.105L68.3291 81.4267L66.7107 82.36C66.3274 82.5884 65.8324 82.4634 65.5891 82.085C65.3491 81.7067 65.4524 81.2084 65.8207 80.9534L75.7674 74.0717L55.8957 85.545C55.5041 85.7717 55.0091 85.6467 54.7707 85.265C54.5324 84.8834 54.6424 84.3817 55.0141 84.13L71.1241 73.35L26.6807 99.0084C26.2891 99.235 25.7941 99.11 25.5557 98.7267C25.3174 98.345 25.4274 97.845 25.8007 97.5934L45.5891 84.37L20.2357 99.0067C19.9324 99.18 19.5591 99.15 19.2907 98.9284C19.0224 98.7084 18.9191 98.3434 19.0307 98.015L19.5957 96.3667L15.0207 99.0067C14.8891 99.0834 14.7457 99.1184 14.6041 99.1184L14.6074 99.1167Z" fill="#A8B0D1"/>
<path d="M43.9818 82.6101C43.7368 82.6101 43.4935 82.5017 43.3302 82.2967C43.0735 81.975 43.0885 81.5117 43.3685 81.2117L44.5652 79.9167L42.1835 81.29C41.8285 81.4984 41.3702 81.4117 41.1118 81.0851C40.8552 80.7601 40.8768 80.2951 41.1618 79.9951L42.2035 78.9001L40.0618 80.1351C39.7068 80.3417 39.2552 80.2567 38.9968 79.9384C38.7385 79.6184 38.7518 79.1584 39.0285 78.8551L40.3152 77.4334L37.7835 78.8934C37.4302 79.1017 36.9735 79.0151 36.7152 78.6934C36.4568 78.3717 36.4735 77.91 36.7535 77.6084L37.9552 76.3051L35.5635 77.6851C35.2135 77.8917 34.7652 77.8101 34.5052 77.4967C34.2468 77.1834 34.2502 76.7301 34.5152 76.4201L36.0135 74.6751L33.1135 76.3484C32.7518 76.56 32.2835 76.465 32.0302 76.1267C31.7785 75.7884 31.8168 75.3167 32.1235 75.0251L32.4285 74.7334L31.3218 75.3717C30.9785 75.5734 30.5418 75.4984 30.2768 75.1984C30.0152 74.8984 30.0018 74.4551 30.2452 74.1401L32.0135 71.8551L28.5452 73.8567C28.1668 74.0801 27.6818 73.9634 27.4368 73.6017C27.1935 73.2367 27.2702 72.7467 27.6168 72.4784L36.3002 65.7301L25.2935 72.0834C24.9135 72.3084 24.4235 72.1901 24.1785 71.8184C23.9368 71.4467 24.0268 70.9501 24.3852 70.6901L31.5352 65.4584L4.53851 81.0467C4.14684 81.2734 3.65184 81.1484 3.41518 80.7667C3.17518 80.385 3.28351 79.885 3.65851 79.6334L21.3152 67.7767L5.19684 77.0817C4.83184 77.2984 4.35851 77.1967 4.10684 76.8501C3.85684 76.5051 3.90684 76.0267 4.22351 75.7401L6.39184 73.79L5.67518 74.2017C5.27684 74.4334 4.76518 74.2951 4.53684 73.8967C4.30518 73.4984 4.44184 72.9884 4.84184 72.7584L12.4302 68.3784C12.7968 68.1634 13.2702 68.2651 13.5202 68.6101C13.7702 68.9551 13.7202 69.4334 13.4035 69.7201L11.2385 71.6684L41.7752 54.0384C42.1652 53.8101 42.6618 53.9351 42.8985 54.3184C43.1385 54.7001 43.0302 55.2001 42.6552 55.4517L24.9968 67.3101L44.0552 56.3067C44.4368 56.0851 44.9268 56.2017 45.1702 56.5717C45.4118 56.9434 45.3218 57.4401 44.9635 57.7001L37.8085 62.9367L45.9785 58.2201C46.3552 57.9984 46.8402 58.1134 47.0868 58.4751C47.3302 58.8401 47.2535 59.3301 46.9068 59.5984L35.7035 68.3067C35.7735 68.3501 35.8368 68.4051 35.8935 68.4684C36.1552 68.7684 36.1685 69.2117 35.9252 69.5267L34.1568 71.8117L37.6252 69.8101C37.9852 69.5967 38.4535 69.6917 38.7085 70.0317C38.9602 70.3701 38.9218 70.8417 38.6152 71.1334L38.3068 71.4284L39.4168 70.7884C39.7668 70.5834 40.2152 70.6634 40.4752 70.9767C40.7335 71.2901 40.7302 71.7434 40.4652 72.0534L38.9668 73.7984L41.8668 72.1251C42.2202 71.9167 42.6768 72.0051 42.9352 72.3251C43.1918 72.6467 43.1768 73.1084 42.8968 73.4101L41.6952 74.7134L44.0868 73.3334C44.4368 73.1251 44.8918 73.2101 45.1518 73.5301C45.4118 73.8501 45.3968 74.3101 45.1202 74.6134L43.8335 76.035L46.3652 74.5751C46.7202 74.3667 47.1785 74.4551 47.4368 74.7801C47.6952 75.1051 47.6718 75.5701 47.3868 75.8701L46.3452 76.9651L48.4868 75.7301C48.8418 75.5234 49.2952 75.6101 49.5552 75.93C49.8118 76.2517 49.7968 76.7151 49.5168 77.0151L48.3235 78.3067L50.7002 76.9351C51.0968 76.7017 51.6085 76.8401 51.8385 77.2401C52.0702 77.6384 51.9335 78.1484 51.5335 78.3784L44.4018 82.4984C44.2718 82.5751 44.1285 82.6101 43.9852 82.6101H43.9818Z" fill="#A8B0D1"/>
<path d="M49.2377 66.9617C48.976 66.9617 48.7177 66.8383 48.5577 66.61C48.3094 66.2583 48.3694 65.7767 48.696 65.495L51.8177 62.8167L47.9044 65.075C47.5244 65.3017 47.0344 65.1783 46.791 64.8133C46.5477 64.4433 46.636 63.95 46.9894 63.6867L54.631 57.985L45.8894 63.0317C45.5077 63.2533 45.011 63.135 44.7727 62.7617C44.531 62.3883 44.626 61.8933 44.9877 61.6333L58.336 52.0833L43.5227 60.6333C43.131 60.8617 42.6327 60.735 42.396 60.3483C42.1594 59.965 42.2727 59.4617 42.6494 59.2133L48.191 55.6L42.0527 59.1433C41.661 59.37 41.1644 59.2467 40.926 58.86C40.6894 58.4783 40.801 57.975 41.176 57.7267L52.0794 50.525L40.2727 57.34C39.881 57.5683 39.3827 57.4417 39.1444 57.0533C38.9077 56.6683 39.0244 56.165 39.4027 55.9183L48.5327 50.005L38.6594 55.7033C38.2677 55.935 37.766 55.8033 37.531 55.415C37.2944 55.03 37.411 54.525 37.791 54.28L46.276 48.835L37.106 54.1283C36.7127 54.355 36.2194 54.23 35.981 53.8467C35.7427 53.4633 35.8527 52.9633 36.226 52.7133L54.4694 40.5567L34.876 51.8683C34.4827 52.1 33.9794 51.9683 33.7444 51.5767C33.5094 51.1883 33.6327 50.6817 34.016 50.44L37.1027 48.5067L33.571 50.545C33.1794 50.7767 32.676 50.645 32.441 50.255C32.206 49.865 32.326 49.3617 32.7094 49.1183L39.8194 44.6317L32.121 49.075C31.7277 49.3 31.231 49.1783 30.996 48.7917C30.7577 48.41 30.8694 47.9083 31.2444 47.6583L51.6494 34.1683L29.951 46.695C29.556 46.9233 29.0527 46.7917 28.8194 46.4033C28.5844 46.0133 28.7077 45.5083 29.0927 45.2667L33.451 42.5417L28.8194 45.215C28.4277 45.445 27.9244 45.3167 27.6877 44.9233C27.4527 44.535 27.5744 44.03 27.9594 43.7883L35.5994 38.985L27.7177 43.5333C27.326 43.765 26.8227 43.6333 26.5877 43.2433C26.3527 42.8567 26.471 42.3517 26.8527 42.1083L39.131 34.3L26.611 41.5267C26.2194 41.7567 25.721 41.6267 25.4844 41.2417C25.2477 40.8567 25.361 40.3567 25.736 40.1083L45.4144 27.22L25.436 38.755C25.0444 38.985 24.5394 38.8533 24.3044 38.4633C24.0694 38.0733 24.1927 37.5683 24.576 37.3267L30.0344 33.905L24.8377 36.905C24.4444 37.1317 23.9477 37.0067 23.711 36.62C23.4744 36.2367 23.5877 35.7333 23.9644 35.485L41.6677 23.9117L24.1844 34.005C23.7927 34.2333 23.2944 34.105 23.056 33.72C22.8194 33.335 22.9344 32.8317 23.3127 32.585L38.0127 23.035L23.846 31.2133C23.4544 31.4433 22.9544 31.3133 22.7177 30.925C22.481 30.5367 22.5994 30.035 22.9794 29.79L31.686 24.22L23.806 28.7683C23.4144 28.995 22.9194 28.87 22.681 28.4867C22.4427 28.1033 22.5527 27.6017 22.9277 27.3517L37.3777 17.7583L24.0877 25.4317C23.6944 25.6567 23.1994 25.5333 22.961 25.1483C22.7244 24.7667 22.836 24.2633 23.211 24.015L33.4044 17.2833L24.7327 22.29C24.341 22.5167 23.8444 22.39 23.606 22.0067C23.3694 21.6233 23.481 21.1217 23.856 20.8733L30.0694 16.7767L25.7244 19.285C25.3444 19.51 24.856 19.39 24.611 19.0217C24.3677 18.65 24.456 18.1567 24.8127 17.8933L35.6544 9.88165L28.5694 13.97C28.191 14.1933 27.7044 14.0767 27.461 13.7133C27.2177 13.35 27.2944 12.8583 27.641 12.59L32.731 8.64665C32.5694 8.57832 32.4294 8.45832 32.336 8.29499C32.1044 7.89665 32.241 7.38665 32.641 7.15665L40.5844 2.56999C40.961 2.34832 41.4494 2.46332 41.6927 2.82499C41.936 3.18999 41.8594 3.68165 41.5127 3.94999L38.351 6.39999L47.5977 1.06332C47.9794 0.841653 48.4677 0.95832 48.711 1.32665C48.9544 1.69832 48.866 2.19165 48.5094 2.45499L37.6677 10.4683L53.5677 1.30999C53.956 1.08165 54.456 1.20832 54.6944 1.59332C54.931 1.97665 54.8194 2.47832 54.4444 2.72665L48.2427 6.81665L56.646 1.96499C57.036 1.73665 57.5327 1.86165 57.7727 2.24832C58.0094 2.62999 57.8977 3.13332 57.5227 3.38165L47.3394 10.1067L59.6594 2.99332C60.0477 2.76332 60.5444 2.89165 60.7844 3.27499C61.0227 3.65665 60.9127 4.15999 60.5377 4.40999L46.086 14.0033L62.6277 4.45499C63.0227 4.22665 63.521 4.35499 63.756 4.74332C63.9927 5.12999 63.8744 5.63332 63.4944 5.87832L54.766 11.4633L64.6694 5.74499C65.061 5.51665 65.5594 5.64499 65.7977 6.02999C66.0344 6.41499 65.9194 6.91832 65.541 7.16499L50.8377 16.7167L66.866 7.46332C67.2577 7.23332 67.7577 7.36332 67.9927 7.74832C68.2294 8.13165 68.116 8.63499 67.7394 8.88332L50.0477 20.45L68.9827 9.51665C69.3777 9.28999 69.8794 9.41832 70.1144 9.80832C70.3494 10.1983 70.226 10.7033 69.8427 10.945L64.3794 14.37L70.2477 10.9833C70.6394 10.755 71.1377 10.8833 71.3744 11.2683C71.611 11.6533 71.4977 12.1533 71.1227 12.4017L51.4394 25.2917L71.9994 13.4233C72.3944 13.195 72.8944 13.325 73.1294 13.7133C73.3644 14.1017 73.246 14.605 72.8644 14.8483L60.586 22.6567L73.136 15.4117C73.531 15.1833 74.0327 15.3117 74.2677 15.7033C74.5027 16.0917 74.381 16.5967 73.996 16.8383L66.3694 21.635L73.9977 17.23C74.3927 17 74.8927 17.1317 75.1294 17.5217C75.3644 17.9117 75.241 18.4167 74.856 18.6583L70.501 21.3817L74.676 18.9717C75.0644 18.7417 75.5644 18.8683 75.801 19.255C76.0394 19.6367 75.9277 20.1383 75.5527 20.3883L55.1377 33.885L75.5594 22.0967C75.9527 21.8683 76.4544 21.9967 76.6894 22.3867C76.9244 22.7767 76.8044 23.28 76.421 23.5233L69.3494 27.9883L75.9377 24.185C76.3327 23.9567 76.8344 24.0867 77.0694 24.4767C77.3044 24.8667 77.181 25.3717 76.7977 25.6133L73.686 27.5633L76.1477 26.1433C76.5377 25.9133 77.0327 26.0417 77.2727 26.425C77.511 26.8067 77.401 27.3083 77.0277 27.5583L58.786 39.7133L76.1644 29.68C76.5577 29.4533 77.0577 29.5817 77.2927 29.9683C77.5294 30.3533 77.4127 30.8583 77.0327 31.1033L68.541 36.5533L75.8644 32.3267C76.256 32.0983 76.7544 32.225 76.9927 32.6133C77.2294 32.9983 77.1127 33.5017 76.7344 33.7483L67.6027 39.665L75.2394 35.255C75.6277 35.0267 76.1277 35.1517 76.3644 35.5383C76.6027 35.92 76.491 36.4233 76.116 36.6717L65.2244 43.8667L74.0044 38.7983C74.396 38.57 74.8944 38.6967 75.131 39.0833C75.3677 39.4667 75.2544 39.97 74.8777 40.2183L69.3127 43.8467L72.311 42.1167C72.6927 41.89 73.186 42.0117 73.4277 42.3867C73.6694 42.76 73.5744 43.255 73.2127 43.515L59.8727 53.0617L66.1127 49.46C66.4944 49.2367 66.9844 49.3567 67.226 49.7217C67.4694 50.0917 67.381 50.585 67.0277 50.8483L59.0377 56.81C59.341 56.7483 59.6694 56.8783 59.861 57.1483C60.1094 57.5 60.0494 57.9817 59.7227 58.2633L53.486 63.615C53.501 63.6367 53.5144 63.6567 53.5277 63.68C53.7577 64.0783 53.621 64.5883 53.221 64.8183L49.6744 66.865C49.5444 66.9417 49.3994 66.9767 49.2577 66.9767L49.2377 66.9617Z" fill="#0783FF"/>
<path d="M50.1521 45.7784C49.8837 45.7784 49.6221 45.6484 49.4604 45.4101C49.2171 45.0451 49.2937 44.5551 49.6404 44.2868L55.9721 39.3634L46.0637 45.0851C45.6821 45.3084 45.1871 45.1901 44.9454 44.8151C44.7054 44.4401 44.8004 43.9451 45.1621 43.6851L52.0537 38.7634L43.0671 43.9517C42.6787 44.1801 42.1854 44.0551 41.9454 43.6751C41.7054 43.2951 41.8104 42.7967 42.1804 42.5417L48.0237 38.5467L40.8954 42.6634C40.5021 42.8901 40.0054 42.7667 39.7704 42.3801C39.5321 41.9984 39.6437 41.4967 40.0187 41.2467L42.8421 39.3801L39.3221 41.4117C38.9304 41.6367 38.4337 41.5117 38.1954 41.1284C37.9587 40.7451 38.0704 40.2434 38.4454 39.9934L41.6954 37.8534L37.9387 40.0217C37.5504 40.2484 37.0621 40.1251 36.8187 39.7484C36.5787 39.3717 36.6787 38.8751 37.0437 38.6184L48.6104 30.5034L36.2054 37.6651C35.8137 37.8918 35.3154 37.7651 35.0787 37.3801C34.8421 36.9951 34.9554 36.4917 35.3337 36.2451L37.0771 35.1084L35.3721 36.0934C34.9887 36.3201 34.4954 36.1967 34.2537 35.8234C34.0121 35.4467 34.1104 34.9517 34.4737 34.6934L46.6604 26.0384L34.3137 33.1651C33.9204 33.3917 33.4254 33.2651 33.1871 32.8817C32.9504 32.4984 33.0621 31.9967 33.4371 31.7467L35.9971 30.0617L33.9504 31.2417C33.5621 31.4634 33.0737 31.3451 32.8321 30.9717C32.5904 30.5984 32.6871 30.1001 33.0504 29.8417L42.6754 22.9917L33.8321 28.0967C33.4504 28.3201 32.9554 28.2001 32.7137 27.8267C32.4737 27.4517 32.5687 26.9567 32.9321 26.6967L39.8887 21.7334L34.3054 24.9567C33.9187 25.1851 33.4254 25.0584 33.1837 24.6817C32.9454 24.3034 33.0471 23.8051 33.4154 23.5501L34.9771 22.4701C34.6587 22.5417 34.3104 22.4301 34.1054 22.1484C33.8554 21.8017 33.9071 21.3234 34.2254 21.0384L38.7837 16.9751C38.4704 17.0001 38.1637 16.8467 37.9987 16.5601C37.7671 16.1617 37.9037 15.6517 38.3037 15.4217L44.6821 11.7384C45.0504 11.5251 45.5221 11.6234 45.7737 11.9717C46.0237 12.3184 45.9721 12.7967 45.6537 13.0817L41.3937 16.8801L51.3954 11.1051C51.7804 10.8801 52.2754 11.0034 52.5171 11.3801C52.7554 11.7584 52.6537 12.2567 52.2854 12.5117L51.0521 13.3667L54.0721 11.6234C54.4537 11.3967 54.9471 11.5184 55.1904 11.8934C55.4304 12.2684 55.3354 12.7634 54.9721 13.0234L48.0204 17.9834L57.0471 12.7717C57.4271 12.5451 57.9221 12.6667 58.1654 13.0417C58.4071 13.4167 58.3104 13.9134 57.9471 14.1717L48.3171 21.0251L59.7037 14.4517C60.0954 14.2234 60.5921 14.3517 60.8304 14.7351C61.0671 15.1184 60.9554 15.6201 60.5804 15.8701L58.0187 17.5567L61.1821 15.7301C61.5687 15.5034 62.0587 15.6267 62.3004 16.0001C62.5421 16.3767 62.4437 16.8717 62.0804 17.1301L49.8971 25.7817L63.1937 18.1067C63.5854 17.8784 64.0854 18.0051 64.3204 18.3917C64.5571 18.7767 64.4437 19.2801 64.0654 19.5267L62.3321 20.6567L64.1337 19.6167C64.5154 19.3917 65.0121 19.5134 65.2537 19.8901C65.4937 20.2667 65.3937 20.7634 65.0287 21.0201L53.4537 29.1417L65.3204 22.2917C65.7087 22.0651 66.2087 22.1917 66.4471 22.5751C66.6837 22.9584 66.5721 23.4601 66.1971 23.7101L62.9587 25.8434L65.8287 24.1867C66.2171 23.9601 66.7171 24.0834 66.9537 24.4701C67.1921 24.8517 67.0804 25.3534 66.7054 25.6034L63.8887 27.4667L66.1337 26.1717C66.5237 25.9467 67.0171 26.0684 67.2554 26.4484C67.4954 26.8284 67.3904 27.3267 67.0204 27.5817L61.1804 31.5751L66.1537 28.7034C66.5354 28.4767 67.0287 28.5984 67.2721 28.9734C67.5121 29.3484 67.4171 29.8434 67.0554 30.1034L60.1571 35.0284L65.6421 31.8634C66.0187 31.6417 66.5054 31.7567 66.7504 32.1184C66.9937 32.4834 66.9171 32.9734 66.5704 33.2417L60.2387 38.1651L63.8854 36.0584C64.2604 35.8367 64.7454 35.9484 64.9921 36.3117C65.2354 36.6734 65.1621 37.1617 64.8187 37.4334L61.7587 39.8501C61.8521 39.9167 61.9321 40.0051 61.9937 40.1101C62.2254 40.5084 62.0887 41.0184 61.6887 41.2484L55.3104 44.9317C54.9337 45.1517 54.4504 45.0401 54.2037 44.6784C53.9604 44.3167 54.0337 43.8284 54.3771 43.5568L54.7754 43.2417L50.5671 45.6717C50.4371 45.7484 50.2921 45.7834 50.1504 45.7834L50.1521 45.7784Z" fill="#F5F6FA"/>
<path d="M8.34361 49.8717C5.22361 62.4267 4.01527 75.625 1.55527 88.395C0.606938 93.5867 -1.39473 99.73 6.45194 98.8983C36.1453 98.7017 65.9003 99.2717 95.6169 98.7467C99.9219 98.3367 99.8319 93.715 98.8836 90.49C96.7903 77.9117 94.6853 65.275 92.5869 52.6767C92.3336 43.7017 76.0119 49.185 69.9053 47.7667C89.7819 27.975 69.1286 -6.36166 42.2953 2.36501C22.9786 7.67001 15.3053 33.3633 29.6336 47.7667C22.9819 48.7867 13.7719 45.2367 8.34361 49.8717ZM6.13194 97.7667C-0.663062 96.8417 5.38861 86.0183 5.03527 81.51C11.3153 78.2967 17.5953 75.0817 23.8769 71.8683C30.4036 75.435 36.9303 79.0017 43.4569 82.5667C31.0419 87.3683 19.8103 98.645 6.13361 97.765L6.13194 97.7667ZM15.4469 97.8383C25.4453 92.4417 36.5403 87.585 46.0069 81.9183C21.6936 69.2367 30.1153 67.2883 5.20694 80.485C5.62361 77.9783 6.04194 75.4717 6.45861 72.9667C17.0736 67.54 27.6903 62.115 38.3053 56.6883C39.7286 58.1317 41.1519 59.575 42.5753 61.0167C22.8636 70.22 31.6219 66.29 50.6203 78.4967C51.6286 79.0467 52.2669 79.2717 53.3869 78.7833C66.0519 72.5 78.5469 65.7983 91.1936 59.4517C91.5286 61.4583 91.8619 63.4667 92.1969 65.4733C60.4969 81.8583 67.5586 72.8783 96.4653 91.0983C96.5953 92.9767 97.8103 95.4233 96.5419 97.0667C85.6669 91.575 75.1536 84.5067 64.0886 79.78C47.9303 86.27 33.7203 100.09 15.4469 97.8383ZM83.6286 97.7667H31.8236C42.4753 92.3183 53.1286 86.87 63.7803 81.4217C73.7686 86.8817 83.7569 92.3417 93.7469 97.8C90.3703 97.715 87.0036 97.79 83.6286 97.7667ZM96.0769 88.775C88.5003 84.635 80.9236 80.4967 73.3469 76.3567C79.6936 73.1083 86.0403 69.86 92.3853 66.61C93.6153 73.9983 94.8469 81.3867 96.0769 88.775ZM79.4419 48.8983C88.1786 48.475 90.4119 48.3467 90.9569 57.93C78.2503 64.4283 65.5419 70.925 52.8353 77.4233C46.5303 73.9783 40.2253 70.5333 33.9203 67.0883C37.1636 65.4283 40.4086 63.7683 43.6519 62.1083C45.9503 63.7217 47.6269 68.245 50.9419 66.7633C57.2136 61.2333 62.8153 54.7517 68.8553 48.8983H79.4419ZM49.4986 66.3883C49.4353 66.4183 49.4369 66.4217 49.4986 66.3883V66.3883ZM26.3203 18.7383C36.4236 -8.45666 75.8219 1.08001 75.4569 29.0433C75.6019 45.4433 59.9119 54.6067 50.1953 65.6967C38.0803 52.75 18.0003 39.0833 26.3203 18.7383ZM30.6686 48.8983C32.8869 51.245 35.2019 53.5217 37.4619 55.8317C27.2053 61.075 16.9486 66.3167 6.69194 71.56C11.9986 46.9767 3.44194 48.3467 30.6686 48.8983Z" fill="#0D0E16"/>
<path d="M53.2069 45.6233C70.4885 43.0083 73.0269 17.2383 56.2419 11.7599C27.4135 3.41826 23.0619 49.3166 53.2069 45.6233ZM36.6252 20.3433C44.0369 6.55326 65.8452 13.0783 65.4369 28.4099C63.7569 54.9899 25.0869 43.7066 36.6252 20.3433Z" fill="#0D0E16"/>
</g>
<defs>
<clipPath id="clip0_2493_3331">
<rect width="100" height="100" fill="white"/>
</clipPath>
</defs>
</svg>
