<svg width="933" height="733" viewBox="0 0 933 733" fill="none" xmlns="http://www.w3.org/2000/svg">
<path d="M918.813 441.699C877.833 399.662 823.115 434.412 780.599 453.079C732.818 474.058 684.604 496.183 635.568 514.042C633.302 462.902 602.188 459.574 561.245 450.615L503.422 437.928C447.234 426.183 447.755 429.35 399.865 393.777C325.5 338.532 266.823 342.902 183.349 354.266C180.104 344.714 171.495 354.136 165.766 349.699L162.828 629.141C171.354 623.886 183.672 622.61 183.349 607.631C260.068 607.49 249.12 612.235 314.318 642.745C346.052 657.6 482.401 713.943 516.396 703.969C601.255 679.089 701.516 622.761 776.339 577.662C787.078 571.188 882.583 508.501 907.286 490.475C929.901 473.975 945 468.568 918.813 441.699ZM821.88 516.579C731.818 575.11 638.479 629.068 537.932 667.589C509.37 678.537 511.182 680.261 480.771 673.204C428.193 661.001 378.339 642.662 329.458 619.86C260.458 587.673 264.198 580.162 183.344 581.042C183.344 514.183 182.651 447.261 183.344 380.412C204.948 377.485 226.839 374.839 248.542 372.782C300.563 368.141 352.672 391.969 393.057 422.772C431.964 452.443 432.917 450.693 479.974 460.709L557.422 477.329C573.943 480.969 599.135 481.615 606.625 500.001C613.281 516.339 603.422 536.459 585.427 538.995C572.771 540.782 557.51 535.626 545.036 533.022L450.87 513.553C415.969 506.584 394.401 499.798 359.026 515.079C348.328 519.699 349.099 536.386 359.901 540.199C369.651 543.636 396.594 529.777 420.87 534.62L522.703 555.626C545.745 560.37 577.677 572.042 600.667 562.725C610.719 558.652 618.078 550.412 627.792 546.24C685.563 521.423 743.521 499.407 801.656 473.506C831.417 460.324 871.635 433.469 901.328 460.818C876.859 481.428 848.646 499.188 821.88 516.579Z" fill="black"/>
<path d="M273.471 295.786C272.628 295.786 271.794 295.703 270.966 295.542C270.138 295.375 269.336 295.135 268.56 294.813C267.779 294.49 267.039 294.094 266.336 293.625C265.638 293.156 264.987 292.625 264.393 292.026C263.794 291.432 263.263 290.781 262.794 290.083C262.326 289.38 261.93 288.641 261.607 287.865C261.284 287.083 261.044 286.281 260.878 285.458C260.716 284.63 260.633 283.797 260.633 282.953V107.411C260.633 106.568 260.716 105.734 260.878 104.906C261.044 104.078 261.284 103.276 261.607 102.5C261.93 101.719 262.326 100.979 262.794 100.281C263.263 99.5781 263.794 98.9323 264.393 98.3333C264.987 97.7396 265.638 97.2083 266.336 96.7396C267.039 96.2708 267.779 95.875 268.56 95.5521C269.336 95.2292 270.138 94.9844 270.966 94.8229C271.794 94.6563 272.628 94.5781 273.471 94.5781C274.315 94.5781 275.148 94.6563 275.977 94.8229C276.805 94.9844 277.607 95.2292 278.383 95.5521C279.164 95.875 279.904 96.2708 280.607 96.7396C281.305 97.2083 281.956 97.7396 282.549 98.3333C283.148 98.9323 283.68 99.5781 284.148 100.281C284.617 100.979 285.013 101.719 285.336 102.5C285.659 103.276 285.898 104.078 286.065 104.906C286.227 105.734 286.31 106.568 286.31 107.411V282.953C286.31 283.797 286.227 284.63 286.065 285.458C285.898 286.281 285.659 287.083 285.336 287.865C285.013 288.641 284.617 289.38 284.148 290.083C283.68 290.781 283.148 291.432 282.549 292.026C281.956 292.625 281.305 293.156 280.607 293.625C279.904 294.094 279.164 294.49 278.383 294.813C277.607 295.135 276.805 295.375 275.977 295.542C275.148 295.703 274.315 295.786 273.471 295.786Z" fill="#FC9D08"/>
<path d="M214.909 179.948C213.638 179.948 212.399 179.76 211.18 179.396C209.966 179.026 208.831 178.49 207.774 177.786C206.722 177.078 205.789 176.234 204.982 175.255C204.18 174.271 203.534 173.198 203.044 172.026C202.56 170.849 202.258 169.635 202.133 168.37C202.008 167.104 202.071 165.854 202.315 164.609C202.565 163.365 202.987 162.182 203.586 161.063C204.185 159.943 204.93 158.932 205.831 158.036L265.55 98.3333C266.149 97.7396 266.794 97.2083 267.498 96.7396C268.196 96.2708 268.935 95.875 269.716 95.5521C270.498 95.2292 271.3 94.9896 272.123 94.8229C272.951 94.6563 273.789 94.5781 274.628 94.5781C275.472 94.5781 276.31 94.6563 277.133 94.8229C277.961 94.9844 278.763 95.2292 279.544 95.5521C280.321 95.875 281.06 96.2708 281.763 96.7396C282.466 97.2083 283.112 97.7396 283.711 98.3333L341.123 155.729C341.716 156.328 342.242 156.974 342.706 157.677C343.175 158.375 343.565 159.115 343.883 159.896C344.201 160.672 344.446 161.474 344.607 162.297C344.768 163.12 344.847 163.953 344.847 164.797C344.841 165.635 344.758 166.469 344.597 167.292C344.43 168.115 344.185 168.917 343.862 169.693C343.539 170.469 343.143 171.203 342.68 171.906C342.211 172.604 341.68 173.25 341.086 173.844C340.492 174.438 339.841 174.969 339.143 175.438C338.446 175.901 337.706 176.297 336.93 176.62C336.154 176.943 335.357 177.188 334.529 177.354C333.706 177.516 332.873 177.599 332.034 177.604C331.19 177.604 330.357 177.526 329.534 177.365C328.711 177.203 327.909 176.958 327.128 176.641C326.352 176.323 325.612 175.932 324.914 175.469C324.211 175 323.56 174.474 322.966 173.88L274.633 125.563L223.992 176.188C222.789 177.391 221.399 178.323 219.826 178.974C218.253 179.625 216.612 179.948 214.909 179.948Z" fill="#FC9D08"/>
<path d="M805.643 295.786C804.805 295.786 803.966 295.703 803.138 295.542C802.315 295.375 801.513 295.135 800.732 294.813C799.951 294.49 799.211 294.094 798.513 293.625C797.81 293.156 797.164 292.625 796.565 292.026C795.971 291.432 795.44 290.781 794.971 290.083C794.503 289.38 794.107 288.641 793.784 287.865C793.461 287.083 793.216 286.281 793.055 285.458C792.888 284.63 792.805 283.797 792.805 282.953V107.411C792.805 106.568 792.888 105.734 793.055 104.906C793.216 104.078 793.461 103.276 793.784 102.5C794.107 101.719 794.503 100.979 794.971 100.281C795.44 99.5781 795.971 98.9323 796.565 98.3333C797.164 97.7396 797.81 97.2083 798.513 96.7396C799.211 96.2708 799.951 95.875 800.732 95.5521C801.513 95.2292 802.315 94.9844 803.138 94.8229C803.966 94.6563 804.805 94.5781 805.643 94.5781C806.487 94.5781 807.326 94.6563 808.148 94.8229C808.977 94.9844 809.779 95.2292 810.56 95.5521C811.336 95.875 812.076 96.2708 812.779 96.7396C813.482 97.2083 814.128 97.7396 814.727 98.3333C815.32 98.9323 815.852 99.5781 816.32 100.281C816.789 100.979 817.185 101.719 817.508 102.5C817.831 103.276 818.076 104.078 818.237 104.906C818.404 105.734 818.487 106.568 818.487 107.411V282.953C818.487 283.797 818.404 284.63 818.237 285.458C818.076 286.281 817.831 287.083 817.508 287.865C817.185 288.641 816.789 289.38 816.32 290.083C815.852 290.781 815.32 291.432 814.727 292.026C814.128 292.625 813.482 293.156 812.779 293.625C812.076 294.094 811.336 294.49 810.56 294.813C809.779 295.135 808.977 295.375 808.148 295.542C807.326 295.703 806.487 295.786 805.643 295.786Z" fill="#FC9D08"/>
<path d="M804.487 295.788C802.784 295.793 801.143 295.465 799.57 294.814C797.997 294.163 796.612 293.236 795.409 292.027L737.992 234.632C737.398 234.038 736.867 233.392 736.398 232.689C735.93 231.986 735.539 231.246 735.216 230.47C734.893 229.694 734.654 228.892 734.487 228.064C734.326 227.236 734.242 226.402 734.242 225.564C734.247 224.72 734.326 223.887 734.492 223.059C734.659 222.236 734.898 221.434 735.221 220.652C735.544 219.876 735.94 219.137 736.409 218.439C736.878 217.736 737.409 217.09 738.008 216.496C738.602 215.897 739.247 215.366 739.951 214.897C740.648 214.434 741.388 214.038 742.169 213.715C742.945 213.392 743.747 213.147 744.576 212.98C745.398 212.819 746.232 212.736 747.076 212.736C747.919 212.736 748.753 212.814 749.581 212.98C750.404 213.142 751.206 213.387 751.987 213.704C752.763 214.027 753.503 214.423 754.206 214.892C754.909 215.355 755.555 215.887 756.154 216.48L804.487 264.803L855.128 214.178C855.727 213.579 856.372 213.048 857.076 212.579C857.773 212.111 858.518 211.715 859.294 211.392C860.076 211.074 860.878 210.829 861.706 210.663C862.529 210.501 863.367 210.418 864.211 210.418C865.049 210.418 865.888 210.501 866.716 210.663C867.539 210.829 868.341 211.074 869.122 211.392C869.904 211.715 870.643 212.111 871.341 212.579C872.044 213.048 872.69 213.579 873.289 214.178C873.883 214.772 874.419 215.423 874.883 216.121C875.352 216.824 875.747 217.564 876.07 218.34C876.393 219.121 876.638 219.923 876.805 220.751C876.966 221.574 877.049 222.413 877.049 223.251C877.049 224.095 876.966 224.934 876.805 225.757C876.638 226.585 876.393 227.387 876.07 228.168C875.747 228.944 875.352 229.684 874.883 230.387C874.419 231.085 873.883 231.736 873.289 232.329L813.565 292.027C812.362 293.236 810.977 294.163 809.404 294.814C807.831 295.465 806.19 295.793 804.487 295.788Z" fill="#FC9D08"/>
<path d="M113.104 584.77H85.0573C84.2135 584.77 83.3802 584.686 82.5521 584.52C81.724 584.358 80.9219 584.113 80.1458 583.79C79.3646 583.467 78.625 583.072 77.9271 582.603C77.224 582.139 76.5729 581.603 75.9792 581.009C75.3802 580.415 74.849 579.764 74.3802 579.066C73.9115 578.363 73.5156 577.624 73.1979 576.842C72.875 576.066 72.6302 575.264 72.4635 574.436C72.3021 573.608 72.2188 572.775 72.2188 571.931C72.2188 571.092 72.3021 570.254 72.4635 569.431C72.6302 568.603 72.875 567.801 73.1979 567.02C73.5156 566.243 73.9115 565.504 74.3802 564.801C74.849 564.103 75.3802 563.452 75.9792 562.858C76.5729 562.259 77.224 561.728 77.9271 561.259C78.625 560.79 79.3646 560.395 80.1458 560.077C80.9219 559.754 81.724 559.509 82.5521 559.342C83.3802 559.181 84.2135 559.098 85.0573 559.098H113.104C113.948 559.098 114.781 559.181 115.609 559.342C116.438 559.509 117.24 559.754 118.016 560.077C118.797 560.395 119.536 560.79 120.24 561.259C120.938 561.728 121.589 562.259 122.182 562.858C122.781 563.452 123.313 564.103 123.781 564.801C124.25 565.504 124.646 566.243 124.969 567.02C125.292 567.801 125.531 568.603 125.698 569.431C125.859 570.254 125.943 571.092 125.943 571.931C125.943 572.775 125.859 573.608 125.698 574.436C125.531 575.264 125.292 576.066 124.969 576.842C124.646 577.624 124.25 578.363 123.781 579.061C123.313 579.764 122.781 580.415 122.182 581.009C121.589 581.603 120.938 582.139 120.24 582.603C119.536 583.072 118.797 583.467 118.016 583.79C117.24 584.113 116.438 584.358 115.609 584.52C114.781 584.686 113.948 584.77 113.104 584.77Z" fill="black"/>
<mask id="mask0_1437_13" style="mask-type:luminance" maskUnits="userSpaceOnUse" x="12" y="325" width="172" height="318">
<path d="M12.0234 325.668H183.664V643.001H12.0234V325.668Z" fill="white"/>
</mask>
<g mask="url(#mask0_1437_13)">
<path d="M149.13 641.98H45.4323C44.3385 641.98 43.25 641.923 42.1615 641.814C41.0729 641.71 39.9948 641.548 38.9219 641.335C37.849 641.121 36.7917 640.85 35.7448 640.533C34.7031 640.215 33.6719 639.85 32.6615 639.428C31.6563 639.012 30.6667 638.543 29.7031 638.027C28.7396 637.512 27.8021 636.949 26.8958 636.345C25.9844 635.736 25.1094 635.085 24.2656 634.392C23.4219 633.699 22.6094 632.965 21.8385 632.194C21.0677 631.423 20.3333 630.616 19.6406 629.767C18.9427 628.923 18.2969 628.048 17.6875 627.142C17.0781 626.23 16.5156 625.293 16 624.329C15.4844 623.371 15.0208 622.382 14.599 621.371C14.1823 620.366 13.8125 619.335 13.4948 618.293C13.1771 617.246 12.9115 616.189 12.6979 615.116C12.4844 614.043 12.3229 612.965 12.2135 611.876C12.1042 610.788 12.0521 609.699 12.0469 608.605V359.23C12.0521 358.137 12.1042 357.048 12.2135 355.96C12.3229 354.871 12.4844 353.793 12.6979 352.72C12.9115 351.647 13.1771 350.59 13.4948 349.543C13.8125 348.501 14.1823 347.47 14.599 346.465C15.0208 345.454 15.4844 344.465 16 343.507C16.5156 342.543 17.0781 341.605 17.6875 340.694C18.2969 339.788 18.9427 338.913 19.6406 338.069C20.3333 337.22 21.0677 336.413 21.8385 335.642C22.6094 334.871 23.4219 334.137 24.2656 333.444C25.1094 332.751 25.9844 332.1 26.8958 331.491C27.8021 330.887 28.7396 330.324 29.7031 329.809C30.6667 329.293 31.6563 328.824 32.6615 328.408C33.6719 327.986 34.7031 327.621 35.7448 327.303C36.7917 326.986 37.849 326.715 38.9219 326.501C39.9948 326.288 41.0729 326.126 42.1615 326.022C43.25 325.913 44.3385 325.855 45.4323 325.855H149.13C150.224 325.855 151.313 325.913 152.401 326.022C153.49 326.126 154.568 326.288 155.641 326.501C156.714 326.715 157.771 326.986 158.818 327.303C159.865 327.621 160.891 327.986 161.901 328.408C162.911 328.824 163.896 329.293 164.859 329.809C165.823 330.324 166.76 330.887 167.667 331.491C168.578 332.1 169.453 332.751 170.297 333.444C171.146 334.137 171.953 334.871 172.724 335.642C173.5 336.413 174.229 337.22 174.927 338.069C175.62 338.913 176.271 339.788 176.875 340.694C177.484 341.605 178.047 342.543 178.563 343.507C179.078 344.465 179.542 345.454 179.964 346.465C180.38 347.47 180.75 348.501 181.068 349.543C181.385 350.59 181.651 351.647 181.865 352.72C182.078 353.793 182.24 354.871 182.349 355.96C182.458 357.048 182.51 358.137 182.516 359.23V608.605C182.51 609.699 182.458 610.788 182.349 611.876C182.24 612.965 182.078 614.043 181.865 615.116C181.651 616.189 181.385 617.246 181.068 618.293C180.75 619.335 180.38 620.366 179.964 621.371C179.542 622.382 179.078 623.371 178.563 624.329C178.047 625.293 177.484 626.23 176.875 627.142C176.271 628.048 175.62 628.923 174.927 629.767C174.229 630.616 173.5 631.423 172.724 632.194C171.953 632.965 171.146 633.699 170.297 634.392C169.453 635.085 168.578 635.736 167.667 636.345C166.76 636.949 165.823 637.512 164.859 638.027C163.896 638.543 162.911 639.012 161.901 639.428C160.891 639.85 159.865 640.215 158.818 640.533C157.771 640.85 156.714 641.121 155.641 641.335C154.568 641.548 153.49 641.71 152.401 641.814C151.313 641.923 150.224 641.98 149.13 641.98ZM45.4323 351.527C44.9271 351.527 44.4271 351.579 43.9323 351.678C43.4323 351.777 42.9531 351.923 42.4844 352.116C42.0208 352.309 41.5729 352.548 41.1563 352.829C40.7344 353.111 40.3438 353.428 39.9896 353.783C39.6302 354.142 39.3125 354.533 39.0313 354.949C38.75 355.371 38.5104 355.814 38.3177 356.283C38.125 356.751 37.9792 357.23 37.8802 357.725C37.7813 358.22 37.7292 358.725 37.7292 359.23V608.605C37.7292 609.111 37.7813 609.616 37.8802 610.111C37.9792 610.605 38.125 611.085 38.3177 611.553C38.5104 612.022 38.75 612.465 39.0313 612.887C39.3125 613.303 39.6302 613.694 39.9896 614.048C40.3438 614.408 40.7344 614.725 41.1563 615.007C41.5729 615.288 42.0208 615.527 42.4844 615.72C42.9531 615.913 43.4323 616.059 43.9323 616.158C44.4271 616.257 44.9271 616.309 45.4323 616.309H149.13C149.635 616.309 150.135 616.257 150.63 616.158C151.13 616.059 151.609 615.913 152.078 615.72C152.542 615.527 152.99 615.288 153.406 615.007C153.828 614.725 154.219 614.408 154.573 614.048C154.932 613.694 155.25 613.303 155.531 612.887C155.813 612.465 156.052 612.022 156.245 611.553C156.438 611.085 156.583 610.605 156.682 610.111C156.781 609.616 156.833 609.111 156.833 608.605V359.23C156.833 358.725 156.781 358.22 156.682 357.725C156.583 357.23 156.438 356.751 156.245 356.283C156.052 355.814 155.813 355.371 155.531 354.949C155.25 354.533 154.932 354.142 154.573 353.788C154.219 353.428 153.828 353.111 153.406 352.829C152.99 352.548 152.542 352.309 152.078 352.116C151.609 351.923 151.13 351.777 150.63 351.678C150.135 351.579 149.635 351.527 149.13 351.527H45.4323Z" fill="#FC9D08"/>
</g>
<path d="M539.56 351.37C445.69 351.37 369.32 275.021 369.32 181.182C369.32 87.3438 445.69 11 539.56 11C633.435 11 709.805 87.3438 709.805 181.182C709.805 275.021 633.435 351.37 539.56 351.37ZM539.56 36.6719C537.195 36.6719 534.831 36.7292 532.471 36.8438C530.107 36.9635 527.747 37.1354 525.393 37.3646C523.039 37.599 520.69 37.8854 518.352 38.2344C516.008 38.5833 513.68 38.9844 511.362 39.4479C509.039 39.9115 506.732 40.4271 504.435 41C502.143 41.5781 499.862 42.2083 497.596 42.8958C495.336 43.5781 493.086 44.3229 490.862 45.1198C488.633 45.9167 486.424 46.7656 484.242 47.6719C482.055 48.5781 479.893 49.5365 477.753 50.5469C475.617 51.5573 473.503 52.6198 471.414 53.7344C469.331 54.849 467.273 56.0156 465.242 57.2292C463.211 58.4479 461.216 59.7135 459.247 61.026C457.279 62.3385 455.346 63.7031 453.445 65.1094C451.544 66.5208 449.68 67.974 447.852 69.474C446.023 70.974 444.232 72.5208 442.482 74.1042C440.727 75.6927 439.013 77.3229 437.341 79C435.669 80.6719 434.034 82.3802 432.445 84.1354C430.857 85.8854 429.315 87.6771 427.815 89.5052C426.31 91.3333 424.857 93.1979 423.445 95.099C422.039 96.9948 420.674 98.9323 419.362 100.896C418.049 102.865 416.784 104.859 415.565 106.891C414.352 108.917 413.185 110.974 412.07 113.063C410.951 115.146 409.888 117.26 408.878 119.396C407.867 121.536 406.909 123.698 406.003 125.88C405.096 128.068 404.247 130.271 403.451 132.5C402.654 134.724 401.909 136.969 401.221 139.234C400.539 141.5 399.904 143.776 399.331 146.073C398.758 148.365 398.237 150.672 397.779 152.99C397.315 155.313 396.909 157.641 396.565 159.979C396.216 162.318 395.924 164.667 395.695 167.021C395.461 169.375 395.289 171.729 395.174 174.094C395.055 176.458 394.997 178.818 394.997 181.182C394.997 183.552 395.055 185.911 395.174 188.276C395.289 190.635 395.461 192.995 395.695 195.349C395.924 197.703 396.216 200.052 396.565 202.391C396.909 204.729 397.315 207.057 397.773 209.38C398.237 211.698 398.758 214.005 399.331 216.297C399.904 218.594 400.534 220.87 401.221 223.135C401.909 225.396 402.654 227.641 403.451 229.87C404.247 232.099 405.096 234.302 406.003 236.49C406.909 238.672 407.867 240.833 408.878 242.974C409.888 245.109 410.951 247.224 412.07 249.307C413.185 251.396 414.346 253.453 415.565 255.479C416.784 257.51 418.044 259.505 419.362 261.474C420.674 263.438 422.039 265.37 423.445 267.271C424.857 269.172 426.31 271.036 427.81 272.865C429.315 274.693 430.857 276.479 432.445 278.234C434.034 279.984 435.664 281.698 437.341 283.37C439.013 285.042 440.727 286.672 442.477 288.26C444.232 289.849 446.023 291.396 447.852 292.896C449.68 294.396 451.544 295.849 453.445 297.26C455.346 298.667 457.279 300.031 459.247 301.344C461.211 302.656 463.211 303.922 465.242 305.135C467.268 306.354 469.326 307.521 471.414 308.635C473.503 309.75 475.612 310.813 477.753 311.823C479.893 312.833 482.055 313.792 484.237 314.698C486.424 315.604 488.633 316.453 490.857 317.25C493.086 318.047 495.331 318.786 497.596 319.474C499.862 320.161 502.138 320.792 504.435 321.365C506.732 321.943 509.039 322.458 511.357 322.922C513.68 323.38 516.008 323.786 518.352 324.135C520.69 324.479 523.039 324.771 525.393 325C527.747 325.234 530.107 325.406 532.466 325.526C534.831 325.641 537.195 325.698 539.56 325.698C541.924 325.698 544.289 325.641 546.654 325.526C549.018 325.406 551.378 325.234 553.732 325C556.086 324.771 558.435 324.479 560.773 324.135C563.112 323.786 565.445 323.385 567.763 322.922C570.086 322.458 572.393 321.943 574.685 321.37C576.982 320.792 579.263 320.161 581.523 319.474C583.789 318.786 586.034 318.047 588.263 317.25C590.492 316.453 592.695 315.604 594.883 314.698C597.07 313.792 599.232 312.833 601.367 311.823C603.508 310.813 605.622 309.75 607.706 308.635C609.794 307.521 611.852 306.354 613.883 305.141C615.909 303.922 617.909 302.656 619.878 301.344C621.841 300.031 623.779 298.667 625.674 297.26C627.576 295.849 629.44 294.396 631.268 292.896C633.102 291.396 634.888 289.849 636.643 288.26C638.398 286.672 640.107 285.042 641.784 283.37C643.456 281.698 645.086 279.984 646.674 278.234C648.263 276.479 649.81 274.693 651.31 272.865C652.81 271.036 654.268 269.172 655.674 267.271C657.086 265.37 658.445 263.438 659.763 261.474C661.076 259.505 662.341 257.505 663.555 255.479C664.773 253.448 665.94 251.391 667.055 249.307C668.169 247.224 669.232 245.109 670.242 242.974C671.258 240.833 672.216 238.672 673.117 236.484C674.023 234.302 674.878 232.094 675.674 229.87C676.471 227.641 677.211 225.396 677.898 223.135C678.586 220.87 679.216 218.594 679.789 216.297C680.367 214.005 680.883 211.698 681.346 209.375C681.81 207.057 682.211 204.729 682.56 202.391C682.909 200.047 683.195 197.703 683.43 195.349C683.659 192.995 683.836 190.635 683.951 188.276C684.065 185.911 684.122 183.547 684.122 181.182C684.122 178.818 684.06 176.458 683.94 174.094C683.826 171.734 683.648 169.375 683.414 167.026C683.18 164.672 682.888 162.323 682.539 159.99C682.19 157.651 681.784 155.318 681.32 153C680.857 150.682 680.336 148.375 679.758 146.083C679.185 143.792 678.549 141.516 677.862 139.25C677.174 136.99 676.43 134.745 675.633 132.521C674.836 130.297 673.982 128.089 673.076 125.906C672.169 123.724 671.211 121.563 670.201 119.427C669.185 117.286 668.122 115.177 667.008 113.094C665.888 111.01 664.721 108.953 663.508 106.927C662.289 104.896 661.023 102.901 659.711 100.938C658.393 98.9688 657.034 97.0365 655.622 95.1406C654.216 93.2396 652.758 91.375 651.258 89.5521C649.758 87.724 648.216 85.9323 646.628 84.1823C645.039 82.4271 643.409 80.7188 641.737 79.0469C640.06 77.375 638.352 75.7448 636.596 74.1563C634.846 72.5677 633.055 71.026 631.227 69.526C629.398 68.026 627.534 66.5677 625.638 65.1615C623.737 63.75 621.805 62.3906 619.836 61.0781C617.872 59.7604 615.872 58.4948 613.846 57.2813C611.82 56.0625 609.763 54.901 607.674 53.7813C605.591 52.6667 603.477 51.6042 601.341 50.5938C599.206 49.5781 597.044 48.6198 594.857 47.7135C592.674 46.8073 590.466 45.9583 588.242 45.1615C586.013 44.3594 583.768 43.6198 581.508 42.9323C579.247 42.2448 576.966 41.6094 574.674 41.0365C572.378 40.4583 570.07 39.9375 567.753 39.474C565.435 39.0104 563.107 38.6042 560.768 38.2552C558.424 37.9063 556.081 37.6146 553.727 37.3802C551.372 37.1458 549.013 36.9688 546.654 36.8542C544.289 36.7344 541.93 36.6719 539.56 36.6719Z" fill="#FC9D08"/>
<path d="M543.865 270.151H535.26C533.677 270.146 532.104 270.068 530.531 269.911C528.958 269.755 527.396 269.521 525.844 269.214C524.297 268.901 522.766 268.521 521.25 268.057C519.74 267.599 518.255 267.068 516.792 266.458C515.333 265.854 513.906 265.182 512.51 264.432C511.12 263.688 509.766 262.875 508.448 262C507.135 261.12 505.87 260.182 504.646 259.177C503.427 258.177 502.255 257.115 501.135 256C500.021 254.88 498.958 253.714 497.958 252.49C496.953 251.271 496.01 250 495.135 248.688C494.255 247.375 493.443 246.021 492.698 244.625C491.953 243.234 491.276 241.807 490.672 240.349C490.063 238.891 489.531 237.401 489.073 235.891C488.615 234.38 488.229 232.849 487.917 231.297C487.609 229.75 487.375 228.188 487.219 226.615C487.063 225.042 486.984 223.469 486.984 221.885V217.771C486.984 216.927 487.063 216.094 487.229 215.266C487.391 214.438 487.635 213.635 487.958 212.859C488.281 212.078 488.677 211.339 489.146 210.641C489.615 209.938 490.146 209.292 490.745 208.693C491.339 208.099 491.99 207.568 492.688 207.099C493.391 206.63 494.13 206.234 494.906 205.911C495.687 205.589 496.49 205.344 497.318 205.182C498.146 205.016 498.979 204.932 499.823 204.932C500.667 204.932 501.5 205.016 502.328 205.182C503.151 205.344 503.958 205.589 504.734 205.911C505.516 206.234 506.255 206.63 506.953 207.099C507.656 207.568 508.302 208.099 508.901 208.693C509.495 209.292 510.031 209.938 510.5 210.641C510.964 211.339 511.359 212.078 511.682 212.859C512.005 213.635 512.25 214.438 512.417 215.266C512.578 216.094 512.661 216.927 512.661 217.771V221.885C512.661 222.625 512.698 223.365 512.771 224.099C512.844 224.839 512.953 225.568 513.099 226.292C513.245 227.016 513.427 227.734 513.641 228.443C513.854 229.151 514.104 229.844 514.385 230.526C514.672 231.214 514.99 231.88 515.339 232.531C515.688 233.182 516.068 233.818 516.479 234.432C516.891 235.047 517.328 235.641 517.797 236.214C518.266 236.786 518.766 237.333 519.286 237.854C519.813 238.375 520.359 238.875 520.932 239.344C521.5 239.813 522.094 240.25 522.708 240.661C523.323 241.073 523.958 241.453 524.609 241.802C525.266 242.151 525.932 242.469 526.615 242.75C527.297 243.036 527.995 243.286 528.703 243.5C529.411 243.714 530.125 243.896 530.854 244.042C531.578 244.182 532.307 244.292 533.047 244.365C533.781 244.438 534.521 244.479 535.26 244.479H543.865C544.604 244.479 545.339 244.438 546.078 244.365C546.813 244.292 547.542 244.182 548.266 244.042C548.995 243.896 549.708 243.714 550.417 243.5C551.125 243.286 551.823 243.036 552.505 242.75C553.188 242.469 553.854 242.151 554.505 241.802C555.156 241.453 555.792 241.073 556.406 240.661C557.021 240.25 557.615 239.813 558.188 239.344C558.755 238.875 559.307 238.375 559.828 237.854C560.349 237.328 560.844 236.781 561.318 236.214C561.786 235.641 562.224 235.047 562.635 234.432C563.047 233.818 563.427 233.182 563.776 232.531C564.12 231.88 564.438 231.208 564.719 230.526C565.005 229.844 565.25 229.151 565.469 228.443C565.682 227.734 565.859 227.016 566.005 226.292C566.151 225.568 566.255 224.833 566.328 224.099C566.401 223.365 566.438 222.625 566.438 221.885C566.438 221.146 566.401 220.411 566.328 219.672C566.255 218.938 566.151 218.208 566.005 217.484C565.859 216.755 565.682 216.042 565.469 215.333C565.25 214.625 565.005 213.932 564.719 213.245C564.438 212.563 564.12 211.896 563.776 211.245C563.427 210.594 563.047 209.958 562.635 209.344C562.224 208.729 561.786 208.135 561.318 207.563C560.844 206.99 560.349 206.443 559.828 205.922C559.307 205.396 558.755 204.901 558.188 204.432C557.615 203.964 557.021 203.521 556.406 203.109C555.792 202.698 555.156 202.323 554.505 201.969C553.854 201.62 553.188 201.307 552.505 201.021C551.823 200.74 551.125 200.49 550.417 200.276C549.708 200.057 548.995 199.88 548.266 199.734C547.542 199.589 546.813 199.479 546.078 199.406C545.339 199.333 544.604 199.297 543.865 199.297H535.26C533.677 199.297 532.104 199.214 530.531 199.057C528.958 198.901 527.396 198.672 525.844 198.359C524.297 198.052 522.766 197.667 521.25 197.208C519.74 196.745 518.255 196.214 516.792 195.609C515.333 195.005 513.906 194.328 512.51 193.583C511.12 192.839 509.766 192.026 508.448 191.146C507.135 190.271 505.87 189.328 504.646 188.328C503.427 187.323 502.255 186.266 501.135 185.146C500.021 184.026 498.958 182.859 497.958 181.635C496.953 180.417 496.01 179.151 495.135 177.833C494.255 176.521 493.443 175.167 492.698 173.776C491.953 172.38 491.276 170.953 490.672 169.495C490.063 168.036 489.531 166.552 489.073 165.036C488.615 163.526 488.229 161.995 487.917 160.448C487.609 158.896 487.375 157.339 487.219 155.766C487.063 154.193 486.984 152.615 486.984 151.036V140.479C486.984 138.896 487.063 137.323 487.219 135.75C487.375 134.177 487.609 132.615 487.917 131.068C488.229 129.516 488.615 127.984 489.073 126.474C489.531 124.964 490.068 123.479 490.672 122.016C491.276 120.557 491.953 119.13 492.698 117.74C493.443 116.344 494.255 114.99 495.135 113.677C496.016 112.365 496.953 111.099 497.958 109.875C498.958 108.656 500.021 107.484 501.135 106.37C502.255 105.25 503.427 104.193 504.646 103.188C505.87 102.188 507.135 101.245 508.453 100.365C509.766 99.4896 511.12 98.6771 512.51 97.9323C513.906 97.1875 515.333 96.5104 516.792 95.9063C518.255 95.2969 519.74 94.7656 521.25 94.3073C522.766 93.849 524.297 93.4635 525.844 93.151C527.396 92.8437 528.958 92.6094 530.531 92.4531C532.104 92.2969 533.677 92.2188 535.26 92.2188H543.865C545.443 92.2188 547.021 92.2969 548.594 92.4531C550.167 92.6094 551.729 92.8437 553.276 93.151C554.828 93.4635 556.359 93.849 557.87 94.3073C559.385 94.7656 560.87 95.2969 562.328 95.9063C563.792 96.5104 565.214 97.1875 566.609 97.9323C568.005 98.6771 569.359 99.4896 570.672 100.365C571.984 101.245 573.255 102.188 574.474 103.188C575.698 104.193 576.865 105.25 577.984 106.37C579.104 107.484 580.161 108.656 581.167 109.875C582.167 111.099 583.109 112.365 583.99 113.677C584.865 114.99 585.677 116.344 586.422 117.74C587.172 119.13 587.844 120.557 588.453 122.016C589.057 123.479 589.589 124.964 590.047 126.474C590.51 127.984 590.896 129.516 591.203 131.068C591.516 132.615 591.745 134.177 591.901 135.75C592.057 137.323 592.141 138.896 592.141 140.479V149.031C592.141 149.875 592.057 150.708 591.896 151.536C591.729 152.359 591.484 153.161 591.161 153.943C590.839 154.719 590.443 155.458 589.974 156.161C589.51 156.865 588.974 157.51 588.38 158.104C587.781 158.703 587.135 159.234 586.432 159.703C585.734 160.172 584.995 160.568 584.214 160.891C583.438 161.214 582.63 161.453 581.807 161.62C580.979 161.781 580.146 161.865 579.302 161.865C578.458 161.865 577.62 161.781 576.797 161.62C575.969 161.453 575.167 161.214 574.385 160.891C573.609 160.568 572.87 160.172 572.167 159.703C571.464 159.234 570.818 158.703 570.219 158.104C569.625 157.51 569.094 156.865 568.625 156.161C568.156 155.458 567.76 154.719 567.438 153.943C567.115 153.161 566.87 152.359 566.708 151.536C566.542 150.708 566.458 149.875 566.458 149.031V140.479C566.458 139.74 566.422 139 566.349 138.266C566.276 137.526 566.167 136.797 566.021 136.073C565.875 135.349 565.698 134.63 565.484 133.922C565.266 133.214 565.016 132.521 564.734 131.839C564.448 131.156 564.135 130.484 563.786 129.833C563.438 129.182 563.057 128.547 562.646 127.932C562.234 127.318 561.792 126.724 561.323 126.151C560.854 125.583 560.359 125.036 559.833 124.51C559.313 123.99 558.766 123.49 558.193 123.021C557.62 122.552 557.026 122.115 556.411 121.703C555.797 121.292 555.161 120.911 554.51 120.563C553.859 120.214 553.188 119.896 552.505 119.615C551.823 119.328 551.125 119.083 550.422 118.865C549.714 118.651 548.995 118.469 548.271 118.328C547.542 118.182 546.813 118.073 546.078 118C545.339 117.927 544.604 117.891 543.865 117.885H535.26C534.521 117.891 533.781 117.927 533.047 118C532.307 118.073 531.578 118.182 530.854 118.328C530.125 118.469 529.411 118.651 528.703 118.865C527.995 119.083 527.297 119.328 526.615 119.615C525.932 119.896 525.266 120.214 524.609 120.563C523.958 120.911 523.328 121.292 522.708 121.703C522.094 122.115 521.5 122.552 520.932 123.021C520.359 123.49 519.813 123.99 519.286 124.51C518.766 125.036 518.266 125.583 517.797 126.151C517.328 126.724 516.891 127.318 516.479 127.932C516.068 128.547 515.688 129.182 515.339 129.833C514.99 130.484 514.672 131.156 514.391 131.839C514.104 132.521 513.854 133.214 513.641 133.922C513.427 134.63 513.245 135.349 513.099 136.073C512.953 136.797 512.844 137.526 512.771 138.266C512.698 139 512.661 139.74 512.661 140.479V151.036C512.661 151.776 512.698 152.51 512.771 153.25C512.844 153.984 512.953 154.714 513.099 155.443C513.245 156.167 513.427 156.88 513.641 157.589C513.854 158.297 514.104 158.995 514.385 159.677C514.672 160.359 514.99 161.026 515.339 161.682C515.688 162.333 516.068 162.964 516.479 163.578C516.891 164.193 517.328 164.786 517.797 165.359C518.266 165.932 518.766 166.479 519.286 167C519.813 167.526 520.359 168.021 520.932 168.49C521.5 168.958 522.094 169.401 522.708 169.813C523.323 170.224 523.958 170.604 524.609 170.953C525.266 171.302 525.932 171.615 526.615 171.901C527.297 172.182 527.995 172.432 528.703 172.646C529.411 172.865 530.125 173.042 530.854 173.188C531.578 173.333 532.307 173.443 533.047 173.516C533.781 173.589 534.521 173.625 535.26 173.625H543.865C545.443 173.625 547.021 173.703 548.594 173.859C550.167 174.016 551.729 174.245 553.281 174.552C554.833 174.859 556.365 175.245 557.875 175.703C559.391 176.161 560.875 176.693 562.339 177.297C563.797 177.906 565.224 178.578 566.62 179.323C568.016 180.068 569.37 180.88 570.682 181.76C572 182.635 573.266 183.578 574.49 184.578C575.714 185.583 576.88 186.646 578 187.76C579.12 188.88 580.177 190.047 581.182 191.271C582.182 192.495 583.125 193.76 584.005 195.073C584.88 196.391 585.693 197.745 586.438 199.135C587.188 200.531 587.859 201.958 588.464 203.417C589.073 204.88 589.604 206.365 590.063 207.875C590.521 209.391 590.906 210.922 591.214 212.474C591.521 214.021 591.755 215.583 591.906 217.156C592.063 218.729 592.141 220.307 592.141 221.885C592.141 223.469 592.063 225.047 591.906 226.62C591.755 228.193 591.521 229.75 591.214 231.302C590.906 232.854 590.521 234.385 590.063 235.896C589.604 237.411 589.073 238.896 588.464 240.354C587.859 241.818 587.188 243.245 586.438 244.635C585.693 246.031 584.88 247.385 584.005 248.698C583.125 250.016 582.182 251.281 581.182 252.505C580.177 253.724 579.12 254.896 578 256.016C576.88 257.13 575.714 258.193 574.49 259.193C573.266 260.198 572 261.135 570.682 262.016C569.37 262.891 568.016 263.703 566.62 264.448C565.224 265.193 563.797 265.87 562.339 266.474C560.875 267.078 559.391 267.609 557.875 268.073C556.365 268.531 554.833 268.911 553.281 269.219C551.729 269.531 550.167 269.76 548.594 269.917C547.021 270.073 545.443 270.151 543.865 270.151Z" fill="#FC9D08"/>
<path d="M539.003 117.891C538.164 117.891 537.326 117.807 536.503 117.646C535.674 117.479 534.872 117.234 534.091 116.911C533.315 116.589 532.57 116.193 531.872 115.729C531.169 115.26 530.523 114.729 529.924 114.13C529.331 113.536 528.799 112.885 528.331 112.188C527.862 111.484 527.466 110.745 527.143 109.969C526.82 109.188 526.576 108.385 526.414 107.557C526.247 106.734 526.164 105.896 526.164 105.052V86.026C526.164 85.1823 526.247 84.3437 526.414 83.5208C526.576 82.6927 526.82 81.8906 527.143 81.1094C527.466 80.3333 527.862 79.5937 528.331 78.8906C528.799 78.1927 529.331 77.5417 529.924 76.9479C530.523 76.349 531.169 75.8177 531.872 75.349C532.57 74.8854 533.315 74.4896 534.091 74.1667C534.872 73.8437 535.674 73.599 536.503 73.4323C537.326 73.2708 538.164 73.1875 539.003 73.1875C539.846 73.1875 540.685 73.2708 541.508 73.4323C542.336 73.599 543.138 73.8437 543.919 74.1667C544.695 74.4896 545.44 74.8854 546.138 75.349C546.841 75.8177 547.487 76.349 548.086 76.9479C548.68 77.5417 549.211 78.1927 549.68 78.8906C550.148 79.5937 550.544 80.3333 550.867 81.1094C551.19 81.8906 551.435 82.6927 551.596 83.5208C551.763 84.3437 551.846 85.1823 551.846 86.026V105.052C551.846 105.896 551.763 106.734 551.596 107.557C551.435 108.385 551.19 109.188 550.867 109.969C550.544 110.745 550.148 111.484 549.68 112.188C549.211 112.885 548.68 113.536 548.086 114.13C547.487 114.729 546.841 115.26 546.138 115.729C545.44 116.193 544.695 116.589 543.919 116.911C543.138 117.234 542.336 117.479 541.508 117.646C540.685 117.807 539.846 117.891 539.003 117.891Z" fill="#FC9D08"/>
<path d="M539.003 289.184C538.164 289.184 537.326 289.1 536.503 288.934C535.674 288.772 534.872 288.527 534.091 288.204C533.315 287.882 532.57 287.486 531.872 287.017C531.169 286.548 530.523 286.017 529.924 285.423C529.331 284.824 528.799 284.178 528.331 283.475C527.862 282.777 527.466 282.038 527.143 281.257C526.82 280.48 526.576 279.678 526.414 278.85C526.247 278.022 526.164 277.189 526.164 276.345V257.314C526.164 256.47 526.247 255.637 526.414 254.809C526.576 253.986 526.82 253.184 527.143 252.402C527.466 251.626 527.862 250.887 528.331 250.184C528.799 249.48 529.331 248.835 529.924 248.241C530.523 247.642 531.169 247.111 531.872 246.642C532.57 246.173 533.315 245.777 534.091 245.454C534.872 245.132 535.674 244.892 536.503 244.725C537.326 244.559 538.164 244.48 539.003 244.48C539.846 244.48 540.685 244.559 541.508 244.725C542.336 244.892 543.138 245.132 543.919 245.454C544.695 245.777 545.44 246.173 546.138 246.642C546.841 247.111 547.487 247.642 548.086 248.241C548.68 248.835 549.211 249.48 549.68 250.184C550.148 250.887 550.544 251.626 550.867 252.402C551.19 253.184 551.435 253.986 551.596 254.809C551.763 255.637 551.846 256.47 551.846 257.314V276.345C551.846 277.189 551.763 278.022 551.596 278.85C551.435 279.678 551.19 280.48 550.867 281.257C550.544 282.038 550.148 282.777 549.68 283.475C549.211 284.178 548.68 284.824 548.086 285.423C547.487 286.017 546.841 286.548 546.138 287.017C545.435 287.486 544.695 287.882 543.919 288.204C543.138 288.527 542.336 288.772 541.508 288.934C540.685 289.1 539.846 289.184 539.003 289.184Z" fill="#FC9D08"/>
</svg>
