<svg width="24" height="24" viewBox="0 0 24 24" fill="none" xmlns="http://www.w3.org/2000/svg">
<path d="M23.25 14.9998C22.836 14.9998 22.5 15.3358 22.5 15.7498V20.9998H1.5V11.9998H9.75C10.164 11.9998 10.5 11.6638 10.5 11.2498C10.5 10.8358 10.164 10.4998 9.75 10.4998H1.5V7.49976H9.75C10.164 7.49976 10.5 7.16376 10.5 6.74976C10.5 6.33576 10.164 5.99976 9.75 5.99976H1.5C0.672 5.99976 0 6.67176 0 7.49976V20.9998C0 21.8278 0.672 22.4998 1.5 22.4998H22.5C23.328 22.4998 24 21.8278 24 20.9998V15.7498C24 15.3358 23.664 14.9998 23.25 14.9998Z" fill="#39416B"/>
<path d="M6.75 14.9999H3.75C3.336 14.9999 3 15.3359 3 15.7499C3 16.1639 3.336 16.4999 3.75 16.4999H6.75C7.164 16.4999 7.5 16.1639 7.5 15.7499C7.5 15.3359 7.164 14.9999 6.75 14.9999ZM23.5455 3.80987L18.2955 1.55987C18.2017 1.52051 18.101 1.50024 17.9993 1.50024C17.8975 1.50024 17.7968 1.52051 17.703 1.55987L12.453 3.80987C12.3184 3.86816 12.2038 3.96454 12.1233 4.08714C12.0429 4.20974 12 4.35321 12 4.49987V7.49986C12 11.6264 13.5255 14.0384 17.6265 16.4009C17.742 16.4669 17.871 16.4999 18 16.4999C18.129 16.4999 18.258 16.4669 18.3735 16.4009C22.4745 14.0444 24 11.6324 24 7.49986V4.49987C24 4.19987 23.8215 3.92837 23.5455 3.80987ZM22.5 7.49986C22.5 10.9634 21.354 12.8699 18 14.8799C14.646 12.8654 13.5 10.9589 13.5 7.49986V4.99487L18 3.06587L22.5 4.99487V7.49986Z" fill="#39416B"/>
<path d="M20.7195 6.16328C20.397 5.90828 19.926 5.95778 19.665 6.28028L17.307 9.22928L16.374 7.83428C16.1415 7.48928 15.675 7.39778 15.3345 7.62578C14.991 7.85528 14.8965 8.32178 15.126 8.66528L16.626 10.9153C16.7595 11.1148 16.9785 11.2378 17.2185 11.2498H17.25C17.4765 11.2498 17.6925 11.1478 17.8365 10.9678L20.8365 7.21778C21.0945 6.89378 21.0435 6.42278 20.7195 6.16328Z" fill="#39416B"/>
</svg>
