<svg width="21" height="24" viewBox="0 0 21 24" fill="none" xmlns="http://www.w3.org/2000/svg">
<g clip-path="url(#clip0_2528_43958)">
<path d="M19.5363 8.33427L17.1838 7.47801C18.0344 6.77516 18.3976 5.66033 18.1372 4.60096C17.6254 2.51957 15.0877 1.72944 13.4844 3.1468L11.86 4.58268L11.5387 2.42924C11.221 0.309132 8.76648 -0.710868 7.03975 0.552413C6.17635 1.18405 5.71707 2.27291 5.92074 3.37851L3.70271 2.57123C2.61146 2.17396 1.40026 2.73871 1.00299 3.8301L0.042526 6.46902C-0.0900833 6.83338 0.0977916 7.23632 0.462198 7.36888C0.609995 7.42265 11.2782 11.3056 11.4349 11.3626C10.9909 11.3626 1.26756 11.3626 0.839776 11.3626C0.452026 11.3626 0.137682 11.6769 0.137682 12.0647V21.8938C0.137682 23.0552 1.08254 24 2.24392 24H7.86057H10.6689H16.2856C17.4469 24 18.3918 23.0552 18.3918 21.8938V13.8947L18.9349 14.0924C19.2976 14.2245 19.7016 14.0387 19.8348 13.6728L20.7953 11.0339C21.1924 9.94251 20.6277 8.73149 19.5363 8.33427ZM7.15843 22.5959H2.24387C1.85673 22.5959 1.54178 22.2809 1.54178 21.8938V12.7668H7.15843V22.5959ZM9.96676 22.5959H8.56262V12.7668H9.96676V22.5959ZM14.4143 4.19887C15.2288 3.47882 16.5145 3.88274 16.7736 4.93626C17.0498 6.05952 15.9641 7.03349 14.8774 6.63862C13.9532 6.30219 13.52 6.14455 12.5945 5.80766L14.4143 4.19887ZM7.86878 1.68576C8.74628 1.04385 9.98926 1.56473 10.1501 2.63746L10.5101 5.04894C10.251 4.95463 8.48218 4.3108 8.22732 4.21808C7.14057 3.82232 6.93531 2.36854 7.86878 1.68576ZM8.19953 8.69076L1.60215 6.28949L2.32253 4.31033C2.45495 3.94654 2.85868 3.75838 3.22243 3.89071C3.96071 4.1594 8.93232 5.96891 9.15999 6.05179L8.19953 8.69076ZM10.8385 9.65132L9.51901 9.17104L10.4795 6.53212L11.799 7.0124L10.8385 9.65132ZM16.9876 21.8938C16.9876 22.2809 16.6726 22.5959 16.2855 22.5959H11.3709V12.7668H15.2928L16.9876 13.3836L16.9876 21.8938ZM19.4757 10.5536L18.7554 12.5328L12.158 10.1315L13.1185 7.49258L19.0561 9.65366C19.4199 9.78608 19.6081 10.1898 19.4757 10.5536Z" fill="#39416B"/>
</g>
<defs>
<clipPath id="clip0_2528_43958">
<rect width="20.9224" height="24" fill="white"/>
</clipPath>
</defs>
</svg>
