<svg width="841" height="875" viewBox="0 0 841 875" fill="none" xmlns="http://www.w3.org/2000/svg">
<path d="M833.819 49.7205H468.99L541.746 16.783L547.735 29.9913C549.324 33.5174 553.548 35.1007 557.074 33.5174C560.595 31.9288 562.183 27.7049 560.595 24.1788L551.787 4.62677C551.084 2.86635 549.673 1.63197 547.912 0.923641C546.152 0.220515 544.214 0.397599 542.454 1.10072L239.985 137.981L442.042 17.132L446.798 25.2361C448.735 28.5851 453.136 29.6424 456.485 27.7049C459.834 25.7622 460.891 21.3611 458.954 18.0122L450.496 3.91843C448.558 0.574683 444.152 -0.482609 440.808 1.45489L102.053 204.038C98.7039 205.976 97.6466 210.382 99.5841 213.726L224.834 423.361L208.626 448.023C208.277 448.726 207.923 449.429 207.746 450.137L162.652 621.012L93.7716 726.179L1.81327 863.231C-0.2961 866.403 0.584108 870.804 3.75077 873.096C4.98515 873.976 6.39661 874.33 7.63098 874.33C9.91744 874.33 12.2091 873.273 13.4435 871.158L105.574 734.106L169.699 636.335C158.949 671.918 165.115 712.262 189.954 743.445C191.365 745.205 193.48 746.085 195.417 746.085C197.001 746.085 198.584 745.554 199.818 744.497C202.813 742.033 203.345 737.627 200.876 734.632C165.647 690.418 172.865 625.59 216.907 590.184L437.99 412.085L440.454 415.08C467.938 449.606 462.475 500.34 428.298 528.174L362.24 582.08C359.949 583.84 359.068 587.012 359.949 589.653L362.24 596.877C375.626 638.101 373.865 682.84 357.308 722.83C355.897 726.356 357.485 730.58 361.183 731.991C364.704 733.403 368.933 731.814 370.345 728.116C375.803 714.554 379.855 700.637 382.324 686.366L446.443 793.648C447.324 795.231 448.912 796.465 450.85 796.82C451.027 796.82 451.027 796.82 451.199 796.82L408.042 862.705C405.928 865.872 406.808 870.278 410.157 872.392C411.386 873.096 412.621 873.627 414.032 873.627C416.319 873.627 418.61 872.57 419.845 870.455L472.693 789.95L531.532 763.351C535.053 761.762 536.636 757.533 535.053 754.012C533.47 750.486 529.24 748.903 525.714 750.486L467.938 776.559L451.553 740.273H833.819C837.699 740.273 840.865 737.101 840.865 733.226V56.7674C840.865 52.8924 837.699 49.7205 833.819 49.7205ZM414.735 412.611C414.735 412.439 414.735 412.262 414.558 412.085C411.917 395.877 413.501 379.142 419.49 363.814C422.662 355.887 426.891 348.314 432.001 341.444V398.694L414.735 412.611ZM432.178 320.304C420.902 331.049 412.095 344.085 406.454 358.533C404.871 362.585 403.459 366.809 402.402 371.038C398.178 387.95 398.178 405.564 402.402 422.476L378.449 441.856L292.834 252.658C305.162 245.439 314.678 234.163 319.787 220.424C324.891 206.856 325.246 192.059 320.839 178.497L416.147 135.335C419.667 133.752 421.251 129.523 419.667 126.002C418.084 122.476 413.855 120.892 410.329 122.476L309.037 168.278C305.516 169.866 303.933 174.09 305.516 177.616C310.975 189.596 311.329 202.981 306.751 215.314C302.167 227.642 293.006 237.507 280.855 242.793C279.089 243.497 277.86 244.908 277.152 246.668C276.449 248.434 276.626 250.372 277.329 252.132L367.173 450.663L333.173 477.971L195.24 173.21L432.178 66.4601V320.304ZM179.735 173.913L219.725 262.351C216.381 266.049 212.678 269.221 208.277 271.861C206.688 272.741 205.459 274.325 205.105 276.262C204.574 278.028 204.928 279.965 205.808 281.549L224.131 312.028C225.365 314.314 227.829 315.372 230.121 315.372C231.355 315.372 232.584 315.023 233.641 314.314C236.99 312.377 238.048 307.976 236.11 304.627L221.313 279.788C222.897 278.554 224.48 277.319 225.891 275.913L321.548 487.481L293.36 510.205L115.438 212.319L179.735 173.913ZM208.1 579.085C195.943 588.773 186.256 600.575 179.209 613.434L221.313 454.715L233.115 436.747L282.438 519.366L208.1 579.085ZM432.178 543.325V560.762L426.36 548.08L432.178 543.325ZM385.141 663.642C385.845 650.252 385.141 636.689 383.027 623.299L451.73 775.153L385.141 663.642ZM381.266 584.898L415.089 557.241L432.178 594.939V697.465L381.266 584.898ZM826.777 726.179H446.266V530.642C478.152 496.819 481.147 443.439 451.553 406.096L446.266 399.403V63.8143H826.777V726.179Z" fill="#FC9D08"/>
</svg>
