<svg width="1080" height="1080" viewBox="0 0 1080 1080" fill="none" xmlns="http://www.w3.org/2000/svg">
<path d="M693.405 538.927H811.848L576.921 777.755L693.405 538.927ZM398.697 538.927H665.624L532.119 812.656L398.697 538.927ZM252.405 538.927H370.817L487.385 777.833L252.405 538.927ZM728.166 339.021L820.926 513.943H700.213L728.166 339.021ZM336.14 339.021L364.004 513.943H243.312L336.14 339.021ZM505.697 313.495C523.306 313.682 540.921 313.563 558.598 313.495L664.858 513.943H399.385L505.697 313.495ZM707.03 312.745L679.166 487.521L586.765 313.349L707.03 312.745ZM357.197 312.745L477.541 313.349L385.14 487.521L357.197 312.745ZM342.957 287.547C336.629 287.547 332.77 292.172 330.853 295.672L213.114 517.589C207.327 523.375 208.567 533.125 215.661 537.276L520.968 847.604C530.062 856.813 536.786 854.208 543.27 847.604L849.463 536.297C854.827 532.177 855.937 524.458 851.895 518.964L733.4 295.526C729.478 288.167 724.983 287.828 719.353 287.76L342.957 287.547Z" fill="#FC9D08"/>
<path d="M391.471 925.026C376.888 948.489 356.872 963.89 333.049 966.656C310.007 969.333 283.226 958.672 256.252 937.599C280.69 926.25 303.112 914.349 327.752 911.614C352.325 908.771 369.872 913.807 391.471 925.026ZM185.658 806.302C211.132 808.864 229.71 820.557 250.966 845.068C228.731 861.437 204.45 868.401 181.325 862.125C158.908 856.073 137.981 836.255 120.778 806.672C140.94 805.552 160.2 803.703 185.658 806.302ZM44.799 631.672C70.1897 640.828 94.4865 648.265 110.169 658.307C127.096 669.182 139.617 687.213 149.528 718.088C122.695 724.432 97.5803 721.26 78.7938 706.463C60.5751 692.088 49.0647 665.666 44.799 631.672ZM37.1636 441.755C57.3095 459.656 77.1376 475.536 87.9449 490.745C99.6532 507.047 104.606 528.448 102.336 560.87C75.0126 556.734 52.9345 544.552 40.9553 523.771C29.3928 503.625 28.497 474.849 37.1636 441.755ZM107.419 259.828C117.95 284.588 129.101 307.443 132.403 325.807C135.987 345.562 131.309 367.031 115.414 395.302C92.5074 379.948 77.7105 359.458 75.7782 335.583C73.9188 312.453 85.4084 286.031 107.419 259.828ZM227.434 121.781C230.804 148.484 233.273 173.463 231.492 192.109C229.565 212.068 221.304 231.463 198.33 254.385C180.44 233.406 171.763 209.651 176.372 186.12C180.841 163.333 199.07 141.057 227.434 121.781ZM230.737 89.9946C186.835 113.672 160.414 146.344 153.528 181.646C147.252 213.364 157.164 245.932 180.497 272.198C170.731 286.031 161.851 300.286 153.862 315C147.809 289.052 135.221 264.625 122.205 232.771C118.836 224.583 108.304 222.375 101.976 228.291C65.5647 262.406 49.622 301.568 52.5126 337.422C55.4605 373.198 77.6793 404.656 113.195 423.297C109.351 440.156 106.591 457.161 104.804 474.359C88.0803 452.203 65.3667 435.281 39.023 410.984C32.1428 404.588 21.9657 407.682 18.8772 415.531C0.710497 462.036 2.773 504.234 20.7417 535.385C38.0074 565.401 69.924 583.901 108.122 586.713C110.872 603.515 114.648 620.166 119.471 636.745C95.7313 622.515 68.674 614.656 35.1792 602.489C24.7053 598.63 17.8876 605.448 18.0959 614.193C19.2053 664.015 36.0542 702.484 64.3355 724.76C91.5959 746.307 128.205 751.62 164.799 739.916C173.825 754.713 183.664 768.864 194.393 782.443C166.044 777.818 137.346 783.208 100.393 783.604C90.6949 783.672 85.8095 793.385 89.2417 801.073C109.757 846.557 140.518 875.177 175.195 884.625C208.638 893.698 244.278 884.344 273.252 859.359C287.007 869.614 301.33 879.047 316.19 887.635C287.971 893.833 263.002 909.036 228.799 923.687C219.997 927.479 218.476 937.536 224.95 944.073C260.044 979.495 300.023 993.963 335.731 989.828C370.2 985.849 399.929 963.89 417.617 929.755C430.013 933.135 442.533 936.083 455.257 938.338C471.981 941.734 476.398 916.25 459.523 913.792C322.112 889.578 207.127 795.854 155.658 666.13C104.872 538.213 123.315 389.979 203.893 282.302C224.33 254.927 252.471 235.588 256.742 194.302C259.763 165.458 252.669 136.974 248.955 99.8384C247.992 90.2706 238.085 86.005 230.737 89.9946Z" fill="black"/>
<path d="M672.84 925.026C687.424 948.489 707.387 963.89 731.184 966.656C754.304 969.333 781.002 958.672 807.981 937.599C783.57 926.25 761.122 914.349 736.559 911.614C711.986 908.771 694.439 913.807 672.84 925.026ZM878.653 806.302C853.127 808.864 834.549 820.557 813.294 845.068C835.517 861.437 859.866 868.401 882.986 862.125C905.325 856.073 926.252 836.255 943.523 806.672C923.372 805.552 904.096 803.703 878.653 806.302ZM1019.43 631.672C994.096 640.828 969.809 648.265 954.049 658.307C937.127 669.182 924.679 687.213 914.695 718.088C941.606 724.432 966.643 721.26 985.491 706.463C1003.67 692.088 1015.23 665.666 1019.43 631.672ZM1027.09 441.755C1006.99 459.656 987.174 475.536 976.299 490.745C964.58 507.047 959.705 528.448 961.976 560.87C989.231 556.734 1011.39 544.552 1023.29 523.771C1034.92 503.625 1035.75 474.849 1027.09 441.755ZM956.893 259.828C946.361 284.588 935.21 307.443 931.84 325.807C928.262 345.562 932.95 367.031 948.846 395.302C971.752 379.948 986.549 359.458 988.533 335.583C990.382 312.453 978.903 286.031 956.893 259.828ZM836.877 121.781C833.523 148.484 831.049 173.463 832.82 192.109C834.747 212.068 842.939 231.463 865.929 254.385C883.814 233.406 892.486 209.651 887.861 186.12C883.445 163.333 865.163 141.057 836.877 121.781ZM833.575 89.9946C877.408 113.672 903.835 146.344 910.783 181.646C916.976 213.364 907.07 245.932 883.82 272.198C893.57 286.031 902.445 300.286 910.372 315C916.434 289.052 929.08 264.625 942.08 232.771C945.382 224.583 955.991 222.375 962.309 228.291C998.637 262.406 1014.69 301.568 1011.72 337.422C1008.82 373.198 986.616 404.656 951.106 423.297C954.95 440.156 957.71 457.161 959.491 474.359C976.221 452.203 998.851 435.281 1025.22 410.984C1032.16 404.588 1042.36 407.682 1045.45 415.531C1063.62 462.036 1061.48 504.234 1043.52 535.385C1026.25 565.401 994.387 583.901 956.205 586.713C953.445 603.515 949.679 620.166 944.856 636.745C968.518 622.515 995.643 614.656 1029.16 602.489C1039.61 598.63 1046.42 605.448 1046.22 614.193C1045.05 664.015 1028.26 702.484 999.976 724.76C972.721 746.307 936.111 751.62 899.512 739.916C890.476 754.713 880.596 768.864 869.919 782.443C898.273 777.818 926.898 783.208 963.919 783.604C973.616 783.672 978.507 793.385 974.991 801.073C954.554 846.557 923.794 875.177 889.033 884.625C855.674 893.698 820.033 884.344 791.007 859.359C777.304 869.614 762.981 879.047 748.07 887.635C776.356 893.833 801.247 909.036 835.517 923.687C844.314 927.479 845.752 937.536 839.309 944.073C804.267 979.495 764.294 993.963 728.502 989.828C694.033 985.849 664.304 963.89 646.705 929.755C634.314 933.135 621.778 936.083 609.054 938.338C592.33 941.734 587.861 916.25 604.799 913.792C742.2 889.578 857.195 795.854 908.642 666.13C959.377 538.213 940.997 389.979 860.419 282.302C839.981 254.927 811.773 235.588 807.517 194.302C804.549 165.458 811.575 136.974 815.366 99.8384C816.241 90.2706 826.148 86.005 833.575 89.9946Z" fill="black"/>
</svg>
