<svg width="840" height="606" viewBox="0 0 840 606" fill="none" xmlns="http://www.w3.org/2000/svg">
<g clip-path="url(#clip0_1434_184)">
<mask id="mask0_1434_184" style="mask-type:luminance" maskUnits="userSpaceOnUse" x="279" y="12" width="542" height="576">
<path d="M279.43 12.0312H820.591V587.031H279.43V12.0312Z" fill="white"/>
</mask>
<g mask="url(#mask0_1434_184)">
<path d="M797.995 187.641C783.511 153.401 762.777 122.651 736.381 96.2448C709.975 69.849 679.224 49.1146 644.985 34.6354C609.527 19.6354 571.87 12.0312 533.058 12.0312C486.646 12.0312 440.527 23.349 399.693 44.7656C392.48 48.5521 389.698 57.4688 393.48 64.6875C397.261 71.901 406.183 74.6823 413.396 70.901C450.027 51.6927 491.402 41.5365 533.058 41.5365C675.334 41.5365 791.089 157.292 791.089 299.568C791.089 441.849 675.334 557.599 533.058 557.599C439.391 557.599 352.912 506.688 307.36 424.729C303.402 417.604 294.412 415.042 287.292 419C280.172 422.958 277.605 431.938 281.563 439.063C306.063 483.146 341.876 520.188 385.126 546.182C429.667 572.953 480.823 587.109 533.058 587.109C571.87 587.109 609.527 579.5 644.985 564.505C679.224 550.026 709.975 529.292 736.381 502.891C762.777 476.484 783.511 445.74 797.995 411.5C812.99 376.036 820.594 338.375 820.594 299.568C820.594 260.76 812.99 223.099 797.995 187.641Z" fill="#FC9D08"/>
</g>
<path d="M533.055 492.027C481.648 492.027 433.32 472.007 396.966 435.658C391.206 429.897 381.862 429.897 376.102 435.658C370.341 441.423 370.341 450.762 376.102 456.522C418.023 498.449 473.768 521.538 533.055 521.538C592.346 521.538 648.086 498.449 690.013 456.522C731.935 414.6 755.023 358.861 755.023 299.569C755.023 240.283 731.935 184.543 690.013 142.616C648.086 100.694 592.346 77.6055 533.055 77.6055C524.904 77.6055 518.299 84.2096 518.299 92.3555C518.299 100.507 524.904 107.111 533.055 107.111C584.461 107.111 632.794 127.132 669.143 163.486C705.492 199.835 725.513 248.163 725.513 299.569C725.513 350.975 705.492 399.303 669.148 435.658C632.789 472.007 584.461 492.027 533.055 492.027Z" fill="#FC9D08"/>
<path d="M173.591 129.408H389.779C397.924 129.408 404.529 122.803 404.529 114.658C404.529 106.507 397.924 99.9023 389.779 99.9023H173.591C165.44 99.9023 158.836 106.507 158.836 114.658C158.836 122.803 165.44 129.408 173.591 129.408Z" fill="black"/>
<path d="M94.138 230.88H310.326C318.471 230.88 325.076 224.276 325.076 216.13C325.076 207.979 318.471 201.375 310.326 201.375H94.138C85.987 201.375 79.3828 207.979 79.3828 216.13C79.3828 224.276 85.987 230.88 94.138 230.88Z" fill="black"/>
<mask id="mask1_1434_184" style="mask-type:luminance" maskUnits="userSpaceOnUse" x="-1" y="302" width="247" height="31">
<path d="M-0.507812 302H245.664V332.667H-0.507812V302Z" fill="white"/>
</mask>
<g mask="url(#mask1_1434_184)">
<path d="M230.875 302.848H14.6927C6.54167 302.848 -0.0625 309.452 -0.0625 317.603C-0.0625 325.749 6.54167 332.358 14.6927 332.358H230.875C239.026 332.358 245.63 325.749 245.63 317.603C245.63 309.452 239.026 302.848 230.875 302.848Z" fill="black"/>
</g>
<path d="M401.522 401.001C404.381 405.189 409.011 407.439 413.725 407.439C416.584 407.439 419.485 406.605 422.027 404.871L558.464 311.757C562.49 309.012 564.902 304.444 564.902 299.569V170.387C564.902 162.241 558.298 155.637 550.147 155.637C541.996 155.637 535.391 162.241 535.391 170.387V291.777L405.397 380.501C398.662 385.09 396.928 394.267 401.522 401.001Z" fill="#FC9D08"/>
</g>
<defs>
<clipPath id="clip0_1434_184">
<rect width="840" height="606" fill="white"/>
</clipPath>
</defs>
</svg>
