<svg width="493" height="493" viewBox="0 0 493 493" fill="none" xmlns="http://www.w3.org/2000/svg">
<path d="M354.393 49.3333C382.888 49.3333 405.211 72.4427 405.211 100.151C405.211 127.906 382.102 151.016 354.393 151.016C325.893 151.016 303.57 127.906 303.57 100.151C303.57 72.4427 325.893 49.3333 354.393 49.3333ZM354.393 166.427C391.378 166.427 420.622 136.354 420.622 100.151C420.622 63.9531 391.378 33.9219 354.393 33.9219C317.404 33.9219 288.164 63.9531 288.164 100.151C288.164 136.354 317.404 166.427 354.393 166.427Z" fill="#FC9D08"/>
<path d="M345.107 88.6003C343.576 87.069 343.576 85.5326 343.576 83.9596C343.576 81.6836 344.362 80.1523 345.893 78.5742C347.471 77.043 349.789 76.2565 352.065 76.2565V92.4492C349.003 90.918 346.68 90.1315 345.107 88.6003ZM358.237 105.538C362.091 106.324 364.409 107.861 365.94 109.392C367.477 110.923 368.263 112.496 368.263 114.777C368.263 117.095 367.477 118.626 365.94 120.158C364.409 121.736 362.091 122.48 358.982 122.48V105.538H358.237ZM336.659 113.241L329.695 120.949C336.659 127.121 344.362 130.184 352.81 130.97V138.673H358.982V131.757C370.581 130.97 379.82 124.798 379.82 113.241C379.82 100.944 371.326 97.0898 358.982 93.9805V76.2565C363.622 77.043 368.263 78.5742 372.112 81.6367L378.284 73.1888C372.112 69.3398 365.94 67.0169 358.982 66.2721V61.6367H352.81V66.2721C341.299 67.0169 332.805 73.9805 332.805 84.7461C332.805 97.0482 341.299 100.944 352.81 103.22V120.949C346.68 120.949 341.299 117.882 336.659 113.241Z" fill="#FC9D08"/>
<mask id="mask0_1483_52" style="mask-type:luminance" maskUnits="userSpaceOnUse" x="0" y="0" width="493" height="493">
<path d="M0 0H493V493H0V0Z" fill="white"/>
</mask>
<g mask="url(#mask0_1483_52)">
<path d="M15.4063 477.656V278.88H477.656V477.656H15.4063ZM15.4063 232.656H477.656V263.474H15.4063V232.656ZM292.755 178.724C309.698 191.813 331.276 200.307 354.391 200.307C377.5 200.307 399.083 192.604 416.021 178.724H477.656V217.245H15.4063V178.724H292.755ZM354.391 15.4063C401.401 15.4063 439.135 53.1406 439.135 100.151C439.135 147.167 401.401 184.896 354.391 184.896C307.375 184.896 269.646 147.167 269.646 100.151C269.646 53.1406 307.375 15.4063 354.391 15.4063ZM485.359 163.318H431.427C446.052 146.38 454.542 124.052 454.542 100.151C454.542 44.6927 409.849 0 354.391 0C298.927 0 254.234 44.6927 254.234 100.151C254.234 124.052 262.729 146.38 276.557 163.318H7.70313C3.0625 163.318 0 166.427 0 171.021V485.359C0 489.953 3.0625 493.063 7.70313 493.063H485.359C489.953 493.063 493.063 489.953 493.063 485.359V171.021C493.063 167.172 489.953 163.318 485.359 163.318Z" fill="#FC9D08"/>
</g>
<path d="M73.1875 403.678V352.855H127.12V403.678H73.1875ZM127.12 337.449H73.1875C64.6979 337.449 57.7812 344.366 57.7812 352.855V403.678C57.7812 412.173 64.6979 419.085 73.1875 419.085H127.12C135.568 419.085 142.526 412.173 142.526 403.678V352.855C142.526 344.366 135.568 337.449 127.12 337.449Z" fill="black"/>
<path d="M265.794 370.582H227.273C222.633 370.582 219.57 373.65 219.57 378.285C219.57 382.884 222.633 385.993 227.273 385.993H265.794C270.435 385.993 273.497 382.884 273.497 378.285C273.497 374.436 270.435 370.582 265.794 370.582Z" fill="black"/>
<path d="M346.685 370.582H308.164C303.529 370.582 300.461 373.65 300.461 378.285C300.461 382.884 303.529 385.993 308.164 385.993H346.685C351.284 385.993 354.393 382.884 354.393 378.285C354.393 374.436 351.284 370.582 346.685 370.582Z" fill="black"/>
<path d="M427.576 370.582H389.055C384.414 370.582 381.352 373.65 381.352 378.285C381.352 382.884 384.414 385.993 389.055 385.993H427.576C432.216 385.993 435.279 382.884 435.279 378.285C435.279 374.436 432.216 370.582 427.576 370.582Z" fill="black"/>
</svg>
