<svg width="859" height="903" viewBox="0 0 859 903" fill="none" xmlns="http://www.w3.org/2000/svg">
<mask id="mask0_1484_73" style="mask-type:luminance" maskUnits="userSpaceOnUse" x="34" y="49" width="711" height="796">
<path d="M34.8594 49.1406H744.333V844.667H34.8594V49.1406Z" fill="white"/>
</mask>
<g mask="url(#mask0_1484_73)">
<path d="M446.927 844.365H99.9219C64.0417 844.365 34.8594 815.182 34.8594 779.302V114.208C34.8594 78.3281 64.0417 49.1406 99.9219 49.1406H678.266C714.146 49.1406 743.328 78.3281 743.328 114.208V498.656C743.328 510.63 733.615 520.344 721.641 520.344C709.667 520.344 699.953 510.63 699.953 498.656V114.208C699.953 102.245 690.224 92.5208 678.266 92.5208H99.9219C87.9635 92.5208 78.2344 102.245 78.2344 114.208V779.302C78.2344 791.26 87.9635 800.99 99.9219 800.99H446.927C458.901 800.99 468.615 810.703 468.615 822.677C468.615 834.651 458.901 844.365 446.927 844.365Z" fill="#FC9D08"/>
</g>
<path d="M418.013 526.277H157.758C145.784 526.277 136.07 516.564 136.07 504.59V172.043C136.07 160.069 145.784 150.355 157.758 150.355C169.732 150.355 179.445 160.069 179.445 172.043V482.902H418.013C429.987 482.902 439.701 492.616 439.701 504.59C439.701 516.564 429.987 526.277 418.013 526.277Z" fill="#020202"/>
<path d="M157.747 425.068C152.679 425.068 147.596 423.302 143.486 419.703C134.465 411.813 133.544 398.115 141.439 389.104L242.648 273.438C246.601 268.922 252.247 266.24 258.252 266.042C264.111 265.672 270.07 268.13 274.304 272.38L358.57 356.646L473.523 216.141C477.403 211.396 483.106 208.531 489.221 208.219C495.502 207.995 501.309 210.209 505.643 214.547L560.809 269.698L603.507 216.323C610.976 206.974 624.601 205.438 633.992 212.948C643.34 220.432 644.851 234.073 637.367 243.432L579.533 315.724C575.674 320.542 569.955 323.479 563.799 323.834C557.731 324.084 551.632 321.87 547.268 317.505L491.919 262.156L376.971 402.662C373.085 407.406 367.382 410.271 361.268 410.584C354.929 410.755 349.179 408.578 344.846 404.261L260.028 319.443L174.08 417.656C169.788 422.558 163.788 425.068 157.747 425.068Z" fill="black"/>
<path d="M389.096 627.49H157.758C145.784 627.49 136.07 617.771 136.07 605.797C136.07 593.828 145.784 584.109 157.758 584.109H389.096C401.07 584.109 410.784 593.828 410.784 605.797C410.784 617.771 401.07 627.49 389.096 627.49Z" fill="#FC9D08"/>
<path d="M287.883 714.238H157.758C145.784 714.238 136.07 704.525 136.07 692.551C136.07 680.577 145.784 670.863 157.758 670.863H287.883C299.857 670.863 309.576 680.577 309.576 692.551C309.576 704.525 299.857 714.238 287.883 714.238Z" fill="#FC9D08"/>
<mask id="mask1_1484_73" style="mask-type:luminance" maskUnits="userSpaceOnUse" x="449" y="463" width="410" height="411">
<path d="M449.664 463.332H858.857V873.139H449.664V463.332Z" fill="white"/>
</mask>
<g mask="url(#mask1_1484_73)">
<path d="M654.414 873.281C541.596 873.281 449.82 781.505 449.82 668.703C449.82 555.885 541.596 464.109 654.414 464.109C767.216 464.109 858.997 555.885 858.997 668.703C858.997 781.505 767.216 873.281 654.414 873.281ZM654.414 507.484C565.518 507.484 493.195 579.802 493.195 668.703C493.195 757.583 565.518 829.906 654.414 829.906C743.299 829.906 815.617 757.583 815.617 668.703C815.617 579.802 743.299 507.484 654.414 507.484Z" fill="#FC9D08"/>
</g>
<path d="M734.826 764.348C729.576 764.348 724.31 762.457 720.143 758.629L639.732 684.671C635.268 680.561 632.727 674.775 632.727 668.702V561.785C632.727 549.811 642.44 540.098 654.414 540.098C666.388 540.098 676.102 549.811 676.102 561.785V659.186L749.508 726.691C758.32 734.811 758.898 748.52 750.794 757.348C746.518 761.988 740.669 764.348 734.826 764.348Z" fill="#FC9D08"/>
</svg>
