<svg width="599" height="599" viewBox="0 0 599 599" fill="none" xmlns="http://www.w3.org/2000/svg">
<mask id="mask0_1437_155" style="mask-type:luminance" maskUnits="userSpaceOnUse" x="0" y="0" width="599" height="599">
<path d="M0 0H599V599H0V0Z" fill="white"/>
</mask>
<g mask="url(#mask0_1437_155)">
<path d="M599.464 299.734C599.464 379.797 568.286 455.068 511.677 511.682C455.063 568.292 379.792 599.469 299.734 599.469C219.672 599.469 144.401 568.292 87.7865 511.682C31.1719 455.068 0 379.797 0 299.734C0 219.672 31.1771 144.406 87.7865 87.7917C144.401 31.1771 219.672 0 299.734 0C420.026 0 528.073 71.974 575.089 181.208L577.953 175.354C580.24 170.693 585.87 168.76 590.536 171.047C595.198 173.328 597.13 178.964 594.844 183.625L582.542 208.755C581.984 209.896 581.224 210.87 580.328 211.667C579.438 212.458 578.375 213.089 577.177 213.505C575.964 213.927 574.719 214.083 573.505 214.01C572.406 213.938 571.297 213.677 570.234 213.193C570.135 213.151 570.031 213.099 569.932 213.052L544.833 200.766C540.167 198.479 538.24 192.849 540.521 188.182C542.807 183.521 548.438 181.594 553.104 183.875L556.443 185.51C511.672 84.8854 411.323 18.8073 299.734 18.8073C144.828 18.8073 18.8021 144.833 18.8021 299.734C18.8021 454.641 144.828 580.661 299.734 580.661C454.635 580.661 580.661 454.641 580.661 299.734C580.661 294.542 584.87 290.333 590.063 290.333C595.255 290.333 599.464 294.542 599.464 299.734ZM222.385 377.339H149.594C144.401 377.339 140.188 381.547 140.188 386.74C140.188 391.932 144.401 396.146 149.594 396.146H222.385C227.578 396.146 231.792 391.932 231.792 386.74C231.792 381.547 227.578 377.339 222.385 377.339ZM491.151 135.484C491.167 135.651 491.172 135.823 491.177 135.995C491.177 136.063 491.188 136.13 491.188 136.203V400.521C491.188 402.49 490.573 404.406 489.427 406.005L444.411 468.755C444.37 468.813 444.323 468.865 444.281 468.922C444.135 469.115 443.984 469.302 443.828 469.479C443.745 469.573 443.667 469.661 443.578 469.75C443.417 469.922 443.245 470.089 443.068 470.245C442.99 470.318 442.917 470.391 442.833 470.458C442.313 470.901 441.74 471.286 441.13 471.604C441.057 471.641 440.979 471.677 440.901 471.714C440.667 471.828 440.427 471.938 440.182 472.031C440.089 472.068 439.995 472.104 439.901 472.135C439.661 472.219 439.422 472.292 439.177 472.354C439.078 472.385 438.979 472.411 438.88 472.432C438.625 472.49 438.37 472.536 438.115 472.573C438.021 472.583 437.927 472.604 437.833 472.615C437.484 472.651 437.13 472.677 436.776 472.677H117.682C112.49 472.677 108.276 468.469 108.276 463.276V196.484C108.276 196.151 108.297 195.823 108.328 195.5C108.333 195.448 108.344 195.401 108.354 195.354C108.385 195.073 108.427 194.802 108.484 194.531C108.495 194.474 108.51 194.422 108.526 194.365C108.583 194.104 108.651 193.849 108.734 193.594C108.755 193.526 108.786 193.458 108.807 193.391C108.891 193.161 108.974 192.927 109.073 192.703C109.109 192.62 109.156 192.536 109.193 192.453C109.292 192.25 109.391 192.052 109.495 191.865C109.552 191.766 109.615 191.667 109.672 191.573C109.776 191.401 109.885 191.234 110 191.068C110.073 190.964 110.151 190.865 110.229 190.76C110.344 190.615 110.458 190.469 110.583 190.328C110.672 190.224 110.76 190.125 110.859 190.026C110.984 189.896 111.115 189.766 111.245 189.641C111.302 189.589 111.354 189.526 111.417 189.474L178.932 129.188C180.656 127.646 182.885 126.797 185.198 126.797H481.781C481.854 126.797 481.927 126.807 482 126.807C482.167 126.813 482.333 126.823 482.5 126.833C482.646 126.844 482.792 126.859 482.938 126.875C483.094 126.896 483.255 126.922 483.411 126.948C483.563 126.974 483.708 127.005 483.859 127.036C484.005 127.068 484.151 127.109 484.297 127.151C484.448 127.193 484.604 127.234 484.755 127.286C484.891 127.328 485.026 127.38 485.156 127.432C485.313 127.49 485.469 127.552 485.62 127.625C485.745 127.677 485.87 127.74 485.99 127.802C486.151 127.88 486.302 127.958 486.458 128.047C486.568 128.115 486.682 128.182 486.792 128.25C486.948 128.349 487.099 128.448 487.245 128.557C487.302 128.594 487.359 128.625 487.411 128.667C487.464 128.708 487.51 128.755 487.568 128.797C487.703 128.901 487.833 129.016 487.964 129.125C488.078 129.224 488.188 129.323 488.292 129.422C488.401 129.526 488.505 129.635 488.609 129.745C488.724 129.865 488.833 129.984 488.938 130.104C489.026 130.208 489.109 130.318 489.193 130.422C489.297 130.557 489.401 130.693 489.5 130.833C489.578 130.943 489.651 131.057 489.724 131.172C489.813 131.313 489.896 131.448 489.979 131.594C490.052 131.724 490.12 131.854 490.188 131.99C490.25 132.125 490.318 132.255 490.38 132.391C490.443 132.542 490.505 132.698 490.563 132.849C490.615 132.979 490.661 133.099 490.703 133.229C490.755 133.391 490.802 133.557 490.849 133.724C490.885 133.854 490.922 133.984 490.948 134.115C490.984 134.271 491.016 134.438 491.042 134.599C491.068 134.745 491.094 134.891 491.109 135.036C491.125 135.182 491.141 135.333 491.151 135.484ZM308.755 145.604L258.073 199.641L257.984 225.948L273.74 213.651C277.115 211.016 281.849 210.995 285.245 213.604L301.135 225.786V196.729C301.135 194.521 301.911 192.385 303.328 190.693L341.078 145.604H308.755ZM142.328 187.083H244.068L282.969 145.604H188.786L142.328 187.083ZM427.37 205.891H319.938V244.849C319.938 248.432 317.906 251.698 314.693 253.286C311.484 254.865 307.651 254.49 304.813 252.313L279.573 232.953L254.297 252.677C252.609 253.995 250.568 254.667 248.51 254.667C247.099 254.667 245.682 254.354 244.37 253.708C241.135 252.125 239.094 248.833 239.104 245.234L239.245 205.891H127.083V453.87H427.365V205.891H427.37ZM463.026 145.604H365.578C365.495 145.719 365.411 145.833 365.323 145.948L330.875 187.083H432.057L463.026 145.604ZM472.38 164.51L446.177 199.609V434.031L472.38 397.5V164.51ZM222.385 407.021H149.594C144.401 407.021 140.188 411.229 140.188 416.422C140.188 421.62 144.401 425.828 149.594 425.828H222.385C227.578 425.828 231.792 421.62 231.792 416.422C231.792 411.229 227.578 407.021 222.385 407.021Z" fill="#FC9D08"/>
</g>
<rect x="139" y="377" width="94" height="20" rx="10" fill="black"/>
<rect x="139" y="407" width="94" height="20" rx="10" fill="black"/>
</svg>
