<svg width="792" height="864" viewBox="0 0 792 864" fill="none" xmlns="http://www.w3.org/2000/svg">
<path d="M549.664 711.233H528.273C527.247 711.233 526.237 711.134 525.237 710.936C524.232 710.738 523.263 710.441 522.315 710.051C521.372 709.66 520.477 709.181 519.628 708.613C518.779 708.046 517.992 707.4 517.268 706.676C516.544 705.957 515.898 705.171 515.331 704.322C514.768 703.473 514.284 702.572 513.893 701.629C513.503 700.686 513.211 699.712 513.008 698.712C512.81 697.707 512.711 696.697 512.711 695.676C512.711 694.655 512.81 693.639 513.008 692.639C513.211 691.639 513.503 690.665 513.893 689.723C514.284 688.775 514.768 687.879 515.331 687.03C515.898 686.181 516.544 685.395 517.268 684.671C517.992 683.952 518.779 683.306 519.628 682.738C520.477 682.171 521.372 681.691 522.315 681.301C523.263 680.91 524.232 680.613 525.237 680.415C526.237 680.217 527.247 680.113 528.273 680.113H549.664C550.69 680.113 551.701 680.217 552.701 680.415C553.706 680.613 554.68 680.91 555.622 681.301C556.565 681.691 557.461 682.171 558.31 682.738C559.159 683.306 559.945 683.952 560.669 684.671C561.393 685.395 562.039 686.181 562.607 687.03C563.169 687.879 563.654 688.775 564.044 689.723C564.435 690.665 564.727 691.639 564.93 692.639C565.128 693.639 565.227 694.655 565.227 695.676C565.227 696.697 565.128 697.707 564.93 698.712C564.727 699.712 564.435 700.686 564.044 701.629C563.654 702.572 563.169 703.473 562.607 704.322C562.039 705.171 561.393 705.957 560.669 706.676C559.945 707.4 559.159 708.046 558.31 708.613C557.461 709.181 556.565 709.66 555.622 710.051C554.68 710.441 553.706 710.738 552.701 710.936C551.701 711.134 550.69 711.233 549.664 711.233Z" fill="#FC9D08"/>
<path d="M626.964 711.233H605.688C604.667 711.233 603.651 711.134 602.651 710.936C601.646 710.738 600.677 710.441 599.729 710.051C598.786 709.66 597.891 709.181 597.042 708.613C596.193 708.046 595.406 707.4 594.682 706.676C593.958 705.957 593.318 705.171 592.75 704.322C592.182 703.473 591.703 702.572 591.313 701.629C590.917 700.686 590.625 699.712 590.427 698.712C590.224 697.707 590.125 696.697 590.125 695.676C590.125 694.655 590.224 693.639 590.427 692.639C590.625 691.639 590.917 690.665 591.313 689.723C591.703 688.775 592.182 687.879 592.75 687.03C593.318 686.181 593.958 685.395 594.682 684.671C595.406 683.952 596.193 683.306 597.042 682.738C597.891 682.171 598.786 681.691 599.729 681.301C600.677 680.91 601.646 680.613 602.651 680.415C603.651 680.217 604.667 680.113 605.688 680.113H626.964C627.984 680.113 629 680.217 630 680.415C631 680.613 631.974 680.91 632.917 681.301C633.865 681.691 634.76 682.171 635.609 682.738C636.458 683.306 637.245 683.952 637.969 684.671C638.688 685.395 639.333 686.181 639.901 687.03C640.469 687.879 640.948 688.775 641.339 689.723C641.729 690.665 642.026 691.639 642.224 692.639C642.427 693.639 642.526 694.655 642.526 695.676C642.526 696.697 642.427 697.707 642.224 698.712C642.026 699.712 641.729 700.686 641.339 701.629C640.948 702.572 640.469 703.473 639.901 704.322C639.333 705.171 638.688 705.957 637.969 706.676C637.245 707.4 636.458 708.046 635.609 708.613C634.76 709.181 633.865 709.66 632.917 710.051C631.974 710.441 631 710.738 630 710.936C629 711.134 627.984 711.233 626.964 711.233Z" fill="#FC9D08"/>
<path d="M704.281 711.233H681.484C680.464 711.233 679.448 711.134 678.448 710.936C677.448 710.738 676.474 710.441 675.531 710.051C674.583 709.66 673.687 709.181 672.839 708.613C671.99 708.046 671.203 707.4 670.479 706.676C669.76 705.957 669.115 705.171 668.547 704.322C667.979 703.473 667.5 702.572 667.109 701.629C666.719 700.686 666.422 699.712 666.224 698.712C666.021 697.707 665.922 696.697 665.922 695.676C665.922 694.655 666.021 693.639 666.224 692.639C666.422 691.639 666.719 690.665 667.109 689.723C667.5 688.775 667.979 687.879 668.547 687.03C669.115 686.181 669.76 685.395 670.479 684.671C671.203 683.952 671.99 683.306 672.839 682.738C673.687 682.171 674.583 681.691 675.531 681.301C676.474 680.91 677.448 680.613 678.448 680.415C679.448 680.217 680.464 680.113 681.484 680.113H704.281C705.302 680.113 706.313 680.217 707.313 680.415C708.318 680.613 709.292 680.91 710.234 681.301C711.177 681.691 712.073 682.171 712.922 682.738C713.771 683.306 714.557 683.952 715.281 684.671C716.005 685.395 716.651 686.181 717.219 687.03C717.786 687.879 718.266 688.775 718.656 689.723C719.047 690.665 719.339 691.639 719.542 692.639C719.74 693.639 719.839 694.655 719.839 695.676C719.839 696.697 719.74 697.707 719.542 698.712C719.339 699.712 719.047 700.686 718.656 701.629C718.266 702.572 717.786 703.473 717.219 704.322C716.651 705.171 716.005 705.957 715.281 706.676C714.557 707.4 713.771 708.046 712.922 708.613C712.073 709.181 711.177 709.66 710.234 710.051C709.292 710.441 708.318 710.738 707.313 710.936C706.313 711.134 705.302 711.233 704.281 711.233Z" fill="#FC9D08"/>
<mask id="mask0_1717_178" style="mask-type:luminance" maskUnits="userSpaceOnUse" x="291" y="723" width="58" height="141">
<path d="M291.43 723.988H348.763V863.796H291.43V723.988Z" fill="white"/>
</mask>
<g mask="url(#mask0_1717_178)">
<path d="M307.258 863.589C306.67 863.594 306.086 863.557 305.503 863.495C304.925 863.427 304.347 863.328 303.774 863.198C303.201 863.068 302.639 862.906 302.086 862.714C301.534 862.516 300.993 862.292 300.467 862.037C299.935 861.781 299.425 861.5 298.93 861.188C298.435 860.875 297.956 860.531 297.503 860.167C297.045 859.797 296.607 859.406 296.196 858.99C295.784 858.573 295.394 858.136 295.029 857.677C294.67 857.219 294.331 856.74 294.024 856.24C293.712 855.74 293.43 855.229 293.18 854.698C292.93 854.167 292.712 853.625 292.519 853.073C292.331 852.516 292.17 851.953 292.045 851.38C291.92 850.807 291.826 850.229 291.764 849.646C291.706 849.063 291.675 848.479 291.68 847.891C291.685 847.307 291.727 846.724 291.795 846.141C291.868 845.557 291.972 844.984 292.107 844.412L317.8 737.162C318.04 736.172 318.373 735.208 318.8 734.281C319.227 733.354 319.738 732.474 320.342 731.646C320.941 730.818 321.613 730.057 322.363 729.365C323.113 728.672 323.925 728.057 324.795 727.521C325.67 726.99 326.581 726.542 327.54 726.188C328.498 725.833 329.482 725.578 330.493 725.417C331.503 725.255 332.519 725.198 333.54 725.24C334.56 725.276 335.566 725.417 336.56 725.656C337.555 725.891 338.519 726.224 339.446 726.651C340.373 727.078 341.248 727.594 342.076 728.193C342.904 728.797 343.665 729.469 344.357 730.219C345.05 730.974 345.665 731.781 346.201 732.651C346.732 733.526 347.18 734.438 347.534 735.401C347.889 736.359 348.144 737.344 348.305 738.349C348.461 739.359 348.524 740.375 348.482 741.396C348.441 742.417 348.305 743.427 348.066 744.417L322.373 851.63C322.17 852.474 321.899 853.297 321.56 854.094C321.227 854.896 320.821 855.662 320.357 856.391C319.889 857.125 319.368 857.813 318.784 858.458C318.201 859.099 317.571 859.693 316.889 860.229C316.212 860.771 315.488 861.25 314.727 861.667C313.967 862.083 313.175 862.438 312.357 862.724C311.54 863.011 310.701 863.224 309.847 863.37C308.988 863.516 308.128 863.589 307.258 863.589Z" fill="#FC9D08"/>
</g>
<mask id="mask1_1717_178" style="mask-type:luminance" maskUnits="userSpaceOnUse" x="446" y="723" width="55" height="141">
<path d="M446.094 723.988H500.76V863.796H446.094V723.988Z" fill="white"/>
</mask>
<g mask="url(#mask1_1717_178)">
<path d="M484.367 863.589C483.477 863.589 482.591 863.511 481.716 863.36C480.841 863.209 479.982 862.979 479.143 862.682C478.305 862.38 477.498 862.011 476.727 861.573C475.951 861.136 475.222 860.636 474.529 860.073C473.841 859.505 473.206 858.891 472.623 858.214C472.039 857.542 471.518 856.823 471.06 856.063C470.602 855.302 470.211 854.505 469.888 853.677C469.565 852.844 469.315 851.995 469.138 851.125L447.336 743.912C447.128 742.912 447.024 741.901 447.024 740.88C447.018 739.86 447.112 738.844 447.305 737.844C447.503 736.839 447.794 735.865 448.18 734.917C448.565 733.974 449.044 733.073 449.607 732.224C450.169 731.37 450.81 730.584 451.529 729.854C452.253 729.13 453.034 728.479 453.883 727.912C454.727 727.339 455.623 726.854 456.565 726.459C457.508 726.063 458.477 725.766 459.482 725.563C460.482 725.36 461.492 725.255 462.513 725.25C463.534 725.245 464.55 725.339 465.55 725.537C466.555 725.729 467.529 726.021 468.477 726.406C469.419 726.797 470.321 727.271 471.169 727.834C472.024 728.401 472.81 729.042 473.539 729.761C474.263 730.479 474.914 731.261 475.482 732.11C476.055 732.959 476.539 733.849 476.935 734.792C477.331 735.735 477.628 736.709 477.831 737.709L499.633 844.938C499.748 845.5 499.831 846.068 499.883 846.641C499.935 847.214 499.956 847.787 499.94 848.365C499.93 848.938 499.888 849.511 499.81 850.084C499.732 850.651 499.628 851.214 499.487 851.776C499.352 852.334 499.18 852.88 498.982 853.422C498.784 853.959 498.555 854.485 498.3 855C498.039 855.516 497.753 856.011 497.44 856.495C497.128 856.979 496.789 857.443 496.425 857.886C496.06 858.334 495.675 858.755 495.263 859.156C494.852 859.557 494.419 859.938 493.966 860.292C493.513 860.646 493.044 860.974 492.555 861.276C492.065 861.578 491.56 861.849 491.039 862.099C490.518 862.344 489.987 862.557 489.446 862.745C488.899 862.932 488.347 863.089 487.784 863.214C487.227 863.339 486.659 863.432 486.086 863.495C485.513 863.563 484.94 863.594 484.367 863.589Z" fill="#FC9D08"/>
</g>
<mask id="mask2_1717_178" style="mask-type:luminance" maskUnits="userSpaceOnUse" x="228" y="831" width="335" height="33">
<path d="M228.766 831.988H562.099V863.796H228.766V831.988Z" fill="white"/>
</mask>
<g mask="url(#mask2_1717_178)">
<path d="M545.586 863.589H245.102C244.081 863.589 243.065 863.49 242.065 863.292C241.065 863.094 240.091 862.797 239.143 862.406C238.201 862.016 237.305 861.536 236.456 860.969C235.607 860.401 234.82 859.755 234.096 859.031C233.378 858.313 232.732 857.526 232.164 856.677C231.596 855.828 231.117 854.927 230.727 853.984C230.336 853.042 230.039 852.068 229.841 851.068C229.638 850.063 229.539 849.052 229.539 848.031C229.539 847.01 229.638 845.995 229.841 844.995C230.039 843.995 230.336 843.021 230.727 842.078C231.117 841.13 231.596 840.234 232.164 839.385C232.732 838.536 233.378 837.75 234.096 837.026C234.82 836.307 235.607 835.661 236.456 835.094C237.305 834.526 238.201 834.047 239.143 833.656C240.091 833.266 241.065 832.969 242.065 832.771C243.065 832.568 244.081 832.469 245.102 832.469H545.586C546.607 832.469 547.622 832.568 548.622 832.771C549.622 832.969 550.596 833.266 551.544 833.656C552.487 834.047 553.383 834.526 554.232 835.094C555.081 835.661 555.867 836.307 556.591 837.026C557.31 837.75 557.956 838.536 558.523 839.385C559.091 840.234 559.57 841.13 559.961 842.078C560.352 843.021 560.648 843.995 560.846 844.995C561.049 845.995 561.148 847.01 561.148 848.031C561.148 849.052 561.049 850.063 560.846 851.068C560.648 852.068 560.352 853.042 559.961 853.984C559.57 854.927 559.091 855.828 558.523 856.677C557.956 857.526 557.31 858.313 556.591 859.031C555.867 859.755 555.081 860.401 554.232 860.969C553.383 861.536 552.487 862.016 551.544 862.406C550.596 862.797 549.622 863.094 548.622 863.292C547.622 863.49 546.607 863.589 545.586 863.589Z" fill="#FC9D08"/>
</g>
<mask id="mask3_1717_178" style="mask-type:luminance" maskUnits="userSpaceOnUse" x="0" y="238" width="792" height="520">
<path d="M0 238.656H791.427V757.323H0V238.656Z" fill="white"/>
</mask>
<g mask="url(#mask3_1717_178)">
<path d="M749.326 756.358H42.3675C40.9769 756.395 39.5915 756.353 38.2061 756.244C36.8259 756.139 35.4509 755.957 34.0811 755.712C32.7165 755.462 31.3675 755.15 30.0342 754.764C28.6957 754.379 27.3884 753.931 26.0967 753.415C24.8102 752.9 23.5498 752.316 22.3207 751.676C21.0915 751.03 19.8936 750.327 18.7373 749.561C17.5759 748.801 16.4613 747.978 15.3832 747.098C14.3102 746.223 13.279 745.296 12.2998 744.311C11.3154 743.332 10.3884 742.301 9.50815 741.228C8.63315 740.15 7.81023 739.035 7.04461 737.874C6.27898 736.717 5.57586 735.525 4.93003 734.296C4.28419 733.066 3.70607 731.806 3.19044 730.514C2.66961 729.228 2.22169 727.915 1.83628 726.582C1.45086 725.249 1.13836 723.9 0.888359 722.535C0.638359 721.165 0.461276 719.79 0.3519 718.41C0.242526 717.025 0.206066 715.639 0.237317 714.249V281.598C0.237317 257.54 18.7321 238.691 42.3675 238.691H198.862C199.883 238.691 200.894 238.79 201.899 238.988C202.899 239.191 203.873 239.483 204.815 239.874C205.758 240.27 206.659 240.749 207.508 241.316C208.357 241.884 209.144 242.525 209.862 243.249C210.586 243.973 211.232 244.759 211.8 245.608C212.368 246.457 212.847 247.353 213.237 248.296C213.628 249.243 213.925 250.212 214.123 251.217C214.321 252.217 214.425 253.228 214.425 254.254C214.425 255.275 214.321 256.285 214.123 257.285C213.925 258.29 213.628 259.264 213.237 260.207C212.847 261.15 212.368 262.046 211.8 262.895C211.232 263.749 210.586 264.53 209.862 265.254C209.144 265.978 208.357 266.624 207.508 267.191C206.659 267.759 205.758 268.238 204.815 268.629C203.873 269.02 202.899 269.316 201.899 269.514C200.894 269.712 199.883 269.811 198.862 269.811H42.3675C33.6696 269.811 31.3571 277.223 31.3571 281.598V714.249C31.3571 717.556 32.4248 725.238 42.3675 725.238H749.326C750.05 725.264 750.774 725.212 751.493 725.092C752.206 724.967 752.904 724.77 753.581 724.504C754.258 724.233 754.899 723.9 755.508 723.499C756.118 723.103 756.675 722.645 757.19 722.129C757.706 721.613 758.159 721.051 758.555 720.441C758.956 719.832 759.284 719.186 759.55 718.509C759.815 717.832 760.008 717.134 760.133 716.415C760.253 715.702 760.3 714.978 760.274 714.249V281.598C760.274 275.9 755.878 269.811 749.326 269.811H592.769C591.748 269.811 590.737 269.712 589.732 269.514C588.732 269.316 587.758 269.02 586.815 268.629C585.868 268.238 584.972 267.759 584.123 267.191C583.274 266.624 582.487 265.978 581.763 265.254C581.045 264.53 580.399 263.749 579.831 262.895C579.263 262.046 578.784 261.15 578.394 260.207C578.003 259.264 577.706 258.29 577.508 257.285C577.31 256.285 577.206 255.275 577.206 254.254C577.206 253.228 577.31 252.217 577.508 251.217C577.706 250.212 578.003 249.243 578.394 248.296C578.784 247.353 579.263 246.457 579.831 245.608C580.399 244.759 581.045 243.973 581.763 243.249C582.487 242.525 583.274 241.884 584.123 241.316C584.972 240.749 585.868 240.27 586.815 239.874C587.758 239.483 588.732 239.191 589.732 238.988C590.737 238.79 591.748 238.691 592.769 238.691H749.326C750.716 238.707 752.102 238.79 753.482 238.941C754.868 239.092 756.243 239.311 757.602 239.598C758.961 239.884 760.305 240.233 761.633 240.655C762.961 241.072 764.263 241.551 765.545 242.098C766.826 242.645 768.076 243.249 769.295 243.921C770.513 244.587 771.701 245.316 772.847 246.098C773.998 246.884 775.102 247.723 776.17 248.613C777.237 249.509 778.258 250.452 779.232 251.447C780.206 252.441 781.128 253.478 782.003 254.561C782.873 255.645 783.69 256.77 784.451 257.936C785.211 259.098 785.914 260.296 786.56 261.53C787.206 262.764 787.789 264.025 788.31 265.316C788.826 266.603 789.284 267.915 789.675 269.254C790.065 270.587 790.394 271.936 790.654 273.306C790.909 274.671 791.102 276.051 791.227 277.436C791.352 278.822 791.409 280.207 791.394 281.598V714.249C791.409 715.634 791.357 717.014 791.237 718.389C791.112 719.77 790.925 721.134 790.664 722.494C790.409 723.853 790.081 725.197 789.69 726.52C789.3 727.848 788.841 729.15 788.321 730.431C787.8 731.712 787.216 732.962 786.571 734.186C785.92 735.405 785.216 736.592 784.451 737.744C783.685 738.9 782.868 740.009 781.993 741.077C781.118 742.15 780.19 743.176 779.211 744.15C778.237 745.129 777.211 746.056 776.144 746.931C775.076 747.811 773.961 748.629 772.81 749.395C771.659 750.16 770.472 750.869 769.253 751.514C768.029 752.165 766.779 752.749 765.498 753.27C764.222 753.796 762.92 754.254 761.591 754.645C760.269 755.035 758.925 755.363 757.565 755.624C756.206 755.884 754.841 756.072 753.461 756.197C752.086 756.322 750.706 756.374 749.326 756.358Z" fill="#FC9D08"/>
</g>
<mask id="mask4_1717_178" style="mask-type:luminance" maskUnits="userSpaceOnUse" x="0" y="634" width="792" height="33">
<path d="M0 634.656H791.427V666.656H0V634.656Z" fill="white"/>
</mask>
<g mask="url(#mask4_1717_178)">
<path d="M775.833 666.113H15.7917C14.7708 666.113 13.7604 666.009 12.7604 665.811C11.7552 665.613 10.7812 665.316 9.83854 664.926C8.89583 664.535 8 664.056 7.15104 663.488C6.29688 662.921 5.51562 662.275 4.79167 661.556C4.06771 660.832 3.42188 660.046 2.85417 659.197C2.28646 658.348 1.80729 657.452 1.41667 656.504C1.02604 655.561 0.729166 654.587 0.53125 653.587C0.333334 652.582 0.234375 651.572 0.234375 650.551C0.234375 649.53 0.333334 648.52 0.53125 647.514C0.729166 646.514 1.02604 645.54 1.41667 644.598C1.80729 643.65 2.28646 642.754 2.85417 641.905C3.42188 641.056 4.06771 640.27 4.79167 639.546C5.51562 638.827 6.29688 638.181 7.15104 637.613C8 637.046 8.89583 636.566 9.83854 636.176C10.7812 635.785 11.7552 635.488 12.7604 635.29C13.7604 635.092 14.7708 634.988 15.7917 634.988H775.833C776.854 634.988 777.865 635.092 778.865 635.29C779.87 635.488 780.844 635.785 781.786 636.176C782.729 636.566 783.625 637.046 784.474 637.613C785.328 638.181 786.109 638.827 786.833 639.546C787.557 640.27 788.203 641.056 788.771 641.905C789.339 642.754 789.818 643.65 790.208 644.598C790.599 645.54 790.891 646.514 791.094 647.514C791.292 648.52 791.391 649.53 791.391 650.551C791.391 651.572 791.292 652.582 791.094 653.587C790.891 654.587 790.599 655.561 790.208 656.504C789.818 657.452 789.339 658.348 788.771 659.197C788.203 660.046 787.557 660.832 786.833 661.556C786.109 662.275 785.328 662.921 784.474 663.488C783.625 664.056 782.729 664.535 781.786 664.926C780.844 665.316 779.87 665.613 778.865 665.811C777.865 666.009 776.854 666.113 775.833 666.113Z" fill="#FC9D08"/>
</g>
<path d="M538.052 518.677H253.573C251.271 518.677 248.979 518.563 246.688 518.333C244.396 518.104 242.125 517.766 239.87 517.318C237.615 516.865 235.385 516.307 233.182 515.635C230.979 514.969 228.818 514.193 226.693 513.307C224.568 512.427 222.49 511.443 220.464 510.359C218.432 509.271 216.464 508.089 214.547 506.813C212.635 505.531 210.792 504.167 209.01 502.703C207.234 501.245 205.531 499.703 203.906 498.073C202.276 496.448 200.734 494.745 199.276 492.964C197.812 491.188 196.443 489.344 195.167 487.427C193.885 485.516 192.703 483.547 191.62 481.516C190.536 479.49 189.552 477.412 188.667 475.287C187.786 473.162 187.01 471 186.344 468.797C185.672 466.594 185.115 464.365 184.661 462.109C184.214 459.854 183.87 457.583 183.646 455.292C183.417 453 183.302 450.708 183.297 448.406V70.2761C183.302 67.974 183.417 65.6771 183.646 63.3854C183.87 61.099 184.214 58.8229 184.661 56.5677C185.115 54.3125 185.672 52.0833 186.344 49.8802C187.01 47.6823 187.786 45.5156 188.667 43.3906C189.552 41.2656 190.536 39.1927 191.62 37.1615C192.703 35.1354 193.885 33.1615 195.167 31.25C196.443 29.3385 197.812 27.4896 199.276 25.7135C200.734 23.9323 202.276 22.2344 203.906 20.6042C205.531 18.9792 207.234 17.4323 209.01 15.974C210.792 14.5156 212.635 13.1458 214.547 11.8646C216.464 10.5885 218.432 9.40625 220.464 8.32292C222.49 7.23438 224.568 6.25 226.693 5.36979C228.818 4.48958 230.979 3.71354 233.182 3.04167C235.385 2.375 237.615 1.8125 239.87 1.36458C242.125 0.911458 244.396 0.572917 246.688 0.34375C248.979 0.119791 251.271 0 253.573 0H538.052C540.354 0 542.646 0.119791 544.938 0.34375C547.229 0.572917 549.5 0.911458 551.755 1.36458C554.01 1.8125 556.24 2.375 558.443 3.04167C560.646 3.71354 562.807 4.48958 564.932 5.36979C567.057 6.25 569.135 7.23438 571.161 8.32292C573.193 9.40625 575.161 10.5885 577.078 11.8646C578.99 13.1458 580.833 14.5156 582.615 15.974C584.391 17.4323 586.094 18.9792 587.719 20.6042C589.349 22.2344 590.891 23.9323 592.349 25.7135C593.813 27.4896 595.182 29.3385 596.458 31.25C597.74 33.1615 598.922 35.1354 600.005 37.1615C601.089 39.1927 602.073 41.2656 602.958 43.3906C603.839 45.5156 604.615 47.6823 605.281 49.8802C605.953 52.0833 606.51 54.3125 606.964 56.5677C607.411 58.8229 607.755 61.099 607.979 63.3854C608.208 65.6771 608.323 67.974 608.328 70.2761V448.406C608.323 450.708 608.208 453 607.979 455.292C607.755 457.583 607.411 459.854 606.964 462.109C606.51 464.365 605.953 466.594 605.281 468.797C604.615 471 603.839 473.162 602.958 475.287C602.073 477.412 601.089 479.49 600.005 481.516C598.922 483.547 597.74 485.516 596.458 487.427C595.182 489.344 593.813 491.188 592.349 492.964C590.891 494.745 589.349 496.448 587.719 498.073C586.094 499.703 584.391 501.245 582.615 502.703C580.833 504.167 578.99 505.531 577.078 506.813C575.161 508.089 573.193 509.271 571.161 510.359C569.135 511.443 567.057 512.427 564.932 513.307C562.807 514.193 560.646 514.969 558.443 515.635C556.24 516.307 554.01 516.865 551.755 517.318C549.5 517.766 547.229 518.104 544.938 518.333C542.646 518.563 540.354 518.677 538.052 518.677ZM253.573 31.1198C252.292 31.1198 251.01 31.1875 249.734 31.3125C248.458 31.4375 247.193 31.6302 245.938 31.8802C244.682 32.1302 243.438 32.4427 242.214 32.8125C240.984 33.1875 239.781 33.6198 238.594 34.1094C237.411 34.6042 236.255 35.151 235.125 35.7552C233.995 36.3594 232.896 37.0156 231.828 37.7292C230.766 38.4427 229.734 39.2083 228.745 40.0208C227.755 40.8333 226.807 41.6927 225.901 42.599C224.99 43.5052 224.13 44.4531 223.318 45.4479C222.505 46.4375 221.745 47.4635 221.031 48.5313C220.318 49.5938 219.656 50.6927 219.052 51.8229C218.448 52.9531 217.901 54.1146 217.411 55.2969C216.917 56.4792 216.484 57.6875 216.115 58.9115C215.74 60.1406 215.427 61.3802 215.177 62.6354C214.927 63.8958 214.74 65.1615 214.609 66.4375C214.484 67.7135 214.422 68.9896 214.422 70.2761V448.406C214.422 449.688 214.484 450.969 214.609 452.245C214.74 453.516 214.927 454.787 215.177 456.042C215.427 457.297 215.74 458.542 216.115 459.766C216.484 460.995 216.917 462.198 217.411 463.385C217.901 464.568 218.448 465.724 219.052 466.854C219.656 467.984 220.318 469.083 221.031 470.151C221.745 471.214 222.505 472.245 223.318 473.234C224.13 474.224 224.99 475.172 225.901 476.078C226.807 476.984 227.755 477.849 228.745 478.662C229.734 479.474 230.766 480.234 231.828 480.948C232.896 481.662 233.995 482.318 235.125 482.922C236.255 483.531 237.411 484.078 238.594 484.568C239.781 485.057 240.984 485.49 242.214 485.865C243.438 486.24 244.682 486.547 245.938 486.802C247.193 487.052 248.458 487.24 249.734 487.365C251.01 487.495 252.292 487.557 253.573 487.557H538.052C539.333 487.557 540.615 487.495 541.891 487.365C543.167 487.24 544.432 487.052 545.688 486.802C546.943 486.547 548.188 486.24 549.411 485.865C550.641 485.49 551.844 485.057 553.031 484.568C554.214 484.078 555.37 483.531 556.5 482.922C557.63 482.318 558.729 481.662 559.797 480.948C560.859 480.234 561.891 479.474 562.88 478.662C563.87 477.849 564.818 476.984 565.724 476.078C566.635 475.172 567.495 474.224 568.307 473.234C569.12 472.245 569.88 471.214 570.594 470.151C571.307 469.083 571.964 467.984 572.573 466.854C573.177 465.724 573.724 464.568 574.214 463.385C574.708 462.198 575.135 460.995 575.51 459.766C575.885 458.542 576.198 457.297 576.448 456.042C576.698 454.787 576.885 453.516 577.016 452.245C577.141 450.969 577.203 449.688 577.203 448.406V70.2761C577.203 68.9896 577.141 67.7135 577.016 66.4375C576.885 65.1615 576.698 63.8958 576.448 62.6354C576.198 61.3802 575.885 60.1406 575.51 58.9115C575.135 57.6875 574.708 56.4792 574.214 55.2969C573.724 54.1146 573.177 52.9531 572.573 51.8229C571.964 50.6927 571.307 49.5938 570.594 48.5313C569.88 47.4635 569.12 46.4375 568.307 45.4479C567.495 44.4531 566.63 43.5052 565.724 42.599C564.818 41.6927 563.87 40.8333 562.88 40.0208C561.891 39.2083 560.859 38.4427 559.797 37.7292C558.729 37.0156 557.63 36.3594 556.5 35.7552C555.37 35.151 554.214 34.6042 553.031 34.1094C551.844 33.6198 550.641 33.1875 549.411 32.8125C548.188 32.4427 546.943 32.1302 545.688 31.8802C544.432 31.6302 543.167 31.4375 541.891 31.3125C540.615 31.1875 539.333 31.1198 538.052 31.1198H253.573Z" fill="#FC9D08"/>
<path d="M449.246 268.255H342.381C341.079 268.255 339.782 268.192 338.485 268.062C337.188 267.932 335.897 267.739 334.621 267.484C333.345 267.229 332.079 266.916 330.834 266.536C329.589 266.156 328.36 265.718 327.157 265.218C325.954 264.718 324.777 264.161 323.626 263.546C322.48 262.932 321.36 262.265 320.277 261.541C319.194 260.817 318.152 260.041 317.141 259.213C316.136 258.385 315.173 257.51 314.251 256.593C313.329 255.671 312.454 254.708 311.626 253.698C310.798 252.692 310.022 251.645 309.298 250.562C308.574 249.479 307.902 248.364 307.287 247.213C306.673 246.067 306.115 244.89 305.615 243.687C305.115 242.484 304.678 241.26 304.298 240.01C303.918 238.765 303.6 237.5 303.345 236.224C303.089 234.948 302.897 233.661 302.766 232.364C302.636 231.067 302.569 229.765 302.569 228.463C303.152 225.974 296.016 172.057 346.855 140.724C347.72 140.182 348.631 139.734 349.584 139.375C350.532 139.01 351.511 138.75 352.516 138.578C353.522 138.411 354.532 138.343 355.548 138.369C356.569 138.401 357.574 138.531 358.569 138.755C359.558 138.984 360.522 139.307 361.449 139.724C362.381 140.14 363.261 140.64 364.089 141.229C364.923 141.817 365.688 142.484 366.386 143.224C367.089 143.963 367.709 144.76 368.251 145.625C368.621 146.203 369.001 146.77 369.407 147.328C369.808 147.885 370.23 148.427 370.662 148.958C371.1 149.484 371.553 150 372.022 150.5C372.49 151.005 372.975 151.489 373.475 151.958C373.975 152.427 374.49 152.885 375.016 153.323C375.548 153.76 376.089 154.182 376.641 154.583C377.199 154.989 377.761 155.375 378.345 155.744C378.923 156.114 379.511 156.463 380.115 156.791C380.714 157.125 381.324 157.437 381.944 157.729C382.569 158.02 383.194 158.296 383.834 158.546C384.47 158.802 385.115 159.031 385.772 159.244C386.423 159.458 387.079 159.651 387.746 159.823C388.412 159.989 389.079 160.14 389.751 160.27C390.428 160.401 391.105 160.505 391.787 160.593C392.464 160.677 393.147 160.744 393.834 160.786C394.522 160.828 395.204 160.854 395.891 160.854C396.579 160.854 397.261 160.828 397.949 160.786C398.631 160.744 399.313 160.677 399.996 160.593C400.678 160.505 401.355 160.401 402.027 160.27C402.704 160.14 403.371 159.989 404.037 159.823C404.704 159.651 405.36 159.458 406.011 159.244C406.668 159.031 407.308 158.802 407.949 158.546C408.584 158.296 409.214 158.02 409.834 157.729C410.459 157.437 411.069 157.125 411.668 156.791C412.272 156.463 412.86 156.114 413.438 155.744C414.016 155.375 414.584 154.989 415.141 154.583C415.694 154.182 416.235 153.76 416.766 153.323C417.293 152.885 417.808 152.427 418.308 151.958C418.808 151.489 419.293 151.005 419.761 150.5C420.23 150 420.683 149.484 421.115 148.958C421.553 148.427 421.975 147.885 422.376 147.328C422.777 146.77 423.162 146.203 423.532 145.625C424.074 144.76 424.694 143.958 425.391 143.218C426.095 142.479 426.86 141.817 427.688 141.224C428.522 140.635 429.402 140.13 430.329 139.713C431.256 139.296 432.22 138.974 433.209 138.744C434.204 138.52 435.209 138.39 436.23 138.359C437.246 138.328 438.256 138.395 439.261 138.562C440.266 138.729 441.246 138.994 442.199 139.354C443.152 139.713 444.058 140.166 444.923 140.703C448.303 142.776 451.532 145.057 454.615 147.546C457.704 150.031 460.615 152.708 463.36 155.567C466.105 158.427 468.652 161.448 471.011 164.635C473.365 167.823 475.511 171.145 477.444 174.604C479.376 178.067 481.079 181.635 482.553 185.312C484.027 188.994 485.261 192.75 486.256 196.583C487.251 200.421 487.996 204.307 488.496 208.239C488.996 212.166 489.24 216.114 489.235 220.078V228.463C489.23 229.77 489.168 231.073 489.037 232.375C488.907 233.671 488.709 234.963 488.454 236.244C488.199 237.526 487.876 238.791 487.496 240.041C487.115 241.291 486.673 242.52 486.168 243.729C485.668 244.932 485.105 246.114 484.49 247.265C483.871 248.416 483.199 249.531 482.47 250.619C481.74 251.703 480.959 252.75 480.126 253.76C479.298 254.765 478.418 255.729 477.49 256.651C476.563 257.573 475.595 258.448 474.584 259.276C473.569 260.104 472.522 260.875 471.433 261.599C470.345 262.323 469.22 262.989 468.069 263.604C466.912 264.218 465.73 264.77 464.522 265.27C463.313 265.765 462.084 266.203 460.834 266.578C459.579 266.953 458.313 267.265 457.032 267.515C455.746 267.765 454.454 267.953 453.157 268.078C451.855 268.203 450.548 268.26 449.246 268.255ZM352.751 175.286C329.527 197.5 334.313 224.823 333.688 228.463C333.688 229.031 333.746 229.599 333.86 230.156C333.97 230.713 334.136 231.255 334.355 231.781C334.574 232.307 334.845 232.807 335.162 233.281C335.48 233.755 335.839 234.192 336.24 234.599C336.647 235 337.084 235.359 337.558 235.677C338.032 235.994 338.532 236.26 339.063 236.479C339.589 236.692 340.131 236.859 340.688 236.968C341.251 237.083 341.813 237.135 342.381 237.135H449.246C449.813 237.135 450.376 237.083 450.938 236.968C451.496 236.859 452.037 236.692 452.563 236.479C453.095 236.26 453.595 235.994 454.069 235.677C454.543 235.359 454.98 235 455.386 234.599C455.787 234.192 456.147 233.755 456.464 233.281C456.782 232.807 457.053 232.307 457.272 231.781C457.49 231.255 457.657 230.713 457.766 230.156C457.881 229.599 457.938 229.031 457.938 228.463V220.078C457.944 215.901 457.532 211.765 456.699 207.666C455.865 203.573 454.631 199.604 452.99 195.76C451.355 191.911 449.345 188.27 446.97 184.833C444.589 181.395 441.897 178.234 438.876 175.343C437.418 176.671 435.907 177.927 434.334 179.114C432.756 180.296 431.136 181.411 429.459 182.448C427.782 183.484 426.063 184.437 424.298 185.317C422.532 186.192 420.735 186.989 418.897 187.698C417.058 188.406 415.194 189.031 413.298 189.573C411.402 190.109 409.485 190.557 407.548 190.916C405.61 191.281 403.662 191.552 401.699 191.729C399.74 191.911 397.772 192 395.803 192C393.834 192 391.865 191.906 389.902 191.724C387.944 191.541 385.996 191.265 384.058 190.901C382.121 190.541 380.204 190.088 378.308 189.546C376.418 189.005 374.553 188.38 372.714 187.666C370.876 186.953 369.079 186.156 367.313 185.276C365.553 184.401 363.834 183.437 362.157 182.401C360.485 181.364 358.86 180.25 357.287 179.062C355.72 177.869 354.204 176.614 352.751 175.286Z" fill="black"/>
<path d="M341.895 162.289C341.364 161.43 340.916 160.523 340.562 159.57C340.208 158.622 339.948 157.648 339.781 156.648C339.614 155.648 339.546 154.638 339.578 153.628C339.609 152.612 339.739 151.612 339.968 150.622C340.192 149.633 340.515 148.68 340.932 147.753C341.343 146.825 341.843 145.95 342.432 145.122C343.015 144.294 343.677 143.534 344.411 142.831C345.145 142.133 345.942 141.513 346.796 140.971C347.656 140.424 348.557 139.971 349.5 139.607C350.442 139.237 351.416 138.966 352.416 138.789C353.411 138.612 354.421 138.534 355.432 138.555C356.448 138.57 357.448 138.69 358.442 138.904C359.432 139.122 360.39 139.43 361.323 139.836C362.255 140.237 363.135 140.726 363.968 141.305C364.807 141.878 365.578 142.529 366.281 143.258C366.989 143.982 367.619 144.773 368.171 145.622C368.541 146.2 368.927 146.768 369.328 147.325C369.729 147.883 370.151 148.424 370.583 148.956C371.02 149.482 371.474 149.997 371.942 150.497C372.411 151.003 372.895 151.487 373.395 151.956C373.895 152.424 374.411 152.883 374.937 153.32C375.468 153.758 376.01 154.18 376.562 154.581C377.119 154.987 377.687 155.372 378.265 155.742C378.843 156.112 379.432 156.461 380.036 156.789C380.635 157.122 381.244 157.435 381.864 157.726C382.489 158.018 383.114 158.294 383.755 158.544C384.39 158.799 385.036 159.029 385.692 159.242C386.343 159.456 387 159.648 387.666 159.82C388.333 159.987 389 160.138 389.677 160.268C390.349 160.398 391.026 160.503 391.708 160.591C392.385 160.674 393.073 160.742 393.755 160.784C394.442 160.825 395.125 160.851 395.812 160.851C396.5 160.851 397.182 160.825 397.869 160.784C398.552 160.742 399.234 160.674 399.916 160.591C400.599 160.503 401.276 160.398 401.948 160.268C402.625 160.138 403.291 159.987 403.958 159.82C404.625 159.648 405.281 159.456 405.932 159.242C406.588 159.029 407.234 158.799 407.869 158.544C408.51 158.294 409.135 158.018 409.76 157.726C410.38 157.435 410.989 157.122 411.588 156.789C412.192 156.461 412.781 156.112 413.359 155.742C413.937 155.372 414.505 154.987 415.062 154.581C415.614 154.18 416.156 153.758 416.687 153.32C417.213 152.883 417.729 152.424 418.229 151.956C418.729 151.487 419.213 151.003 419.682 150.497C420.151 149.997 420.604 149.482 421.041 148.956C421.474 148.424 421.895 147.883 422.296 147.325C422.698 146.768 423.083 146.2 423.453 145.622C423.994 144.747 424.614 143.93 425.317 143.18C426.02 142.43 426.791 141.753 427.625 141.154C428.463 140.555 429.349 140.044 430.291 139.617C431.229 139.195 432.198 138.867 433.203 138.638C434.203 138.409 435.218 138.279 436.25 138.247C437.276 138.221 438.302 138.294 439.312 138.466C440.328 138.638 441.317 138.909 442.276 139.279C443.239 139.654 444.151 140.112 445.02 140.664C445.89 141.216 446.698 141.846 447.442 142.555C448.187 143.268 448.854 144.044 449.442 144.888C450.031 145.732 450.531 146.628 450.942 147.57C451.359 148.513 451.671 149.487 451.89 150.492C452.109 151.497 452.229 152.518 452.244 153.544C452.26 154.575 452.177 155.596 451.989 156.607C451.807 157.622 451.52 158.607 451.14 159.56C450.76 160.518 450.291 161.43 449.729 162.289C449.01 163.419 448.26 164.529 447.474 165.612C446.692 166.695 445.869 167.753 445.02 168.784C444.166 169.815 443.281 170.82 442.369 171.794C441.453 172.773 440.505 173.721 439.531 174.638C438.557 175.555 437.557 176.44 436.526 177.294C435.494 178.148 434.437 178.966 433.354 179.753C432.27 180.544 431.166 181.294 430.036 182.013C428.906 182.732 427.755 183.409 426.583 184.055C425.411 184.7 424.218 185.31 423.01 185.883C421.796 186.45 420.573 186.982 419.328 187.476C418.083 187.966 416.823 188.424 415.552 188.836C414.281 189.253 412.994 189.622 411.698 189.956C410.401 190.289 409.099 190.581 407.781 190.831C406.468 191.086 405.145 191.294 403.817 191.461C402.489 191.628 401.161 191.758 399.823 191.841C398.489 191.924 397.151 191.966 395.812 191.966C394.474 191.966 393.135 191.924 391.802 191.841C390.463 191.758 389.135 191.628 387.807 191.461C386.479 191.294 385.156 191.086 383.843 190.831C382.526 190.581 381.224 190.289 379.927 189.956C378.63 189.622 377.343 189.253 376.073 188.836C374.802 188.424 373.541 187.966 372.296 187.476C371.052 186.982 369.828 186.45 368.614 185.883C367.406 185.31 366.213 184.7 365.041 184.055C363.869 183.409 362.718 182.732 361.588 182.013C360.458 181.294 359.354 180.544 358.27 179.753C357.187 178.966 356.13 178.148 355.099 177.294C354.067 176.44 353.067 175.555 352.093 174.638C351.119 173.721 350.171 172.773 349.255 171.799C348.343 170.82 347.458 169.815 346.604 168.784C345.755 167.753 344.932 166.695 344.151 165.612C343.364 164.529 342.614 163.419 341.895 162.289Z" fill="black"/>
<path d="M428.255 167.096C427.396 166.549 426.604 165.919 425.865 165.216C425.13 164.513 424.474 163.747 423.891 162.914C423.302 162.081 422.807 161.201 422.396 160.268C421.984 159.341 421.667 158.378 421.443 157.388C421.219 156.393 421.099 155.388 421.073 154.372C421.047 153.357 421.12 152.346 421.292 151.346C421.464 150.341 421.729 149.367 422.094 148.414C422.458 147.466 422.912 146.56 423.453 145.701C424.49 144.055 425.375 142.336 426.104 140.534C426.839 138.732 427.401 136.883 427.802 134.982C428.203 133.076 428.438 131.154 428.495 129.211C428.552 127.268 428.438 125.336 428.151 123.414C427.865 121.492 427.412 119.612 426.792 117.768C426.167 115.93 425.385 114.154 424.448 112.456C423.51 110.753 422.432 109.143 421.208 107.633C419.979 106.128 418.635 104.737 417.162 103.466C415.688 102.201 414.115 101.07 412.443 100.081C410.771 99.0911 409.021 98.2578 407.198 97.5807C405.38 96.9036 403.51 96.3932 401.599 96.0495C399.682 95.7057 397.755 95.5339 395.813 95.5339C393.87 95.5339 391.943 95.7057 390.026 96.0495C388.115 96.3932 386.245 96.9036 384.427 97.5807C382.604 98.2578 380.854 99.0911 379.182 100.081C377.51 101.07 375.938 102.201 374.464 103.466C372.99 104.737 371.646 106.128 370.417 107.633C369.193 109.143 368.115 110.753 367.177 112.456C366.24 114.154 365.458 115.93 364.833 117.768C364.214 119.612 363.76 121.492 363.474 123.414C363.188 125.336 363.073 127.268 363.13 129.211C363.188 131.154 363.422 133.076 363.823 134.982C364.224 136.883 364.787 138.732 365.521 140.534C366.25 142.336 367.135 144.055 368.172 145.701C368.734 146.56 369.208 147.471 369.589 148.43C369.969 149.383 370.25 150.367 370.438 151.383C370.625 152.393 370.708 153.414 370.693 154.445C370.672 155.471 370.557 156.492 370.339 157.497C370.12 158.503 369.802 159.477 369.391 160.419C368.979 161.362 368.479 162.258 367.885 163.102C367.297 163.945 366.63 164.721 365.885 165.435C365.146 166.143 364.339 166.773 363.469 167.326C362.599 167.878 361.682 168.341 360.724 168.711C359.76 169.081 358.776 169.352 357.76 169.523C356.745 169.701 355.724 169.768 354.693 169.742C353.667 169.711 352.651 169.581 351.646 169.352C350.646 169.122 349.672 168.794 348.734 168.372C347.797 167.945 346.906 167.435 346.073 166.836C345.234 166.237 344.464 165.56 343.76 164.81C343.057 164.06 342.438 163.242 341.896 162.367C340.37 159.966 339.01 157.471 337.823 154.888C336.63 152.305 335.615 149.648 334.776 146.93C333.943 144.211 333.286 141.445 332.823 138.638C332.354 135.831 332.073 133.008 331.984 130.159C331.896 127.315 331.995 124.477 332.286 121.648C332.578 118.815 333.052 116.018 333.719 113.253C334.38 110.482 335.229 107.773 336.255 105.117C337.281 102.466 338.479 99.888 339.854 97.3984C341.224 94.9036 342.755 92.513 344.448 90.2214C346.135 87.9349 347.974 85.7682 349.953 83.7214C351.938 81.6797 354.042 79.7786 356.281 78.0182C358.516 76.2526 360.859 74.6484 363.307 73.2005C365.755 71.7526 368.292 70.4766 370.912 69.3672C373.537 68.2578 376.219 67.3255 378.964 66.5755C381.708 65.8255 384.49 65.263 387.313 64.8828C390.135 64.5078 392.969 64.3203 395.813 64.3203C446.385 64.3203 476.297 120.393 449.729 162.289C446.771 166.956 435.531 171.706 428.255 167.096Z" fill="black"/>
<path d="M521.5 334.831H270.125C269.104 334.831 268.094 334.732 267.089 334.534C266.089 334.336 265.115 334.039 264.172 333.648C263.224 333.258 262.328 332.779 261.479 332.211C260.63 331.643 259.844 330.997 259.12 330.273C258.401 329.555 257.755 328.768 257.188 327.919C256.62 327.07 256.141 326.169 255.75 325.227C255.359 324.284 255.062 323.31 254.865 322.31C254.667 321.305 254.562 320.294 254.562 319.273C254.562 318.253 254.667 317.237 254.865 316.237C255.062 315.237 255.359 314.263 255.75 313.32C256.141 312.372 256.62 311.477 257.188 310.628C257.755 309.779 258.401 308.992 259.12 308.268C259.844 307.549 260.63 306.904 261.479 306.336C262.328 305.768 263.224 305.289 264.172 304.898C265.115 304.508 266.089 304.211 267.089 304.013C268.094 303.81 269.104 303.711 270.125 303.711H521.5C522.521 303.711 523.531 303.81 524.536 304.013C525.536 304.211 526.51 304.508 527.453 304.898C528.396 305.289 529.297 305.768 530.146 306.336C530.995 306.904 531.781 307.549 532.505 308.268C533.224 308.992 533.87 309.779 534.438 310.628C535.005 311.477 535.484 312.372 535.875 313.32C536.266 314.263 536.563 315.237 536.76 316.237C536.958 317.237 537.063 318.253 537.063 319.273C537.063 320.294 536.958 321.305 536.76 322.31C536.563 323.31 536.266 324.284 535.875 325.227C535.484 326.169 535.005 327.07 534.438 327.919C533.87 328.768 533.224 329.555 532.505 330.273C531.781 330.997 530.995 331.643 530.146 332.211C529.297 332.779 528.396 333.258 527.453 333.648C526.51 334.039 525.536 334.336 524.536 334.534C523.531 334.732 522.521 334.831 521.5 334.831Z" fill="#FC9D08"/>
<path d="M521.5 394.604H270.125C269.104 394.604 268.094 394.505 267.089 394.307C266.089 394.109 265.115 393.813 264.172 393.422C263.224 393.031 262.328 392.552 261.479 391.984C260.63 391.417 259.844 390.771 259.12 390.047C258.401 389.328 257.755 388.542 257.188 387.693C256.62 386.844 256.141 385.943 255.75 385C255.359 384.057 255.062 383.083 254.865 382.083C254.667 381.078 254.562 380.068 254.562 379.047C254.562 378.026 254.667 377.01 254.865 376.01C255.062 375.01 255.359 374.036 255.75 373.094C256.141 372.146 256.62 371.25 257.188 370.401C257.755 369.552 258.401 368.766 259.12 368.042C259.844 367.323 260.63 366.677 261.479 366.109C262.328 365.542 263.224 365.063 264.172 364.672C265.115 364.281 266.089 363.984 267.089 363.786C268.094 363.583 269.104 363.484 270.125 363.484H521.5C522.521 363.484 523.531 363.583 524.536 363.786C525.536 363.984 526.51 364.281 527.453 364.672C528.396 365.063 529.297 365.542 530.146 366.109C530.995 366.677 531.781 367.323 532.505 368.042C533.224 368.766 533.87 369.552 534.438 370.401C535.005 371.25 535.484 372.146 535.875 373.094C536.266 374.036 536.563 375.01 536.76 376.01C536.958 377.01 537.063 378.026 537.063 379.047C537.063 380.068 536.958 381.078 536.76 382.083C536.563 383.083 536.266 384.057 535.875 385C535.484 385.943 535.005 386.844 534.438 387.693C533.87 388.542 533.224 389.328 532.505 390.047C531.781 390.771 530.995 391.417 530.146 391.984C529.297 392.552 528.396 393.031 527.453 393.422C526.51 393.813 525.536 394.109 524.536 394.307C523.531 394.505 522.521 394.604 521.5 394.604Z" fill="#FC9D08"/>
<path d="M521.5 454.358H270.125C269.104 454.358 268.094 454.254 267.089 454.056C266.089 453.858 265.115 453.561 264.172 453.171C263.224 452.78 262.328 452.301 261.479 451.733C260.63 451.165 259.844 450.52 259.12 449.801C258.401 449.077 257.755 448.29 257.188 447.441C256.62 446.592 256.141 445.697 255.75 444.749C255.359 443.806 255.062 442.832 254.865 441.832C254.667 440.832 254.562 439.816 254.562 438.796C254.562 437.775 254.667 436.764 254.865 435.759C255.062 434.759 255.359 433.785 255.75 432.842C256.141 431.9 256.62 430.999 257.188 430.15C257.755 429.301 258.401 428.514 259.12 427.796C259.844 427.072 260.63 426.426 261.479 425.858C262.328 425.29 263.224 424.811 264.172 424.421C265.115 424.03 266.089 423.733 267.089 423.535C268.094 423.337 269.104 423.238 270.125 423.238H521.5C522.521 423.238 523.531 423.337 524.536 423.535C525.536 423.733 526.51 424.03 527.453 424.421C528.396 424.811 529.297 425.29 530.146 425.858C530.995 426.426 531.781 427.072 532.505 427.796C533.224 428.514 533.87 429.301 534.438 430.15C535.005 430.999 535.484 431.9 535.875 432.842C536.266 433.785 536.563 434.759 536.76 435.759C536.958 436.764 537.063 437.775 537.063 438.796C537.063 439.816 536.958 440.832 536.76 441.832C536.563 442.832 536.266 443.806 535.875 444.749C535.484 445.697 535.005 446.592 534.438 447.441C533.87 448.29 533.224 449.077 532.505 449.801C531.781 450.52 530.995 451.165 530.146 451.733C529.297 452.301 528.396 452.78 527.453 453.171C526.51 453.561 525.536 453.858 524.536 454.056C523.531 454.254 522.521 454.358 521.5 454.358Z" fill="#FC9D08"/>
</svg>
