<svg width="952" height="983" viewBox="0 0 952 983" fill="none" xmlns="http://www.w3.org/2000/svg">
<mask id="mask0_1435_199" style="mask-type:luminance" maskUnits="userSpaceOnUse" x="35" y="499" width="168" height="427">
<path d="M35 499.668H203V925.757H35V499.668Z" fill="white"/>
</mask>
<g mask="url(#mask0_1435_199)">
<path d="M191.771 926.241H45.5208C39.7917 926.241 35.1406 921.59 35.1406 915.861V510.105C35.1406 504.376 39.7917 499.73 45.5208 499.73H191.771C197.5 499.73 202.151 504.376 202.151 510.105V915.861C202.151 921.59 197.5 926.241 191.771 926.241ZM55.901 905.48H181.391V520.486H55.901V905.48Z" fill="#FC9D08"/>
</g>
<mask id="mask1_1435_199" style="mask-type:luminance" maskUnits="userSpaceOnUse" x="268" y="445" width="170" height="481">
<path d="M268.336 445H437.669V925.755H268.336V445Z" fill="white"/>
</mask>
<g mask="url(#mask1_1435_199)">
<path d="M426.273 926.238H280.029C274.294 926.238 269.648 921.587 269.648 915.858V455.806C269.648 450.072 274.294 445.426 280.029 445.426H426.273C432.008 445.426 436.654 450.072 436.654 455.806V915.858C436.654 921.587 432.008 926.238 426.273 926.238ZM290.404 905.478H415.893V466.186H290.404V905.478Z" fill="#FC9D08"/>
</g>
<mask id="mask2_1435_199" style="mask-type:luminance" maskUnits="userSpaceOnUse" x="519" y="365" width="168" height="561">
<path d="M519 365H687V925.755H519V365Z" fill="white"/>
</mask>
<g mask="url(#mask2_1435_199)">
<path d="M675.898 926.24H529.654C523.919 926.24 519.273 921.589 519.273 915.859V376.484C519.273 370.755 523.919 366.109 529.654 366.109H675.898C681.633 366.109 686.279 370.755 686.279 376.484V915.859C686.279 921.589 681.633 926.24 675.898 926.24ZM540.034 905.479H665.518V386.865H540.034V905.479Z" fill="#FC9D08"/>
</g>
<mask id="mask3_1435_199" style="mask-type:luminance" maskUnits="userSpaceOnUse" x="768" y="247" width="168" height="679">
<path d="M768.336 247.668H936.003V925.757H768.336V247.668Z" fill="white"/>
</mask>
<g mask="url(#mask3_1435_199)">
<path d="M925.294 926.24H779.044C773.315 926.24 768.664 921.589 768.664 915.859V258.99C768.664 253.255 773.315 248.609 779.044 248.609H925.294C931.023 248.609 935.674 253.255 935.674 258.99V915.859C935.674 921.589 931.029 926.24 925.294 926.24ZM789.424 905.479H914.914V269.37H789.424V905.479Z" fill="#FC9D08"/>
</g>
<path d="M136.048 343.713C133.298 343.713 130.558 342.629 128.517 340.478C124.569 336.322 124.741 329.749 128.897 325.806L286.871 175.848C291.032 171.905 297.6 172.077 301.543 176.233C305.491 180.39 305.324 186.957 301.162 190.905L143.188 340.864C141.183 342.765 138.61 343.713 136.048 343.713Z" fill="black"/>
<path d="M618.242 223.079C614.789 223.079 611.409 221.35 609.435 218.204C606.393 213.35 607.867 206.944 612.721 203.897L773.825 103.006C778.685 99.9645 785.086 101.433 788.127 106.293C791.174 111.152 789.7 117.558 784.841 120.6L623.742 221.491C622.034 222.563 620.127 223.079 618.242 223.079Z" fill="black"/>
<path d="M519.816 232.855C518.514 232.855 517.186 232.605 515.904 232.084L377.623 175.797C372.316 173.641 369.764 167.584 371.925 162.271C374.087 156.964 380.139 154.412 385.451 156.574L523.732 212.86C529.04 215.021 531.592 221.074 529.43 226.386C527.795 230.412 523.909 232.855 519.816 232.855Z" fill="black"/>
<path d="M99.7344 436.368C64.1198 436.368 35.1406 407.848 35.1406 372.796C35.1406 337.738 64.1198 309.223 99.7344 309.223C135.349 309.223 164.328 337.738 164.328 372.796C164.328 407.848 135.349 436.368 99.7344 436.368ZM99.7344 329.983C75.5625 329.983 55.901 349.186 55.901 372.796C55.901 396.405 75.5625 415.608 99.7344 415.608C123.906 415.608 143.568 396.405 143.568 372.796C143.568 349.186 123.901 329.983 99.7344 329.983Z" fill="black"/>
<path d="M331.711 208.751C296.096 208.751 267.117 180.236 267.117 145.178C267.117 110.121 296.096 81.6055 331.711 81.6055C367.326 81.6055 396.305 110.121 396.305 145.178C396.305 180.236 367.331 208.751 331.711 208.751ZM331.711 102.366C307.539 102.366 287.878 121.574 287.878 145.178C287.878 168.788 307.544 187.996 331.711 187.996C355.878 187.996 375.544 168.788 375.544 145.178C375.544 121.574 355.883 102.366 331.711 102.366Z" fill="black"/>
<path d="M571.258 302.767C535.643 302.767 506.664 274.251 506.664 239.194C506.664 204.142 535.643 175.621 571.258 175.621C606.872 175.621 635.852 204.142 635.852 239.194C635.852 274.251 606.872 302.767 571.258 302.767ZM571.258 196.382C547.086 196.382 527.424 215.59 527.424 239.199C527.424 262.803 547.086 282.012 571.258 282.012C595.43 282.012 615.091 262.803 615.091 239.199C615.091 215.59 595.43 196.382 571.258 196.382Z" fill="black"/>
<mask id="mask4_1435_199" style="mask-type:luminance" maskUnits="userSpaceOnUse" x="760" y="19" width="131" height="129">
<path d="M760.336 19.7539H891.003V147.665H760.336V19.7539Z" fill="white"/>
</mask>
<g mask="url(#mask4_1435_199)">
<path d="M825.104 146.9C789.49 146.9 760.516 118.379 760.516 83.3216C760.516 48.2695 789.49 19.7539 825.104 19.7539C860.724 19.7539 889.698 48.2695 889.698 83.3268C889.698 118.379 860.724 146.9 825.104 146.9ZM825.104 40.5143C800.938 40.5143 781.271 59.7174 781.271 83.3268C781.271 106.936 800.938 126.139 825.104 126.139C849.276 126.139 868.943 106.936 868.943 83.3268C868.943 59.7174 849.276 40.5143 825.104 40.5143Z" fill="black"/>
</g>
</svg>
