<svg width="641" height="745" viewBox="0 0 641 745" fill="none" xmlns="http://www.w3.org/2000/svg">
<mask id="mask0_1437_186" style="mask-type:luminance" maskUnits="userSpaceOnUse" x="0" y="0" width="641" height="739">
<path d="M0 0H641V739H0V0Z" fill="white"/>
</mask>
<g mask="url(#mask0_1437_186)">
<path fill-rule="evenodd" clip-rule="evenodd" d="M535.984 180.88L392.708 13.7396C391.552 11.375 390 9.1875 388.078 7.26563C383.474 2.60937 377.172 0 370.62 0H24.8438C11.25 0 0.21875 11.0313 0.21875 24.625V714.156C0.21875 727.75 11.25 738.781 24.8438 738.781H271.104C284.698 738.781 295.729 727.75 295.729 714.156C295.729 700.563 284.698 689.531 271.104 689.531H49.4688V49.25H345.844L344.984 196.859C344.932 203.411 347.521 209.714 352.151 214.37C356.781 219.026 363.057 221.635 369.609 221.635H492.74V295.51C492.74 309.104 503.771 320.141 517.365 320.141C530.958 320.141 541.99 309.104 541.99 295.51V197.01C541.99 190.854 539.724 185.214 535.984 180.88ZM443.49 344.766C334.766 344.766 246.479 433.047 246.479 541.771C246.479 650.495 334.766 738.781 443.49 738.781C552.214 738.781 640.495 650.495 640.495 541.771C640.495 433.047 552.214 344.766 443.49 344.766ZM443.49 394.016C525.026 394.016 591.245 460.234 591.245 541.771C591.245 623.307 525.026 689.531 443.49 689.531C361.953 689.531 295.729 623.307 295.729 541.771C295.729 460.234 361.953 394.016 443.49 394.016ZM418.859 502.714V640.276C418.859 653.87 429.896 664.901 443.49 664.901C457.083 664.901 468.115 653.87 468.115 640.276V502.714L499.953 534.557C509.557 544.161 525.172 544.161 534.776 534.557C544.38 524.953 544.38 509.339 534.776 499.734L460.896 425.859C451.297 416.229 435.682 416.229 426.078 425.859L352.198 499.734C342.594 509.339 342.594 524.953 352.198 534.557C361.802 544.161 377.417 544.161 387.021 534.557L418.859 502.714ZM98.724 467.896H197.229C210.823 467.896 221.854 456.865 221.854 443.271C221.854 429.677 210.823 418.641 197.229 418.641H98.724C85.1302 418.641 74.099 429.677 74.099 443.271C74.099 456.865 85.1302 467.896 98.724 467.896ZM98.724 369.391H295.729C309.323 369.391 320.359 358.359 320.359 344.766C320.359 331.172 309.323 320.141 295.729 320.141H98.724C85.1302 320.141 74.099 331.172 74.099 344.766C74.099 358.359 85.1302 369.391 98.724 369.391ZM98.724 270.885H246.479C260.073 270.885 271.104 259.854 271.104 246.26C271.104 232.667 260.073 221.635 246.479 221.635H98.724C85.1302 221.635 74.099 232.667 74.099 246.26C74.099 259.854 85.1302 270.885 98.724 270.885ZM394.385 172.38H463.828L394.849 91.9271L394.385 172.38Z" fill="#FC9D08"/>
</g>
<path d="M442.5 372C535.771 372 612 448.664 612 544C612 639.336 535.771 716 442.5 716C349.229 716 273 639.336 273 544C273 448.664 349.229 372 442.5 372Z" stroke="black" stroke-width="58"/>
</svg>
