<svg width="1000" height="1000" viewBox="0 0 1000 1000" fill="none" xmlns="http://www.w3.org/2000/svg">
<rect width="1000" height="1000" fill="white"/>
<path d="M314.451 11H125.26C62.156 11 11 62.1559 11 125.26V125.26C11 188.364 62.1559 239.52 125.26 239.52H500H864.954C933.463 239.52 989 295.057 989 363.566V363.566C989 432.074 933.463 487.612 864.954 487.612H500H135.184C66.5989 487.612 11 543.21 11 611.795V611.795C11 680.38 66.5989 735.979 135.184 735.979H863.989C933.031 735.979 989 791.948 989 860.989V860.989C989 930.031 933.031 986 863.989 986H27.0516" stroke="black" stroke-width="9"/>
</svg>
